<svg width="200" height="200" fill="none" xmlns="http://www.w3.org/2000/svg"><path d="M184.5 26.25c-2-2.5-100.5-6.25-106-2.75S74.313 87.138 76 109l-4 1.5c-10.4 2.4-22.5 23.834-27.25 34.25l2.75 1.5c-.693 1.312-1.179 1.923-2.25 2.75-11.297-3.604-16.136-4.797-21.75-5.25l-2-4-.5-.25-.75.75.5 2.75-1.75-.25-3.25-.5.25.75 1.25 1.25H15v.75c0 .2.833.917 1.25 1.25h-1v1l5.5 2.25 23.25 16 3.5 1.5 4.5.25 3.75-1L58.5 164l6-5.5-1.25 18.25 53.75 1-.5-19.25.25.25c3.029 3.214 4.748 4.953 8 7.75l3.75 2.25 4.5.5 4.5-1.25 5.75-3.25L154 157.5l7.75-6 1.5-.25 4.25-2v-.75l-1.25-.5 1.75-1.25-.5-.5h-1.75l1.25-1.5-.25-.5-4.75.75.25-3.5h-.75l-2 4.5c-5.629-.056-10.141.956-22 5.25l-3-3.5 1.5-1c-12.5-23.5-18.25-28.5-27.25-33.5 31.756 1.193 73-.25 74-.75s3.75-83.75 1.75-86.25Z" fill="#fff"/><path fill-rule="evenodd" clip-rule="evenodd" d="M185.496 37.988c0-.945-.072-10.728-.621-11.862 3.231-2.24-103.5-6.588-106.883-2.7-2.566 2.925-4.59 71.352-2.422 85.608a52.37 52.37 0 0 0-6.722 2.547c-9.297 4.284-19.9 23.823-24.139 33.147a.335.335 0 0 0 .127.423l2.303 1.485c-.9 1.422-1.656 2.385-1.953 2.277-4.995-1.683-15.849-5.571-21.474-5.202-.521 0-1.386-3.006-1.89-3.888-.503-.882-1.017-.819-1.412-.405-.666.693-.163 2.601-.136 3.357-1.044-.09-3.663-.9-4.5-.648a.674.674 0 0 0-.433.426.663.663 0 0 0 .091.6c.231.348.54.638.9.846a3.435 3.435 0 0 0-1.188 0 .71.71 0 0 0-.534.374.702.702 0 0 0 .004.652c.28.45.678.814 1.151 1.053a.962.962 0 0 0-.783.333c-1.304 1.863 4.96 3.06 5.643 3.528.684.468 18.99 14.859 25.849 16.866 8.532 2.511 10.962-1.575 16.893-7.11l.747-.765c-.064 2.115-.802 9.63-1.108 14.148-.233 3.474-.215 3.996.288 4.059 1.297.162 42.48.9 51.993.954 1.674 0 1.8 0 1.89-.198.531-1.053-.486-17.298-.486-18.9l.099-.072c8.694 9.378 11.754 12.087 19.476 9.81 6.894-2.043 25.146-16.452 25.875-16.947.729-.495 6.966-1.647 5.652-3.519a.973.973 0 0 0-.783-.342 2.887 2.887 0 0 0 1.152-1.053.7.7 0 0 0-.531-1.017 3.439 3.439 0 0 0-1.188.045c.341-.217.629-.506.846-.846.225-.423.135-.9-.333-1.026-.9-.225-3.6.603-4.5.648 0-.747.531-2.7-.135-3.357a.71.71 0 0 0-.954-.153c-.702.468-1.098 2.295-1.728 3.6-.099.189-.405.81-.621.801-5.625-.369-16.434 3.492-21.474 5.202-.45.153-2.259-2.7-2.511-3.132.425-.24.823-.523 1.188-.846.099-.207-.198-.72-.459-1.206-2.079-3.807-11.808-19.359-14.337-22.401a47.662 47.662 0 0 0-11.529-9.684c29.826.9 69.3 1.179 72.792-.486a.65.65 0 0 0 .414-.468c.522-3.6 2.7-50.58 2.286-74.466l.108-.09Zm-106.82-14.21c5.624-2.647 100.7.557 105.479 2.7.486 2.114.54 9 .558 11.168-22.059 1.224-86.84.738-107.792-.954.521-7.578 1.124-12.627 1.754-12.915Zm2.213 84.509a6.805 6.805 0 0 0 3.934 3.87c2.08.661 4.252.986 6.434.963 3.222-.099 4.5-1.017 6.3-4.23a43.423 43.423 0 0 1 9.9 3.843c-1.494 5.697-4.788 13.617-9.728 16.785-4.266 2.7-10.567 2.835-14.572-.414-5.4-4.302-9-11.7-10.898-18.378a46.343 46.343 0 0 1 8.63-2.439Zm4.285-.054a12.337 12.337 0 0 0-4.924-3.852 32.138 32.138 0 0 1-.612-5.202c-.054-1.233.054-.98-.495-1.386-4.563-3.366-1.403-6.147-.153-5.697a3.446 3.446 0 0 1 1.8 2.322.297.297 0 0 0 .334.243c.9-.117 4.419-4.95 4.869-5.778 2.799 3.537 11.925 4.32 14.75 2.502.441.9.558 4.356.567 5.904a53.598 53.598 0 0 1-3.438 9.54c-1.403.108-3.78 1.431-4.977 2.151-4.67-2.376-7.614-.621-7.721-.747Zm-22.078 51.165c-5.93 5.4-8.27 9.333-16.47 6.831-6.542-1.962-24.93-16.461-25.65-16.938a4.781 4.781 0 0 0-.971-.387c-.432-.144-4.986-1.476-4.5-2.178.26-.387 3.338.72 3.644.828a.34.34 0 0 0 .427-.443.342.342 0 0 0-.166-.187c-.099 0-3.789-1.395-4.212-2.25 0-.063 0-.072.054-.09.82-.171 3.546.747 4.32 1.044a.338.338 0 0 0 .405-.193.342.342 0 0 0-.134-.428c-.352-.144-3.114-1.251-3.753-2.115-.522-.711 3.95.792 4.599.45a.618.618 0 0 0 .252-.567c0-.585-.45-2.538-.063-2.943 0 0 .063-.072.099-.072h.044c.828.657 1.332 4.617 2.7 4.5 5.4-.387 16.2 3.33 21.286 4.995.558.189 1.43-.9 2.457-2.475 4.662 3.015 14.022 9.162 16.578 11.637-.424.513-.775.873-.946.981Zm74.601-8.1c1.8-.585 7.317-2.529 12.654-3.816 7.992-1.935 8.415-.792 9.171-1.35.9-.666 1.386-3.267 2.061-4.203.18-.252.198-.189.279-.108.137.234.191.506.153.774 0 1.746-.801 2.961.675 2.781 1.143-.144 4.347-1.017 3.951-.495-.549.756-2.844 1.8-3.717 2.106a.345.345 0 0 0-.146.419.338.338 0 0 0 .156.177.337.337 0 0 0 .233.034c-.36.135 3.6-1.35 4.383-1.017.27.585-4.113 2.277-4.203 2.313a.342.342 0 0 0 .234.639c.225-.18 3.429-1.152 3.6-.828.171.324-.63.738-.963.9-1.53.738-3.996 1.305-4.5 1.656-.675.45-19.125 14.976-25.668 16.956-7.497 2.295-10.485-.36-19.044-9.459 2.475-1.755 13.5-8.226 17.649-10.8 1.341 2.016 2.385 3.501 3.042 3.321Zm-16.47-27.9c2.754 3.339 13.95 21.6 14.562 23.256-1.503 1.107-16.434 9.756-19.188 11.7.297-6.237.108-16.425.261-18.162a.134.134 0 0 0-.135-.135.132.132 0 0 0-.095.04.135.135 0 0 0-.04.095c-1.179 9.081.324 35.019.054 37.26-3.393.09-48.528-.783-53.1-.981-.024-.44-.024-.882 0-1.323.514-13.041 1.512-6.3.82-27.369-.216-6.687-.379-6.84-.423-9.261a.133.133 0 0 0-.04-.095.132.132 0 0 0-.096-.04.133.133 0 0 0-.095.04.133.133 0 0 0-.04.095c-.116 6.093.18 15.444.54 19.17-3.6-3.285-15.3-10.8-18.81-12.978 4.167-9 14.553-28.404 23.662-32.625.98-.459 1.953-.9 2.907-1.251 1.8 6.813 5.4 14.274 10.8 18.738 4.203 3.456 10.8 3.429 15.3.522 5.111-3.276 8.459-11.25 10.007-17.181a48.34 48.34 0 0 1 13.149 10.485Zm61.2-11.052c-3.6 1.602-44.1 1.215-73.935.324a36.659 36.659 0 0 0-10.61-4.383 55.163 55.163 0 0 0 3.914-10.314c.351-.306 2.907-6.885 2.916-9.072 0-8.27-6.83-13.698-15.767-12.33-2.72.4-5.27 1.557-7.362 3.34a12.004 12.004 0 0 0-4.924 8.936c-.099.963-.17 3.267.19 3.87-1.395 1.962 0 4.005 2.24 5.661.1 3.042.27 6.363 1.549 9.414-1.431.252-2.88.576-4.357.99-1.584-10.16-.9-50.4.576-71.694 22.5 1.98 84.897 2.61 108.153 1.296.333 23.742-2.025 69.948-2.565 73.998l-.018-.036Z" fill="#2A344A"/><path fill-rule="evenodd" clip-rule="evenodd" d="M86.715 27.935c-1.251-1.539-4.554-.954-4.5 1.746.063 1.872 1.035 2.7 2.7 2.655a2.278 2.278 0 0 0 2.367-2.538 2.754 2.754 0 0 0-.567-1.863Zm-1.8 3.69c-1.215 0-1.854-.54-1.89-1.97a1.854 1.854 0 0 1 .504-1.342 2.16 2.16 0 0 1 2.799 0c.378.407.606.931.648 1.485a1.802 1.802 0 0 1-2.07 1.8l.009.027Zm10.449-3.627a2.538 2.538 0 0 0-4.5 1.746c.054 1.8.963 2.7 2.7 2.655a2.278 2.278 0 0 0 2.367-2.6 2.754 2.754 0 0 0-.567-1.8Zm-1.8 3.69c-1.215 0-1.854-.53-1.89-1.97a1.854 1.854 0 0 1 .504-1.342 2.16 2.16 0 0 1 2.79 0c.371.386.6.888.648 1.422a1.8 1.8 0 0 1-2.061 1.89h.009Zm10.584-3.843a2.702 2.702 0 0 0-3.735-.162 2.698 2.698 0 0 0-.747 1.908c.054 1.8.963 2.7 2.7 2.655a2.26 2.26 0 0 0 2.367-2.556 2.768 2.768 0 0 0-.585-1.845Zm-1.8 3.69c-1.224 0-1.854-.54-1.89-1.962a1.887 1.887 0 0 1 .504-1.35 2.176 2.176 0 0 1 2.79 0c.385.4.617.922.657 1.476a1.798 1.798 0 0 1-.605 1.403 1.8 1.8 0 0 1-1.465.433h.009ZM86.742 156.698c-.594-.09-3.69.09-3.663.54a14.642 14.642 0 0 0 0 3.528.414.414 0 0 0 .12.169.411.411 0 0 0 .186.092c1.261.11 2.532.056 3.78-.162a.343.343 0 0 0 .189-.144c.306-.468 0-3.222-.28-3.753a.424.424 0 0 0-.332-.27Zm-5.31-5.184c-.594-.09-3.7.09-3.672.54a15.157 15.157 0 0 0-.045 3.528.414.414 0 0 0 .12.169.411.411 0 0 0 .186.092c1.261.111 2.532.056 3.78-.162a.299.299 0 0 0 .189-.144c.306-.468 0-3.222-.27-3.753a.456.456 0 0 0-.288-.27Zm5.265-1.071a.376.376 0 0 0 .189-.144c.306-.468 0-3.222-.28-3.753a.421.421 0 0 0-.287-.27c-.594-.09-3.69.09-3.663.54a14.706 14.706 0 0 0 0 3.537.408.408 0 0 0 .306.252c1.246.106 2.502.052 3.735-.162Zm5.283.558c-.603-.099-3.7.099-3.672.54a15.157 15.157 0 0 0-.045 3.528.414.414 0 0 0 .12.169.411.411 0 0 0 .186.092c1.261.106 2.531.052 3.78-.162a.343.343 0 0 0 .189-.144c.306-.477 0-3.222-.27-3.762a.457.457 0 0 0-.288-.261Zm6.786 5.148c-.585-.099-3.69.081-3.663.531a14.665 14.665 0 0 0 0 3.537.408.408 0 0 0 .306.252c1.261.115 2.532.061 3.78-.162a.343.343 0 0 0 .189-.144c.306-.468 0-3.222-.28-3.753a.391.391 0 0 0-.332-.261Zm-.513-6.336a.427.427 0 0 0 .189-.144c.297-.477 0-3.231-.28-3.762a.45.45 0 0 0-.288-.261c-.593-.09-3.698.081-3.671.54a14.786 14.786 0 0 0 0 3.528.397.397 0 0 0 .306.261 14.63 14.63 0 0 0 3.744-.162Zm5.463.585c-.594-.099-3.69.081-3.663.54a14.54 14.54 0 0 0 0 3.528.439.439 0 0 0 .306.261c1.261.11 2.532.056 3.78-.162a.344.344 0 0 0 .189-.153c.306-.468 0-3.213-.27-3.753a.432.432 0 0 0-.342-.261Zm-13.167-55.26a.135.135 0 0 0 0-.27 5.606 5.606 0 0 0-5.04.36.137.137 0 0 0 .003.254.137.137 0 0 0 .105-.002 19.662 19.662 0 0 1 4.932-.342Zm4.698.891c1.397.33 2.743.845 4.005 1.53a.137.137 0 0 0 .22-.06.139.139 0 0 0-.008-.104.136.136 0 0 0-.032-.043 3.771 3.771 0 0 0-1.872-1.359 4.5 4.5 0 0 0-2.286-.243.143.143 0 0 0-.102.221.144.144 0 0 0 .075.058Zm-6.372 2.304v-.963a.352.352 0 0 0-.693 0v.9a.348.348 0 1 0 .693.063Zm7.074.297c0 .288-.072.495-.117.783a.345.345 0 1 0 .684.1c0-.289.072-.496.108-.784a.343.343 0 0 0-.424-.404.342.342 0 0 0-.251.305Zm-5.85 4.707c.504.486 2.313.792 2.817.225.792-.9 0-5.4-.28-5.526a.135.135 0 0 0-.206.162c-.135-.26.369 4.428 0 4.914a3.343 3.343 0 0 1-2.151 0 .14.14 0 0 0-.106-.03.144.144 0 0 0-.074.255Zm-1.8 1.854a.133.133 0 0 0-.096.04.133.133 0 0 0-.04.095.136.136 0 0 0 .135.135c.63.046 1.242.22 1.8.513a5.947 5.947 0 0 1 1.45 1.224.138.138 0 0 0 .075.074c.016.006.034.01.052.009a.135.135 0 0 0 .126-.086.133.133 0 0 0 .01-.052 2.703 2.703 0 0 0-3.512-1.952Z" fill="#2A344A"/><path fill-rule="evenodd" clip-rule="evenodd" d="M129.518 47.167a9.54 9.54 0 0 0-7.497 3.087c-3.024 3.276-3.753 8.451-3.699 11.178.216 8.451 2.871 14.95 11.286 14.77a9.784 9.784 0 0 0 7.2-3.295c5.418-6.318 4.365-25.398-7.29-25.74Zm.063 26.901a7.599 7.599 0 0 1-6.147-2.42c-1.629-1.89-2.7-5.068-2.799-10.27a16.125 16.125 0 0 1 2.043-8.27 7.609 7.609 0 0 1 6.795-3.835c11.844-.234 13.059 25.038.108 24.795Zm-6.246 7.173a1.921 1.921 0 0 0-1.99 1.194 1.916 1.916 0 0 0-.134.813 1.882 1.882 0 0 0 3.357 1.251c.666-1.485.324-2.853-1.233-3.258Zm12.069-.144a1.908 1.908 0 0 0-2.124 1.998 2.113 2.113 0 0 0 .585 1.494c.9.846 2.466.477 2.772-.243.648-1.449.297-2.835-1.233-3.249ZM97.757 64.06c.072-1.746 1.926-14.886 2.025-15.3a.478.478 0 0 0-.288-.612.486.486 0 0 0-.603.288c-1.116 2.502-3.717 12.951-3.357 16.047.019.43.191.839.486 1.152 1.125 1.134 2.853 1.296 4.446 1.287 2.34-.054 5.175-.288 7.569-.53.031 3.038.332 6.068.9 9.053a.458.458 0 0 0 .143.329.479.479 0 0 0 .334.13.48.48 0 0 0 .459-.477 49.26 49.26 0 0 0 .486-9.297c.907-.085 1.808-.22 2.7-.405a.498.498 0 0 0 .243-.333.435.435 0 0 0-.126-.414.563.563 0 0 0-.414-.135c0-.225-.054-.17-.099 0l-.027.054-2.331-.08a56.416 56.416 0 0 0-.9-9.487.478.478 0 0 0-.486-.459.485.485 0 0 0-.468.486 53.95 53.95 0 0 0-.468 9.36c-6.516-.279-9.207.225-10.224-.657Zm62.82.963c-.162-.153-.225-.126-2.844-.216a55.689 55.689 0 0 0-.9-9.477.475.475 0 0 0-.477-.477.474.474 0 0 0-.477.477 53.758 53.758 0 0 0-.468 9.37c-1.278 0-2.484-.109-3.105-.082-5.931.198-7.2-.612-7.119-.53.072-1.747 1.926-14.878 2.025-15.3a.479.479 0 0 0-.125-.525.468.468 0 0 0-.351-.123.478.478 0 0 0-.424.332c-1.116 2.457-3.717 12.906-3.366 16.002.025.431.196.841.486 1.161 1.125 1.134 2.853 1.287 4.446 1.278 2.331-.054 5.166-.279 7.569-.53.033 3.038.335 6.068.9 9.053a.458.458 0 0 0 .143.329.479.479 0 0 0 .514.094.458.458 0 0 0 .279-.44 48.44 48.44 0 0 0 .495-9.298c.907-.08 1.809-.215 2.7-.405a.465.465 0 0 0 .205-.324.462.462 0 0 0-.106-.369Zm-31.122 20.574c-3.42.081-6.561 1.287-8.406 4.176a.47.47 0 0 0 .207.76.474.474 0 0 0 .513-.139c1.854-1.61 5.247-2.403 7.731-2.448 2.214 0 6.192.576 7.902 1.962a.46.46 0 0 0 .329.193.463.463 0 0 0 .478-.275.465.465 0 0 0-.114-.539c-1.431-2.133-4.437-3.753-8.64-3.69Z" fill="#4E6AF3"/><path fill-rule="evenodd" clip-rule="evenodd" d="M131.728 61.163a22.566 22.566 0 0 0 3.087-4.266.474.474 0 0 0 .11-.518.479.479 0 0 0-.26-.256.47.47 0 0 0-.516.117 19 19 0 0 0-4.167 3.366 23.417 23.417 0 0 0-4.392-3.015.478.478 0 0 0-.639.702 21.557 21.557 0 0 0 3.447 4.005 22.893 22.893 0 0 0-3.096 4.329.468.468 0 0 0 .018.666.468.468 0 0 0 .666-.018 21.072 21.072 0 0 0 4.14-3.42 22.58 22.58 0 0 0 4.401 3.06.46.46 0 0 0 .333.14.465.465 0 0 0 .333-.14.48.48 0 0 0 0-.666 19.626 19.626 0 0 0-3.465-4.086ZM36.42 100.643a.515.515 0 0 0 .267.3.522.522 0 0 0 .4.024.528.528 0 0 0 .324-.666c-3.6-11.16-4.284-13.563-6.3-19.737a1.333 1.333 0 1 0-2.502.9c6.12 16.353 5.517 13.158 7.812 19.179Zm2.602 12.474c5.607 1.917 7.2-5.508 3.474-6.993-5.166-2.07-7.641 5.445-3.474 6.993Zm3.348-5.202c1.08 1.476 0 4.554-2.817 3.6-3.564-1.08.054-7.389 2.817-3.6Zm8.658-19.116a.531.531 0 1 0 1.044-.144c-.756-7.902-.828-9.216-2.277-18.585a1.332 1.332 0 0 0-2.62.486c.532 2.655 3.475 16.497 3.853 18.243Zm-.837 8.685c.972.792 2.42 1.107 4.158-.09 3.897-1.656 2.187-6.3-.963-6.723-4.788-.531-5.526 4.914-3.195 6.813Zm2.979-5.094a2.358 2.358 0 0 1 .837 4.365c-1.89.819-3.16-.054-3.357-1.8a2.177 2.177 0 0 1 2.52-2.565Z" fill="#4E6AF3"/></svg>