<svg width="250" height="250" fill="none" xmlns="http://www.w3.org/2000/svg"><path d="M165 107c-3.052-1.11-8.311-1.594-29-2l-2 2.5 14 31.5c9.374 10.44 12.962 17.686 16.5 33 1.341-25.007 1.931-39.083.5-65Z" fill="#4E6AF3"/><path d="m49.002 106-.502 34.5 2 3c9-9 14.48-14.166 28-19.5l2-.5 3-18.5h-2l-32.498 1Z" fill="#4E6AF3" stroke="#2A344A" stroke-width=".1"/><path fill-rule="evenodd" clip-rule="evenodd" d="M38.01 53.673a3.525 3.525 0 0 1 2.602-.693 2.563 2.563 0 0 1 1.781 1.187 3.1 3.1 0 0 1 .31 1.34 2.813 2.813 0 0 1-4.036 2.22 2.499 2.499 0 0 1-.657-4.054Zm.38 2.563a1.876 1.876 0 0 0 3.374-.758c0-.286-.039-.571-.117-.846a1.786 1.786 0 0 0-3.12-.49 1.861 1.861 0 0 0-.138 2.094Zm-8.05-2.29a3.463 3.463 0 0 1 2.602-.693 2.5 2.5 0 0 1 1.769 1.188c.207.416.313.875.31 1.34A2.8 2.8 0 0 1 30.997 58a2.5 2.5 0 0 1-.657-4.054Zm.38 2.563a1.862 1.862 0 0 0 3.362-.758 2.351 2.351 0 0 0-.118-.846 1.775 1.775 0 0 0-3.107-.49 1.863 1.863 0 0 0-.138 2.094Zm-8.137-2.288a3.475 3.475 0 0 1 2.602-.692 2.6 2.6 0 0 1 1.78 1.187c.202.418.308.876.31 1.34a2.812 2.812 0 0 1-4.035 2.22 2.5 2.5 0 0 1-.657-4.055Zm.379 2.564a1.874 1.874 0 0 0 3.375-.758A1.825 1.825 0 0 0 23.1 54.69a1.863 1.863 0 0 0-.139 2.094ZM126.123 95.73a.928.928 0 0 1-.901-.571.921.921 0 0 1-.07-.37l-.039-1.087a.947.947 0 0 1 .233-1.038.951.951 0 0 1 1.05-.17c.624.302.618.84.608 2.317a.938.938 0 0 1-.881.919Zm-14.484-.71a.95.95 0 0 1-.97-.904c-.063-1.762-.085-2.374.658-2.6a.936.936 0 0 1 1.173.62c.078.635.101 1.274.068 1.912a.938.938 0 0 1-.929.971Zm5.431 7.461a.21.21 0 0 1-.168-.2.211.211 0 0 1 .154-.212 13.636 13.636 0 0 0 3.555-.615c-.572-4.832-.75-5.977-.912-9.11a.212.212 0 0 1 .412-.015c.566 2.172.979 4.38 1.236 6.61.174 1.024.211 2.065.11 3.098-.359.801-3.458.548-4.387.444Zm1.694 7.182a.218.218 0 0 1-.095.005.217.217 0 0 1-.176-.202.219.219 0 0 1 .018-.094.214.214 0 0 1 .238-.121 4.03 4.03 0 0 0 2.602-2.119c.21-.771.25-.347-3.463-.653-2.409-.214-2.508-.173-2.245-.52a17.734 17.734 0 0 1 6.324-.137c.485.282.743 1.549-.258 2.598a4.314 4.314 0 0 1-2.945 1.243Zm-13.93-.943a2.824 2.824 0 0 1 2.634-2.27c1.674-.06 3.595 1.21 3.198 3.051-1.016 4.501-6.731 2.065-5.832-.781Z" fill="#2A344A"/><path fill-rule="evenodd" clip-rule="evenodd" d="M37.744 199.812c-15.735-11.948-14.565-42.347-10.337-63.798.304-1.661.7-3.304 1.188-4.92.324-.252.69-.443 1.08-.564-1.61-1.344-5.696-6.852-4.206-8.206.691-.612 1.945-1.582 2.725-1.11a.975.975 0 0 1 .343-.562c.669-.537 1.854-1.317 2.695-1.247.162-1.069.02-4.366.148-5.321.177-1.345.089-2.43 1.414-3.14.528-.281 1.84.01 2.4 2.417.193.843.808 3.723 1.401 6.691 1.381 1.552 1.42 8.243 1.399 8.369a4.645 4.645 0 0 1 2.054.089 12.164 12.164 0 0 1 1.532 1.934c-.398-17.184-.503-31.727.403-32.284 1.225-.72 18.067-1.268 39.31-1.486-4.924-6.217-.022-16.797 7.096-18.864 1.002-1.387.006.175 3.93-4.843a22.363 22.363 0 0 1 24.543-13.306c9.069 1.791 17.886 10.534 19.367 25.44 4.984 1.95 8.056 6.73 6.678 11.946 15.928.484 27.69 1.316 28.971 2.522 1.889 1.758 1.411 65.691-1.494 89.534 2.094 3.29 23.638 38.284 23.917 42.252a74.1 74.1 0 0 1 .284 7.982c-.806 4.757-167.972 6.225-169.29 2.569a71.125 71.125 0 0 1-.325-9.107c-.495-.207-.358-.925-.215-1.48.96-3.975 7.91-19.907 12.989-31.507ZM27.17 122.326c-.193.11-.381.229-.562.358-.488.355-.59.321-.426 1.053.265 1.104 1.216 2.896 1.958 2.995 1.25-.044.529-2.72-.041-3.976-.367-.825-.353-.763-.929-.43Zm4.106-2.385c-.547-.243-1.768.589-2.463 1.101a.63.63 0 0 0-.194.507c.347.69.62 1.414.814 2.16.979 1.491 2.588 2.41 3.172.913-2.269.206-3.616-2.16-.888-4.221a1.378 1.378 0 0 0-.441-.46Zm1.914-8.073c-.796.491-.68 1.275-.804 2.355-.125 1.08.177 4.997-.268 5.839a4.003 4.003 0 0 1 3.478-.674c-1.502-6.351-1.446-7.254-2.406-7.52Zm3.675 12.24c-.051-1.437-.503-3.572-1.912-3.81-1.724-.301-5.242 2.426-3.29 3.507a4.1 4.1 0 0 0 2.22.184c.213-.008.712.312-.892.582-.532 1.557-2.248 1.156-3.405-.079.142 1.508-.245 2.948-1.747 2.564a18.345 18.345 0 0 0 2.612 3.096c.833-.117 6.654-1.75 6.778-1.792.123-.042-.235-2.731-.364-4.252Zm2.845 5.09a4.748 4.748 0 0 0-1.774.063c.83 1.859 3.363 7.697 3.051 8.421a.812.812 0 0 1-1.547-.245 70.189 70.189 0 0 0-3.17-7.904c-.957.184-1.999.433-2.99.681.407 1.599 2.063 8.432 1.574 9.112a.81.81 0 0 1-1.354-.014.812.812 0 0 1-.128-.508c-.03-.862-1.238-7.048-1.536-8.038-.118-.146.109-.104-1.007.173a6.9 6.9 0 0 0-1.602.67c-.313 1.049-.792 3.405-1.087 4.604-4.658 24.131-5.522 60.322 18.185 66.784 11.81 3.232 21.529-12.223 25.901-27.501 1.112-3.917 2.073-7.841 2.731-11.129a.196.196 0 0 1 .03-.074.197.197 0 0 1 .055-.058.217.217 0 0 1 .073-.032.215.215 0 0 1 .155.028.214.214 0 0 1 .089.129.206.206 0 0 1 .001.08c-1.27 8.238-3.153 16.835-7.115 24.306.124-.005 48.03 3.17 53.666 2.669 3.349-1.845 11.345-7.383 17.114-7.638a.18.18 0 0 1 .08.004c.026.006.05.019.071.036a.19.19 0 0 1 .068.14c.015.424-.3.01-3.202 1.039-4.79 1.784-11.936 6.241-16.16 9.168-4.077 3.184-11.2 9.329-12.113 11.1.175.331.485.971.887 1.72a45.633 45.633 0 0 1 5.079-2.783.817.817 0 0 1 .826 1.409 44.862 44.862 0 0 0-5.166 2.823l.803 1.473c.939-.322 5.552-2.512 6.153-2.846a.814.814 0 0 1 1.157.247.812.812 0 0 1 .117.421c.035.962-5.009 2.992-6.601 3.599.218.366.46.717.725 1.05 8.918 2.097 37.839-2.396 44.252-10.58a38.032 38.032 0 0 0 8.024-26.552 57.26 57.26 0 0 0-9.03-26.708 78.935 78.935 0 0 0-6.794-8.514c-.022.71-.085 1.418-.187 2.121-2.103 14.021-11.567 18.372-24.702 13.761-5.256-1.839-4.708-5.411-6.078-10.528a27.781 27.781 0 0 1-.588-9.848c-1.75 3.54-4.81 8.589-8.397 10.08-.54 4.522-2.417 9.767-5.705 10.872-8.28 2.796-17.343.142-22.548-9.392-4.483-8.233-4.136-13.974-1.602-22.882a84.998 84.998 0 0 0-27.726 19.435c5.343 7.115 8.403 11.559 11.552 20.265a.205.205 0 0 1-.115.267.206.206 0 0 1-.267-.116c-5.715-13.681-22.013-34.777-22.128-34.86Zm62.441 80.931a4.229 4.229 0 0 0-.715.301c-3.398 1.509-2.712 1.122-5.713 3.955a4.777 4.777 0 0 0 1.545.521c1.287-1.797 2.393-3.037 4.62-3.392a9.14 9.14 0 0 1 2.186-.077.21.21 0 0 1 .168.2.211.211 0 0 1-.154.212 17.92 17.92 0 0 0-3.794 1.286c-.38.226-1.35 1.098-2.126 1.751 2.186-.077 10.919-1.764 12.711-2.028a37.894 37.894 0 0 1-3.591-6.339c-1.446.139-4.813.397-6.005 1.014-2.249 1.131-5.17 3.411-6.057 5.519-.208.483-.299.749.036 1.037a7.35 7.35 0 0 1 5.727-4.281 6.36 6.36 0 0 1 1.133-.141.252.252 0 0 1 .09.013.227.227 0 0 1 .155.204.223.223 0 0 1-.012.089.21.21 0 0 1-.045.078.216.216 0 0 1-.072.055.239.239 0 0 1-.087.023Zm46.003-71.418a75.782 75.782 0 0 1 7.559 9.263 58.97 58.97 0 0 1 8.663 22.006c1.476-23.193 1.443-59.289.342-62.827-1.284-.93-12.823-1.47-28.08-1.741.479 7.826 3.153 10.933 5.589 18.563 1.392 4.341 5.6 8.357 5.927 14.736Zm-66.875-33.269c-16.602.241-29.645.655-31.755 1.13-.638 2.812-.733 18.4-.535 34.541.619.853 1.118 1.523 1.418 1.888a85.954 85.954 0 0 1 28.078-19.41 68.904 68.904 0 0 0 2.794-18.149Zm-38.69-6.44c-.603 2.76-.404 16.787.007 32.92 1.634 2.331 3.758 5.432 5.419 7.812-.188-16.166-.056-31.443.642-33.644.292-.936 8.359-1.311 32.675-1.638.115-2.38.201-4.535.446-6.795-20.38.225-36.81.722-39.19 1.344ZM82.023 84.54c-4.903 8.793 2.772 18.488 12.133 14.778a8.337 8.337 0 0 0 4.854-4.212 11.573 11.573 0 0 0-5.53-14.813c-4.932-2.214-8.93-.333-11.457 4.247Zm40.489-22.153a21.5 21.5 0 0 0-28.827 8.905 19.687 19.687 0 0 0-2.057 6.177c1.685.066 3.342.453 4.881 1.14 3.343-7.298 8.292-13.04 16.236-14.399a23.851 23.851 0 0 1 15.098 2.478 17.692 17.692 0 0 0-5.331-4.3Zm9.011 24.77c-2.45 1.464-9.718 1.785-22.827-.338-.478-.07-2.675-8.048-3.493-8.882 0 0-.822 3.607-1.46 7.832a11.403 11.403 0 0 1-.37 9.982c.079 4.251.388 8.495.927 12.713-3.634-.909-6.26-2.642-8.735-7.52a11.245 11.245 0 0 0 8.245-9.879 11.258 11.258 0 0 0-.526-4.504 12.829 12.829 0 0 0-5.98-7.08 11.762 11.762 0 0 0-8.095-1.1c7.78-.364 14.288 8.547 10.616 17.133-1.572 3.634-6.686 5.442-10.59 5.38 1.619.518 3.34.637 5.015.347a10.36 10.36 0 0 0 10.092 8.747 46.54 46.54 0 0 1-1.083 12.459c-.641 3.062 5.669 14.157 4.947 22.338 4.086-1.871 12.492-12.051 6.936-24.424-.731-.174-.718-.162-.737-.349-.167-1.508-.164-2.133-.202-3.208-.029-.812 7.005 1.427 13.498-7.334 3.46-4.689 3.607-12.536 3.989-18.303a17.524 17.524 0 0 0-.167-4.01Zm8.141 1.374a11.355 11.355 0 0 0-3.549-2.375c.455 5.75.037 11.594.185 17.505 5.888-2.536 8.353-10.254 3.364-15.13Zm53.958 142.398c-.518-4.01-23.647-41.686-23.64-41.862 2.782-23.751 2.947-84.17 1.373-89.042-1.289-1.068-12.932-1.742-28.731-2.118a10.48 10.48 0 0 1-6.034 6.181l.017.487c13.769.274 24.494.78 27.662 1.593 1.061.275 1.17.534 1.286.98.915 3.582 1.094 40.974-.854 64.984 1.388 10.882-.906 21.296-7.915 30.3-7.669 9.792-41.398 13.093-45.492 10.874-.122.092-12.073 3.081-14.139 2.692-1.007-.202-2.691-.767-3.063-1.73-.429-1.16 1.018-3.025 1.874-3.919a15.592 15.592 0 0 1 4.967-3.491c1.416-.626 4.493-.623 6.156-.657-.108-.209-.189-.381-.256-.491a.878.878 0 0 1-.031-.887c1.17-2.28 11.305-10.609 13.583-12.316-9.117.037-43.38-2.209-52.493-2.748-4.855 8.053-12.677 16.711-21.81 14.197a24.511 24.511 0 0 1-7.54-3.484c-5.401 12.387-12.425 28.359-13 31.569 14.353 4.03 157.135 3.792 168.08-1.112ZM25.688 241.705c3.67 2.996 160.289 1.078 167.948-2.672.121-1.167-.202-5.696-.245-6.883-11.1 4.41-153.501 4.784-168.054.749-.055 2.939.063 5.88.35 8.806ZM211.1 38.655c-2.373 9.06-11.909 8.96-12.996 9.668.004.104-1.878 8.54-2.717 9.72-.469.654-1.662.446-2.453.328-1.856-.3-3.997-.339-5.602-1.525-.409-.31-.226-1.633-.137-2.085a41.67 41.67 0 0 1 1.186-5.591c.211-.555.387-1.123.526-1.701a14.184 14.184 0 0 0-2.406-1.597 16.326 16.326 0 0 1-3.765-3.262 15.002 15.002 0 0 1-2.908-9.873 15.024 15.024 0 0 1 4.14-9.428c7.492-7.863 21.616-5.89 26.513 3.518 1.678 3.263 1.553 8.305.619 11.828Zm-23.304 17.673c1.433 1.067 3.491 1.14 5.295 1.441.486.087 1.638.329 1.928-.068a8.262 8.262 0 0 0 1.156-2.863 32.514 32.514 0 0 1-7.974-1.869 11.234 11.234 0 0 0-.405 3.359Zm.505-3.79a47.472 47.472 0 0 1 7.933 1.89c.228-1.22.535-2.425.921-3.606a29.675 29.675 0 0 1-7.957-1.66 27.13 27.13 0 0 0-.927 3.418l.03-.042Zm21.531-25.364c-4.71-8.881-18.209-10.69-25.287-3.28a14.225 14.225 0 0 0-1.22 18.183c1.903 2.482 5.631 4.105 6.229 5.003.211.317-.126 1.154-.336 1.747 1.202.187 2.521.422 3.704.641.263-1.44 1.524-7.264 2.021-8.64.19-.55.38-.515.941-.378 3.058-.109 6.393-1 7.37-3.91.118-.34.197-.694.235-1.052.093-1.508-1.163-3.22-2.478-3.047.229 1.141.118 3.34-.843 4.032-.961.693-2.108-.312-2.142-1.25a4.176 4.176 0 0 1 1.989-3.363 2.811 2.811 0 0 0-1.831-1.496 2.83 2.83 0 0 0-2.329.421c.884 1.578.188 5.291-1.309 4.477-1.498-.814-1.091-2.96-.222-4.171.419-.59.519-.437.293-.596-1.751-1.181-3.638.328-4.388 2.246-1.08 2.64 1.548 5.755 3.174 6.669.04.022.069.059.082.102a.173.173 0 0 1-.119.211.173.173 0 0 1-.131-.015c-1.988-1.068-4.569-4.33-3.548-7.188 1.02-2.858 3.799-4.043 5.64-2.426a3.643 3.643 0 0 1 5.483 1.435c1.94-.32 3.665 1.886 3.518 3.95a5.484 5.484 0 0 1-2.939 4.357c-.968.505-4.436 1.485-5.833 1.137-.444 1.061-1.976 7.25-2.244 8.544 4.687.878 3.762 1.402 3.968.716.243-.855.366-2.103.594-2.195 5.735-1.51 10.917-2.655 12.622-9.56.836-3.343.913-8.256-.664-11.304Zm-9.537 5.502a3.363 3.363 0 0 0-1.327 2.482c.01.281.676 1.02 1.055.17a5.775 5.775 0 0 0 .23-2.651l.042-.002Zm-5-1.421c-.809.843-1.266 2.761-.335 3.282a3.805 3.805 0 0 0 .335-3.283ZM219.762 122.956c6.186 1.161 11.853 6.008 11.216 13.192-.985 12.214-15.016 11.251-15.176 11.834-.431 1.443-1.173 3.974-1.677 5.395a.481.481 0 0 0 .016.365.48.48 0 0 0 .635.23.478.478 0 0 0 .246-.269c.536-1.387 1.363-3.355 1.901-4.808 2.236.239 4.497.1 6.687-.412 14.973-5.975 11.973-25.135-3.436-27.816a11.818 11.818 0 0 0-7.143.75 11.821 11.821 0 0 0-5.388 4.75c-3.145 4.916-1.404 11.523 5.512 14.459a.483.483 0 0 0 .581-.234.488.488 0 0 0-.131-.613c-6.027-2.815-6.934-8.696-4.227-12.44a9.832 9.832 0 0 1 10.384-4.383Zm-5.081 43.386c1.793-2.024 1.405-5.355-.368-6.046a23.25 23.25 0 0 0-3.211-1.822c-3.19-.824-6.486 2.174-4.788 5.398 1.971 3.654 6.67 4.344 8.367 2.47Zm-1.883-1.334a3.453 3.453 0 0 1-1.997-.174c-3.81-1.388-2.919-4.893.008-4.643l3.08.967c1.157.748.054 3.488-1.056 3.785l-.035.065Z" fill="#2A344A"/><path fill-rule="evenodd" clip-rule="evenodd" d="M142.82 224.73c-.138.005-48.63-.346-66.782.299a.935.935 0 0 1-.97-.903.939.939 0 0 1 .904-.971c15.452-.549 60.423-.41 66.831-.3a.936.936 0 1 1 .067 1.874l-.05.001Zm10.253-1.49a.952.952 0 0 1 .916-.971c2.874-.102 4.814-.058 7.765-.088a.916.916 0 0 1 .672.256.929.929 0 0 1 .286.66.952.952 0 0 1-.904.958c-.962.034-3.991-.008-7.765.089a.939.939 0 0 1-.97-.904Zm-101.988 2.502c-.924.033-4.065-.006-7.776.101a.95.95 0 0 1-.067-1.886c2.86-.102 4.876-.061 7.764-.089a.939.939 0 0 1 .72 1.576.938.938 0 0 1-.653.298h.012ZM166.85 222c2.936-.105 4.738-.069 7.777-.102a.935.935 0 0 1 .97.904.94.94 0 0 1-.904.97c-.949.034-3.978-.009-7.764.101a.943.943 0 0 1-.668-.26.931.931 0 0 1-.29-.657.913.913 0 0 1 .879-.956Zm-102.917 3.46c-.95.034-3.99-.008-7.764.101a.939.939 0 0 1-.719-1.576.938.938 0 0 1 .653-.298c2.935-.104 4.75-.069 7.776-.101a.938.938 0 1 1 .067 1.873l-.013.001Z" fill="#4E6AF3"/><path d="M134.116 167.962a.209.209 0 0 0-.072.118c-.488 7.723-.449 12.687-.833 16.666a.205.205 0 0 0 .171.231.202.202 0 0 0 .232-.171 54.356 54.356 0 0 0 .843-16.74.21.21 0 0 0-.212-.154.21.21 0 0 0-.129.05Z" fill="#2A344A"/><path d="M209.856 7.9a67.193 67.193 0 0 0-1.064-.332c-7.41-2.24-15.296-3.235-22.127-3.206h-.126L209.856 7.9Zm0 0c-.316-.102-.632-.2-.95-.298-7.412-2.26-15.327-3.269-22.247-3.24L209.856 7.9Zm-35.065 59.036c.002-.009-.053-.029-.16-.064a41.16 41.16 0 0 0-.148-.049l-.164-.053.008-.02-.008.02c-.995-.326-3.465-1.178-6.484-3.051-5.064-3.346-9.398-8.268-11.92-12.794l-.001-.002m18.877 16.013-19.016-15.934.139-.079m18.877 16.013.142-.48.033.01.03.01a.51.51 0 0 1 .275.602l-.48-.142Zm-18.877-16.013.296-.168-.296.168Zm82.659-13.41c-.742-6.453-6.159-14.203-10.815-18.853-9.743-9.847-27.522-13.855-41.091-13.798-18.759.067-31.812 9.024-33.614 27.287m3.298 18.532c3.576 6.418 10.833 13.615 18.555 15.865m13.729 3.19c12.378 2.083 25.556 1.95 35.684-3.949m3.086-46.773-.002-.002c-4.793-4.844-11.589-8.275-18.901-10.486-7.307-2.21-15.094-3.192-21.833-3.164-9.306.033-17.14 2.272-22.861 6.715-5.711 4.435-9.368 11.107-10.257 20.121l-.001.008a32.39 32.39 0 0 0 3.243 18.24c3.54 6.348 10.718 13.439 18.286 15.63h.001c7.723 2.25 16.519 4.088 25.118 4.35 8.602.264 16.968-1.051 23.868-5.07a28.774 28.774 0 0 0 14.01-27.788c-.36-3.124-1.859-6.602-3.87-9.897-2.007-3.29-4.5-6.358-6.801-8.657Zm-64.19 61.998a31.205 31.205 0 0 1-3.359 2.24 28.322 28.322 0 0 0 3.455-2.047c3.381-2.332 6.629-5.575 8.493-9.253a.288.288 0 0 0-.514-.248c-1.696 3.523-4.837 6.84-8.075 9.308ZM43.355 71.63c-10.902 4.392-18.814 4.75-24.526 3.06C-1.358 68.743.869 34.292 34.231 31.917c4.779-.332 12.646 1.414 15.757 5.193 5.476 6.61 6.38 16.884 3.753 23.232m-34.77 13.87c5.631 1.665 13.538 1.314 24.57-3.195 2.133-.877 4.14-2.541 5.836-4.529 1.694-1.985 3.053-4.265 3.901-6.336l.001-.001c1.272-3.076 1.7-7.14 1.128-11.258-.571-4.116-2.137-8.244-4.804-11.464h-.001c-1.461-1.776-4.091-3.12-7.008-3.977-2.904-.853-6.006-1.197-8.328-1.036-16.491 1.174-25.181 10.249-27.33 19.66C4.78 61.52 9.178 71.325 18.97 74.21ZM5.964 51.84a18.605 18.605 0 0 0-.536 6.053 22.104 22.104 0 0 1 .536-6.053Zm51.499 33.07a26.677 26.677 0 0 0 3.287 1.916 29.39 29.39 0 0 1-3.227-2.13c-3.277-2.472-6.543-5.91-8.471-9.745l-.003-.007a.263.263 0 0 0-.362-.116l-.007.004-.006.003a.274.274 0 0 0-.12.373c2.094 4.018 5.488 7.38 8.909 9.703Z" stroke="#2A344A"/></svg>