<?xml version="1.0" encoding="UTF-8" standalone="no"?>
<svg
   width="250"
   height="250"
   viewBox="0 0 250 250"
   fill="none"
   version="1.1"
   id="svg34"
   sodipodi:docname="feedback.svg"
   inkscape:version="1.2.2 (b0a8486541, 2022-12-01)"
   xmlns:inkscape="http://www.inkscape.org/namespaces/inkscape"
   xmlns:sodipodi="http://sodipodi.sourceforge.net/DTD/sodipodi-0.dtd"
   xmlns="http://www.w3.org/2000/svg"
   xmlns:svg="http://www.w3.org/2000/svg">
  <defs
     id="defs38" />
  <sodipodi:namedview
     id="namedview36"
     pagecolor="#505050"
     bordercolor="#eeeeee"
     borderopacity="1"
     inkscape:showpageshadow="0"
     inkscape:pageopacity="0"
     inkscape:pagecheckerboard="0"
     inkscape:deskcolor="#505050"
     showgrid="false"
     inkscape:zoom="3.044"
     inkscape:cx="72.109067"
     inkscape:cy="136.49803"
     inkscape:current-layer="svg34" />
  <path
     d="M165 107C161.948 105.89 156.689 105.406 136 105L134 107.5L148 139C157.374 149.44 160.962 156.686 164.5 172C165.841 146.993 166.431 132.917 165 107Z"
     fill="#4E6AF3"
     id="path2" />
  <path
     d="M41.993 131.5C41.9933 108.3 42.3264 99.8341 42.493 98.5009C45.4922 98.001 70.4927 97.6676 82.4922 97.001L79.9922 92.501L79.9922 89.001L80.9922 85.501L83.9922 80.501L87.9922 78.501L91.4922 75.001C95.45 65.1066 102.508 61.9019 104.432 61.0281L104.492 61.0009C107.826 60.0009 115.692 58.6009 120.492 61.0009C125.292 63.4009 127.492 65.6676 127.992 66.5009L134.992 84.5009L138.492 86.5009L142.492 92.0009L142.492 97.5009L155.492 97.5009L171.492 99.5009C173.992 100.501 172.492 165.001 169.992 189.001L182.492 209.501L189.492 221.501L193.992 231.001L193.992 239.001C187.492 244.001 58.4922 244.501 25.4922 242.001L24.993 232.001C24.193 230.801 33.6597 210.168 38.493 200.001L33.993 195.501C21.993 181.501 24.4922 147.001 28.993 131.5L29.993 130.501L25.493 124.501L25.493 123.001L27.993 121.501L28.493 121.001L30.993 119.501L31.993 120.001L31.993 112.001L33.493 111.001L35.993 120.001L37.4922 124.501L37.493 129.001L39.493 129.001L41.993 131.5Z"
     fill="white"
     id="path4" />
  <path
     d="M34.1121 31.0949C22.4092 31.9239 10.9563 37.3219 6.13079 49.7012C2.2675 59.5948 7.56809 72.1769 18.6864 75.3086C24.5619 76.9759 32.7358 76.4475 43.8276 71.8003C43.7206 71.604 50.1694 70.0488 54.2093 60.5492C56.9794 54.0341 56.1931 43.5304 50.5687 36.6135C47.2362 32.5919 39.2152 30.7383 34.1121 31.0949Z"
     fill="white"
     id="path6" />
  <path
     d="M48.1096 75.4379C52.3918 83.6534 61.9421 89.1174 66.3349 88.8361C66.3805 88.8437 66.4274 88.841 66.4719 88.8283C66.5164 88.8156 66.5576 88.7932 66.5924 88.7626C66.6271 88.732 66.6547 88.6941 66.6731 88.6516C66.6914 88.6091 66.7001 88.563 66.6984 88.5167C66.6968 88.4704 66.6849 88.4251 66.6636 88.384C66.6422 88.3428 66.612 88.307 66.5752 88.279C66.5383 88.251 66.4956 88.2315 66.4503 88.222C66.405 88.2125 66.3581 88.2131 66.3131 88.224C62.3241 88.2533 53.2665 82.2214 49.4977 74.7256C49.4527 74.6328 49.3895 74.55 49.3116 74.4824C49.2338 74.4147 49.1431 74.3635 49.0449 74.332C48.9467 74.3004 48.8432 74.289 48.7405 74.2986C48.6378 74.3082 48.5381 74.3385 48.4475 74.3877C48.3559 74.434 48.2744 74.498 48.2077 74.576C48.141 74.654 48.0904 74.7445 48.059 74.8422C48.0276 74.9399 48.0159 75.0429 48.0246 75.1451C48.0332 75.2474 48.0622 75.3469 48.1096 75.4379Z"
     fill="white"
     id="path8" />
  <path
     d="M186.655 3.86193C149.314 4.08931 148.314 37.8712 155.773 51.0019C163.324 64.2668 174.835 66.8218 174.789 66.936C190.565 71.6032 210.475 74.6975 224.73 66.4981C229.719 63.5691 233.76 59.2665 236.371 54.1037C238.982 48.9408 240.052 43.1358 239.454 37.3814C238.704 30.6913 233.207 22.7942 228.432 17.9609C218.519 7.9194 200.586 3.8042 186.655 3.86193Z"
     fill="white"
     id="path10" />
  <path
     d="M171.299 71.1059C171.108 71.1646 170.947 71.2934 170.847 71.4665C167.552 78.338 158.517 84.538 154.224 84.8158C154.178 84.8082 154.131 84.8109 154.087 84.8236C154.042 84.8363 154.001 84.8587 153.966 84.8893C153.932 84.9199 153.904 84.9578 153.886 85.0003C153.867 85.0428 153.859 85.0889 153.86 85.1352C153.862 85.1815 153.874 85.2268 153.895 85.2679C153.917 85.309 153.947 85.3449 153.984 85.3729C154.021 85.4009 154.063 85.4204 154.108 85.4299C154.154 85.4394 154.201 85.4387 154.246 85.4279C158.973 85.3974 168.439 79.7198 172.26 72.1542C172.335 71.9692 172.337 71.7627 172.266 71.5764C172.194 71.3901 172.054 71.238 171.875 71.1506C171.696 71.0633 171.49 71.0473 171.299 71.1059Z"
     fill="white"
     id="path12" />
  <path
     d="M49.002 106L48.5 140.5L50.5 143.5C59.5 134.5 64.9796 129.334 78.5 124L80.5 123.5L83.5 105L81.5 105L49.002 106Z"
     fill="#4E6AF3"
     stroke="#2A344A"
     stroke-width="0.1"
     id="path14" />
  <path
     d="M164.492 171C159.492 142 131.992 131 131.992 105L162.492 106L164.992 107L165.992 121L165.492 143.5L165.492 159.5L164.492 171Z"
     fill="#4E6AF3"
     id="path16" />
  <path
     fill-rule="evenodd"
     clip-rule="evenodd"
     d="M38.0104 53.6727C38.7518 53.1065 39.6875 52.8574 40.6124 52.9798C40.9773 53.0377 41.3253 53.1737 41.6327 53.3787C41.9401 53.5837 42.1995 53.8527 42.3932 54.1673C42.5956 54.585 42.7017 55.0429 42.7035 55.5071C42.6546 55.9564 42.4981 56.3872 42.2474 56.7632C41.9966 57.1392 41.6589 57.4492 41.263 57.667C40.867 57.8848 40.4243 58.004 39.9725 58.0144C39.5207 58.0248 39.073 57.9262 38.6674 57.7269C38.3033 57.5528 37.9869 57.293 37.745 56.97C37.5031 56.6469 37.3431 56.2701 37.2785 55.8717C37.2139 55.4733 37.2468 55.0652 37.3743 54.6823C37.5017 54.2994 37.7199 53.953 38.0104 53.6727ZM38.3892 56.2359C38.6032 56.5373 38.9015 56.7688 39.2466 56.9012C39.5918 57.0336 39.9683 57.061 40.329 56.98C40.6897 56.8991 41.0184 56.7132 41.2738 56.446C41.5292 56.1787 41.6999 55.8419 41.7644 55.4779C41.7649 55.1917 41.7253 54.9068 41.6467 54.6316C41.5408 54.3248 41.3534 54.0527 41.1045 53.8444C40.8557 53.636 40.5548 53.4994 40.2342 53.4491C39.9136 53.3988 39.5853 53.4367 39.2846 53.5588C38.9839 53.6809 38.7222 53.8826 38.5274 54.1422C38.2966 54.4369 38.16 54.7942 38.1354 55.1677C38.1108 55.5412 38.1992 55.9134 38.3892 56.2359ZM30.3402 53.9455C30.7057 53.6621 31.1242 53.4548 31.5711 53.3358C32.018 53.2168 32.4842 53.1885 32.9422 53.2526C33.3063 53.3082 33.6536 53.4434 33.9593 53.6488C34.2649 53.8541 34.5215 54.1245 34.7106 54.4405C34.9177 54.8566 35.024 55.3156 35.0209 55.7803C34.9739 56.2292 34.8191 56.66 34.5697 57.0361C34.3203 57.4123 33.9836 57.7225 33.5885 57.9405C33.1933 58.1585 32.7513 58.2777 32.3001 58.288C31.8489 58.2983 31.402 58.1994 30.9972 57.9997C30.6332 57.8256 30.3167 57.5658 30.0748 57.2428C29.833 56.9197 29.6729 56.5429 29.6084 56.1445C29.5438 55.7461 29.5767 55.338 29.7041 54.9551C29.8315 54.5722 30.0498 54.2258 30.3402 53.9455ZM30.7191 56.5087C30.9309 56.8116 31.2281 57.0445 31.5727 57.178C31.9174 57.3114 32.294 57.3393 32.6546 57.2581C33.0151 57.1769 33.3434 56.9902 33.5975 56.7219C33.8517 56.4535 34.0202 56.1156 34.0818 55.7512C34.0946 55.4643 34.0547 55.1774 33.9641 54.9048C33.8604 54.5978 33.6746 54.3251 33.4269 54.1161C33.1792 53.9072 32.879 53.7701 32.5589 53.7196C32.2388 53.6691 31.911 53.7072 31.611 53.8298C31.3111 53.9524 31.0504 54.1548 30.8572 54.415C30.6265 54.7097 30.4899 55.067 30.4652 55.4405C30.4406 55.814 30.529 56.1862 30.7191 56.5087ZM22.5826 54.2214C22.9484 53.9386 23.367 53.7317 23.8138 53.6127C24.2606 53.4937 24.7266 53.4651 25.1846 53.5285C25.5487 53.5887 25.8959 53.7258 26.2029 53.9305C26.5099 54.1352 26.7699 54.403 26.9655 54.716C27.1667 55.1341 27.2727 55.5917 27.2758 56.0558C27.2269 56.5051 27.0704 56.9359 26.8196 57.3119C26.5689 57.6879 26.2312 57.9979 25.8352 58.2157C25.4392 58.4335 24.9966 58.5527 24.5448 58.5631C24.0929 58.5735 23.6453 58.4749 23.2396 58.2757C22.8756 58.1015 22.5591 57.8418 22.3172 57.5187C22.0754 57.1956 21.9153 56.8188 21.8508 56.4204C21.7862 56.022 21.8191 55.6139 21.9465 55.231C22.0739 54.8481 22.2922 54.5017 22.5826 54.2214ZM22.9615 56.7846C23.1754 57.0861 23.4737 57.3175 23.8189 57.4499C24.164 57.5823 24.5406 57.6098 24.9013 57.5288C25.262 57.4478 25.5906 57.262 25.846 56.9947C26.1014 56.7274 26.2721 56.3906 26.3367 56.0267C26.3781 55.6346 26.2916 55.2397 26.0899 54.901C25.8883 54.5623 25.5823 54.2979 25.2179 54.1476C24.8535 53.9972 24.4502 53.9689 24.0684 54.0668C23.6866 54.1647 23.3467 54.3837 23.0996 54.6909C22.8689 54.9856 22.7323 55.343 22.7076 55.7164C22.683 56.0899 22.7715 56.4621 22.9615 56.7846ZM126.123 95.7299C125.997 95.7363 125.87 95.7166 125.751 95.672C125.633 95.6273 125.524 95.5588 125.433 95.4705C125.342 95.3822 125.27 95.2762 125.222 95.1589C125.173 95.0416 125.15 94.9157 125.152 94.7888L125.113 93.702C125.044 93.5255 125.029 93.3324 125.071 93.1475C125.112 92.9625 125.208 92.7943 125.346 92.6643C125.484 92.5343 125.658 92.4485 125.845 92.418C126.032 92.3876 126.224 92.4137 126.396 92.4932C127.02 92.7962 127.014 93.3342 127.004 94.8105C127 95.0464 126.907 95.2721 126.744 95.4425C126.58 95.6129 126.359 95.7156 126.123 95.7299ZM111.639 95.0193C111.391 95.0249 111.151 94.9335 110.97 94.7647C110.789 94.596 110.681 94.3631 110.669 94.1157C110.606 92.3543 110.584 91.7422 111.327 91.5157C111.445 91.4793 111.568 91.4666 111.691 91.4781C111.814 91.4897 111.933 91.5253 112.042 91.583C112.151 91.6407 112.247 91.7194 112.326 91.8144C112.405 91.9094 112.464 92.019 112.5 92.1369C112.578 92.7708 112.601 93.4103 112.568 94.0482C112.572 94.1733 112.551 94.2981 112.507 94.4152C112.462 94.5323 112.395 94.6392 112.308 94.7297C112.222 94.8203 112.118 94.8925 112.003 94.9422C111.888 94.992 111.764 95.0182 111.639 95.0193ZM117.07 102.481C117.024 102.471 116.982 102.446 116.951 102.41C116.921 102.374 116.903 102.328 116.902 102.281C116.9 102.233 116.914 102.187 116.942 102.148C116.97 102.11 117.01 102.082 117.056 102.069C118.263 102.022 119.458 101.816 120.611 101.454C120.039 96.6217 119.861 95.4774 119.699 92.3436C119.709 92.2972 119.734 92.2553 119.77 92.2248C119.806 92.1942 119.852 92.1767 119.899 92.175C119.947 92.1734 119.993 92.1876 120.032 92.2155C120.07 92.2434 120.098 92.2833 120.111 92.3289C120.677 94.5007 121.09 96.7096 121.347 98.9392C121.521 99.9625 121.558 101.004 121.457 102.037C121.098 102.838 117.999 102.585 117.07 102.481ZM118.764 109.663C118.733 109.672 118.7 109.673 118.669 109.668C118.637 109.662 118.607 109.649 118.581 109.63C118.555 109.611 118.533 109.587 118.518 109.558C118.503 109.53 118.494 109.498 118.493 109.466C118.492 109.434 118.498 109.402 118.511 109.372C118.524 109.343 118.544 109.317 118.569 109.296C118.593 109.275 118.623 109.26 118.654 109.252C118.685 109.245 118.718 109.244 118.749 109.251C119.31 109.105 119.832 108.84 120.281 108.474C120.729 108.109 121.094 107.651 121.351 107.132C121.561 106.361 121.601 106.785 117.888 106.479C115.479 106.265 115.38 106.306 115.643 105.959C117.726 105.535 119.868 105.488 121.967 105.822C122.452 106.104 122.71 107.371 121.709 108.42C120.923 109.196 119.869 109.641 118.764 109.663ZM104.834 108.72C104.957 108.102 105.283 107.543 105.76 107.132C106.238 106.72 106.838 106.48 107.468 106.45C109.142 106.39 111.063 107.66 110.666 109.501C109.65 114.002 103.935 111.566 104.834 108.72Z"
     fill="#2A344A"
     id="path18" />
  <path
     fill-rule="evenodd"
     clip-rule="evenodd"
     d="M37.7368 199.812C22.0022 187.864 23.1724 157.465 27.4001 136.014C27.7042 134.353 28.1009 132.71 28.5885 131.094C28.9118 130.842 29.2779 130.651 29.6691 130.53C28.0578 129.186 23.972 123.678 25.4623 122.324C26.1535 121.712 27.4073 120.742 28.187 121.214C28.2326 120.993 28.3538 120.794 28.5298 120.652C29.1986 120.115 30.3841 119.335 31.2247 119.405C31.3868 118.336 31.2445 115.039 31.3731 114.084C31.5505 112.739 31.4618 111.654 32.7874 110.944C33.3153 110.663 34.6265 110.954 35.1873 113.361C35.38 114.204 35.9952 117.084 36.5886 120.052C37.9696 121.604 38.0074 128.295 37.9869 128.421C38.6698 128.297 39.3718 128.327 40.0414 128.51C40.6163 129.101 41.1297 129.749 41.5736 130.444C41.1751 113.26 41.0706 98.7171 41.9763 98.1596C43.2015 97.4406 60.0427 96.8916 81.2859 96.6739C76.3618 90.4575 81.2638 79.8766 88.3823 77.8098C89.3837 76.4233 88.3885 77.9847 92.3127 72.967C94.2877 68.2942 97.7928 64.4318 102.253 62.014C106.712 59.5961 111.862 58.7665 116.855 59.6613C125.925 61.4525 134.741 70.1947 136.222 85.1015C141.207 87.0505 144.279 91.8319 142.901 97.0466C158.828 97.5308 170.59 98.3633 171.871 99.5685C173.76 101.327 173.282 165.26 170.377 189.103C172.471 192.393 194.016 227.387 194.294 231.355C194.533 234.008 194.627 236.673 194.578 239.337C193.772 244.094 26.6059 245.562 25.2876 241.906C24.9851 238.881 24.8769 235.839 24.9637 232.799C24.4685 232.592 24.6056 231.874 24.7484 231.319C25.7078 227.344 32.6584 211.412 37.7368 199.812ZM27.1634 122.326C26.9697 122.436 26.7819 122.555 26.6008 122.684C26.1131 123.039 26.0118 123.005 26.1755 123.737C26.4399 124.841 27.3917 126.633 28.1331 126.732C29.3824 126.688 28.6618 124.012 28.0918 122.756C27.7247 121.931 27.7395 121.993 27.1634 122.326ZM31.2688 119.941C30.7223 119.698 29.501 120.53 28.8063 121.042C28.7378 121.107 28.6847 121.186 28.651 121.274C28.6173 121.361 28.6039 121.456 28.6117 121.549C28.9589 122.239 29.232 122.963 29.4265 123.709C30.4051 125.2 32.0138 126.119 32.5985 124.622C30.3294 124.828 28.9819 122.462 31.7104 120.401C31.6012 120.215 31.4499 120.058 31.2688 119.941ZM33.183 111.868C32.3875 112.359 32.5029 113.143 32.3787 114.223C32.2545 115.303 32.5564 119.22 32.1111 120.062C32.6006 119.69 33.1687 119.437 33.7718 119.32C34.3748 119.203 34.9966 119.226 35.5893 119.388C34.0876 113.037 34.1431 112.134 33.183 111.868ZM36.8579 124.108C36.8068 122.671 36.3556 120.536 34.9463 120.298C33.222 119.997 29.7042 122.724 31.6563 123.805C32.3653 124.07 33.1339 124.134 33.8768 123.989C34.0891 123.981 34.5883 124.301 32.9844 124.571C32.4519 126.128 30.7366 125.727 29.5794 124.492C29.7206 126 29.3341 127.44 27.8319 127.056C28.5856 128.181 29.4616 129.22 30.4437 130.152C31.2775 130.035 37.0982 128.402 37.2218 128.36C37.3454 128.318 36.987 125.629 36.8579 124.108ZM39.7031 129.198C39.1131 129.107 38.5114 129.129 37.9292 129.261C38.7583 131.12 41.2925 136.958 40.9805 137.682C40.907 137.844 40.7823 137.978 40.6257 138.062C40.4691 138.146 40.2892 138.177 40.1135 138.149C39.9379 138.121 39.7763 138.036 39.6534 137.908C39.5305 137.779 39.4532 137.614 39.4333 137.437C38.5375 134.741 37.4787 132.101 36.2628 129.533C35.3063 129.717 34.2645 129.966 33.2727 130.214C33.6798 131.813 35.3362 138.646 34.8475 139.326C34.7467 139.475 34.5996 139.586 34.4291 139.642C34.2586 139.698 34.0744 139.696 33.9051 139.636C33.7359 139.577 33.5911 139.463 33.4935 139.312C33.3959 139.161 33.3509 138.983 33.3655 138.804C33.3349 137.942 32.1267 131.756 31.8289 130.766C31.7111 130.62 31.9377 130.662 30.8219 130.939C30.2618 131.094 29.7235 131.319 29.2197 131.609C28.9068 132.658 28.4277 135.014 28.1326 136.213C23.4749 160.344 22.6107 196.535 46.3179 202.997C58.1277 206.229 67.8471 190.774 72.2193 175.496C73.3308 171.579 74.2919 167.655 74.9504 164.367C74.9552 164.34 74.9652 164.315 74.9798 164.293C74.9943 164.27 75.0132 164.25 75.0353 164.235C75.0574 164.22 75.0823 164.209 75.1086 164.203C75.1349 164.198 75.162 164.197 75.1885 164.202C75.2149 164.207 75.2402 164.217 75.2628 164.231C75.2854 164.246 75.3049 164.265 75.3202 164.287C75.3355 164.309 75.3463 164.334 75.352 164.36C75.3576 164.387 75.3581 164.414 75.3533 164.44C74.0828 172.678 72.1997 181.275 68.2377 188.746C68.3627 188.741 116.268 191.916 121.904 191.415C125.253 189.57 133.249 184.032 139.018 183.777C139.045 183.772 139.072 183.774 139.098 183.781C139.124 183.787 139.148 183.8 139.169 183.817C139.19 183.834 139.207 183.855 139.218 183.879C139.23 183.903 139.237 183.93 139.237 183.957C139.252 184.381 138.938 183.967 136.035 184.996C131.245 186.78 124.099 191.237 119.875 194.164C115.799 197.348 108.675 203.493 107.762 205.264C107.937 205.595 108.247 206.235 108.649 206.984C110.282 205.95 111.978 205.02 113.728 204.201C113.915 204.092 114.138 204.061 114.347 204.116C114.557 204.17 114.736 204.306 114.846 204.493C114.955 204.68 114.986 204.903 114.931 205.112C114.876 205.322 114.741 205.501 114.554 205.61C112.772 206.437 111.046 207.38 109.388 208.433L110.191 209.906C111.131 209.584 115.743 207.394 116.344 207.06C116.466 206.976 116.609 206.927 116.756 206.917C116.904 206.908 117.052 206.94 117.183 207.009C117.314 207.077 117.424 207.181 117.501 207.307C117.578 207.434 117.618 207.58 117.619 207.728C117.653 208.69 112.609 210.72 111.017 211.327C111.235 211.693 111.477 212.044 111.743 212.377C120.66 214.474 149.581 209.981 155.995 201.797C161.916 194.272 164.781 184.791 164.018 175.245C163.281 165.729 160.177 156.548 154.988 148.537C152.922 145.546 150.652 142.701 148.194 140.023C148.172 140.733 148.109 141.441 148.007 142.144C145.904 156.165 136.44 160.516 123.305 155.905C118.049 154.066 118.597 150.494 117.227 145.377C116.445 142.156 116.246 138.821 116.639 135.529C114.889 139.069 111.829 144.118 108.242 145.609C107.703 150.131 105.825 155.376 102.538 156.481C94.2567 159.277 85.1942 156.623 79.9895 147.089C75.5065 138.856 75.8527 133.115 78.3877 124.207C67.9355 128.76 58.5062 135.37 50.6609 143.642C56.0047 150.757 59.0646 155.201 62.2135 163.907C62.2336 163.958 62.2327 164.014 62.211 164.064C62.1893 164.114 62.1487 164.154 62.0979 164.174C62.0472 164.194 61.9906 164.193 61.9406 164.171C61.8906 164.149 61.8512 164.109 61.8312 164.058C56.1163 150.377 39.8186 129.281 39.7031 129.198ZM102.144 210.129C101.897 210.207 101.658 210.308 101.429 210.43C98.0309 211.939 98.7176 211.552 95.7164 214.385C96.1977 214.646 96.7201 214.822 97.2609 214.906C98.5478 213.109 99.6544 211.869 101.881 211.514C102.604 211.401 103.338 211.375 104.067 211.437C104.113 211.447 104.155 211.472 104.186 211.508C104.216 211.544 104.234 211.59 104.235 211.637C104.237 211.685 104.223 211.731 104.195 211.77C104.167 211.808 104.127 211.836 104.082 211.849C102.773 212.134 101.5 212.566 100.287 213.135C99.9076 213.361 98.938 214.233 98.1608 214.886C100.347 214.809 109.08 213.122 110.872 212.858C109.475 210.865 108.272 208.743 107.282 206.519C105.836 206.658 102.468 206.916 101.276 207.533C99.0276 208.664 96.1069 210.944 95.2187 213.052C95.0107 213.535 94.9201 213.801 95.2556 214.089C95.7668 212.947 96.561 211.954 97.5631 211.205C98.5653 210.456 99.742 209.975 100.982 209.808C101.355 209.727 101.734 209.68 102.115 209.667C102.146 209.666 102.176 209.67 102.205 209.68C102.233 209.689 102.26 209.705 102.283 209.725C102.306 209.745 102.324 209.769 102.338 209.797C102.351 209.824 102.359 209.854 102.361 209.884C102.363 209.914 102.358 209.945 102.349 209.973C102.339 210.002 102.323 210.029 102.303 210.051C102.283 210.074 102.259 210.093 102.231 210.106C102.204 210.119 102.175 210.127 102.144 210.129ZM148.147 138.711C150.907 141.595 153.435 144.692 155.706 147.974C160.05 154.649 162.997 162.135 164.369 169.98C165.846 146.787 165.812 110.691 164.711 107.153C163.427 106.223 151.888 105.683 136.631 105.412C137.11 113.238 139.784 116.345 142.22 123.975C143.612 128.316 147.82 132.332 148.147 138.711ZM81.2725 105.442C64.6706 105.683 51.627 106.097 49.5176 106.572C48.8796 109.384 48.7836 124.972 48.9825 141.113C49.6007 141.966 50.0999 142.636 50.4005 143.001C58.368 134.719 67.9155 128.119 78.4783 123.591C80.2152 117.693 81.155 111.589 81.2725 105.442ZM42.5816 99.0011C41.9794 101.762 42.1781 115.789 42.5893 131.922C44.2231 134.253 46.3472 137.354 48.0079 139.734C47.8206 123.568 47.9527 108.291 48.6499 106.09C48.9418 105.154 57.0086 104.779 81.3249 104.452C81.4403 102.072 81.5263 99.9174 81.7711 97.6573C61.3912 97.8818 44.961 98.3786 42.5816 99.0011ZM82.0175 84.5403C77.1144 93.3326 84.7889 103.028 94.1505 99.3183C95.1979 98.9722 96.1662 98.4216 96.9993 97.6984C97.8324 96.9753 98.5137 96.094 99.0038 95.1057C100.132 92.3956 100.189 89.3581 99.1621 86.6079C98.1354 83.8578 96.1021 81.6004 93.4738 80.2929C88.542 78.0793 84.5438 79.9601 82.0175 84.5403ZM122.506 62.3871C117.494 59.79 111.661 59.2682 106.268 60.9344C100.875 62.6005 96.3529 66.321 93.679 71.2924C92.6554 73.223 91.9603 75.3105 91.6223 77.4694C93.3071 77.5347 94.9639 77.9215 96.5034 78.6091C99.8461 71.3107 104.795 65.5687 112.739 64.2104C117.907 63.3559 123.213 64.2265 127.837 66.6879C126.357 64.9206 124.546 63.4596 122.506 62.3871ZM131.517 87.1575C129.067 88.6205 121.799 88.9415 108.69 86.8186C108.213 86.7481 106.015 78.7711 105.197 77.9372C105.197 77.9372 104.375 81.5437 103.737 85.769C104.437 87.3518 104.768 89.0732 104.704 90.8027C104.64 92.5322 104.182 94.2244 103.367 95.751C103.446 100.002 103.755 104.246 104.294 108.464C100.66 107.555 98.0341 105.822 95.5591 100.944C97.0325 100.542 98.4085 99.844 99.6034 98.8927C100.798 97.9414 101.787 96.7568 102.509 95.4111C103.231 94.0653 103.672 92.5866 103.804 91.0651C103.936 89.5435 103.757 88.011 103.278 86.5609C102.236 83.5381 100.104 81.0133 97.2974 79.4815C94.8174 78.1594 91.9461 77.7691 89.2031 78.381C96.9826 78.0167 103.491 86.9285 99.8188 95.5145C98.247 99.1476 93.133 100.956 89.2284 100.894C90.8479 101.412 92.5685 101.531 94.2439 101.241C94.6247 103.655 95.8463 105.857 97.693 107.457C99.5397 109.058 101.893 109.954 104.336 109.988C104.537 114.171 104.173 118.362 103.253 122.447C102.612 125.509 108.923 136.604 108.2 144.785C112.286 142.914 120.692 132.734 115.137 120.361C114.405 120.187 114.418 120.199 114.399 120.012C114.233 118.504 114.235 117.879 114.197 116.804C114.168 115.992 121.202 118.231 127.695 109.47C131.156 104.781 131.302 96.9338 131.684 91.1666C131.782 89.8282 131.726 88.483 131.517 87.1575ZM139.658 88.5315C138.636 87.5225 137.432 86.7165 136.109 86.1561C136.564 91.9061 136.146 97.7497 136.294 103.661C142.183 101.125 144.647 93.4072 139.658 88.5315ZM193.616 230.929C193.098 226.919 169.97 189.243 169.976 189.067C172.758 165.316 172.924 104.897 171.349 100.025C170.061 98.9575 158.417 98.2834 142.618 97.9072C142.109 99.3068 141.308 100.582 140.267 101.648C139.227 102.713 137.971 103.545 136.584 104.088L136.602 104.575C150.37 104.849 161.095 105.355 164.263 106.168C165.324 106.443 165.433 106.702 165.549 107.148C166.464 110.73 166.643 148.122 164.696 172.132C166.083 183.014 163.789 193.428 156.78 202.432C149.111 212.224 115.382 215.525 111.288 213.306C111.166 213.398 99.2148 216.387 97.1496 215.998C96.1418 215.796 94.4582 215.231 94.0862 214.268C93.6572 213.108 95.1043 211.243 95.9606 210.349C97.3715 208.871 99.059 207.685 100.927 206.858C102.343 206.232 105.42 206.235 107.083 206.201C106.975 205.992 106.894 205.82 106.828 205.71C106.744 205.578 106.697 205.427 106.691 205.271C106.685 205.115 106.722 204.96 106.796 204.823C107.966 202.543 118.101 194.214 120.379 192.507C111.262 192.544 76.9984 190.298 67.886 189.759C63.0317 197.812 55.2095 206.47 46.0768 203.956C43.3831 203.232 40.8328 202.054 38.5357 200.472C33.1351 212.859 26.1109 228.831 25.5371 232.041C39.8894 236.071 182.671 235.833 193.616 230.929ZM25.6807 241.705C29.352 244.701 185.97 242.783 193.629 239.033C193.75 237.866 193.427 233.337 193.385 232.15C182.284 236.56 39.8826 236.934 25.33 232.899C25.2756 235.838 25.3927 238.779 25.6807 241.705Z"
     fill="#2A344A"
     id="path20" />
  <path
     fill-rule="evenodd"
     clip-rule="evenodd"
     d="M211.098 38.6542C208.724 47.7144 199.188 47.6147 198.101 48.3221C198.105 48.4265 196.223 56.8632 195.384 58.0424C194.915 58.6965 193.722 58.4882 192.931 58.37C191.075 58.0703 188.934 58.0315 187.329 56.8451C186.92 56.5358 187.103 55.2127 187.192 54.7602C187.459 52.8719 187.855 51.004 188.378 49.1695C188.589 48.6142 188.765 48.046 188.905 47.4685C188.159 46.8562 187.353 46.3212 186.498 45.8717C185.083 44.9828 183.813 43.8827 182.733 42.6097C180.629 39.7616 179.599 36.266 179.825 32.7364C180.05 29.2067 181.516 25.8686 183.966 23.3081C191.457 15.4451 205.581 17.4192 210.478 26.8269C212.156 30.09 212.031 35.131 211.098 38.6542ZM187.793 56.3271C189.226 57.3942 191.284 57.4673 193.088 57.7688C193.574 57.856 194.726 58.0972 195.016 57.7003C195.578 56.8268 195.97 55.8558 196.172 54.8379C193.446 54.5534 190.766 53.9254 188.198 52.9689C187.894 54.0617 187.758 55.1938 187.793 56.3271ZM188.298 52.537C190.992 52.9388 193.646 53.5715 196.231 54.4282C196.459 53.2074 196.766 52.0027 197.152 50.8219C194.435 50.6358 191.758 50.077 189.195 49.1613C188.812 50.2795 188.502 51.4215 188.268 52.5798L188.298 52.537ZM209.829 27.1739C205.119 18.2925 191.62 16.4842 184.542 23.8936C182.242 26.3072 180.861 29.446 180.638 32.7666C180.415 36.0872 181.365 39.3806 183.322 42.0767C185.225 44.5586 188.953 46.1815 189.551 47.0797C189.762 47.3962 189.425 48.2337 189.215 48.8263C190.417 49.0134 191.737 49.2486 192.919 49.4678C193.182 48.0269 194.444 42.2036 194.94 40.8276C195.13 40.2775 195.32 40.3125 195.881 40.4493C198.939 40.3405 202.274 39.4487 203.251 36.5404C203.369 36.1994 203.448 35.846 203.486 35.4871C203.579 33.9791 202.323 32.2684 201.008 32.4405C201.237 33.5818 201.126 35.78 200.165 36.4725C199.204 37.165 198.057 36.1609 198.023 35.2217C198.055 34.5424 198.253 33.8811 198.599 33.2951C198.946 32.7092 199.431 32.2164 200.012 31.8595C199.834 31.4928 199.578 31.169 199.262 30.9107C198.946 30.6523 198.577 30.4656 198.181 30.3633C197.786 30.2611 197.372 30.2459 196.97 30.3187C196.568 30.3914 196.186 30.5505 195.852 30.7849C196.736 32.3626 196.04 36.0759 194.543 35.2619C193.045 34.4478 193.452 32.3018 194.321 31.0901C194.74 30.5005 194.84 30.6537 194.614 30.4945C192.863 29.3134 190.976 30.8224 190.227 32.7404C189.146 35.3807 191.774 38.4951 193.4 39.409C193.44 39.4312 193.469 39.4681 193.482 39.5118C193.494 39.5554 193.488 39.6022 193.466 39.6418C193.444 39.6814 193.407 39.7105 193.363 39.7229C193.319 39.7352 193.272 39.7297 193.233 39.7076C191.244 38.6393 188.663 35.3769 189.684 32.5194C190.704 29.6618 193.483 28.4763 195.324 30.0931C195.761 29.7707 196.266 29.5501 196.8 29.4476C197.334 29.3452 197.885 29.3635 198.411 29.5012C198.937 29.6389 199.426 29.8925 199.84 30.2433C200.255 30.5941 200.586 31.0332 200.807 31.5281C202.747 31.2084 204.472 33.4145 204.325 35.4782C204.239 36.3911 203.925 37.268 203.412 38.0291C202.898 38.7902 202.202 39.4112 201.386 39.8355C200.418 40.3402 196.95 41.3203 195.553 40.973C195.109 42.0337 193.577 48.2218 193.309 49.5166C197.997 50.3948 197.071 50.9188 197.278 50.2323C197.52 49.3773 197.643 48.1294 197.871 48.0378C203.606 46.5276 208.788 45.382 210.493 38.4772C211.329 35.1351 211.406 30.2212 209.829 27.1739ZM200.292 32.675C199.905 32.9697 199.587 33.3438 199.358 33.7721C199.128 34.2003 198.995 34.6726 198.965 35.1568C198.975 35.4386 199.641 36.1777 200.02 35.3283C200.302 34.4742 200.381 33.5662 200.25 32.6765L200.292 32.675ZM195.292 31.2541C194.483 32.0979 194.026 34.0159 194.957 34.5366C195.256 34.0493 195.442 33.5013 195.499 32.9331C195.557 32.365 195.486 31.7912 195.292 31.2541Z"
     fill="#2A344A"
     id="path22" />
  <path
     fill-rule="evenodd"
     clip-rule="evenodd"
     d="M219.757 122.954C225.943 124.116 231.61 128.963 230.973 136.146C229.988 148.36 215.957 147.397 215.797 147.981C215.366 149.423 214.624 151.955 214.12 153.375C214.077 153.494 214.083 153.626 214.137 153.74C214.19 153.855 214.287 153.944 214.406 153.987C214.525 154.03 214.656 154.024 214.771 153.971C214.885 153.917 214.974 153.82 215.017 153.701C215.553 152.314 216.38 150.346 216.918 148.893C219.154 149.132 221.415 148.993 223.605 148.482C238.578 142.507 235.578 123.347 220.169 120.666C217.768 120.168 215.272 120.431 213.026 121.416C210.781 122.401 208.898 124.061 207.638 126.165C204.494 131.082 206.234 137.689 213.15 140.625C213.259 140.66 213.377 140.656 213.483 140.613C213.59 140.57 213.677 140.491 213.731 140.39C213.785 140.289 213.801 140.172 213.777 140.06C213.753 139.948 213.691 139.848 213.6 139.777C207.573 136.962 206.666 131.082 209.373 127.337C210.446 125.63 212.017 124.294 213.875 123.51C215.732 122.726 217.785 122.532 219.757 122.954ZM214.676 166.34C216.469 164.317 216.081 160.985 214.308 160.295C213.288 159.603 212.214 158.994 211.097 158.473C207.907 157.649 204.611 160.646 206.309 163.871C208.28 167.525 212.979 168.214 214.676 166.34ZM212.793 165.007C212.125 165.147 211.43 165.086 210.796 164.832C206.986 163.445 207.878 159.94 210.804 160.19L213.884 161.156C215.042 161.904 213.938 164.645 212.828 164.941L212.793 165.007Z"
     fill="#2A344A"
     id="path24" />
  <path
     fill-rule="evenodd"
     clip-rule="evenodd"
     d="M142.818 224.73C142.68 224.735 94.1872 224.384 76.0362 225.029C75.7877 225.038 75.5459 224.948 75.3639 224.778C75.182 224.609 75.0748 224.374 75.066 224.126C75.0571 223.877 75.1474 223.635 75.3168 223.453C75.4863 223.272 75.7211 223.164 75.9696 223.155C91.4223 222.606 136.393 222.745 142.801 222.855C143.05 222.846 143.291 222.936 143.473 223.106C143.655 223.275 143.762 223.51 143.771 223.758C143.78 224.007 143.69 224.249 143.52 224.431C143.351 224.613 143.116 224.72 142.868 224.729L142.818 224.73ZM153.071 223.24C153.066 222.99 153.159 222.748 153.33 222.567C153.502 222.385 153.738 222.278 153.987 222.269C156.861 222.167 158.801 222.211 161.752 222.181C161.875 222.176 161.998 222.197 162.114 222.241C162.229 222.285 162.335 222.351 162.424 222.437C162.514 222.522 162.585 222.625 162.634 222.738C162.683 222.852 162.709 222.974 162.71 223.097C162.712 223.343 162.619 223.58 162.451 223.758C162.282 223.937 162.051 224.043 161.806 224.055C160.844 224.089 157.815 224.047 154.042 224.144C153.793 224.152 153.551 224.062 153.369 223.893C153.187 223.723 153.08 223.489 153.071 223.24ZM51.0832 225.742C50.1588 225.775 47.018 225.736 43.3069 225.843C43.0746 225.825 42.857 225.721 42.6958 225.553C42.5347 225.385 42.441 225.163 42.4327 224.93C42.4244 224.697 42.5021 224.469 42.6509 224.29C42.7997 224.11 43.0094 223.992 43.2399 223.957C46.1005 223.855 48.1158 223.896 51.0041 223.868C51.2526 223.859 51.4944 223.95 51.6763 224.119C51.8583 224.289 51.9655 224.523 51.9743 224.772C51.9832 225.02 51.8929 225.262 51.7235 225.444C51.554 225.626 51.3192 225.733 51.0707 225.742L51.0832 225.742ZM166.848 222C169.784 221.895 171.586 221.931 174.625 221.898C174.873 221.889 175.115 221.979 175.297 222.149C175.479 222.318 175.586 222.553 175.595 222.802C175.604 223.05 175.514 223.292 175.344 223.474C175.175 223.656 174.94 223.763 174.691 223.772C173.742 223.806 170.714 223.763 166.928 223.873C166.804 223.876 166.682 223.854 166.567 223.81C166.452 223.765 166.348 223.698 166.259 223.613C166.17 223.528 166.098 223.426 166.049 223.314C165.999 223.201 165.972 223.079 165.969 222.956C165.963 222.836 165.982 222.715 166.023 222.601C166.064 222.488 166.127 222.383 166.209 222.294C166.291 222.205 166.389 222.133 166.499 222.083C166.609 222.032 166.728 222.004 166.848 222ZM63.9314 225.46C62.982 225.494 59.9411 225.452 56.1676 225.561C55.9191 225.57 55.6772 225.479 55.4953 225.31C55.3133 225.141 55.2062 224.906 55.1973 224.657C55.1885 224.409 55.2787 224.167 55.4482 223.985C55.6176 223.803 55.8524 223.696 56.1009 223.687C59.0366 223.583 60.8514 223.618 63.8772 223.586C64.1257 223.577 64.3675 223.667 64.5495 223.836C64.7314 224.006 64.8386 224.241 64.8474 224.489C64.8562 224.738 64.766 224.979 64.5966 225.161C64.4271 225.343 64.1923 225.451 63.9438 225.459L63.9314 225.46Z"
     fill="#4E6AF3"
     id="path26" />
  <path
     d="M134.114 167.962C134.077 167.993 134.052 168.034 134.043 168.081C133.554 175.803 133.593 180.767 133.209 184.746C133.201 184.799 133.215 184.854 133.247 184.897C133.279 184.941 133.327 184.97 133.38 184.978C133.434 184.986 133.488 184.972 133.531 184.94C133.575 184.908 133.604 184.86 133.612 184.807C134.757 179.304 135.041 173.656 134.455 168.066C134.442 168.021 134.414 167.981 134.375 167.953C134.337 167.925 134.29 167.911 134.243 167.912C134.195 167.914 134.15 167.932 134.114 167.962Z"
     fill="#2A344A"
     id="path28" />
  <path
     d="M174.952 66.4562C174.96 66.4597 174.975 66.4661 174.994 66.4753C182.844 68.794 191.697 70.7134 200.349 71.0424C209.025 71.3724 217.462 70.1013 224.479 66.0658C229.384 63.1854 233.358 58.9545 235.925 53.878C238.492 48.8014 239.545 43.0935 238.957 37.4351C238.593 34.1921 237.071 30.6176 235.024 27.2336C232.981 23.8551 230.438 20.7033 228.076 18.3123L228.076 18.3122C223.198 13.3703 216.32 9.86467 208.904 7.60245C201.493 5.34152 193.577 4.3333 186.657 4.36192C177.398 4.41838 170.433 6.55396 165.3 9.89598C160.169 13.2372 156.838 17.8041 154.879 22.7764C150.95 32.7486 152.552 44.3184 156.208 50.7545C159.934 57.3006 164.633 61.1979 168.389 63.4728C170.268 64.6107 171.911 65.3431 173.08 65.7975C173.664 66.0246 174.131 66.1826 174.451 66.2876C174.515 66.3087 174.576 66.3283 174.631 66.3462C174.709 66.3716 174.776 66.3933 174.826 66.4103C174.868 66.4244 174.914 66.4404 174.952 66.4562ZM163.213 81.0115C162.093 81.8648 160.955 82.6209 159.854 83.2521C160.977 82.6947 162.145 82.0076 163.309 81.2051C166.69 78.8733 169.938 75.6297 171.802 71.9518C171.824 71.8882 171.823 71.8188 171.799 71.7556C171.773 71.6876 171.722 71.6321 171.656 71.6002C171.591 71.5683 171.516 71.5625 171.446 71.5839C171.381 71.6039 171.325 71.6465 171.288 71.7037C169.592 75.2269 166.451 78.544 163.213 81.0115Z"
     stroke="#2A344A"
     id="path30" />
  <path
     d="M 42.36057,31.970443 C 30.341965,27.400401 11.345237,37.438218 7.004321,47.189186 2.5062169,57.930101 6.5534955,74.653455 23.366013,75.708583 40.17853,76.763712 54.73111,68.777814 55.860192,54.657235 56.554399,46.242064 54.379176,36.540485 42.36057,31.970443 Z m 6.19233,43.236257 10e-5,1e-4 c 2.0945,4.0183 5.4883,7.3801 8.9087,9.7029 1.1122,0.7553 2.2231,1.3978 3.2875,1.9158 -1.0507,-0.5931 -2.1422,-1.3104 -3.2276,-2.1297 -3.2765,-2.4733 -6.5425,-5.9107 -8.4706,-9.7456 h -1e-4 l -0.0033,-0.0067 c -0.0155,-0.032 -0.0372,-0.0605 -0.064,-0.0838 -0.0268,-0.0233 -0.0581,-0.0409 -0.0918,-0.0518 -0.0338,-0.0108 -0.0695,-0.0147 -0.1048,-0.0114 -0.0354,0.0033 -0.0697,0.0137 -0.1009,0.0306 l -0.0066,0.0036 -0.0067,0.0034 c -0.0325,0.0164 -0.0614,0.0391 -0.0851,0.0668 -0.0236,0.0277 -0.0416,0.0598 -0.0527,0.0944 -0.0112,0.0346 -0.0153,0.0712 -0.0122,0.1075 0.0031,0.0363 0.0133,0.0716 0.0301,0.1039 z"
     stroke="#2a344a"
     id="path32"
     sodipodi:nodetypes="zczczccscccccscsccsccsc" />
</svg>
