<svg width="468" height="385" fill="none" xmlns="http://www.w3.org/2000/svg"><g clip-path="url(#a)"><path d="M255.263 304.509c-5.75 9.753-13.066 18.341-21.471 25.837-45.597 40.648-124.2 48.727-171.226 26.82-10.855-5.058-20.042-11.718-26.745-19.978-41.038-50.437-58.392-183.845 26.643-234.355C243.218-4.555 299.533 229.836 255.263 304.509Z" fill="#4E6AF3"/><path d="M233.794 330.347c-45.596 40.648-124.2 48.726-171.225 26.819.68-4.803 2.552-9.498 5.852-13.792 0 0-11.74-15.575-17.252-53.639-6.975-48.254 1.566-63.538 1.566-63.538-9.222-10.153-16.844-21.179-20.587-32.824-5.172-16.084 2.586-29.003 11.944-33.661 9.357-4.658 19.565 1.565 28.991 3.821h.102c-.034.255-.068.509-.068.764-.442 6.587 5.989 8.989 20.382 8.079.035.073 8.916 19.214 14.632 31.587 1.089 2.329 2.042 4.439 2.825 6.113 10.514-.8 39.846-13.137 43.589-14.447a356.946 356.946 0 0 1-2.144-4.73c-3.471-7.788-10.174-23.072-14.87-33.771 10.14-5.931 41.615-25.218 52.572-21.652 10.957 3.603 19.532 12.664 14.19 44.833-4.934 29.622-15.653 63.829-17.32 69.105 17.422 29.913 41.921 72.708 41.921 72.708l4.9 8.225Z" fill="#fff"/><path d="M152.44 190.828c-3.471-7.787-10.174-23.071-14.87-33.77-2.961-6.769-5.138-11.718-5.138-11.718s16.163-18.668 16.163-20.633c0-1.965-16.606-.619-34.062 2.475-3.981 8.624-18.102 12.372-18.102 12.372 3.266 11.027-1.09 26.565-6.227 23.509-1.463-.874-2.927-2.548-4.118-4.622-7.077-1.128-12.113.073-12.896 5.022-.034.255-.068.509-.068.764-.442 6.587 5.989 8.988 20.382 8.079.034.072 8.915 19.214 14.632 31.587 1.089 2.329 2.042 4.439 2.824 6.113 10.515-.8 39.846-13.137 43.589-14.447-.238-.546-.986-2.256-2.109-4.731Zm-40.935-39.083c-.817.328-1.736-.109-2.076-.982L108 146.687c-.306-.874.102-1.856.919-2.22.17-.073.374-.109.544-.109.647 0 1.259.437 1.497 1.128l1.429 4.076c.341.873-.068 1.856-.884 2.183Zm7.588-6.077c-.817.327-1.735-.109-2.076-.983l-1.429-4.075c-.306-.874.102-1.856.919-2.22.17-.073.374-.109.578-.109.647 0 1.259.436 1.497 1.091l1.43 4.076c.306.91-.102 1.892-.919 2.22Z" fill="#fff"/><path d="M120.008 143.452c.307.873-.102 1.856-.918 2.219-.817.328-1.736-.109-2.076-.982l-1.463-4.076c-.306-.873.102-1.856.919-2.22a1.51 1.51 0 0 1 .578-.109c.647 0 1.259.437 1.497 1.092l1.463 4.076ZM112.422 149.524c.306.873-.103 1.856-.919 2.22-.817.327-1.736-.11-2.076-.983l-1.463-4.076c-.306-.873.102-1.856.919-2.22a1.51 1.51 0 0 1 .578-.109c.647 0 1.259.437 1.497 1.092l1.464 4.076Z" fill="#fff"/><path d="M111.46 151.743c-.817.328-1.735-.109-2.076-.982l-1.429-4.076c-.306-.874.102-1.856.919-2.22.817-.328 1.735.109 2.076.983l1.429 4.075c.34.91-.068 1.893-.919 2.22ZM119.085 145.664c-.817.327-1.735-.11-2.076-.983l-1.429-4.076c-.306-.873.102-1.856.919-2.22.817-.327 1.735.11 2.076.983l1.429 4.076c.306.909-.102 1.892-.919 2.22Z" fill="#3B4A69"/><path d="M241.788 16.905c37.124-3.311 112.563-4.148 115.932 0 3.402 4.149 9.425 113.393 5.07 125.038-4.356 11.645-93.201 13.21-111.338 12.955-18.171-.255-20.825-7.242-22.016-19.142-1.225-11.899-2.892-91.63-2.892-101.201 0-9.644.714-16.376 15.244-17.65Z" fill="#F8FBFF"/><path d="M319.838 58.515c-.566 0-1.038-.47-1.1-1.076-.44-5.648-1.132-14.557-1.415-16.843-1.195-.235-4.37-.168-5.47.101-.157 1.244.126 5.144.377 8.069.126 1.546.252 3.16.346 4.74.032.639-.408 1.21-1.037 1.244-.597.033-1.132-.437-1.163-1.11-.095-1.546-.22-3.126-.346-4.673-.597-7.463-.629-9.279.314-10.085 1.195-1.009 6.602-.874 7.922-.471.597.202.975.538 1.1 1.008.22.707.975 10.086 1.572 17.819.063.638-.409 1.21-1.006 1.277h-.094ZM274.093 130.559h-.188c-1.006-.068-1.352-.673-2.232-6.018-.472-2.858-1.1-7.026-1.792-12.372-1.289-9.783-2.735-21.751-3.772-30.492a805.502 805.502 0 0 0-1.384-11.33c-.094-.639.315-1.244.912-1.345.597-.1 1.163.336 1.258.975.22 1.681.754 5.984 1.383 11.397 1.666 13.986 5.061 42.427 6.35 46.831 5.847-.134 47.437-2.891 52.152-4.101.786-4.404-1.415-37.72-3.018-58.33-.063-.638.409-1.21 1.006-1.277.597-.067 1.132.437 1.195 1.076 0 .135 1.131 14.692 2.043 29.215 1.855 30.022 1.037 30.627.22 31.232-.471.336-1.414 1.042-27.475 2.891-11.348.841-24.74 1.648-26.658 1.648Z" fill="#3B4A69"/><path d="M285.92 129.92c-.534 0-1.006-.404-1.1-.975-1.132-7.632-2.232-15.902-2.955-22.155-1.446-12.876-.88-13.28-.157-13.75.974-.673 5.375-1.177 6.696-1.312 5.972-.605 6.538 0 6.853.37.377.437.723.807 2.514 18.524.881 8.573 1.635 17.146 1.667 17.213.062.639-.378 1.21-.975 1.278-.597.067-1.132-.404-1.195-1.042-1.068-11.868-2.954-30.863-3.646-34.191-1.855-.235-8.614.538-10.437 1.076-.251 2.824 1.383 17.448 3.804 33.652.094.639-.314 1.244-.912 1.345-.031-.033-.094-.033-.157-.033ZM308.8 112.508c-1.666 0-2.861-.504-3.269-1.815-.44-1.446-.786-4.606-.943-7.128-.315-5.412.283-6.118 1.037-6.455 1.446-.638 4.81-.672 5.816-.672 4.621.034 4.998.706 5.249 1.177.598 1.143 1.132 10.388.315 12.372-.283.672-.692.907-1.006.974-.126.034-.314.101-.566.169-2.452.806-4.81 1.378-6.633 1.378Zm-2.012-13.313c-.283 1.748.126 8.606.786 10.758.126.134 1.1.84 7.199-1.009.094-.033.157-.033.251-.067.409-1.647.032-7.968-.251-9.783-1.446-.37-6.193-.403-7.985.1Z" fill="#3B4A69"/><path d="M256.877 73.878c-.535 1.681 7.262 2.118 8.11 2.152.818.067 26.124-29.047 28.356-29.215 2.232-.168 29.927 22.827 31.498 24.306 1.572 1.513 7.702-2.656 7.922-3.9.252-1.243-35.774-31.669-40.269-31.232-3.71.404-34.045 32.913-35.617 37.89Z" fill="#F8FBFF"/><path d="M265.048 77.203H264.765c-7.639-.471-8.393-1.648-8.739-2.22a1.75 1.75 0 0 1-.189-1.479c.943-2.992 9.902-13.212 17.259-21.079 4.841-5.177 16.441-17.28 19.301-17.549.818-.067 3.27-.302 21.094 13.952 8.928 7.161 18.013 15.028 19.836 17.213.22.269.66.807.534 1.48-.314 1.613-3.992 4-6.193 4.773-1.603.572-2.797.47-3.552-.269-2.2-2.118-27.255-22.693-30.681-23.97-2.044 1.21-12.135 12.237-18.202 18.894-8.865 9.615-9.525 10.254-10.185 10.254Zm-6.916-3.43c.597.27 2.263.774 6.57 1.043 1.069-.975 5.093-5.346 8.959-9.582 14.335-15.666 18.202-19.499 19.616-19.633.692-.068 1.855-.135 16.724 11.766 7.388 5.917 14.712 12.036 15.593 12.843.188.1 1.257.033 3.175-1.042 1.257-.706 2.2-1.48 2.672-1.95-1.792-1.917-9.054-8.405-18.39-15.902-14.021-11.263-19.428-14.187-20.402-14.154-1.289.27-8.079 6.354-18.139 17.079-8.268 8.808-15.026 16.91-16.378 19.532Z" fill="#3B4A69"/><path d="M255.671 156.173c-1.667 0-3.063 0-4.185-.037-8.95-.145-14.7-1.892-18.205-5.567-3.267-3.458-4.356-8.37-5.002-14.702-1.225-12.155-2.926-92.868-2.926-101.347 0-10.19 1.156-17.54 16.333-18.887 17.864-1.601 45.596-2.693 70.709-2.802 12.488-.073 23.24.145 31.067.582 13.611.764 14.631 2.002 15.176 2.657.442.546 1.497 1.82 3.13 20.378.987 11.1 1.906 25.328 2.62 40.102.647 13.465 2.484 58.007-.442 65.867-.749 2.002-3.403 5.022-17.592 7.751-8.371 1.601-19.804 2.948-33.959 3.967-21.948 1.601-45.189 2.038-56.724 2.038ZM241.788 16.907l.102 1.273c-13.509 1.201-14.156 6.696-14.156 16.34 0 10.735 1.736 89.556 2.893 101.092 1.123 11.026 3.096 17.759 20.859 18.013 9.017.146 35.728-.182 60.738-2.001 42.365-3.057 48.728-8.115 49.476-10.153 1.804-4.804 1.906-29.986.307-64.156-1.6-33.88-3.914-57.17-5.173-59.571-1.361-.983-12.284-2.548-45.154-2.366-24.84.146-52.232 1.238-69.79 2.766l-.102-1.237Z" fill="#3B4A69"/><path d="M338.421 18.477c-.816 10.408 5.547 17.394 14.02 18.159 8.472.764 17.013-4.913 17.83-15.32.817-10.408-6.567-19.542-15.04-20.306-8.473-.728-15.993 7.096-16.81 17.467ZM436.762 241.691c-.068 0-.136 0-.204-.036-.646-.11-1.089-.765-.986-1.456.204-1.201 19.463-121.799 21.505-135.336 2.246-14.702 2.96-21.907-4.492-24.49-3.811-1.31-20.416-1.129-41.343.472-21.301 1.638-39.846 4.149-47.162 6.405-.647.182-1.293-.182-1.463-.873-.17-.692.17-1.383.816-1.565 9.086-2.802 31.374-5.24 47.673-6.478 17.116-1.31 37.226-2.11 42.228-.364 9.766 3.385 8.234 13.429 6.125 27.33-2.042 13.573-21.335 134.135-21.506 135.372-.136.582-.646 1.019-1.191 1.019Z" fill="#3B4A69"/><path d="M415.47 240.058h-.204c-.647-.109-1.089-.764-.987-1.456.17-1.237 18.409-122.599 19.804-139.775.136-1.638.034-3.93-1.293-5.35-1.089-1.2-2.927-1.746-5.445-1.637-2.143.11-4.321.218-6.533.328-22.832 1.2-48.727 2.51-56.179 4.475-.647.182-1.293-.254-1.429-.946-.17-.691.238-1.383.884-1.528 7.691-2.001 32.565-3.312 56.656-4.549 2.212-.109 4.39-.218 6.533-.327 3.233-.182 5.683.655 7.282 2.401 1.531 1.674 2.178 4.222 1.94 7.351-1.395 17.286-19.634 138.72-19.804 139.958-.17.618-.681 1.055-1.225 1.055ZM390.118 335.365h-.068c-.374-.036-9.187-.691-42.33-6.259-32.87-5.531-40.696-6.841-40.696-22.89-.035-28.639 13.713-104.877 18.544-129.331.137-.692.783-1.128 1.396-.983.646.146 1.054.837.918 1.492-6.057 30.677-18.511 102.512-18.477 128.786 0 13.392 4.39 14.629 38.69 20.379 32.972 5.531 42.023 6.222 42.125 6.222.647.037 1.157.655 1.123 1.347-.068.691-.612 1.237-1.225 1.237Z" fill="#3B4A69"/><path d="M363.914 323.36c-5.921 0-24.568-4.695-26.405-5.386-2.076-.801-2.586-4.585-2.246-7.06.306-2.438 1.395-3.894 2.96-4.003 7.623-.546 26.474 2.875 29.4 5.859 1.633 1.638 2.246 4.331 1.565 6.66-.612 2.11-2.177 3.493-4.219 3.857a8.644 8.644 0 0 1-1.055.073Zm-23.649-13.938c-.681 0-1.327.037-1.906.073-.204 0-.476.473-.646 1.31-.442 2.111.17 4.512.646 4.804 1.872.727 20.383 5.24 25.487 5.24.306 0 .544 0 .749-.037 1.463-.254 2.075-1.273 2.313-2.074.409-1.419.034-3.093-.918-4.076-1.804-1.819-16.878-5.24-25.725-5.24ZM401.478 311.384h-.17c-.204-.037-19.396-2.693-38.723-6.187-11.365-2.037-20.553-3.966-27.324-5.713-11.672-3.02-13.883-4.876-14.53-6.295-1.837-4.113.272-28.094 2.382-47.49 2.348-21.507 5.649-46.07 7.554-55.896.136-.691.749-1.128 1.395-.982.647.145 1.055.8.919 1.492-1.872 9.789-5.206 34.243-7.52 55.677-3.335 30.786-3.539 43.996-2.62 46.07.136.292 1.429 1.966 12.998 4.95 6.704 1.71 15.857 3.639 27.154 5.676 19.294 3.458 38.417 6.15 38.621 6.187.647.073 1.123.728 1.021 1.419-.068.619-.578 1.092-1.157 1.092ZM426.351 238.126c-.069 0-.137 0-.205-.037-.646-.109-1.088-.764-.952-1.455.34-2.038 1.054-6.187 2.041-11.9 5.581-32.278 20.451-117.978 18.273-130.496a1.274 1.274 0 0 1 .953-1.492c.646-.145 1.259.328 1.395 1.019 2.007 11.499-8.711 76.274-18.273 131.406-.987 5.713-1.701 9.825-2.041 11.863-.103.655-.613 1.092-1.191 1.092Z" fill="#3B4A69"/><path d="M448.87 292.285c10.708-16.469 7.529-38.638-7.099-49.515-14.629-10.877-35.167-6.344-45.875 10.125-10.707 16.47-7.529 38.638 7.1 49.516 14.628 10.877 35.167 6.344 45.874-10.126Z" fill="#4E6AF3"/><path d="M294.495 272.448c-.068 0-.171 0-.239-.036-15.55-3.457-26.847-16.012-30.999-34.462-.17-.691.239-1.383.885-1.528.647-.182 1.293.254 1.429.946 3.947 17.467 14.564 29.33 29.162 32.569.646.146 1.055.801.919 1.492-.103.582-.613 1.019-1.157 1.019Z" fill="#3B4A69"/><path d="M237.732 204.976c2.552-3.675 31.476-8.588 33.789-5.604 2.11 2.729 6.874 23.072 2.11 24.2-6.329 1.492-28.209 5.859-30.658 2.511-2.45-3.421-8.643-16.23-5.241-21.107Z" fill="#F8FBFF"/><path d="M248.421 228.556c-4.39 0-5.785-.873-6.397-1.747-2.178-2.984-9.29-16.812-5.275-22.598 2.484-3.566 20.723-6.769 28.924-7.023 4.9-.146 6.159.618 6.737 1.346 2.178 2.802 5.751 17.868 3.913 23.545-.612 1.892-1.701 2.511-2.484 2.693-3.13.727-10.208 2.219-16.911 3.093-3.641.509-6.397.691-8.507.691Zm18.409-28.821c-2.178 0-5.309.218-9.494.837-9.868 1.419-17.796 3.894-18.681 5.204-2.688 3.857 2.382 15.611 5.24 19.505.034.073 1.293 1.601 12.794.109 6.602-.873 13.577-2.329 16.674-3.057.306-.072.544-.436.749-1.055 1.565-4.84-2.008-19.068-3.471-21.07-.341-.255-1.6-.473-3.811-.473Z" fill="#3B4A69"/><path d="M256.732 217.424c-2.688 0-6.874-1.565-14.564-4.622-.612-.255-.919-.983-.714-1.638.238-.655.918-.982 1.531-.764 9.153 3.676 13.236 5.059 14.836 4.258 1.089-.546 5.648-6.405 9.221-11.499.409-.546 1.157-.692 1.668-.255.51.437.646 1.237.238 1.783-1.838 2.62-7.997 11.208-10.106 12.264a4.795 4.795 0 0 1-2.11.473ZM70.863 385.439c-.34 0-.68-.146-.918-.437-5.07-6.295-8.099-13.5-8.711-20.851-.647-7.533 1.293-14.738 5.682-20.816-2.484-3.711-12.08-19.796-16.911-53.421-6.942-48.144 1.36-63.719 1.735-64.374.34-.619 1.055-.801 1.633-.437.579.364.749 1.128.409 1.747-.068.145-8.201 15.684-1.43 62.664 5.377 37.191 16.878 52.912 17.014 53.057.34.473.34 1.128 0 1.601-8.609 11.245-7.656 26.638 2.416 39.156.442.546.374 1.347-.136 1.784-.238.218-.51.327-.783.327ZM90.09 344.065c-.374 0-.782-.218-.986-.582-.374-.582-.204-1.383.34-1.747 10.242-7.132 31.544-12.154 55.567-13.064 24.738-.946 46.073 2.584 57.132 9.425.578.364.748 1.128.442 1.747-.306.619-1.055.801-1.633.473-10.685-6.623-31.544-10.007-55.839-9.097-23.615.909-44.474 5.749-54.342 12.663-.238.11-.476.182-.68.182ZM111.426 222.521c-.51 0-.986-.364-1.157-.91-1.02-3.748.375-6.332 1.259-7.533l-9.289-20.124c-6.533-14.119-8.711-18.777-9.392-20.305-10.14.582-16.163-.583-18.987-3.639-1.395-1.492-2.042-3.494-1.871-5.859.17-2.329 1.054-4.149 2.654-5.422 2.96-2.329 8.37-2.548 15.993-.656.646.146 1.054.837.884 1.529-.136.691-.782 1.128-1.429.946-6.84-1.71-11.705-1.638-14.053.218-1.021.801-1.565 1.965-1.667 3.567-.103 1.637.272 2.911 1.19 3.893 2.348 2.548 8.201 3.457 17.967 2.839.476-.037.919.255 1.157.728.136.291 18.613 40.175 19.429 41.921 0 .037.035.037.035.037.238.582.068 1.055-.069 1.273a1.31 1.31 0 0 1-.442.437c-.51.619-1.803 2.475-.987 5.422.17.692-.17 1.383-.816 1.565-.205.036-.307.073-.409.073Z" fill="#3B4A69"/><path d="M101.905 124.372c6.499-15.283 16.64-5.822 12.658 2.803-3.981 8.624-18.102 12.372-18.102 12.372 3.266 11.027-1.09 26.565-6.227 23.508-4.084-2.401-8.2-11.281-6.772-17.212 3.88-16.339 13.645-30.386 18.443-21.471Z" fill="#3B4A69"/><path d="M91.558 164.73c-.647 0-1.26-.182-1.906-.545-4.56-2.693-8.949-12.046-7.35-18.669 2.79-11.681 9.256-24.272 15.279-25.146 1.157-.182 2.722.037 4.151 1.565 2.892-5.64 6.091-6.768 7.826-6.95 2.212-.219 4.356.946 5.717 3.093 1.735 2.729 1.872 6.405.408 9.643-3.538 7.606-14.087 11.572-17.694 12.701 2.144 8.988-.136 20.014-3.81 23.217-.852.727-1.736 1.091-2.621 1.091Zm6.703-41.849c-.17 0-.272.037-.374.037-3.88.582-10.14 10.044-13.27 23.253-1.26 5.277 2.551 13.61 6.226 15.794.443.254 1.021.436 1.838-.255 2.858-2.511 5.206-13.246 2.688-21.762a1.339 1.339 0 0 1 .102-1.018c.17-.292.442-.546.749-.619.136-.036 13.645-3.748 17.32-11.718 1.327-2.875.748-5.531-.239-7.096-.884-1.383-2.177-2.111-3.538-1.965-2.382.218-4.832 2.911-6.738 7.351-.17.437-.578.728-1.021.728-.442.036-.85-.219-1.089-.619-1.054-1.856-2.075-2.111-2.654-2.111ZM113.299 163.64c-2.45 0-6.023-.655-9.391-2.875-.545-.364-.749-1.165-.375-1.747.341-.582 1.089-.8 1.634-.4 4.287 2.838 8.847 2.693 9.97 2.292.612-.218 1.293.146 1.497.837.204.655-.136 1.383-.783 1.602-.544.145-1.429.291-2.552.291ZM87.167 167.535a.998.998 0 0 1-.68-.255c-.715-.364-4.9-1.565-7.623-.873-.646.182-1.293-.255-1.429-.946-.17-.692.238-1.383.885-1.529 3.47-.909 8.915.546 9.698 1.419.476.51.476 1.311 0 1.82a1.14 1.14 0 0 1-.851.364Z" fill="#3B4A69"/><path d="M154.577 196.864c-.442 0-.85-.255-1.054-.692-1.702-3.493-21.336-48.399-22.152-50.291a1.351 1.351 0 0 1 .204-1.419c6.703-7.715 13.815-16.449 15.516-19.251-3.13-.582-15.142.182-32.326 3.239-.646.109-1.259-.364-1.361-1.056-.102-.691.341-1.346.987-1.455 8.133-1.456 16.163-2.511 22.628-3.057 10.651-.91 11.774.146 12.25.582.374.328.579.765.579 1.274 0 .728 0 1.71-8.371 11.9-3.131 3.821-6.329 7.532-7.554 8.988 2.688 6.114 20.212 46.252 21.777 49.418.307.619.068 1.383-.51 1.711-.238.036-.408.109-.613.109Z" fill="#3B4A69"/><path d="M166.246 215.13c-.34 0-.68-.146-.884-.437-3.131-3.857-5.207-8.443-6.84-12.082-1.157-2.583-2.722-6.077-3.505-5.822-.612.218-2.007.764-3.947 1.528-9.357 3.676-31.101 12.3-39.982 12.992-.647.036-1.225-.473-1.259-1.165-.034-.691.442-1.31 1.089-1.346 8.507-.655 30.046-9.171 39.267-12.81 1.974-.764 3.369-1.346 4.05-1.564 2.756-.983 4.389 2.583 6.431 7.132 1.599 3.53 3.573 7.933 6.499 11.536.442.546.374 1.346-.102 1.783-.272.146-.545.255-.817.255ZM152.429 192.096c-.544 0-1.054-.4-1.156-.983-1.055-5.058 1.327-11.499 5.75-15.684 3.369-3.166 7.316-4.439 11.093-3.602.238-2.511.987-7.133 3.675-8.661.102-2.257.544-7.497 2.008-9.244.442-.509 1.191-.582 1.667-.109s.544 1.274.102 1.783c-.749.874-1.327 5.095-1.429 8.443-.034.546-.374 1.019-.885 1.164-2.075.619-2.824 5.823-2.858 8.225 0 .4-.204.8-.51 1.019a1.158 1.158 0 0 1-1.089.145c-4.594-1.747-8.371.946-10.209 2.657-3.743 3.53-5.852 9.097-5.002 13.209.137.692-.272 1.383-.918 1.529-.068.109-.136.109-.239.109Z" fill="#3B4A69"/><path d="M187 250.65c-.136 0-.272-.037-.374-.073-.613-.218-.953-.946-.749-1.638.136-.363 12.012-37.19 17.286-68.923 5.41-32.606-3.709-40.248-13.373-43.414-9.664-3.166-38.315 13.683-49.101 20.051-.953.546-1.804 1.056-2.552 1.492-.579.328-1.294.11-1.6-.509-.306-.619-.102-1.383.477-1.71.748-.437 1.599-.91 2.518-1.492 19.94-11.754 41.581-23.327 50.973-20.27 6.907 2.256 11.331 6.187 13.951 12.373 3.233 7.642 3.573 18.741 1.055 33.879-5.309 31.915-17.252 68.96-17.354 69.324-.204.582-.681.91-1.157.91ZM136.712 224.732c-4.015 0-7.894-.509-10.922-1.419-.647-.182-1.021-.873-.817-1.565.17-.691.817-1.091 1.463-.873 8.711 2.584 22.798 1.419 27.29-3.894.442-.509 1.191-.582 1.667-.109.477.473.545 1.274.102 1.783-3.641 4.331-11.399 6.077-18.783 6.077Z" fill="#3B4A69"/><path d="M228.93 323.353c-.409 0-.783-.219-1.021-.619-.375-.655-37.703-65.903-52.743-91.122-.34-.582-.204-1.382.375-1.746a1.127 1.127 0 0 1 1.633.4c15.074 25.255 52.402 90.503 52.776 91.158.341.582.171 1.383-.408 1.747-.204.109-.408.182-.612.182ZM125.245 332.967c-.511 0-.953-.328-1.123-.874-.17-.546-17.184-53.275-23.139-70.197-.238-.655.068-1.383.681-1.637.612-.255 1.293.072 1.531.727 5.955 16.958 23.002 69.724 23.173 70.27.204.655-.102 1.383-.749 1.638a1.161 1.161 0 0 1-.374.073ZM108.2 205.195a1.07 1.07 0 0 1-.647-.219c-9.63-6.805-19.531-11.062-23.989-11.608-2.892-.364-6.09-2.911-9.153-5.35-2.382-1.892-4.832-3.857-6.398-4.075-3.504-.51-4.831-.073-4.865-.073-.579.255-1.225-.073-1.498-.692-2.688-6.586-10.956-5.858-11.058-5.822-.647.073-1.225-.437-1.294-1.165-.068-.691.409-1.31 1.09-1.382.408-.037 9.323-.801 13.032 6.441.919-.109 2.484-.182 4.9.182 2.178.327 4.764 2.365 7.486 4.585 2.688 2.147 5.784 4.621 7.996 4.876 4.832.582 15.006 4.913 25.044 12.009.545.4.715 1.165.341 1.783a1.23 1.23 0 0 1-.987.51Z" fill="#3B4A69"/><path d="M104.896 271.752c-.238 0-.476-.073-.714-.255-2.621-2.074-5.581-4.33-8.712-6.695-21.947-16.704-55.09-41.922-64.447-71.071-5.275-16.412 2.348-30.131 12.556-35.226 7.35-3.675 15.006-1.055 22.424 1.456 2.552.873 4.968 1.674 7.35 2.256.646.146 1.055.837.918 1.528-.136.692-.782 1.129-1.429.983-2.484-.582-5.07-1.456-7.554-2.329-6.975-2.365-14.19-4.804-20.688-1.565-9.256 4.622-16.13 17.104-11.332 32.097 9.12 28.384 41.888 53.312 63.564 69.833 3.13 2.402 6.091 4.658 8.745 6.732.544.4.646 1.201.272 1.783-.204.291-.579.473-.953.473Z" fill="#3B4A69"/><path d="M351.108 140.378s-12.964 9.244-26.677 9.571c-2.042 47.089 21.539 52.584 21.539 52.584s23.99.582 29.706-46.034c-13.407-3.784-24.568-16.121-24.568-16.121Z" fill="#F8FBFF"/><path d="M346.006 203.772h-.068c-.068 0-.136 0-.238-.036-.272-.073-6.363-1.565-12.182-9.061-5.274-6.805-11.331-20.088-10.276-44.833.034-.655.544-1.201 1.157-1.201 13.202-.291 25.929-9.243 26.031-9.352a1.176 1.176 0 0 1 1.531.182c.102.109 11.127 12.118 23.989 15.757.579.145.953.764.885 1.382-2.416 19.688-8.269 33.589-17.422 41.34-6.635 5.64-12.624 5.822-13.407 5.822Zm-20.45-52.62c-.817 23.181 4.832 35.553 9.766 41.922 4.9 6.295 9.936 7.933 10.752 8.151.817-.036 6.159-.364 11.978-5.386 5.785-4.985 13.271-15.684 16.265-38.464-11.331-3.567-20.791-12.737-23.377-15.43-3.028 2.038-13.713 8.552-25.384 9.207Z" fill="#3B4A69"/><path d="M334.786 170.475c-.136 1.347 8.166 10.699 10.31 11.9 2.11 1.237 20.689-14.811 20.825-16.958.136-2.147-3.097-4.731-4.083-3.894-.987.837-13.782 13.501-15.415 12.81-1.633-.692-5.444-8.043-6.669-8.334-1.191-.218-4.696 2.002-4.968 4.476Z" fill="#4E6AF3"/><path d="M357.349 9.194V29.1c0 .11-.034.218-.103.291a.372.372 0 0 1-.272.11h-4.695a.373.373 0 0 1-.273-.11.43.43 0 0 1-.102-.291V14.034h-1.395a.372.372 0 0 1-.272-.109.43.43 0 0 1-.102-.29v-4.44a.43.43 0 0 1 .102-.292.372.372 0 0 1 .272-.109h6.465c.102 0 .204.037.272.11a.426.426 0 0 1 .103.29ZM433.219 279.363c.442 2.111.34 3.93-.238 5.422-.579 1.529-1.736 2.766-3.505 3.785l1.123 5.531a.665.665 0 0 1-.068.437c-.068.146-.204.218-.341.255l-6.805 1.601c-.136.036-.272 0-.408-.073-.136-.073-.205-.218-.239-.364l-.986-4.912c-1.293.254-2.45.4-3.539.509a.493.493 0 0 1-.375-.146c-.102-.109-.204-.218-.238-.4l-.68-6.004c-.034-.182.034-.328.136-.473.102-.146.272-.182.442-.182.443 0 .885 0 1.327-.037.443-.036 1.055-.072 1.77-.145a14.126 14.126 0 0 0 1.973-.328c.647-.145 1.191-.364 1.634-.655.408-.291.68-.618.816-.946.136-.327.204-.619.238-.873a2.042 2.042 0 0 0 0-.655c-.034-.219-.136-.401-.238-.619-.136-.218-.34-.473-.612-.801-.306-.327-.749-.582-1.327-.8-.613-.218-1.327-.328-2.11-.364-.919 0-1.837-.182-2.756-.51a10.46 10.46 0 0 1-2.654-1.419c-.851-.618-1.6-1.455-2.28-2.547-.647-1.092-1.123-2.293-1.429-3.676-.409-1.928-.273-3.675.374-5.203.646-1.529 1.769-2.802 3.369-3.858l-1.157-5.677a.773.773 0 0 1 .068-.473c.068-.145.204-.218.34-.254l6.806-1.602a.642.642 0 0 1 .442.073c.136.109.238.219.238.4l.987 4.913a64.62 64.62 0 0 1 3.675-.546c.136 0 .272.037.408.146.136.109.204.218.204.4l.681 6.005a.768.768 0 0 1-.136.473.476.476 0 0 1-.409.218c-1.973 0-3.743.182-5.308.509-.646.146-1.191.328-1.599.655-.408.292-.715.619-.851.983a4.472 4.472 0 0 0-.238.873 2.101 2.101 0 0 0 0 .655c.034.182.102.401.238.619.136.218.34.473.647.801.306.291.748.582 1.361.8.612.219 1.327.328 2.11.364a9.275 9.275 0 0 1 2.756.546c.918.328 1.803.801 2.654 1.419.851.619 1.599 1.492 2.246 2.548.714 1.019 1.191 2.219 1.463 3.602Z" fill="#fff"/><path d="M391.948 339.118c1.429-2.62 57.166-7.169 59.343-5.131 2.178 2.037 2.756 12.809-.714 13.5-3.505.655-56.111 5.714-57.541 4.331-1.429-1.383-2.143-10.772-1.088-12.7Z" fill="#F8FBFF"/><path d="M395.934 353.345c-3.164 0-3.471-.291-3.709-.546-1.905-1.892-2.552-11.972-1.327-14.301.375-.655 1.055-1.274 6.125-2.147 6.635-1.165 19.43-2.511 31.816-3.385 21.539-1.492 22.764-.327 23.24.073 2.076 1.929 2.689 8.334 1.736 12.045-.715 2.693-2.042 3.494-3.029 3.676-1.803.364-15.856 1.783-29.671 2.947-14.564 1.238-21.642 1.638-25.181 1.638Zm-2.212-2.62c1.668.255 9.8-.073 28.141-1.638 13.339-1.128 26.814-2.511 28.481-2.838.442-.073.885-.764 1.157-1.856.851-3.312.034-8.224-.919-9.352-1.667-.546-12.794-.328-28.957 1.019-16.639 1.382-27.052 3.02-28.719 3.857-.647 1.783-.068 9.243.816 10.808Z" fill="#3B4A69"/><path d="M389.225 326.302c1.395-2.62 57.132-7.533 59.344-5.495 2.211 2.038 3.198 11.245-.273 11.936-3.505.692-56.451 7.642-57.88 6.259-1.429-1.382-2.212-10.771-1.191-12.7Z" fill="#F8FBFF"/><path d="M392.186 340.462c-2.076 0-2.348-.255-2.586-.473-1.94-1.892-2.62-11.973-1.395-14.265.374-.692 1.021-1.274 6.091-2.184 6.635-1.2 19.395-2.656 31.781-3.566 21.54-1.637 22.765-.473 23.241-.073 1.94 1.783 2.994 7.242 2.076 10.772-.647 2.547-2.11 3.202-2.927 3.384-1.803.364-16.163 2.293-29.808 3.93-16.469 1.893-23.444 2.475-26.473 2.475Zm-1.089-2.547c4.628.545 51.994-5.423 56.962-6.405.579-.109.919-.91 1.089-1.529.68-2.656-.17-6.914-1.259-8.078-1.667-.546-12.794-.255-28.957 1.201-16.64 1.492-27.052 3.166-28.719 4.039-.647 1.747-.035 9.134.884 10.772Z" fill="#3B4A69"/><path d="M392.766 311.895c1.395-2.62 58.459-5.604 60.671-3.566 2.211 2.038 2.586 11.317-.919 12.009-3.505.691-57.166 5.64-58.595 4.257-1.395-1.382-2.178-10.771-1.157-12.7Z" fill="#F8FBFF"/><path d="M396.954 326.089c-3.233 0-3.573-.292-3.811-.546-1.94-1.893-2.62-11.973-1.395-14.265.374-.692 1.123-1.128 4.151-1.674 6.601-1.201 21.199-2.257 32.769-2.766 6.465-.291 12.42-.437 16.741-.4 7.758.036 8.337.582 8.779.982 1.974 1.856 2.552 7.096 1.701 10.408-.544 2.147-1.667 3.493-3.198 3.784-1.94.401-16.912 1.82-30.182 2.912-14.734 1.201-21.948 1.565-25.555 1.565Zm-2.314-2.621c1.668.255 9.936-.036 28.685-1.601 13.679-1.128 27.392-2.511 28.992-2.802.748-.145 1.157-1.31 1.327-1.965.714-2.766.068-6.659-.919-7.751-1.633-.582-13.033-.655-29.604.255-17.218.946-27.664 2.256-29.4 3.093-.612 1.819.034 9.207.919 10.771Z" fill="#3B4A69"/></g><defs><clipPath id="a"><path fill="#fff" d="M0 0h468v385H0z"/></clipPath></defs></svg>