<svg width="470" height="360" viewBox="0 0 470 360" fill="none" xmlns="http://www.w3.org/2000/svg">
<g clip-path="url(#clip0_5532_215457)">
<path d="M40.2051 22.7817C76.815 19.7181 151.209 18.9438 154.531 22.7817C157.887 26.6196 163.826 127.684 159.531 138.457C155.236 149.23 67.6205 150.678 49.7351 150.442C31.816 150.206 29.1986 143.743 28.0242 132.734C26.8161 121.725 25.1719 47.9636 25.1719 39.1096C25.1719 30.1881 25.8765 23.96 40.2051 22.7817Z" fill="#F8FBFF"/>
<path d="M117.178 61.2766C116.62 61.2766 116.155 60.8412 116.093 60.2813C115.659 55.0562 114.977 46.8143 114.698 44.6993C113.52 44.4816 110.388 44.5438 109.303 44.7926C109.148 45.9434 109.427 49.5512 109.675 52.2571C109.799 53.6878 109.923 55.1806 110.016 56.6424C110.047 57.2334 109.613 57.7621 108.993 57.7932C108.404 57.8243 107.877 57.3889 107.846 56.7668C107.753 55.3362 107.629 53.8744 107.505 52.4437C106.916 45.5391 106.885 43.8596 107.815 43.1131C108.993 42.1801 114.326 42.3045 115.628 42.6777C116.217 42.8643 116.589 43.1753 116.713 43.6108C116.93 44.2639 117.674 52.9413 118.263 60.0947C118.325 60.6857 117.86 61.2144 117.271 61.2766C117.24 61.2766 117.209 61.2766 117.178 61.2766Z" fill="#2A344A"/>
<path d="M72.0641 127.925C71.9711 127.925 71.9091 127.925 71.8781 127.925C70.886 127.863 70.545 127.303 69.677 122.358C69.212 119.714 68.592 115.858 67.91 110.913C66.6389 101.862 65.2129 90.7898 64.1899 82.7033C63.5699 77.6959 63.0429 73.746 62.8258 72.222C62.7328 71.6311 63.1359 71.0712 63.7249 70.9779C64.3139 70.8846 64.8719 71.2889 64.9649 71.8799C65.1819 73.435 65.7089 77.416 66.3289 82.4234C67.972 95.3618 71.3201 121.674 72.5911 125.748C78.3572 125.624 119.371 123.074 124.021 121.954C124.796 117.88 122.626 87.0576 121.045 67.9921C120.983 67.4012 121.448 66.8725 122.037 66.8103C122.626 66.7481 123.153 67.2146 123.215 67.8055C123.215 67.9299 124.331 81.397 125.23 94.833C127.059 122.607 126.253 123.167 125.447 123.727C124.982 124.038 124.052 124.691 98.3527 126.401C87.1614 127.179 73.9551 127.925 72.0641 127.925Z" fill="#2A344A"/>
<path d="M83.7294 127.335C83.2024 127.335 82.7374 126.962 82.6444 126.433C81.5284 119.373 80.4434 111.722 79.7303 105.937C78.3043 94.025 78.8623 93.6518 79.5753 93.2163C80.5364 92.5943 84.8765 92.1278 86.1785 92.0033C92.0686 91.4435 92.6267 92.0033 92.9367 92.3455C93.3087 92.7498 93.6497 93.0919 95.4167 109.483C96.2847 117.414 97.0288 125.345 97.0598 125.407C97.1218 125.998 96.6877 126.526 96.0987 126.589C95.5097 126.651 94.9827 126.215 94.9207 125.624C93.8667 114.645 92.0066 97.073 91.3246 93.9939C89.4956 93.7762 82.8304 94.4915 81.0324 94.9891C80.7844 97.6017 82.3964 111.131 84.7835 126.122C84.8765 126.713 84.4735 127.273 83.8844 127.366C83.8534 127.335 83.7914 127.335 83.7294 127.335Z" fill="#2A344A"/>
<path d="M106.293 111.226C104.65 111.226 103.472 110.76 103.069 109.547C102.635 108.209 102.294 105.286 102.139 102.953C101.829 97.9456 102.418 97.2924 103.162 96.9814C104.588 96.3905 107.905 96.3594 108.897 96.3594C113.454 96.3905 113.826 97.0125 114.074 97.4479C114.663 98.5054 115.19 107.058 114.384 108.893C114.105 109.515 113.702 109.733 113.392 109.795C113.268 109.826 113.082 109.889 112.834 109.951C110.416 110.697 108.091 111.226 106.293 111.226ZM104.309 98.9097C104.03 100.527 104.433 106.872 105.084 108.862C105.208 108.987 106.169 109.64 112.183 107.929C112.276 107.898 112.338 107.898 112.431 107.867C112.834 106.343 112.462 100.496 112.183 98.8164C110.757 98.4743 106.076 98.4432 104.309 98.9097Z" fill="#2A344A"/>
<path d="M55.0923 75.4891C54.5653 77.0442 62.2535 77.4485 63.0905 77.4796C63.8965 77.5418 88.8521 50.6076 91.0532 50.4521C93.2542 50.2966 120.566 71.5703 122.116 72.9388C123.666 74.3383 129.711 70.4817 129.928 69.3309C130.176 68.1802 94.6492 40.033 90.2161 40.4373C86.558 40.8106 56.6423 70.886 55.0923 75.4891Z" fill="#F8FBFF"/>
<path d="M63.1506 78.5647C63.1196 78.5647 63.0576 78.5647 62.9956 78.5647H62.8716C55.3385 78.1292 54.5944 77.0407 54.2534 76.512C53.9744 76.1076 53.9124 75.61 54.0674 75.1435C54.9974 72.3754 63.8327 62.9204 71.0868 55.6426C75.861 50.8529 87.3002 39.6563 90.1213 39.4075C90.9273 39.3453 93.3454 39.1275 110.923 52.3147C119.727 58.9394 128.686 66.2172 130.484 68.2388C130.701 68.4877 131.135 68.9853 131.011 69.6073C130.701 71.1002 127.074 73.3085 124.904 74.0238C123.323 74.5525 122.145 74.4592 121.401 73.775C119.231 71.8156 94.5234 52.7812 91.1443 51.5994C89.1293 52.719 79.178 62.9204 73.1949 69.0786C64.4527 77.9737 63.8016 78.5647 63.1506 78.5647ZM56.3305 75.3923C56.9195 75.6411 58.5625 76.1076 62.8096 76.3564C63.8637 75.4545 67.8318 71.4113 71.6448 67.4924C85.7812 52.999 89.5943 49.4533 90.9893 49.3289C91.6713 49.2667 92.8184 49.2045 107.482 60.2146C114.767 65.6885 121.99 71.349 122.858 72.0955C123.044 72.1888 124.098 72.1266 125.989 71.1313C127.229 70.4782 128.159 69.7628 128.624 69.3274C126.857 67.5546 119.696 61.552 110.489 54.6162C96.6624 44.1971 91.3303 41.4913 90.3693 41.5224C89.0983 41.7712 82.4021 47.4006 72.4819 57.3221C64.3287 65.4708 57.6635 72.9663 56.3305 75.3923Z" fill="#2A344A"/>
<path d="M53.8986 151.622C52.2544 151.622 50.8786 151.622 49.7712 151.588C40.9459 151.454 35.2749 149.838 31.8186 146.437C28.5972 143.239 27.5234 138.694 26.8858 132.836C25.6778 121.592 24 46.9216 24 39.0775C24 29.6511 25.1409 22.8507 40.107 21.605C57.7241 20.1237 85.0724 19.1138 109.837 19.0128C122.152 18.9454 132.756 19.1474 140.474 19.5514C153.896 20.2584 154.903 21.403 155.44 22.009C155.876 22.514 156.916 23.6923 158.527 40.8618C159.5 51.1298 160.406 64.2931 161.111 77.9614C161.749 90.4177 163.561 131.625 160.675 138.896C159.936 140.748 157.319 143.542 143.326 146.067C135.071 147.548 123.796 148.794 109.837 149.737C88.1931 151.218 65.2742 151.622 53.8986 151.622ZM40.2077 22.7833L40.3083 23.9616C26.9865 25.0726 26.3489 30.1561 26.3489 39.0775C26.3489 49.0089 28.0603 121.929 29.2012 132.601C30.3086 142.802 32.2548 149.03 49.7712 149.265C58.6636 149.4 85.0053 149.097 109.669 147.414C151.447 144.586 157.722 139.906 158.46 138.021C160.238 133.577 160.339 110.28 158.762 78.6684C157.185 47.3256 154.903 25.7796 153.661 23.5576C152.319 22.6487 141.548 21.201 109.132 21.3694C84.6362 21.504 57.6234 22.514 40.3083 23.928L40.2077 22.7833Z" fill="#2A344A"/>
<path d="M134.08 29.0911C133.16 41.03 140.323 49.0449 149.86 49.9216C159.397 50.7982 169.011 44.2861 169.93 32.3472C170.85 20.4083 162.538 9.93047 153.001 9.05383C143.464 8.21895 134.999 17.194 134.08 29.0911Z" fill="#4E6AF3"/>
<path d="M155 20.3866V39.6134C155 39.7188 154.972 39.8243 154.915 39.8946C154.859 39.9649 154.774 40 154.689 40H150.783C150.698 40 150.613 39.9649 150.557 39.8946C150.5 39.8243 150.472 39.7188 150.472 39.6134V25.0615H149.311C149.226 25.0615 149.142 25.0264 149.085 24.9561C149.028 24.8858 149 24.7803 149 24.6749V20.3866C149 20.2812 149.028 20.1758 149.085 20.1055C149.142 20.0352 149.226 20 149.311 20H154.689C154.774 20 154.859 20.0352 154.915 20.1055C154.972 20.1758 155 20.2812 155 20.3866Z" fill="white"/>
<path d="M78.2899 140.586C78.6317 140.953 78.8457 141.42 78.9001 141.918C79.6181 148.873 79.6232 155.883 78.9152 162.839C78.8776 163.244 78.7326 163.632 78.4953 163.963C78.258 164.294 77.9369 164.555 77.565 164.72C72.1792 167.193 54.6262 170 45.2808 170C44.7633 170.001 44.2606 169.828 43.8533 169.509C43.4461 169.19 43.158 168.743 43.0355 168.24C41.3008 161.046 40.2844 153.698 40.0012 146.303C39.9803 145.495 40.2282 144.704 40.7061 144.053C41.1839 143.402 41.8646 142.929 42.641 142.707C54.7021 139.203 66.217 138.004 77.0037 139.885C77.4968 139.974 77.9481 140.22 78.2899 140.586Z" fill="white"/>
<path d="M78.9001 141.918C78.8457 141.42 78.6317 140.953 78.2899 140.586C77.9481 140.22 77.4968 139.974 77.0037 139.885C66.217 138.004 54.7021 139.203 42.641 142.707C41.8646 142.929 41.1839 143.402 40.7061 144.053C40.2282 144.704 39.9803 145.495 40.0012 146.303C40.2844 153.698 41.3008 161.046 43.0355 168.24C43.158 168.743 43.4461 169.19 43.8533 169.509C44.2606 169.828 44.7633 170.001 45.2808 170C54.6262 170 72.1792 167.193 77.565 164.72C77.9369 164.555 78.258 164.294 78.4953 163.963C78.7326 163.632 78.8776 163.244 78.9152 162.839C79.6232 155.883 79.6181 148.873 78.9001 141.918ZM77.1099 162.581C77.0649 162.667 76.9973 162.739 76.9144 162.789C76.8315 162.839 76.7364 162.866 76.6396 162.866C76.5427 162.866 76.4476 162.839 76.3647 162.789C76.2818 162.739 76.2142 162.667 76.1692 162.581C73.9695 158.519 71.0138 154.914 67.461 151.961C65.9418 153.147 64.2988 154.164 62.5607 154.996C61.9994 155.238 56.826 153.752 54.4442 152.811C50.8416 156.984 48.0434 161.788 46.1911 166.981C46.1302 167.093 46.0309 167.18 45.9114 167.225C45.7918 167.27 45.6601 167.27 45.5402 167.226C45.4204 167.182 45.3205 167.096 45.2589 166.984C45.1973 166.872 45.1782 166.742 45.2049 166.617C46.2214 162.157 48.406 156.073 52.9574 152.204C49.3687 150.549 46.0085 148.438 42.9596 145.923C42.8668 145.825 42.8151 145.695 42.8151 145.559C42.8151 145.424 42.8668 145.294 42.9596 145.195C43.3085 144.786 43.612 145.089 45.1291 145.939C51.6072 149.61 55.5213 151.84 62.318 153.266C68.3864 149.398 70.0704 148.108 75.972 141.22C76.0574 141.135 76.1699 141.083 76.2898 141.072C76.4098 141.062 76.5297 141.093 76.6288 141.162C76.7278 141.23 76.7998 141.331 76.8323 141.447C76.8647 141.563 76.8556 141.687 76.8064 141.797C74.6635 145.351 71.9108 148.499 68.6747 151.097C74.8949 155.254 77.4284 161.838 77.1099 162.581Z" fill="#4E6AF3"/>
<path d="M54.5958 230.197C54.5958 230.197 41.8108 238.748 28.2876 239.051C26.2743 282.615 49.5288 287.698 49.5288 287.698C49.5288 287.698 73.1859 288.237 78.8234 245.111C65.6022 241.61 54.5958 230.197 54.5958 230.197Z" fill="#F8FBFF"/>
<path d="M49.5683 288.844C49.5347 288.844 49.5011 288.844 49.5011 288.844C49.434 288.844 49.3669 288.844 49.2663 288.81C48.9978 288.743 42.9912 287.363 37.2531 280.427C32.0519 274.132 26.0789 261.844 27.1191 238.951C27.1527 238.345 27.656 237.84 28.26 237.84C41.2799 237.571 53.8299 229.289 53.9306 229.188C54.4004 228.885 55.0379 228.953 55.4406 229.357C55.5413 229.458 66.4135 240.567 79.0978 243.934C79.6683 244.069 80.0374 244.641 79.9702 245.213C77.5878 263.426 71.8161 276.287 62.7894 283.457C56.246 288.676 50.3401 288.844 49.5683 288.844ZM29.401 240.163C28.5956 261.608 34.1659 273.055 39.0316 278.946C43.8637 284.77 48.83 286.285 49.6354 286.487C50.4407 286.454 55.7091 286.151 61.4472 281.505C67.1518 276.893 74.5341 266.995 77.4871 245.92C66.3128 242.621 56.9842 234.137 54.4339 231.646C51.4474 233.531 40.9108 239.557 29.401 240.163Z" fill="#2A344A"/>
<path d="M38.5016 258.041C38.3674 259.286 46.5551 267.938 48.6692 269.049C50.7496 270.194 69.0714 255.347 69.2056 253.361C69.3399 251.375 66.152 248.984 65.1789 249.759C64.2057 250.533 51.5886 262.249 49.9779 261.609C48.3672 260.969 44.6089 254.169 43.4008 253.9C42.2264 253.698 38.7701 255.751 38.5016 258.041Z" fill="#4E6AF3"/>
<path d="M131.488 319.591C131.425 319.612 131.33 319.645 131.255 319.636C115.718 321.634 101.389 314.306 91.9333 299.518C91.5654 298.968 91.7365 298.232 92.2949 297.896C92.8422 297.529 93.5769 297.702 93.9131 298.262C102.881 312.257 116.366 319.2 130.95 317.319C131.596 317.237 132.175 317.678 132.258 318.326C132.339 318.868 131.996 319.415 131.488 319.591Z" fill="#2A344A"/>
<g clip-path="url(#clip1_5532_215457)">
<path d="M181.279 123.571C263.999 57.4997 403.499 43.9997 440.999 111.5C478.499 179 451.066 269.063 392.999 315C334.932 360.937 238.701 321.405 181.279 292.619C123.858 263.832 98.5592 189.643 181.279 123.571Z" fill="#4E6AF3"/>
<path d="M280.5 143C262.5 133 277 96.5 286.5 79.5L291 71L348 95L329.5 135.5L327.5 162C412.3 173.6 437.167 261.167 439 303.5C439 329 418.5 326.5 387.5 328L385.5 329L339 354.5L170.5 346.5L123.5 239H158.5C184.9 185 248.5 165.167 277 162L280.5 143Z" fill="white"/>
<mask id="mask0_5532_215457" style="mask-type:alpha" maskUnits="userSpaceOnUse" x="109" y="-20" width="361" height="377">
<path d="M301.249 139.287C295.915 138.934 294.81 132.989 295.421 133.905C299.299 140.227 307.712 138.041 308.487 129.323H308.652C309 130.478 309.073 131.698 308.866 132.886C308.658 134.075 308.175 135.198 307.456 136.166C306.736 137.134 305.8 137.921 304.723 138.463C303.645 139.005 302.456 139.287 301.249 139.287ZM308.182 107.75C307.124 107.374 306.819 105.4 307.218 104.225C307.618 103.05 308.934 101.593 309.991 101.875C311.049 102.157 311.613 104.084 311.166 105.494C310.72 106.904 309.216 108.126 308.182 107.75ZM287.455 103.308C286.421 102.909 286.115 100.958 286.515 99.7599C286.914 98.5614 288.207 97.1514 289.264 97.4099C290.322 97.6684 290.909 99.5954 290.463 100.982C290.016 102.368 288.536 103.684 287.455 103.308ZM286.209 119.923C286.121 120.142 286.106 120.383 286.165 120.611C286.224 120.84 286.355 121.043 286.538 121.192C287.149 121.544 293.964 124.74 293.729 124.599V124.764C291.325 124.382 288.964 123.769 286.679 122.931C286.3 122.839 285.945 122.668 285.638 122.429C285.33 122.19 285.077 121.888 284.895 121.544C284.712 121.2 284.605 120.82 284.581 120.432C284.556 120.043 284.615 119.653 284.752 119.288C285.034 118.654 286.75 116.139 286.585 116.374C289.01 112.751 291.902 109.464 295.186 106.598C295.186 106.598 286.726 119.077 286.209 119.923Z" fill="black"/>
<path d="M398.274 199.22C398.274 199.22 411.395 211.007 423.098 235.541C435.036 260.827 439.853 286.818 439.313 302.493C449.23 302.493 459.17 302.493 469.04 303.433C469.086 303.42 469.134 303.418 469.18 303.426C469.227 303.435 469.27 303.454 469.308 303.483C469.346 303.511 469.377 303.548 469.398 303.59C469.419 303.633 469.43 303.679 469.43 303.727C469.43 303.774 469.419 303.821 469.398 303.863C469.377 303.905 469.346 303.942 469.308 303.971C469.27 303.999 469.227 304.018 469.18 304.027C469.134 304.036 469.086 304.033 469.04 304.02C459.123 304.396 449.159 304.02 439.266 304.02C439.054 309.496 438.044 316.217 434.566 320.47C430.665 325.358 423.356 325.828 417.599 326.674C408.199 327.896 397.577 328.484 387.989 328.836C336.289 358.305 340.26 356.284 338.756 356.308L172.353 348.059C171.867 348.077 171.386 347.953 170.969 347.703C170.552 347.452 170.216 347.086 170.003 346.649C170.003 346.649 158.129 319.465 150.521 302.046C-14.8447 232.391 375.885 -316.761 398.274 199.22ZM180.625 206.871C205.37 182.737 243.487 165.863 276.058 160.552L279.63 143.35C273.967 140.225 271.476 133.951 271.288 127.418C270.794 112.871 277.633 96.0921 284.236 83.0966C275.847 80.9581 268.538 75.9056 267.622 65.0486C265.272 38.2351 295.234 48.8806 307.572 61.8056C307.572 61.8056 318.946 58.5861 326.724 66.6701C331.205 71.2125 335.359 76.0655 339.156 81.193C339.156 81.193 349.543 82.8147 350.53 91.8622V92.1442C351.238 99.0906 349.706 106.082 346.159 112.096L329.497 140.295L327.453 161.962C352.5 164.499 381.492 178.821 398.274 199.22C391 -41.0009 180.625 -47.3467 180.625 206.871ZM247.717 216.318C248.298 216.372 248.851 216.595 249.307 216.959C249.763 217.324 250.102 217.814 250.282 218.369C250.462 218.924 250.475 219.52 250.32 220.083C250.165 220.646 249.848 221.15 249.409 221.535C248.728 222.264 235.474 232.58 235.709 232.392C235.583 232.466 235.491 232.585 235.452 232.725C235.412 232.866 235.429 233.016 235.497 233.144L241.302 240.57C248.352 240.923 255.214 241.346 261.817 241.839L270.042 163.631C258.224 166.124 246.648 169.655 235.45 174.182L236.743 212.864L247.835 216.342L247.717 216.318ZM234.181 233.92C233.906 233.48 233.802 232.955 233.889 232.444C233.975 231.932 234.247 231.471 234.651 231.147C248.751 219.397 248.375 219.984 248.281 219.044C248.162 218.867 248.006 218.719 247.823 218.609C247.64 218.5 247.436 218.432 247.224 218.41L236.108 215.049C235.701 214.957 235.328 214.752 235.033 214.456C234.737 214.161 234.532 213.788 234.44 213.381C234.44 212.723 233.617 174.652 233.641 174.887C222.772 179.342 212.386 184.893 202.644 191.455C185.841 202.556 171.843 217.406 161.754 234.836C161.026 235.974 160.359 237.151 159.757 238.361C184.408 238.573 213.172 239.16 239.657 240.5L234.181 233.92ZM331.824 217.963C339.038 207.341 361.747 187.342 371.5 178.999C359.437 171.621 345.572 166.921 331.706 164.148C323.716 216.553 314.904 274.457 314.904 274.199C318.899 264.399 326.654 253.942 333.704 245.999C338.827 240.077 344.349 234.484 344.138 234.719C344.619 234.085 344.83 233.287 344.724 232.499C344.618 231.711 344.205 230.996 343.574 230.512C331.941 221.512 332.2 222.146 331.683 220.595C331.519 220.171 331.447 219.718 331.472 219.264C331.496 218.81 331.616 218.367 331.824 217.963ZM326.09 163.325C325.855 163.325 330.108 124.198 330.179 123.705H330.484C331.706 123.094 338.028 119.757 334.503 115.08C330.602 109.887 327.03 118.3 324.421 114.117C321.813 109.934 329.944 98.5832 325.714 94.7057C321.484 90.8282 311.097 94.0711 311.097 83.3786C302.395 85.0519 293.455 85.0519 284.753 83.3786C281.037 91.8103 277.95 100.506 275.518 109.393C273.168 117.571 271.476 128.358 274.977 136.089C276.328 138.946 278.653 141.229 281.534 142.528L277.398 162.268C277.139 162.268 275.33 210.114 292.673 203.651C309.593 197.4 325.079 165.487 326.09 163.325ZM380.915 328.155C392.665 327.685 405.637 327.027 417.317 325.429C422.017 324.7 428.244 324.23 432.028 320.987C437.48 316.287 437.926 307.898 437.832 301.341C437.033 267.525 421.382 226.258 398.305 201.771C390.572 193.534 382.569 186.007 373 179.999C359.558 192.031 343.503 206.801 335.302 217.329C332.764 220.572 335.842 221.747 338.286 223.674L344.702 228.703C349.566 232.51 344.843 236.881 341.952 239.795C332.035 250.323 319.792 262.848 314.457 276.995L312.554 289.38L317.254 300.143C332.834 290.743 353.044 284.468 370.787 281.343C369.471 277.982 358.355 247.808 359.765 249.876C373.325 283.434 372.291 281.108 372.549 281.037C372.408 281.296 372.361 281.037 372.972 282.588L371.515 282.87C371.21 282.377 339.743 288.745 317.747 300.989L329.497 328.695C348.979 328.883 382.302 328.108 380.915 328.155ZM169.415 340.586C169.506 340.79 169.655 340.963 169.843 341.084C170.03 341.205 170.249 341.269 170.473 341.268L334.526 349.234C334.811 349.228 335.083 349.113 335.284 348.911C335.485 348.71 335.601 348.438 335.607 348.153L292.696 247.244C292.567 247.043 292.39 246.878 292.181 246.763C291.971 246.648 291.737 246.587 291.498 246.586C247.106 240.594 171.483 239.936 126.998 240.006C126.821 240.013 126.648 240.064 126.495 240.153C126.342 240.243 126.214 240.369 126.121 240.52C126.028 240.67 125.974 240.842 125.963 241.019C125.952 241.195 125.984 241.372 126.058 241.534L169.415 340.586Z" fill="black"/>
</mask>
<g mask="url(#mask0_5532_215457)">
<path d="M337 157.5C383.994 164.583 397.957 196.728 406.956 208.876C419.099 207.71 445.262 206.083 452.78 208.908C462.178 212.44 438.72 280.491 438.999 290.5C439.5 308.5 440.5 318.5 429.499 324.5C414.037 332.933 463.235 382.816 459.702 394.563C456.169 406.311 310.452 429.709 308.101 430.882C306.221 431.821 181.22 404.552 118.954 390.8L151.327 303.873L122.054 239.467C121.753 238.804 122.238 238.052 122.965 238.053L157.836 238.077C162.544 226.801 176.184 211.457 182.063 205.194L186.068 192.272L209.586 166.438C228.39 160.185 265.765 146.268 264.829 140.627C263.659 133.576 253.104 104.194 251.93 103.018C250.756 101.842 241.399 39.5606 241.403 34.8606C241.405 31.1006 272.742 27.0491 288.409 25.4934L334.216 51.3754C340.089 54.9045 352.304 62.198 354.183 63.1393C356.532 64.316 368.267 86.6492 368.266 87.8242C368.265 88.7642 356.492 121.891 350.606 138.337L337 157.5Z" fill="#2A344A"/>
</g>
</g>
<path d="M253.25 312.444C263.053 298.298 260.143 279.258 246.75 269.916C233.357 260.573 214.553 264.467 204.75 278.612C194.947 292.758 197.857 311.798 211.25 321.14C224.643 330.483 243.447 326.589 253.25 312.444Z" fill="#4E6AF3"/>
<path d="M238.917 301.346C239.322 303.159 239.229 304.722 238.699 306.003C238.169 307.316 237.11 308.378 235.49 309.254L236.518 314.004C236.549 314.129 236.518 314.254 236.456 314.379C236.394 314.504 236.269 314.567 236.144 314.598L229.914 315.973C229.789 316.005 229.664 315.973 229.54 315.911C229.415 315.848 229.353 315.723 229.322 315.598L228.418 311.379C227.234 311.598 226.175 311.723 225.178 311.817C225.054 311.817 224.929 311.785 224.836 311.692C224.742 311.598 224.649 311.504 224.618 311.348L223.994 306.191C223.963 306.034 224.026 305.909 224.119 305.784C224.213 305.659 224.368 305.628 224.524 305.628C224.929 305.628 225.334 305.628 225.739 305.597C226.144 305.566 226.705 305.534 227.359 305.472C228.013 305.409 228.636 305.315 229.166 305.19C229.758 305.065 230.256 304.878 230.661 304.628C231.035 304.378 231.284 304.097 231.409 303.815C231.534 303.534 231.596 303.284 231.627 303.065C231.658 302.846 231.658 302.659 231.627 302.503C231.596 302.315 231.502 302.159 231.409 301.971C231.284 301.784 231.097 301.565 230.848 301.284C230.568 301.002 230.163 300.783 229.633 300.596C229.072 300.408 228.418 300.315 227.702 300.283C226.861 300.283 226.019 300.127 225.178 299.846C224.337 299.565 223.527 299.158 222.748 298.627C221.969 298.096 221.284 297.377 220.661 296.439C220.069 295.501 219.633 294.47 219.353 293.282C218.979 291.626 219.103 290.125 219.695 288.813C220.287 287.5 221.315 286.406 222.779 285.5L221.72 280.624C221.689 280.499 221.72 280.343 221.783 280.218C221.845 280.093 221.969 280.03 222.094 279.999L228.325 278.624C228.449 278.592 228.605 278.624 228.73 278.686C228.854 278.78 228.948 278.874 228.948 279.03L229.851 283.249C230.973 283.062 232.094 282.906 233.216 282.781C233.341 282.781 233.465 282.812 233.59 282.906C233.714 282.999 233.777 283.093 233.777 283.249L234.4 288.406C234.4 288.563 234.369 288.688 234.275 288.813C234.182 288.938 234.057 289 233.901 289C232.094 289 230.474 289.157 229.041 289.438C228.449 289.563 227.951 289.719 227.577 290C227.203 290.25 226.923 290.532 226.798 290.844C226.674 291.157 226.611 291.407 226.58 291.594C226.549 291.813 226.549 292.001 226.58 292.157C226.611 292.313 226.674 292.501 226.798 292.688C226.923 292.876 227.11 293.095 227.39 293.376C227.671 293.626 228.076 293.876 228.636 294.064C229.197 294.251 229.851 294.345 230.568 294.376C231.409 294.407 232.25 294.564 233.091 294.845C233.932 295.126 234.742 295.533 235.521 296.064C236.3 296.595 236.985 297.345 237.577 298.252C238.232 299.127 238.668 300.158 238.917 301.346Z" fill="white"/>
</g>
<defs>
<clipPath id="clip0_5532_215457">
<rect width="470" height="360" fill="white"/>
</clipPath>
<clipPath id="clip1_5532_215457">
<rect width="470" height="385" fill="white" transform="matrix(-1 0 0 1 470 0)"/>
</clipPath>
</defs>
</svg>
