<svg width="140" height="220" fill="none" xmlns="http://www.w3.org/2000/svg"><path d="M105.681 53.891h-.371c-.486 0-.88.415-.88.927v8.998c0 .512.394.927.88.927h.371c.486 0 .88-.415.88-.927v-8.998c0-.512-.394-.927-.88-.927ZM105.871 73.76h-.641c-.486 0-.88.416-.88.928V91.72c0 .512.394.927.88.927h.641c.486 0 .88-.415.88-.927V74.689c0-.512-.394-.927-.88-.927ZM105.795 99.255h-.525c-.486 0-.88.415-.88.926v17.196c0 .511.394.926.88.926h.525c.487 0 .881-.415.881-.926v-17.196c0-.511-.394-.926-.881-.926Z" fill="#2A344A"/><path d="M76.061 149.626a.383.383 0 0 0 .467.063 1.603 1.603 0 0 1-.467-.063ZM93.74 156.902l-.462 2.645-.356 2.024-.648 3.702-6.279 4.626s-.566-.51-1.5-1.314c-2.573-2.229-7.981-6.77-11.953-9.208a13.079 13.079 0 0 0-3.285-1.593l24.482-.882Z" fill="#F1F7FF"/><path d="M89.133 158.871s7.321 1.323 7.75-1.968c.429-3.29-3.768-5.069-7.325-5.29-3.557-.221-24.906 1.323-24.906 1.323s-3.766 5.286 9.835 6.17l14.646-.235ZM105.144 50.286h-38.3v47.799h38.3V50.286Z" fill="#2A344A"/><path opacity=".1" d="M105.144 50.504h-38.3v47.799h38.3V50.504Z" fill="#2A344A"/><path d="M21.955 132.108c-.63.167-1.437.809-2.333 1.738-3.86 4.022-9.388 13.461-9.388 13.461-7.068-8.862.753-15.863 4.087-18.269.81-.582 1.355-.903 1.355-.903l6.279 3.973Z" fill="#D4DDEE"/><path d="M93.316 65.37s1.884 13.876 8.371 17.18c6.488 3.304-8.371 9.479-8.371 9.479l-20.3-7.936s11.512-3.966 9.209-15.64l11.09-3.084ZM71.55 148.849l-.459 2.636-.372 2.031-.648 3.702-6.28 4.622s-.565-.505-1.499-1.309c-2.573-2.23-7.981-6.771-11.959-9.208a13.034 13.034 0 0 0-3.285-1.594l24.503-.88Z" fill="#F1F7FF"/><path d="M66.119 152.103s6.57.049 6.966-3.251c.395-3.3-3.581-5.069-6.966-5.291-3.385-.221-23.952 1.426-23.952 1.426s-2.918 6.232 10.019 7.116h13.933Z" fill="#2A344A"/><path d="M112.186 203.943c-.287-.148-.575-.302-.858-.451l-.772-1.025-10.126-13.514v.234c-.069 2.258-.798 20.142-6.485 21.794-6.069 1.761-13.39 2.203-16.727-9.691-3.337-11.894-9.435-37.886-15.698-39.43l9.316-8.039s6.167 7.592 8.68 14.86c-.094-.451-4.353-21.396-.858-25.102h30.561s4.718 14.142 7.952 21.148c2.517 5.439 6.296 18.3 8.728 27.003 2.409 8.593-6.053 16.181-13.713 12.213Z" fill="#2A344A"/><path opacity=".1" d="M111.318 147.528c-4.718 2.939-25.429 1.743-32.166 1.264l-1.836-.14c-.197 0 .03-.117.03-.117l.189-2 5.022-13.434 26.891-16.412c-.545 1.729-.725 4.374-.682 7.403.125 9.732 2.552 23.436 2.552 23.436Z" fill="#2A344A"/><path d="M111.323 146.867c-4.718 2.939-25.428 1.742-32.166 1.264l-1.836-.136-.304-.027.334-.09 1.656-.451 3.555-14.978 26.891-16.408c-.545 1.729-.725 4.374-.682 7.403.125 9.723 2.552 23.423 2.552 23.423Z" fill="#D4DDEE"/><path opacity=".1" d="M108.749 123.435c-5.468 1.327-17.502 5.22-22.126 14.625-3.084 6.261-5.678 8.947-7.488 10.07l-1.836-.135c.012-.039.022-.078.03-.118l1.655-.451 3.556-14.977 26.891-16.408c-.539 1.72-.725 4.365-.682 7.394ZM15.677 128.145l6.28 3.963c-.631.167-1.437.81-2.334 1.738-.523-1.607-3.807-3.85-5.3-4.807.81-.574 1.354-.894 1.354-.894ZM76.179 148.248a.362.362 0 0 1-.428-.063c.139.043.283.064.428.063Z" fill="#2A344A"/><path d="M90.391 81.667s-5.652.66-9.628-3.746c0 0-16.727 5.069-22.392 16.52-5.665 11.453-44.176 33.923-44.176 33.923s6.7 3.964 6.069 5.945L45.59 118.89s9.006-6.826 11.507-8.369c2.5-1.544 16.327-11.014 19.257 14.756 2.93 25.77 0 22.687 0 22.687s4.186 1.544 10.255-10.793c6.068-12.337 24.901-15.198 24.901-15.198l1.046-12.992s3.736-8.613.858-12.187a7.85 7.85 0 0 1-1.677-3.729c-.476-3.3 0-8.798 6.665-13.366 10.254-7.05 14.23-12.774 14.23-12.774s.21-4.189-6.069-6.17c-6.278-1.983-31.81-12.775-31.81-12.775l-.858 3.746L114.04 66.69s-10.044 8.576-18.013 8.369c0 0 1.48 6.387-5.636 6.608Z" fill="#7786A5"/><path opacity=".1" d="M94.268 71.41a44.97 44.97 0 0 1-1.157-5.38L82.02 69.114a13.443 13.443 0 0 1-.253 6.734 11.36 11.36 0 0 0 6.887-.234c2.224-.789 4.177-2.251 5.614-4.204Z" fill="#2A344A"/><path d="M85.053 75.614c6.588 0 11.928-5.62 11.928-12.553 0-6.933-5.34-12.554-11.927-12.554-6.588 0-11.928 5.62-11.928 12.554 0 6.933 5.34 12.553 11.927 12.553Z" fill="#F1F7FF"/><path opacity=".1" d="M98.022 164.16s6.906 14.318 4.813 18.719l-4.813-18.719Z" fill="#2A344A"/><path d="M91.396 34.065c3.31.398 6.454 1.892 9.714 2.709a4.59 4.59 0 0 0 2.513.099c1.266-.411 2.295-1.806 3.607-1.765.808.027 1.523.605 2.188 1.16 1.066.858 2.069 1.8 3.002 2.816 2.247 2.569 3.641 6.027 5.691 8.82 2.05 2.795 4.973 6.072 7.885 4.79-1.981 8.125-8.16 13.208-15.18 13.714-2.801.203-5.67-.41-8.381.451a6.966 6.966 0 0 1-2.115.542c-1.56 0-2.818-1.508-3.791-2.975-2.282-3.448-4.087-7.362-6.656-10.508-.858-1.043-1.849-2.032-3.05-2.22-1.2-.19-2.303.414-3.37.997-1.763.961-3.565 1.954-4.933 3.611-1.368 1.657-2.23 4.103-1.664 6.32.305 1.2 1 2.284 1.012 3.539.026 2.004-1.655 3.466-1.986 5.416-.074.82-.101 1.642-.081 2.465-.146 2.671-1.807 4.856-3.538 6.54-.677.65-1.423 1.355-1.621 2.361-.133.69 0 1.417-.086 2.117-.253 1.734-1.895 2.614-3.35 2.84a9.218 9.218 0 0 1-5.026-.627c2.033-1.012 3.286-3.892 2.814-6.47-.648-3.574-4.062-6.143-3.769-9.78.16-1.117.479-2.202.944-3.219a30.703 30.703 0 0 0 1.613-6.098c.257-1.612.381-3.323-.1-4.862-.428-1.4-1.324-2.514-2.084-3.697a21.501 21.501 0 0 1-2.414-5.204 3.837 3.837 0 0 1-.231-1.725 3.59 3.59 0 0 1 1.05-1.783c1.867-2.064 3.86-4.207 6.362-4.798a13.614 13.614 0 0 1 3.61-.145c2.096.07 4.193-.024 6.275-.28 1.716-.212 4.614-.185 6.069-1.354 1.355-1.093 2.118-2.465 3.787-3.16 1.689-.659 3.505-.877 5.292-.636h-.002Z" fill="#2A344A"/></svg>