<svg width="768" height="67" viewBox="0 0 768 67" fill="none" xmlns="http://www.w3.org/2000/svg">
<path fillRule="evenodd" clipRule="evenodd" d="M365.251 0C359.222 7.90137 349.706 13 339 13L339 41H429V13C418.294 13 408.778 7.90137 402.749 0H402.736C406.03 4.10889 408 9.32422 408 15C408 28.2549 397.255 39 384 39C370.745 39 360 28.2549 360 15C360 9.32422 361.97 4.10889 365.264 0H365.251Z" fill="#EEF1F5"/>
<path d="M768 66H769V65V23.3333C769 18.0157 763.897 14 758 14H426C420.714 14 416.05 16.3984 411.92 19.6404C408.062 22.6681 404.578 26.5084 401.423 29.9853C401.205 30.225 400.989 30.4629 400.775 30.6987C396.863 35.0022 391.199 38 384 38C376.914 38 371.241 34.9918 367.294 30.6677C367.099 30.4544 366.903 30.2394 366.706 30.023C363.526 26.534 360.005 22.671 356.108 19.6291C351.962 16.3935 347.285 14 342 14H10C4.10333 14 -1 18.0157 -1 23.3333V65V66H0H768Z" fill="white" stroke="#EEF1F5" stroke-width="2"/>
</svg>
