<svg width="150" height="120" fill="none" xmlns="http://www.w3.org/2000/svg"><path d="M71.28 17.217h-.249a.581.581 0 0 0-.594.568v5.518c0 .314.266.569.594.569h.25a.581.581 0 0 0 .593-.569v-5.518a.581.581 0 0 0-.593-.568ZM71.408 29.402h-.431a.581.581 0 0 0-.594.569v10.445c0 .314.266.569.594.569h.431a.581.581 0 0 0 .594-.569V29.971a.581.581 0 0 0-.594-.569ZM71.358 45.037h-.354a.581.581 0 0 0-.594.569V56.15c0 .314.266.568.594.568h.354a.581.581 0 0 0 .593-.568V45.605a.581.581 0 0 0-.593-.568Z" fill="#2A344A"/><path d="M51.313 75.928a.275.275 0 0 0 .315.039 1.158 1.158 0 0 1-.316-.04Z" fill="#EFF3FB"/><path d="m63.228 80.39-.311 1.623-.24 1.24-.437 2.27-4.233 2.838s-.381-.313-1.011-.805c-1.735-1.368-5.381-4.153-8.058-5.648a9.213 9.213 0 0 0-2.215-.977l16.505-.54Z" fill="#EEF1F5"/><path d="M60.124 81.598s4.935.81 5.224-1.207c.29-2.019-2.54-3.11-4.938-3.245-2.398-.136-16.79.811-16.79.811s-2.54 3.242 6.63 3.785l9.874-.144ZM70.918 15.006h-25.82v29.313h25.82V15.006Z" fill="#2A344A"/><path opacity=".1" d="M70.918 15.139h-25.82v29.313h25.82V15.139Z" fill="#2A344A"/><path d="M14.834 65.184c-.425.103-.969.497-1.573 1.066-2.602 2.467-6.33 8.255-6.33 8.255-4.764-5.434.509-9.728 2.756-11.203.547-.357.914-.554.914-.554l4.233 2.436Z" fill="#D4DDEE"/><path d="M62.943 24.256s1.27 8.51 5.644 10.536c4.373 2.026-5.644 5.813-5.644 5.813L49.258 35.74s7.76-2.433 6.208-9.593l7.477-1.89ZM48.269 75.451l-.31 1.617-.251 1.246-.437 2.27-4.233 2.834s-.381-.31-1.01-.802c-1.736-1.368-5.381-4.153-8.063-5.648a9.15 9.15 0 0 0-2.215-.977l16.519-.54Z" fill="#EEF1F5"/><path d="M44.607 77.446s4.43.03 4.696-1.994c.267-2.023-2.414-3.108-4.696-3.244-2.282-.136-16.147.874-16.147.874s-1.968 3.822 6.754 4.364h9.393Z" fill="#2A344A"/><path d="M75.665 109.238c-.194-.091-.388-.185-.579-.276l-.52-.629-6.827-8.288v.144c-.046 1.384-.538 12.352-4.372 13.365-4.09 1.08-9.027 1.351-11.276-5.943-2.25-7.294-6.361-23.234-10.583-24.18l6.28-4.931s4.158 4.656 5.852 9.113c-.064-.277-2.935-13.121-.578-15.394h20.603s3.18 8.673 5.36 12.97c1.697 3.335 4.245 11.222 5.885 16.559 1.624 5.27-4.081 9.924-9.245 7.49Z" fill="#2A344A"/><path opacity=".1" d="M75.079 74.641c-3.18 1.803-17.143 1.069-21.686.776l-1.237-.086c-.133 0 .02-.072.02-.072l.127-1.227 3.386-8.238 18.13-10.066c-.368 1.06-.49 2.683-.46 4.54.083 5.969 1.72 14.373 1.72 14.373Z" fill="#2A344A"/><path d="M75.082 74.235c-3.181 1.802-17.144 1.068-21.686.775l-1.238-.083-.205-.017.226-.055 1.116-.277 2.397-9.185L73.82 55.33c-.367 1.06-.489 2.683-.46 4.54.084 5.963 1.72 14.365 1.72 14.365Z" fill="#D4DDEE"/><path opacity=".1" d="M73.347 59.864c-3.686.814-11.8 3.202-14.916 8.97-2.08 3.84-3.829 5.486-5.049 6.175l-1.237-.083a.668.668 0 0 0 .02-.072l1.116-.276 2.397-9.186L73.807 55.33c-.363 1.055-.489 2.677-.46 4.534ZM10.601 62.754l4.233 2.43c-.425.103-.968.497-1.573 1.066-.352-.985-2.566-2.361-3.573-2.948.546-.352.913-.548.913-.548ZM51.39 75.084a.26.26 0 0 1-.288-.04c.093.027.19.04.288.04Z" fill="#2A344A"/><path d="M60.97 34.251s-3.81.404-6.49-2.297c0 0-11.278 3.108-15.097 10.132-3.819 7.023-29.781 20.803-29.781 20.803s4.516 2.43 4.09 3.646l17.075-9.457s6.072-4.185 7.757-5.132c1.686-.947 11.008-6.754 12.983 9.05 1.975 15.804 0 13.913 0 13.913s2.822.947 6.913-6.619 16.788-9.32 16.788-9.32l.705-7.968s2.519-5.282.578-7.474a4.624 4.624 0 0 1-1.13-2.287c-.321-2.023 0-5.395 4.493-8.197 6.913-4.324 9.594-7.834 9.594-7.834s.141-2.569-4.092-3.784c-4.232-1.215-21.445-7.834-21.445-7.834l-.579 2.297 13.581 9.177s-6.771 5.26-12.143 5.133c0 0 .997 3.917-3.8 4.052Z" fill="#7786A5"/><path opacity=".1" d="M63.585 27.96a25.434 25.434 0 0 1-.781-3.3l-7.477 1.891a7.526 7.526 0 0 1-.17 4.13c1.528.391 3.143.341 4.642-.143a8.044 8.044 0 0 0 3.786-2.578Z" fill="#2A344A"/><path d="M57.373 30.538c4.441 0 8.041-3.447 8.041-7.699s-3.6-7.698-8.04-7.698c-4.442 0-8.042 3.446-8.042 7.698 0 4.252 3.6 7.699 8.041 7.699Z" fill="#EEF1F5"/><path opacity=".1" d="M66.117 84.84s4.655 8.78 3.244 11.48l-3.244-11.48Z" fill="#2A344A"/><path d="M61.65 5.058c2.231.244 4.35 1.16 6.548 1.661a3.39 3.39 0 0 0 1.695.06c.853-.251 1.546-1.106 2.431-1.082.545.017 1.027.371 1.475.712a17.908 17.908 0 0 1 2.024 1.727c1.515 1.575 2.455 3.696 3.837 5.41 1.382 1.713 3.353 3.722 5.316 2.937-1.336 4.982-5.502 8.1-10.234 8.41-1.889.124-3.823-.252-5.65.277-.456.178-.936.29-1.426.332-1.053 0-1.9-.925-2.556-1.825-1.539-2.114-2.756-4.515-4.488-6.444-.578-.64-1.246-1.246-2.056-1.362-.81-.116-1.552.255-2.272.612-1.188.59-2.403 1.198-3.325 2.215-.922 1.016-1.504 2.516-1.122 3.875.205.737.674 1.401.682 2.17.018 1.23-1.116 2.127-1.338 3.322a11.94 11.94 0 0 0-.055 1.512c-.099 1.638-1.219 2.978-2.385 4.011-.457.399-.96.83-1.093 1.448-.09.423 0 .868-.058 1.298-.17 1.063-1.278 1.603-2.258 1.741a6.784 6.784 0 0 1-3.39-.384c1.372-.62 2.216-2.387 1.898-3.967-.437-2.193-2.738-3.768-2.54-5.999.107-.684.322-1.35.635-1.974.502-1.205.867-2.46 1.088-3.74.173-.988.257-2.037-.067-2.98-.289-.86-.893-1.543-1.405-2.268a12.671 12.671 0 0 1-1.628-3.192 2.158 2.158 0 0 1-.156-1.058 2.17 2.17 0 0 1 .709-1.093c1.258-1.266 2.602-2.58 4.288-2.943a10.076 10.076 0 0 1 2.434-.088 30.002 30.002 0 0 0 4.23-.172c1.157-.13 3.111-.114 4.092-.83.913-.67 1.428-1.512 2.553-1.938a7.83 7.83 0 0 1 3.568-.39h-.002Z" fill="#2A344A"/><path d="M145 60a24 24 0 1 1-48.002 0A24 24 0 0 1 145 60Zm-26.774 12.704 17.803-17.802a1.534 1.534 0 0 0 .455-1.096 1.547 1.547 0 0 0-.455-1.095l-2.19-2.175a1.537 1.537 0 0 0-1.094-.454 1.544 1.544 0 0 0-1.093.454l-14.521 14.521-6.779-6.796a1.554 1.554 0 0 0-2.191 0l-2.19 2.204a1.55 1.55 0 0 0 0 2.19l10.065 10.062a1.552 1.552 0 0 0 1.689.337c.188-.078.358-.192.502-.337l-.001-.013Z" fill="#7786A5"/></svg>