<svg width="120" height="120" viewBox="0 0 120 120" fill="none" xmlns="http://www.w3.org/2000/svg">
<path d="M91.5145 46.6311C92.5007 43.2381 91.34 39.3617 88.6256 36.9857C85.9802 34.6692 82.0762 33.9379 78.6788 35.12C76.9349 35.727 75.0561 37.0905 73.6398 38.7346C73.4365 37.9832 73.218 37.265 72.9838 36.5864C72.5243 34.8136 70.0321 33.6987 65.9624 33.4464C52.5179 32.6108 31.0631 41.11 33.9652 46.9261C34.158 47.4415 34.3501 47.9682 34.5428 48.5056C32.5346 47.7447 30.2665 47.4403 28.4649 47.7265C24.9118 48.289 21.817 50.778 20.579 54.0693C19.3091 57.446 20.1164 61.4109 22.5885 63.9351C27.0493 68.4913 37.7261 69.507 44.4086 73.2785C45.5806 73.9402 47.2021 75.0086 47.7457 76.6439C48.2906 78.2824 49.924 78.3577 50.5405 76.7808C50.6647 76.4631 50.7081 76.1128 50.6949 75.7519C53.4928 77.3131 56.57 77.954 59.8011 77.5761C61.0628 81.2146 62.253 85.3747 62.4225 89.6077C59.4608 90.5261 56.8023 91.6435 54.7527 92.8444C51.9196 94.5029 50.6013 96.093 50.9403 97.4433C52.032 101.792 69.3743 99.3906 78.1471 94.2549C80.9802 92.5964 82.2985 91.0057 81.9595 89.6554C81.2997 87.0282 74.6838 86.8926 67.8815 88.2272C66.5613 85.0671 65.5563 80.0231 65.0183 76.2277C68.0302 74.9804 70.4653 72.8749 72.186 70.0061C72.3586 70.4574 72.6028 70.8648 72.9443 71.1561C74.2293 72.2522 75.6374 71.4229 75.3429 69.7154C75.0498 68.0173 75.9745 66.3098 76.6951 65.1724C80.8025 58.6927 89.7361 52.746 91.5139 46.6305L91.5145 46.6311ZM38.8197 40.8784C42.1468 38.8206 46.8003 36.9794 51.924 35.6925C67.8237 31.7012 79.1672 35.238 67.9574 42.1715C56.8977 49.0115 35.669 51.3625 34.3965 46.2934C34.0268 44.8194 35.6388 42.8457 38.8197 40.8784ZM49.9566 76.5529C49.5681 77.5491 48.7087 77.5504 48.3427 76.4468C46.1832 69.9546 28.3877 68.959 23.0379 63.4969C20.7692 61.1805 19.9996 57.3946 21.1672 54.2909C22.5012 50.746 26.1127 48.2482 29.9005 48.2482C31.4831 48.2482 33.2615 48.6223 34.8253 49.2959C35.1894 50.3248 35.5566 51.3863 35.9345 52.4673C35.701 52.3449 35.4493 52.1898 35.1812 51.9952C32.8585 50.3097 29.7794 49.8439 27.3355 50.8069C24.6569 51.8634 22.8515 54.6858 23.1359 57.372C23.3223 59.1334 24.2853 60.5533 25.0599 61.4341C28.2408 65.0512 32.9966 66.2904 37.5962 67.4888C39.448 67.9715 41.7105 68.5421 43.7965 69.3783C45.4751 71.6853 47.4381 73.6941 49.789 75.2089C49.8688 75.2604 49.9491 75.3112 50.0295 75.3608C50.0998 75.7921 50.0916 76.2089 49.9573 76.5535L49.9566 76.5529ZM43.1556 68.4637C41.315 67.7989 39.4022 67.3111 37.7544 66.8817C33.2465 65.7072 28.5848 64.4925 25.5314 61.0204C24.8164 60.2081 23.9293 58.9043 23.7599 57.3067C23.5044 54.8911 25.1403 52.348 27.5659 51.392C29.8133 50.505 32.6583 50.9419 34.8121 52.5044C35.3162 52.8703 35.7882 53.1208 36.2164 53.2746C38.0256 58.4228 40.1009 63.9363 43.1556 68.4649V68.4637ZM67.0767 87.8889C67.577 89.2662 68.4458 91.1268 70.1985 91.3867C70.3699 91.4112 70.53 91.2938 70.5551 91.1224C70.5808 90.9511 70.4622 90.7916 70.2908 90.7659C69.4446 90.6403 68.7496 90.0113 68.1483 88.8104C78.746 86.7213 86.1277 88.8581 77.8314 93.7151C75.1948 95.2587 71.5212 96.6661 67.4879 97.6787C58.5744 99.916 52.0515 99.2857 51.5505 97.292C51.2938 96.2706 52.5775 94.8469 55.0716 93.3874C57.0421 92.2336 59.5927 91.1557 62.4388 90.2618C62.4382 91.2668 62.3095 92.324 61.7232 93.1294C61.6209 93.27 61.6523 93.4658 61.7923 93.5682C61.9329 93.6699 62.1287 93.6391 62.231 93.4991C63.0402 92.3874 63.1017 90.9442 63.0553 89.6792C62.8984 85.3804 61.7081 81.1732 60.4369 77.4908C61.5211 77.32 63.28 76.8825 64.42 76.4638C65.0666 80.9748 65.9587 84.8123 67.0779 87.8889H67.0767ZM71.9236 69.2094C67.5688 77.0539 57.1124 79.1788 50.128 74.6816C41.6998 69.254 38.1969 56.7819 35.072 48.1195C42.3313 53.0292 70.0296 45.6116 72.8508 38.2443C75.5319 47.4453 75.7598 62.2979 71.9236 69.2094ZM74.6468 43.4641C74.8941 43.1489 75.1283 42.7679 75.3417 42.3285C76.5011 39.9342 78.8019 38.206 81.203 37.9248C83.7906 37.6235 86.4354 39.0905 87.3512 41.3404C87.9564 42.8282 87.79 44.3969 87.5446 45.4503C86.4931 49.9538 82.9582 53.2263 79.5401 56.3908C78.112 57.7128 76.4183 59.2634 74.9807 60.962C75.7397 55.4881 75.5564 49.0435 74.6474 43.4634L74.6468 43.4641ZM74.7252 69.8234C74.918 70.9376 74.1954 71.3984 73.3523 70.6796C72.982 70.3639 72.7472 69.8353 72.6091 69.2603C73.6085 67.3645 74.3254 64.9275 74.7899 62.1981C78.9663 56.7392 86.4793 52.7755 88.156 45.594C88.4228 44.4515 88.6005 42.7447 87.9332 41.1043C87.0035 38.82 84.4849 37.2587 81.8772 37.2587C78.9331 37.2587 76.1094 39.3039 74.7767 42.0554C74.6838 42.2469 74.5896 42.4207 74.4948 42.5783C74.3021 41.5061 74.0818 40.4703 73.8351 39.4847C75.1094 37.8984 76.9933 36.3736 78.886 35.7145C82.0731 34.6046 85.7341 35.2895 88.2125 37.4596C90.7072 39.6436 91.8177 43.3442 90.9125 46.4572C88.7587 53.8628 73.5595 63.0644 74.7259 69.824L74.7252 69.8234Z" fill="#2A344A"/>
<path d="M70.9197 44.2976C71.0516 46.2424 72.103 50.2173 72.1225 56.5984C72.1338 60.3334 71.8915 64.3416 69.8601 67.5946C68.877 69.1684 67.511 70.4779 65.806 71.2362C65.3453 71.4409 65.7445 72.1176 66.2022 71.9136C69.4765 70.4572 71.437 67.1508 72.2455 63.7823C73.6423 57.9651 72.6128 47.6963 71.1727 44.2631C71.1219 44.1426 70.9091 44.1382 70.9197 44.2976Z" fill="#2A344A"/>
<path d="M67.4154 57.8808C68.0388 56.8934 67.2585 55.6184 66.0946 55.7238L61.7066 56.1231C61.4492 56.1476 61.1981 56.0427 61.0343 55.8444L58.2176 52.4565C57.47 51.5581 56.0167 51.9059 55.7581 53.0452L54.7819 57.3422C54.7248 57.5933 54.5478 57.8005 54.3092 57.8959L50.2156 59.528C49.1303 59.9606 49.0129 61.4509 50.016 62.0498L53.8007 64.3059C54.0223 64.4371 54.1642 64.67 54.1805 64.9268L54.468 69.3236C54.544 70.4881 55.9244 71.0624 56.8045 70.2922L60.1196 67.3895C60.3136 67.22 60.5785 67.1578 60.8278 67.22L65.0984 68.3054C66.2308 68.5929 67.202 67.4573 66.7418 66.3832L65.0061 62.3329C64.9044 62.0962 64.9264 61.8251 65.0638 61.6072L67.4154 57.8808Z" fill="#4E6AF3"/>
<path d="M93.8829 25.0343C95.0681 23.9464 96.1027 22.674 97.1818 21.4838C99.195 19.2628 110.398 7.49616 110.883 6.8276C110.987 6.6851 110.778 6.47229 110.636 6.58027C109.089 7.75103 95.6425 22.2936 93.7913 24.964C93.7524 25.0205 93.8359 25.0777 93.8829 25.0343Z" fill="#4E6AF3"/>
<path d="M100.973 29.9572C103.249 29.0708 108.051 26.7469 109.325 25.7073C109.434 25.6182 109.317 25.4148 109.185 25.4662C107.887 25.9722 109.053 25.6596 100.879 29.7331C100.757 29.794 100.843 30.008 100.973 29.9572Z" fill="#4E6AF3"/>
<path d="M55.0475 17.3294C54.6928 14.8573 54.5999 13.6633 52.3713 2.75672C52.2345 2.08754 52.1761 1.33549 51.8302 0.735982C51.6827 0.480486 51.3431 0.618592 51.3161 0.875344C51.2345 1.64999 51.3023 1.026 53.8215 13.2377C54.1102 14.6369 54.4668 16.0111 54.8052 17.3965C54.8447 17.5579 55.0701 17.4844 55.0475 17.3294Z" fill="#4E6AF3"/>
<path d="M21.0481 31.2468C19.7731 30.3133 17.3349 29.1777 13.5006 26.1865C13.1961 25.9492 12.8477 25.5499 12.4598 25.479C12.166 25.425 11.9833 25.6893 12.0963 25.9517C12.2438 26.2957 12.6826 26.5261 12.9758 26.7483C14.8936 28.2016 18.721 30.8061 20.9137 31.5663C21.1146 31.636 21.1969 31.3554 21.0481 31.2468Z" fill="#4E6AF3"/>
<path d="M14.9935 42.3683C13.711 41.5868 13.0562 41.3859 1.85521 36.9866C1.53756 36.8617 1.28834 36.7123 0.946219 36.7863C0.76417 36.8259 0.651802 37.0795 0.762914 37.2364C1.07491 37.6771 1.80938 37.8033 2.29903 37.9923C12.5477 41.9502 13.3732 42.3313 14.8824 42.6313C15.0387 42.6621 15.1385 42.4562 14.9935 42.3683Z" fill="#4E6AF3"/>
<path d="M17.3893 81.467C16.6153 81.6378 11.656 85.275 3.89197 89.7521C0.557359 91.6749 0.424275 91.6372 0.158736 92.0647C0.0614337 92.2204 0.18824 92.4238 0.365267 92.4244C0.970421 92.4276 1.55486 91.9612 2.06397 91.6755C5.95163 89.4916 13.5587 84.8431 16.7364 82.3603C17.0152 82.1425 17.3341 81.9485 17.528 81.6472C17.5889 81.5524 17.4885 81.445 17.3893 81.467Z" fill="#4E6AF3"/>
<path d="M26.8309 90.5605C25.4172 92.2604 22.2916 96.3766 20.9601 98.1418C20.6858 98.5053 20.3864 98.8569 20.2112 99.2806C20.1246 99.4903 20.414 99.5857 20.5496 99.4777C20.8609 99.2291 20.7109 99.398 23.8377 95.1851C24.93 93.7137 26.0204 92.2454 27.0474 90.7281C27.1341 90.6 26.9313 90.4399 26.8309 90.5611V90.5605Z" fill="#4E6AF3"/>
<path d="M47.3664 97.8873C45.9646 100.672 41.9482 113.491 40.6707 118.124C40.5684 118.495 40.4473 118.854 40.5245 119.238C40.5571 119.401 40.7894 119.456 40.8986 119.336C41.3889 118.802 41.1309 118.767 43.4385 111.159C46.3456 101.575 47.1146 100.155 47.5961 97.984C47.6256 97.8515 47.4335 97.7536 47.3664 97.8873Z" fill="#4E6AF3"/>
<path d="M87.4435 84.4347C89.3011 86.237 91.5108 88.1761 93.4976 89.819C95.0783 91.1259 95.2742 91.2716 95.6 91.3362C95.8159 91.3789 95.9735 91.173 95.8768 90.9759C95.6113 90.4335 93.8058 89.468 87.721 84.1573C87.5327 83.9928 87.2602 84.2571 87.4435 84.4347Z" fill="#4E6AF3"/>
<path d="M94.6051 70.4971C96.3936 71.7225 107.162 76.5248 118.138 79.7502C118.632 79.8952 119.12 80.081 119.639 80.0704C119.937 80.0641 120.024 79.6856 119.786 79.528C118.752 78.8425 111.592 77.5499 97.4445 71.2203C96.57 70.8292 95.7012 70.3565 94.7847 70.0715C94.521 69.9893 94.3961 70.354 94.6051 70.4971Z" fill="#4E6AF3"/>
<path d="M75.6069 17.5491C73.6609 17.5491 72.0086 16.0463 71.234 14.5114C70.9169 13.883 70.8837 13.3563 71.1367 12.9458C71.2704 12.7298 72.0996 12.5848 73.5127 11.5176C73.7098 11.3689 73.9961 11.4963 74.0149 11.7449C74.0802 12.6225 74.7914 13.303 75.4349 13.6476C76.2177 14.0663 77.1317 14.2107 78.015 14.3501C78.2278 14.384 78.342 14.6143 78.246 14.8033C77.1888 16.8724 77.1367 17.0626 76.8228 17.2829C76.519 17.497 75.9785 17.5491 75.6069 17.5491ZM71.6338 13.3513C71.3168 14.1831 73.5102 17.3181 76.1298 16.8774C76.6 16.7996 76.5065 16.8247 77.4901 14.9012C76.7117 14.7713 75.8774 14.5961 75.1386 14.2007C74.3156 13.76 73.718 13.0644 73.4876 12.3092C72.917 12.701 72.2961 13.0506 71.6338 13.3513Z" fill="#2A344A"/>
<path d="M62.5954 30.1795C62.311 30.1795 62.1735 29.8299 62.3813 29.6359C63.5947 28.5053 64.0907 26.5122 63.5113 25.0979C63.4322 24.9045 63.5608 24.6879 63.7699 24.6666C64.6054 24.5818 65.6375 24.364 66.5006 24.2755C66.6469 24.2636 66.7856 24.3508 66.8314 24.4914C67.6745 27.1073 66.2796 29.7307 65.5188 30.0835C65.2457 30.2103 65.1949 30.1783 62.5947 30.1789L62.5954 30.1795ZM64.2256 25.2454C64.6243 26.6384 64.2539 28.3308 63.3053 29.5518C65.4303 29.5518 65.2407 29.6152 65.4843 29.285C66.3914 28.0533 66.6971 26.4074 66.306 24.9302C65.6431 25.0137 64.9124 25.1537 64.2256 25.2454Z" fill="#2A344A"/>
<path d="M37.7006 13.2421C37.8896 11.2559 36.8412 9.16486 34.9642 7.78506C34.8839 7.72542 34.8362 7.63126 34.8362 7.53145C34.8368 7.30859 34.7401 7.43917 37.8889 5.15979C38.2204 4.91999 38.4928 4.97021 38.7615 5.27907C39.9191 6.6099 40.8337 8.19624 41.4075 9.86606C41.5318 10.2283 41.6329 10.6495 41.4364 11.0299C41.2656 11.3601 41.1758 11.3746 38.1972 13.5265C37.9787 13.6841 37.6742 13.5108 37.7 13.2428L37.7006 13.2421ZM35.6736 7.54086C37.3208 8.88928 38.302 10.77 38.3484 12.6414L40.5726 11.0305C40.9185 10.7794 41.0227 10.6803 40.8136 10.0707C40.2079 8.30547 39.1752 6.65887 38.2637 5.66388L35.6736 7.54086Z" fill="#2A344A"/>
<path d="M28.5222 28.764C27.1085 28.0006 26.0011 26.9931 25.1379 25.6848C25.013 25.4952 25.1248 25.2385 25.3495 25.2021C27.6985 24.8185 29.7042 23.1035 30.3401 20.9352C30.4167 20.6766 30.7714 20.6226 30.9126 20.8656C31.4783 21.8361 32.3684 22.59 33.4199 22.9867C33.7884 23.1261 33.8964 23.3785 33.7796 23.7011C33.0188 25.7834 31.4826 27.6171 29.5655 28.7307C29.133 28.983 28.89 28.9617 28.5222 28.764ZM25.9314 25.725C27.1599 27.3923 28.8699 28.28 29.0068 28.2875C29.0721 28.2806 29.1838 28.2266 29.2504 28.1883C31.0194 27.1607 32.4412 25.4777 33.1619 23.5624C32.1719 23.1669 31.3389 22.5297 30.7281 21.7193C29.9164 23.6779 28.0859 25.2121 25.9314 25.725Z" fill="#2A344A"/>
<path d="M11.7454 72.4422C10.4327 70.4554 10.3241 67.751 11.4673 65.5514C11.5294 65.4321 11.6606 65.3649 11.7931 65.3856C12.6732 65.5187 13.5658 65.4327 14.2394 65.149C14.4893 65.0429 14.7479 65.2871 14.6569 65.5426C14.1427 66.9977 14.3612 68.6951 15.2281 69.972C15.3185 70.1045 15.2934 70.284 15.1716 70.3876C14.2331 71.1842 13.2225 71.9074 12.1678 72.5383C12.0241 72.6243 11.8376 72.5822 11.7454 72.4422ZM11.9274 66.0366C11.0372 67.9048 11.1094 70.1283 12.1101 71.8396C12.9626 71.3135 13.7837 70.7247 14.5558 70.085C13.8132 68.8527 13.5753 67.3241 13.8954 65.9217C13.2947 66.0724 12.6104 66.1132 11.9274 66.0366Z" fill="#2A344A"/>
<path d="M35.4286 95.8226C34.6508 95.8226 33.8743 95.6858 33.1417 95.4133C32.8981 95.3229 32.8642 94.9909 33.0846 94.8527C34.4255 94.0141 35.33 92.4736 35.4449 90.8326C35.455 90.6901 35.5598 90.5721 35.6998 90.5457C36.7927 90.3411 37.8555 89.7968 38.7726 88.9726C38.9673 88.7981 39.2723 88.9236 39.2956 89.1778C39.4588 90.9751 39.1744 92.8038 38.4732 94.4654C38.3564 94.7416 38.2083 95.0543 37.9246 95.2689C37.4236 95.6469 36.143 95.822 35.4292 95.822L35.4286 95.8226ZM33.9446 95.0084C35.6056 95.4347 37.2328 95.0047 37.5454 94.7692C37.7048 94.6487 37.8053 94.4328 37.8944 94.2225C38.477 92.842 38.7544 91.3398 38.7067 89.8433C37.8888 90.4685 36.9829 90.9029 36.0495 91.1151C35.8787 92.6412 35.0997 94.0699 33.9446 95.0084Z" fill="#2A344A"/>
<path d="M26.1327 112.529C23.6851 111.777 21.9977 109.202 22.2909 106.666C22.3022 106.571 22.3562 106.486 22.4371 106.435C23.4704 105.795 24.7165 105.34 26.247 105.041C26.4529 105 26.6437 105.173 26.6186 105.385C26.4309 107.011 27.5571 108.703 29.129 109.158C29.3336 109.217 29.4209 109.458 29.3029 109.634C28.731 110.488 28.1064 111.322 27.4472 112.11C27.0524 112.583 26.7442 112.716 26.1327 112.528V112.529ZM22.8998 106.889C22.7221 109.085 24.198 111.278 26.3173 111.928C26.4422 111.967 26.5696 112 26.6613 111.974C26.9482 111.892 28.3838 109.865 28.5533 109.62C27.0449 108.987 25.9726 107.376 25.9708 105.74C24.7592 106.008 23.7504 106.386 22.8998 106.889Z" fill="#2A344A"/>
<path d="M91.2285 79.2528C90.0515 79.2528 89.1594 78.5277 88.2887 77.7788C88.0866 77.6055 88.1808 77.2716 88.4457 77.2308C90.1663 76.9652 91.5625 75.5823 91.7652 73.942C91.7878 73.7574 91.9661 73.6344 92.1425 73.6739C92.931 73.8421 94.108 74.055 95.226 73.9614C95.4181 73.9388 95.5964 74.1171 95.5619 74.3255C95.3196 75.7926 94.3484 77.0092 93.3359 78.1059C92.7106 78.7826 92.1657 79.2534 91.2291 79.2534L91.2285 79.2528ZM89.1764 77.7066C89.9516 78.3344 90.9335 78.8943 91.8575 78.507C92.2379 78.3482 92.5556 78.0242 92.8751 77.679C93.727 76.7568 94.5455 75.7518 94.8582 74.6086C93.9435 74.6331 93.0345 74.4919 92.3333 74.3531C92.0038 75.9137 90.7583 77.2239 89.177 77.706L89.1764 77.7066Z" fill="#2A344A"/>
<path d="M104.646 47.5178C102.462 46.7249 101.146 44.2051 101.774 42.0155C101.798 41.9333 101.854 41.8642 101.93 41.824C102.792 41.3696 103.69 41.0174 104.674 40.7481C104.909 40.6847 105.123 40.8994 105.06 41.1323C104.679 42.5566 105.766 44.2139 107.224 44.4305C107.462 44.4663 107.573 44.7444 107.426 44.9339C105.446 47.4738 105.416 47.7952 104.646 47.5178ZM102.344 42.3162C101.901 44.1411 103.05 46.2698 104.86 46.9271C104.981 46.971 105.016 46.9691 105.026 46.9654C105.089 46.9459 105.403 46.5109 106.634 44.9302C105.238 44.4587 104.251 42.9609 104.366 41.492C103.65 41.7142 102.996 41.9816 102.345 42.3162H102.344Z" fill="#2A344A"/>
<path d="M105.532 65.9607C106.466 64.7184 106.759 63.0982 106.316 61.6274C106.273 61.4842 106.337 61.3304 106.469 61.2601C107.133 60.9061 107.781 60.6054 108.423 60.2626C108.875 60.0229 109.206 60.1239 109.421 60.5627C110.086 61.9055 110.155 63.5395 109.604 64.9331C109.579 64.9971 109.534 65.0505 109.476 65.0863C108.354 65.7686 107.131 66.2307 105.838 66.4586C105.56 66.5094 105.361 66.1892 105.533 65.9614L105.532 65.9607ZM106.986 61.697C107.321 63.0398 107.125 64.4698 106.457 65.6833C107.371 65.4504 108.243 65.0888 109.058 64.6048C109.503 63.3951 109.431 61.9958 108.858 60.8408C108.836 60.7968 108.822 60.773 108.813 60.7598C108.806 60.7855 107.754 61.3091 107.73 61.321C107.482 61.4447 107.234 61.5684 106.986 61.697Z" fill="#2A344A"/>
</svg>
