<svg width="48" height="48" viewBox="0 0 48 48" fill="none" xmlns="http://www.w3.org/2000/svg">
<path d="M24 44C24.6417 44 25.3647 43.7341 26.056 43.3859C26.7789 43.0219 27.5916 42.503 28.4477 41.8648C30.1617 40.587 32.1147 38.7824 33.9581 36.6397C37.615 32.3888 41 26.618 41 20.8333C41 11.5267 33.379 4 24 4C14.6211 4 7 11.5267 7 20.8333C7 26.618 10.385 32.3888 14.0419 36.6397C15.8853 38.7824 17.8383 40.587 19.5523 41.8648C20.4084 42.503 21.2211 43.0219 21.944 43.3859C22.6353 43.7341 23.3583 44 24 44Z" fill="#4E6AF3" stroke="white" stroke-width="2"/>
<path d="M16.875 20.2038C16.875 19.2857 17.2954 18.4181 18.0161 17.8492L22.1411 14.5926C23.231 13.7321 24.769 13.7322 25.8589 14.5926L29.9839 17.8492C30.7046 18.4181 31.125 19.2857 31.125 20.2038L31.125 25.125C31.125 26.7819 29.7819 28.125 28.125 28.125L27 28.125C26.5858 28.125 26.25 27.7893 26.25 27.375L26.25 25.125C26.25 24.2966 25.5784 23.625 24.75 23.625L23.25 23.625C22.4216 23.625 21.75 24.2966 21.75 25.125L21.75 27.375C21.75 27.7893 21.4142 28.125 21 28.125L19.875 28.125C18.2181 28.125 16.875 26.7819 16.875 25.125L16.875 20.2038Z" fill="white"/>
</svg>
