<svg width="28" height="28" fill="none" xmlns="http://www.w3.org/2000/svg"><path fill-rule="evenodd" clip-rule="evenodd" d="M18.559 2.208c1.849 0 3.439.61 4.566 1.774 1.123 1.159 1.692 2.77 1.692 4.6v10.73c0 1.822-.565 3.426-1.679 4.583-1.117 1.161-2.695 1.777-4.53 1.788h-1.413l-3.083.002h-3.08l-1.015.001h-.384l-.001-1v1c-1.849 0-3.438-.61-4.565-1.773-1.122-1.16-1.692-2.77-1.692-4.602V8.583c0-1.822.565-3.426 1.679-4.583C6.17 2.84 7.748 2.224 9.583 2.213H9.978l1.018-.001 3.083-.002 3.08-.001h1.299l.075-.001h.025l.001 1v-1Zm0 2c1.4 0 2.439.453 3.13 1.165.693.717 1.128 1.793 1.128 3.21V19.31c0 1.41-.431 2.482-1.12 3.197-.685.712-1.714 1.166-3.098 1.175h-.003l-4.485.002h-3.08l-1.015.001h-.384c-1.4 0-2.438-.452-3.128-1.165-.694-.716-1.129-1.792-1.129-3.21V8.583c0-1.41.432-2.481 1.12-3.196.684-.711 1.713-1.165 3.097-1.174l4.488-.003 3.08-.001h1.299l.075-.001h.025ZM8.912 9.169a1 1 0 0 1 1-1h3.214a1 1 0 1 1 0 2H9.912a1 1 0 0 1-1-1Zm0 4.874a1 1 0 0 1 1-1h8.423a1 1 0 1 1 0 2H9.912a1 1 0 0 1-1-1Zm0 4.884a1 1 0 0 1 1-1h8.423a1 1 0 0 1 0 2H9.912a1 1 0 0 1-1-1Z" fill="#3B4A69"/></svg>