<svg width="28" height="28" fill="none" xmlns="http://www.w3.org/2000/svg"><path fill-rule="evenodd" clip-rule="evenodd" d="M16.271 4.818a3.667 3.667 0 0 0-4.544 0L5.311 9.883a3.667 3.667 0 0 0-1.395 2.878v7.655a3.667 3.667 0 0 0 3.667 3.667h1.75a.167.167 0 0 0 .166-.166v-3.5a3.333 3.333 0 0 1 3.334-3.334h2.333a3.333 3.333 0 0 1 3.333 3.334v3.5c0 .091.075.166.167.166h1.75a3.667 3.667 0 0 0 3.667-3.666V12.76a3.667 3.667 0 0 0-1.395-2.878l-6.417-5.065Zm-5.783-1.57a5.667 5.667 0 0 1 7.023 0l6.416 5.066a5.667 5.667 0 0 1 2.156 4.447v7.655a5.667 5.667 0 0 1-5.667 5.667h-1.75a2.167 2.167 0 0 1-2.167-2.166v-3.5c0-.737-.597-1.334-1.333-1.334h-2.333c-.737 0-1.334.597-1.334 1.334v3.5c0 1.196-.97 2.166-2.166 2.166h-1.75a5.667 5.667 0 0 1-5.667-5.666V12.76c0-1.734.794-3.373 2.155-4.447l6.417-5.066Z" fill="#fff"/></svg>