<svg width="28" height="28" fill="none" xmlns="http://www.w3.org/2000/svg"><path fill-rule="evenodd" clip-rule="evenodd" d="M15.413 4.806c-.41.146-.895.278-1.413.278s-1.003-.132-1.412-.278c-.29-.102-.597-.233-.865-.347a31.083 31.083 0 0 0-.277-.117c-.763-.316-1.113-.364-1.35-.271-.12.047-.239.096-.357.148-.233.102-.446.384-.762 1.147-.036.085-.074.179-.113.277-.11.271-.234.58-.367.858-.187.392-.436.828-.802 1.194-.366.366-.802.616-1.194.803-.278.132-.587.257-.858.366l-.278.113c-.762.316-1.045.53-1.147.763-.051.118-.1.237-.148.357-.093.237-.044.587.272 1.35l.116.276c.115.269.245.575.348.865.145.41.278.895.278 1.413s-.133 1.003-.278 1.412c-.103.29-.233.597-.348.866-.041.098-.081.19-.116.276-.316.763-.365 1.113-.272 1.35.048.12.097.239.148.357.102.233.385.446 1.147.762.085.036.18.074.278.113.27.11.58.234.858.366.392.188.828.437 1.194.803.366.366.615.802.803 1.194.132.278.257.587.366.858.04.099.077.193.113.278.316.762.529 1.045.762 1.147.118.051.237.1.357.148.237.093.587.044 1.35-.272l.277-.116c.268-.115.575-.245.865-.348.41-.145.894-.278 1.412-.278.518 0 1.003.133 1.413.278.29.103.596.233.865.348l.277.116c.762.316 1.113.365 1.35.272.12-.047.238-.097.356-.148.233-.102.447-.385.763-1.147l.113-.278c.109-.271.233-.58.366-.858.187-.392.436-.829.802-1.195.366-.366.803-.615 1.195-.802.278-.133.587-.257.858-.366l.278-.113c.762-.317 1.045-.53 1.146-.763.052-.118.101-.237.148-.356.093-.237.045-.587-.271-1.35l-.117-.277c-.114-.268-.245-.575-.347-.865-.146-.41-.278-.894-.278-1.412 0-.518.132-1.003.278-1.413.102-.29.233-.596.347-.865l.117-.276c.316-.763.364-1.113.271-1.35a10.58 10.58 0 0 0-.148-.358c-.102-.233-.384-.446-1.147-.763l-.277-.112c-.271-.11-.58-.234-.858-.367-.392-.187-.829-.436-1.195-.802-.366-.366-.615-.802-.802-1.194-.132-.278-.257-.587-.366-.858l-.113-.277c-.316-.763-.53-1.045-.763-1.147a10.53 10.53 0 0 0-.357-.148c-.236-.093-.587-.045-1.35.271l-.276.117c-.269.114-.575.245-.865.347Zm.377-2.312c.69-.285 1.768-.709 2.846-.284.143.056.285.115.425.176 1.061.463 1.524 1.524 1.81 2.213l.146.357c.1.248.187.465.291.684.145.304.278.508.412.641.133.133.337.266.64.411.22.104.437.192.684.292.112.045.23.092.357.145.69.286 1.75.749 2.214 1.81.061.14.12.283.176.426.425 1.078.001 2.157-.284 2.846l-.15.356c-.104.245-.196.461-.277.69-.113.317-.163.555-.163.744 0 .189.05.426.163.744.08.228.173.444.277.69l.15.355c.285.69.709 1.768.284 2.847-.056.142-.114.284-.175.424-.463 1.061-1.525 1.524-2.214 1.81-.127.053-.245.1-.358.146-.247.1-.465.187-.683.291-.305.145-.508.278-.642.411-.133.134-.266.337-.41.642-.105.218-.193.436-.292.683l-.146.357c-.285.69-.748 1.752-1.81 2.215-.14.061-.282.12-.425.176-1.078.424-2.156 0-2.846-.285-.128-.052-.245-.102-.356-.15-.245-.104-.461-.196-.69-.277-.317-.112-.555-.163-.744-.163-.188 0-.426.05-.744.163-.228.081-.444.173-.69.277-.11.048-.228.098-.355.15-.69.286-1.768.71-2.847.285a12.553 12.553 0 0 1-.424-.176c-1.062-.463-1.525-1.525-1.81-2.214-.054-.127-.101-.245-.146-.357-.1-.247-.188-.465-.292-.684-.145-.304-.277-.508-.411-.641-.133-.133-.337-.266-.641-.411a11.812 11.812 0 0 0-.684-.292c-.112-.045-.23-.092-.357-.145-.69-.286-1.75-.749-2.214-1.81-.06-.14-.12-.282-.176-.425-.424-1.079 0-2.157.285-2.847.052-.127.102-.244.15-.356.104-.245.196-.46.277-.689.112-.318.163-.555.163-.744 0-.19-.05-.427-.163-.745-.081-.228-.173-.444-.277-.689a36.252 36.252 0 0 1-.15-.356c-.286-.69-.71-1.768-.285-2.846.056-.143.115-.285.176-.425C2.85 7.878 3.91 7.415 4.6 7.13l.357-.146c.248-.1.465-.187.684-.291.304-.146.508-.278.641-.412.134-.133.266-.337.411-.641.104-.219.192-.436.292-.683.045-.112.092-.23.145-.358.286-.689.749-1.75 1.81-2.213.14-.061.282-.12.425-.176 1.079-.425 2.157-.001 2.847.284l.356.15c.245.104.46.196.689.277.318.113.555.163.744.163.19 0 .427-.05.745-.163.228-.08.444-.172.689-.277l.356-.15Zm-4.412 8.992a.077.077 0 1 0 .108-.108.077.077 0 0 0-.108.108Zm-1.306-1.414a1.923 1.923 0 1 1 2.72 2.72 1.923 1.923 0 0 1-2.72-2.72Zm7.247.61a1 1 0 0 1 0 1.413l-5.224 5.224a1 1 0 0 1-1.414-1.414l5.224-5.224a1 1 0 0 1 1.414 0Zm-2.11 4.527a1.924 1.924 0 1 1 2.72 2.72 1.924 1.924 0 0 1-2.72-2.72Zm1.306 1.414a.077.077 0 1 0 .108-.108.077.077 0 0 0-.108.108Z" fill="#fff"/></svg>