<svg width="140" height="140" fill="none" xmlns="http://www.w3.org/2000/svg"><path d="M108.586 50.819c-.305 0-.305.567 0 .567.728 0 10.862-.167 11.713-.335a.327.327 0 0 0 0-.647c-2.67-.35-8.774.356-11.713.414Zm4.06 14.855c-.335 0-.277.56.043.574 2.372.08 6.068-.043 8.49-.152.444 0 .495-.728 0-.728-2.713.015-5.813.051-8.533.306Zm.312-25.091a.29.29 0 0 0-.05.575c1.302.16 5.528.327 6.801-.211a.333.333 0 0 0 .078-.546.334.334 0 0 0-.194-.087c-1.688-.102-4.394.436-6.635.269Zm-8.307 14.055c6.14-.087 13.094-.517 19.292-1.084.386 0 .35-.728-.05-.728-6.097.153-13.219.553-19.279 1.179a.316.316 0 0 0-.192.553.316.316 0 0 0 .229.08Zm8.802-32.402c1.71-.131 3.419-.233 5.093-.437.48-.05.356-.727-.117-.727-1.702.13-3.404.35-5.092.546-.393.043-.284.647.116.618Zm-9.981 15.175c-.364 0-.378.618 0 .648a53.024 53.024 0 0 0 12.28-.859c.458-.08.386-.807-.08-.727a66.494 66.494 0 0 1-12.2.938Zm13.539-11.69c.632.152.727-.88.145-.779a43.54 43.54 0 0 1-8.591.531c-.386 0-.473.56-.081.604 2.845.285 5.716.165 8.527-.357Zm-15.758 28.575c-.567-.218-3.186.145-3.92.225-.357 0-.372.575 0 .568l2.975-.095c1.375-.05 1.367-.53.945-.698Zm3.005 31.478c-.611-.146-4.954.182-5.667.225-.378 0-.306.582.073.575.77 0 4.997 0 5.667-.21.298-.103.196-.532-.073-.59Zm-5.674-3.077c2.044.094 7.107.182 9.151-.306a.344.344 0 0 0 .253-.114.329.329 0 0 0 .07-.123.339.339 0 0 0-.254-.439.343.343 0 0 0-.142 0c-2.99 0-5.761.501-8.991.37-.386-.014-.488.59-.088.612Zm7.056-12.935c.437-.08.4-.727-.058-.727-3.23.327-3.907.407-7.217.538-.32 0-.356.553 0 .575a30.62 30.62 0 0 0 7.275-.386Zm4.481-4.576c-3.957.146-8.067.815-12.2.96a.313.313 0 0 0 0 .619c3.427 0 8.941-.16 12.28-.902a.357.357 0 0 0 .116-.57.358.358 0 0 0-.196-.107Zm13.481 18.806c-.059 0-4.053.327-4.736.305a.305.305 0 0 0-.066.582c.815.153 4.249.211 4.954-.385a.296.296 0 0 0 .072-.139.295.295 0 0 0-.006-.156.302.302 0 0 0-.218-.208Zm1.287-15.867c-5.041.328-10.672.517-15.692.946-.392 0-.32.59.059.611 2.713.08 12.367-.415 15.699-.837a.358.358 0 0 0 .314-.251.364.364 0 0 0-.38-.468Zm-18.936-16.543a.363.363 0 0 0 0-.727c-3.136.08-6.3.102-9.457.342a.306.306 0 0 0 0 .596c3.171.059 6.321-.109 9.457-.21Zm12.403 29.369c-1.105 0-5.092.283-6.038.45-.305.052-.349.554 0 .568 1.026.051 4.991-.203 6.14-.305.444.014.349-.713-.102-.713Zm-2.124 4.08-9.144.583c-.415 0-.313.633.094.611 1.775-.08 7.486-.306 9.087-.524.356-.043.363-.67-.037-.67ZM109.685 21.8c-2.685-.305-11.109.204-13.968.495-.393.036-.422.648 0 .611 4.7-.305 9.276-.407 13.975-.393a.362.362 0 0 0 .203-.588.36.36 0 0 0-.21-.125Zm.778 19.635c.459-.065.291-.727-.167-.727-4.683.533-9.393.776-14.106.727a.291.291 0 0 0 0 .575c4.765.23 9.542.037 14.273-.575Zm-4.939-15.233a.357.357 0 0 0 .247-.132.36.36 0 0 0 .08-.268.373.373 0 0 0-.258-.314.362.362 0 0 0-.142-.014c-3.208.4-6.25.415-9.414.691-.334.037-.37.582 0 .597a63.305 63.305 0 0 0 9.487-.56ZM96.51 37.717c-.364 0-.37.574.044.589 1.305.123 2.618.157 3.928.102a.333.333 0 0 0 .198-.306.334.334 0 0 0-.198-.306c-.131-.072-3.302-.08-3.972-.08Zm-9.079 4.19c.422 0 1.986-2.59 2.867-3.477.32-.32-.204-.859-.532-.553a13.097 13.097 0 0 0-2.386 2.866l-1.84-1.695c-.379-.35-.866.247-.517.604.35.356 1.87 2.255 2.408 2.255Zm-4.976-11.88c2.983.175 6.082.116 9.356.138.232 0 .37-.647 0-8.373 0-.56-.051-.975-.059-1.128a.16.16 0 0 0-.043-.123c-.211-.226-1.586-.211-4.678-.131-5.201.123-5.776.087-5.776.385-.022.059.306 9.145 1.2 9.232Zm.204-.538c-.364-1.943-.626-6.046-.851-8.344 2.117.123 6.94-.117 9.37-.175 0 0 .13 6.467.189 8.555-2.852-.065-5.827-.174-8.737-.073l.029.037Z" fill="#2A344A"/><path d="M92.815 43.807c.611-.24-.102-7.02-.203-8.803a.153.153 0 0 0-.051-.094c-.437-.378-9.669.123-10.134.16-.466.036 0 2.568.08 4.292.167 4.292.364 4.663.582 4.692 1.586.226 8.271.32 9.726-.247Zm-9.944-8.14c3.15-.204 6.343-.219 9.18-.233.073 1.702.19 6.496.335 7.79a59.964 59.964 0 0 1-8.926.256c.123-1.084-.48-6.584-.59-7.814Zm5.921 18.368 1.688-1.527a.458.458 0 0 0-.575-.655 8.56 8.56 0 0 0-1.862 1.55l-1.513-1.398a.422.422 0 0 0-.575.619l1.455 1.455c-1.31 1.382-1.884 2.248-1.753 2.64.13.393.604.219.727.044.51-.625 1.084-1.338 1.703-2 .612.669 1.293 1.273 2.03 1.804a.437.437 0 0 0 .523-.56 13.342 13.342 0 0 0-1.848-1.972Zm.386-31.187a11.7 11.7 0 0 0-2.794 3.637 9.863 9.863 0 0 0-1.877-1.73c-.429-.3-.982.268-.56.588.83.734 1.606 1.526 2.32 2.372.19.196.372.095.532-.116a21.377 21.377 0 0 1 2.91-4.293c.349-.385-.153-.814-.531-.458Zm-.233 47.497c.378-.262 1.819-3.04 2.655-3.986.328-.364-.24-.866-.61-.48a16.002 16.002 0 0 0-2.54 3.433l-1.695-1.455c-.37-.313-.865.248-.48.619.386.37 2.044 2.408 2.67 1.87Zm5.55 9.327c-.276-.546-10.228 0-10.322 0a.13.13 0 0 0-.102.072c-.335.539 0 9.29.24 10.105.284.99 9.93.167 10.41.211a.102.102 0 0 0 .124-.095c.153-1.113-.313-10.22-.35-10.293Zm-9.857.53c2.91.124 6.351-.058 9.305-.065.043 1.215.305 8.344.342 9.305-3.23.145-5.944.094-9.385 0 .036-1.215-.218-8.134-.262-9.217v-.022Z" fill="#2A344A"/><path d="M88.153 84.917c.516 0 3.157.182 3.368.066a.414.414 0 0 0 .087-.655c-.385-.407-2.823-.32-3.23-.24-.553.102-.655.313-.64.473a.444.444 0 0 0 .415.356Zm.982-21.351c-2.386.043-4.896.13-5.31.16-.161 0-.328.138-.35 1.651 0 1.812.313 7.551 1.04 7.602 1.455.11 8.977.139 9.945.066.153 0 .276 0 0-3.783-.153-1.95-.495-5.493-.495-5.493-.029-.145-.044-.276-4.83-.203Zm4.284.64c.175 2.713.27 5.492.56 8.22h-9.253c-.284-2.626-.473-5.332-.676-8.11l9.37-.11Zm-7.878-4.736c2.954 0 7.893-.4 7.937-.422.465-.24 0-6.81-.153-9.617 0-.502-2.568-.51-4.7-.43-.93 0-5.558.248-5.543.91.247 9.74.19 9.268.371 9.37.68.178 1.386.241 2.088.189Zm-1.535-.727c-.167-2.867-.226-5.908-.342-8.73 3.02-.268 6.054-.37 9.086-.306 0 .997.197 7.624.32 8.73-1.076.073-7.936.124-9.042.313l-.022-.007Z" fill="#2A344A"/><path d="M138.647 70.236c-1.906-51.847-1.106-51.41-1.455-51.716-.495-.466-4.314-.16-5.252-.11l-.393-7.95a.337.337 0 0 0 .02-.152.325.325 0 0 0-.311-.286c-15.277-.188-30.998.823-46.763 1.892-4.248.299-8.664.56-12.985 1.019a.275.275 0 0 0-.32.284c.8 19.423 3.128 50.821 7.15 85.588.044.4 3.362.05 6.345-.146.038.856.193 1.703.458 2.517.436.553 54.401-2.793 54.335-5.092-.233-8.635-.545-17.38-.829-25.848Zm-4.088 22.683c-19.133 2.91-36.338 3.725-55.55 5.384-3.805-32.962-5.37-55.573-7.276-84.86 5.907-.35 27.754-2.358 59.312-2.773.785 21.148 3.71 79.921 3.492 82.25h.022ZM43.238 42.905c-.495 0-.487.96-.255 1.324a.305.305 0 0 0 .291.167c.444-.05.422-1.44-.036-1.491Zm-2.597 4.205c.313.08 1.157.13 1.353-.16.276-.408-.473-4.103-.567-4.365a.24.24 0 0 0-.466.087c0 .662.298 2.91.415 3.849l-.728.043a.298.298 0 0 0-.007.546Zm1.979-5.565a1.375 1.375 0 0 1 1.25.276c.285.255.83-.233.052-.727-.56-.379-1.87-.51-1.732.16a.386.386 0 0 0 .43.29Z" fill="#2A344A"/><path d="M63.948 67.99c-4.677-4.612-13.094-10.032-20.66-11.109a2.379 2.379 0 0 0 0-1.324 13.667 13.667 0 0 0 1.6-1.578c1.04-1.222 1.019-2.416-.465-1.812 1.455-3.215 1.455-10.184.931-14.098 2.437 1.52 6.547.058 6.045-2.91 3.31.996 5.464-5.58 1.259-6.766.59-4.976-5.784-5.696-7.733-2.793-1.099-3.209-6.147-1.52-5.784.996-2.277-2.444-7.194-1.593-7.878 1.455-2.059-1.87-5.456-1.076-5.158 1.68-3.26-1.512-4.983 2.387-2.452 3.638-1.622.873-1.571 4.467.917 4.467 0 2.4 1.455 7.9 5.056 10.912.386 3.368-.306 5.092-1.506 8.213C16.247 58.766 7.234 68.026 3.19 79.513-1.424 92.608.766 104.975 14.435 107.58a25.984 25.984 0 0 1-.611 5.195.269.269 0 0 0 .517.13c.486-1.694.75-3.445.785-5.208a16.578 16.578 0 0 0 16.805-8.126 59.64 59.64 0 0 0 6.438 2.037c6.868 1.942 15.823 3.87 24.305 1.571-.167 4.067-.4 7.326-.764 10.563 0 .32.444.415.495.095.284-1.703.99-9.174.946-10.854 5.398-1.659 9.006-5.406 9.894-10.272 1.55-8.25-1.943-17.51-9.298-24.72ZM33.052 36.657c.19 2.125 0 3.638-.647 4.62-.24.356-.604.727-.917.727-.24-.262-1.811-1.891-3.295-.938-.968.633-1.011 1.862-.095 3.463a9.459 9.459 0 0 1 1.382 3.2c-2.786-3.026-3.637-5.863-4.277-9.93a3.42 3.42 0 0 0 1.92-1.062c1.273 1.892 4.387 1.514 5.93-.08Zm-4.51 4.889c.982-.604 1.891.124 2.72.851.488.43 1.288-.174 1.667-.727.989-1.368.902-3.638.77-4.773a3.797 3.797 0 0 0 5.239 0c.145 2.096 4.54 2.576 5.696.837.53 3.637.785 11.502-.975 14.797-1.455.64-4.765 2.102-6.41 1.455-1.41-.56-2.123-2.714-3.768-3.637-1.105-.612-2.051.08-1.28 1.316 1.95 3.1 1.775 4.278.233 7.464a10.477 10.477 0 0 1-3.717-1.87c1.6-2.291 2.037-6.38 1.636-9.1-.356-2.423-.727-2.277-1.687-4.067-.444-.735-.837-2.095-.124-2.546Zm12.273 14.673a.262.262 0 0 0 .16.495 4.286 4.286 0 0 0 1.731-.727 3.15 3.15 0 0 1-.51 1.92c-.13.182.103.728.576.051-.037 2.008-1.063 4.489-3.034 5.463a9.828 9.828 0 0 1-6.547-4.4c2.182-3.74.261-6.548-.379-7.712-.356-.67-.174-.771.408-.393 1.375.873 2.582 3.31 3.913 3.637 2.51.604 5.602-.909 7.115-1.585.786-.357 1.244-.597.299.589-1.266 1.564-1.986 1.891-3.732 2.662ZM10.028 87.27a.27.27 0 0 0 .45.283c6.38-10.054 16.936-17.03 22.37-27.79.845 1.877 4.453 4.292 6.679 4.292 0 1.812-.182 3.965-.371 6.031-2.183-.502-8.082-2.35-9.144-4.765-.124-.298-.604-.094-.488.204.997 2.699 7.151 4.867 9.566 5.325a88.762 88.762 0 0 1-3.019 16.063c-1.098 3.928-2.51 8.678-4.546 12.192a15.927 15.927 0 0 1-16.732 7.864C1.363 104.611-.66 92.498 3.903 79.702c4.262-11.989 13.596-20.427 24.363-22.028 1.17.863 2.45 1.568 3.804 2.095-5.456 10.527-15.859 17.438-22.042 27.5Zm26.669-.052A69.983 69.983 0 0 1 58.929 81.9c2.182-.145 4.365-.138 6.547-.138.32 0 .328-.524 0-.524a43.448 43.448 0 0 0-4.46-.08c-.356-2.91-5.601-11.4-7.383-13.75a.262.262 0 0 0-.408.321c3.572 5.005 6.46 11.378 7.035 13.458-6.395.24-16.26 1.754-23.36 5.231.67-2.452 3.26-12.564 3.318-22.552 2-.895 3.426-4.132 3.26-6.307A41.794 41.794 0 0 1 63.46 68.47c6.482 6.35 10.454 14.55 9.232 23.461-.648 5.093-4.263 9.036-9.661 10.469-9.305 2.546-18.878.334-28.066-2.517-.89-.3-1.796-.547-2.714-.742a66.515 66.515 0 0 0 4.445-11.924Z" fill="#2A344A"/><path d="M36.34 40.38a2.14 2.14 0 0 1 1.687-.939c.531 0 .502-.8 0-.727a2.85 2.85 0 0 0-2.124 1.33c-.19.3.233.627.437.336Zm1.716 2.015c-.298.24-.276 1.455.175 1.455a.458.458 0 0 0 .407-.4c.168-.633-.261-1.28-.582-1.055Zm-.64 6.009a.284.284 0 0 0-.53-.059c-.074.102-.212.415.094 1.048a1.957 1.957 0 0 0 2.393 1.004.27.27 0 0 0-.138-.517c-1.033.204-1.63-.45-1.819-1.476ZM26.601 40.795a.364.364 0 1 0 .664.298.364.364 0 0 0-.664-.298Zm2.704-2.086a.364.364 0 1 0 .662.3.364.364 0 0 0-.662-.3Zm3.163.061a.364.364 0 1 0-.663-.299.364.364 0 0 0 .663.3Zm-5.913-.422a.364.364 0 1 0 .663.299.364.364 0 0 0-.663-.299Zm3.431 2.336a.364.364 0 1 0 .664.299.364.364 0 0 0-.663-.299ZM27.601 44.272a.364.364 0 1 0 .663.299.364.364 0 0 0-.663-.3Z" fill="#2A344A"/><path d="M138.644 70.207c-1.906-51.847-1.106-51.41-1.455-51.716-.494-.466-4.323-.147-5.261-.096L84.681 98.63h-.001c.039.856.197 1.94.462 2.755.437.553 54.627-2.662 54.561-4.96-.233-8.635-.775-17.75-1.059-26.218Zm-3.901 22.91c-19.133 2.91-30.85 3.854-50.062 5.513l47.247-80.235c1.053 25.07 3.01 72.64 2.815 74.723Z" fill="#4E6AF3"/><rect y="112" width="28" height="28" rx="14" fill="#4E6AF3"/><path d="M15.046 120.992V131H13.78v-8.429l-2.55.93v-1.142l3.617-1.367h.198Z" fill="#fff"/></svg>