<svg width="140" height="140" fill="none" xmlns="http://www.w3.org/2000/svg"><path d="m80.271 32.636-8.9 50.552-35.244-28.124m34.532-30.972-30.972 10.68M36.483 30.5l6.408-8.544m18.868-7.832 8.544 2.136m26.344 6.408 10.324 2.136" stroke="#4E6AF3"/><path d="m73.862 82.838-4.628 1.068 2.848 4.628h.356l.356.356.356.356h.712l.356.712.356-.356.356.712.712 1.068.712-.712.356-.712 2.848 1.78v-.712l-5.696-8.188Z" fill="#4E6AF3"/><path d="M128.834 86.787c-.548-7.637-5.483-12.68-9.579-15.563a21.961 21.961 0 0 0-5.647-3.015 5.385 5.385 0 0 0-.932-3.196c-1.049-1.566-2.811-2.537-5.231-2.858-4.167-.564-4.144-.619-4.104-.783.18-.964.673-1.833.916-2.851 1.723-7.401-2.263-11.278-2.263-11.42 0-.273-1.912-2.662-5.483-3.054l.36-.705a2.46 2.46 0 0 0 2.17-.822 3.963 3.963 0 0 0 .626-3.297c-.415-1.567-2.2-1.653-3.712-1.567-2.193.165-3.133 2.914-3.054 4.7-.04.383-.047.783-.102 1.088a5.186 5.186 0 0 0-.086.916c-2.89.854-7.151 3.83-7.237 8.616a.305.305 0 0 0 .14.227c.22 2.56 1.489 9.798 4.833 13.447a3.76 3.76 0 0 0 2.397 1.019 2.27 2.27 0 0 0-.713 2.858c-4.66 2.687-12.531 10.887-14.724 16.189a33.812 33.812 0 0 0-2.93-4.088c-.39-.337-1.346-.298-2.928.14l8.912-49.607A13.721 13.721 0 0 0 96.7 22.83l9.837 1.95a11.397 11.397 0 0 0 9.315 16.297 11.397 11.397 0 0 0 7.8-20.465 11.399 11.399 0 0 0-6.855-2.286 11.37 11.37 0 0 0-5.809 1.612c-1.756 1.05-3.479 3.041-4.451 4.841l-9.837-1.95c1.015-3.364.204-7.655-1.7-10.654a13.675 13.675 0 0 0-18.505-4.438c-3.057 1.808-5.48 4.608-6.377 8.701l-8.223-1.958C63.258 6.391 57.273 0 50.146 0c-6.571 0-11.928 5.537-11.928 12.343a12.483 12.483 0 0 0 4.338 9.508l-6.21 8.224C25.099 18.86 5.8 26.872 5.8 42.747c0 15.876 19.36 23.856 30.576 12.625L71.55 82.77c-.83.266-2.333.744-2.514.822-.9.345 1.888 3.571 2.812 5.216a.094.094 0 0 0 .047.063c0 .125-.063.29-.086.446-.282-.337-.783-.783-1.136-.446-.352.337-.156 1.135.047 1.472.477.64.866 1.341 1.16 2.084a.252.252 0 0 0 .14.156 1.652 1.652 0 0 0 .627 1.128c.36 10.542 6.728 12.359 8.842 12.664-.211 10.965 1.99 29.762 3.243 31.986a.3.3 0 0 0 .407.11.306.306 0 0 0 .14-.181.297.297 0 0 0-.03-.226c-.423-.737-1.081-4.151-1.684-8.725 2.122 1.856 8.552 4.769 9.226 4.441a.316.316 0 0 0 .149-.181c.039-.133 0-1.511-.047-2.349l9.398.987c.439 1.511.862 2.349 1.253 2.553 3.47 1.566 18.954-2.82 23.199-5.788-.337 4.77-.658 8.858-.838 10.706a.295.295 0 0 0 .266.291.298.298 0 0 0 .321-.228c.587-5.835 2.749-37.226 2.068-39.411.603-3.305.705-7.628.274-13.572Zm-19.94-49.585c1.629-2.561 5.082-4.597 6.735-5.482-.055.485-.063 1.057-.063 1.057 0 .384.118.619.353.697.376.133.783-.211 1.457-.971-.173 1.425-.345 3.54 0 4.292.454 1.08 1.566.955 1.48-.987a24.882 24.882 0 0 0-.595-3.493c.213.255.443.496.689.72a.922.922 0 0 0 1.002.087c.572-.345.251-.964.055-1.622 1.927.956 4.699 2.35 5.796 4.245a10.722 10.722 0 0 1-16.909 1.457Zm4.315-9.727c-.204 0-.376-.204-.423-.4.533 0 .83-.517.713-.783a.59.59 0 0 0 .349-.778.58.58 0 0 0-.193-.248.611.611 0 0 0 .321-.532 1.21 1.21 0 0 0-.156-.423.998.998 0 0 0 .117-.196.691.691 0 0 0 .878-.368.722.722 0 0 0 .656.205.73.73 0 0 0 .534-.433.853.853 0 0 0 1.277-.328.781.781 0 0 0 1.065 0 .677.677 0 0 0 .705.101.721.721 0 0 0 .877.517.699.699 0 0 0 .572.572.96.96 0 0 0-.047.243.607.607 0 0 0 .36.54.679.679 0 0 0 .061.756.68.68 0 0 0 .722.231c.11.259.102.783-.157.783a.282.282 0 0 0-.282.165c-.329.329.502 1.284-1.715 2.741-.525.345-.415.415-.391 1.136-.462.344-1.919.274-2.804.195a2.247 2.247 0 0 1-.063-.673.28.28 0 0 0-.248-.332.282.282 0 0 0-.151.026 3.428 3.428 0 0 1-2.35-2.185.29.29 0 0 0-.227-.532Zm6.407 5.161a.332.332 0 0 1-.345-.055 9.592 9.592 0 0 1-.783-.846c.303-.034.598-.125.869-.266.18.728.384 1.096.259 1.167Zm-1.747.846c.141.673.603 2.85.204 3.407-.494-.47-.274-2.695-.204-3.407Zm-.634-1.707a6.739 6.739 0 0 1-1.073 1.143c-.007-.4.017-.801.07-1.198.282.023.65.047 1.003.055Zm-.439-12.884a10.881 10.881 0 0 1 9.336 5.485 10.888 10.888 0 0 1-.016 10.829c-1.292-1.935-4.088-3.32-5.984-4.26a2.545 2.545 0 0 0-.462-.22v-.329l.165-.11a3.496 3.496 0 0 0 1.887-2.85c.65-.188.737-1.097.415-1.66a.457.457 0 0 0 0-.463.62.62 0 0 0 .336-.899.616.616 0 0 0-.265-.244.585.585 0 0 0 .026-.772.588.588 0 0 0-.222-.168.562.562 0 0 0-.038-.439.57.57 0 0 0-.338-.282.61.61 0 0 0-.125-.783.692.692 0 0 0-.783-.556.646.646 0 0 0-.556-.329 1.33 1.33 0 0 0-.282.07.692.692 0 0 0-.674-.485.953.953 0 0 0-.376.18.671.671 0 0 0-.587-.352.943.943 0 0 0-.486.281.685.685 0 0 0-.564-.313c-.133 0-.313.11-.595.368a.66.66 0 0 0-.869-.117.661.661 0 0 0-.212.235c-.203-.149-.337-.243-.454-.243a.704.704 0 0 0-.689.501.698.698 0 0 0-.917.415.681.681 0 0 0-.783.925.68.68 0 0 0-.587.72.575.575 0 0 0-.279.683.577.577 0 0 0 .138.226.627.627 0 0 0 0 1.135.599.599 0 0 0-.24.589.599.599 0 0 0 .42.476.573.573 0 0 0 .063.627 1.134 1.134 0 0 0 .665 1.23c.055.885 1.496 2.506 2.773 2.702v.344c-1.332.674-5.287 2.851-7.174 5.686-5.765-7.064-.799-17.833 8.333-17.833ZM71.034 89.379c.172-.149.344.156.783.58 0 .266 0 .83.062 1.268-.634-.994-1.206-1.629-.861-1.887l.016.039Zm25.869-37.445c1.511 0 3.963-3.047 4.777-4.284a10.274 10.274 0 0 1 1.433 2.35.39.39 0 0 0-.391.391.372.372 0 0 0 .233.357.378.378 0 0 0 .417-.09c.209.576.371 1.167.486 1.77a.378.378 0 0 0-.228-.079.393.393 0 0 0 0 .783.38.38 0 0 0 .314-.164c.054.407.094.822.117 1.253a.376.376 0 0 0-.407.384.388.388 0 0 0 .423.384 15.3 15.3 0 0 1-.212 2.388.395.395 0 0 0-.462.321.4.4 0 0 0 .321.462c-.242 1.128-.587 1.622-.861 2.671-.462-.673-.392-.948 0-1.762a2.195 2.195 0 0 0 .07-2.295c-.689-1.128-1.605-1.363-2.725-.454a1.898 1.898 0 0 0-.274.368c-.17.278-.364.54-.58.783-.4-.689-1.018-3.273-2.451-5.537Zm-3.4-9.328c.048-.258-.234.165 2.593.619.125 0 .125-.102-.243.783a9.77 9.77 0 0 0-2.56.258c.038-.556.109-1.11.21-1.66Zm-.783 24.452a3.047 3.047 0 0 1-1.895-.784c-2.13-2.35-3.43-6.265-4.112-9.484.36.172.423-.266.674-.666a.298.298 0 1 0-.51-.313c-.117.196-.18.352-.258.501a30.224 30.224 0 0 1-.446-2.843c3.743.862 5.122-2.146 7.417-2.53a3.853 3.853 0 0 1 2.287.564c3.133 4.19 2.35 8.686 4.511 5.483l.149-.227c.783-.635 1.3-.596 1.848.297.697 1.152-.556 1.872-.462 3.086a4.23 4.23 0 0 0 1.19 1.958 38.433 38.433 0 0 1 2.201 3.219c-.078 1.073-1.566 2.35-2.349 3.094a42.02 42.02 0 0 1-4.613 3.438c-.282-.165-1.395-.642-1.825-.83-1.34-.58-1.488-.478-1.692-1.856-.243-1.63-.658-1.896-2.083-2.115l-.032.008Zm0 1.566c.218-.35.538-.623.917-.783.908.485.227 2.475 1.511 3.188.243.14 2.734 1.182 2.898 1.3a.315.315 0 0 0 .22.11c.65 0 4.526-3.133 5.075-3.611.963-.854 2.561-2.287 2.561-3.634 0-.157-1.708-2.695-1.927-2.984 3.188.564 6.391.391 8.192 3.133.537.793.829 1.727.838 2.686a8.762 8.762 0 0 0-2.349-.18c-1.418.195-5.718 2.294-6.728 3.132-1.472.314-5.334 3.133-5.882 3.533-3.814-2.013-2.404-1.175-3.54-2.154-1.135-.98-2.585-2.263-1.77-3.736h-.016Zm9.195 4.527a.305.305 0 0 1 .266-.321.321.321 0 0 1 .329.266 13.495 13.495 0 0 1-.125 3.916c.556.666.313 2.35-.384 2.35-.783 0-.955-2.13-.188-2.499a12.94 12.94 0 0 0 .102-3.712Zm-6.696 6.689c0 1.307-1.277 1.307-1.277 0 0-.51.235-.909.54-.98.58-1.463.846-3.032.784-4.605a.298.298 0 0 1 .595 0 12.583 12.583 0 0 1-.595 4.12c-.478 1.183-.047.532-.047 1.441v.023Zm-2.788-8.78c.41.558.89 1.064 1.425 1.504L92.384 90.38c-7.464.627-7.159 1.199-8.067 1.316-.11 0-.157 0-.455-.157.4-1.934 2.663-10.025 4.59-12.586a.298.298 0 0 0-.47-.36c-1.911 2.546-4.174 10.409-4.7 12.712a15.299 15.299 0 0 1-2.584-1.183 1.817 1.817 0 0 0-1.323-.423c-.275-.407-1.567-2.42-1.567-2.42 1.927-5.099 9.94-13.55 14.623-16.244v.024ZM78.333 95.182c.227-.454-.58-.399-1.457-1.496a2.404 2.404 0 0 1-.509-2.427c.078.054.854 2.27 2.35 2.404a.297.297 0 0 0 .062-.587c-1.174-.126-2.279-2.6-1.95-2.945.36 0 2.029 1.621 2.35 1.832a1.462 1.462 0 0 0 1.096.345.667.667 0 0 0 .392-.415c.078-.235.063-.11-.9-1.566a20.75 20.75 0 0 0 2.983 1.433c.321.125.737.282 1.144.462.376 1.112.172 4.268-.87 4.7a.243.243 0 0 0-.133.1 8.363 8.363 0 0 1-1.864-.25c-1.269-.219-3.47-.994-4.307-2.263a2.748 2.748 0 0 1-.345-.611c.428.569.96 1.052 1.566 1.425a.282.282 0 0 0 .4-.164l-.008.023Zm5.318 2.037c1.034-.893 1.206-3.61.893-4.927.408-.142.824-.263 1.245-.36.11 3.266-1.104 4.77-1.629 5.412l-.196.266c-.462-.383-.305-.235-.305-.415l-.008.024Zm2.725-5.428.33-.07c.29 2.412-.627 4.785-1.442 6.868l-.83-.618c.055-.251 2.13-1.896 1.95-6.203l-.008.023ZM75.96 30.537c.43-1.848.055-1.927 3.133-4.574a16.411 16.411 0 0 1 2.122-1.52c1.214 1.12 3.736 1.324 5.741-.148 0 .438-.603 2.35.995 3.618a3.133 3.133 0 0 0 3.054.494c1.567-.642 1.567-.345 1.911-.384.329-.064.64-.195.917-.384a12.962 12.962 0 0 1-17.873 2.898Zm.932-6.407c-.165-.986-1.441-1.104-1.512-1.7-.07-.594 1.144-2.591 1.199-3.03.102-.783-.588-1.175-.838-1.613a2.225 2.225 0 0 1 .18-2.21c.18-.18-.353 0 1.966-.132.163 1.75.697 3.445 1.566 4.973 1.05 1.566 3.023.783 2.867 1.684-.251 1.566-2.115 2.13-3.29 3.133-2.475 2.161-2.02 1.942-2.099 1.903-1.104-.548.133-1.99-.04-3.008Zm7.613-5.764c.391 1.167 2.35.619 1.566 2.686-.572 1.684.235 2.107.61 2.632a.204.204 0 0 0-.054.078c-1.715 1.285-3.916 1.19-4.973.306a3.008 3.008 0 0 0 1.214-1.825c.29-1.731-2.044-.783-2.96-2.115a11.404 11.404 0 0 1-1.426-4.699 38.865 38.865 0 0 0 3.916-.43c1.997-.338 1.504-.369 1.707-.236 1.794 1.214-.203 1.856.4 3.603Zm9.32 8.576c-.22.18-.784.572-1.026.517-.243-.055-.65-.141-2.037.43a2.49 2.49 0 0 1-3.273-3.022c.383-2.139-1.567-1.465-.784-3.595.596-1.723-.352-2.225-.979-2.561-.626-.337-.97-.494-.47-1.888a1.716 1.716 0 0 0-.5-2.287 21.65 21.65 0 0 0 2.45-.736 3.25 3.25 0 0 0 1.567 2.85c1.3 1.003 1.504 1.426 1.175 3.134-.33 1.707-.133 1.942.626 2.74a1.629 1.629 0 0 1 .611 1.779c-.235 2.24.932 1.668.69 1.198a1.927 1.927 0 0 1-.094-1.136 2.201 2.201 0 0 0-.784-2.247c-.634-.666-.783-.737-.477-2.225.383-1.981.047-2.6-1.394-3.72a2.749 2.749 0 0 1-1.363-2.616 8.297 8.297 0 0 0 1.449-.783c.25.507.605.955 1.041 1.316.784.783 1.066 1.002 1.066 2.616 0 1.613.203 1.934 1.401 3.32.611.705.784.784.564 2.084a3.133 3.133 0 0 0 .54 2.725c.643 1.105.745 1.45 0 2.107ZM74.135 10.33c8.24-8.317 22.345-2.35 22.345 9.344a13.315 13.315 0 0 1-1.567 6.219 4.443 4.443 0 0 0-.603-1.41 2.577 2.577 0 0 1-.47-2.35c.275-1.566 0-1.793-.705-2.592-1.096-1.261-1.253-1.402-1.245-2.914 0-1.785-.36-2.185-1.26-3.054-1.09-1.065-.854-1.097-.956-1.269.239-.217.451-.462.634-.728.932-1.363-4.08-1.394-4.339-1.606a.11.11 0 0 0-.125 0c-2.154 1.01-5.694 1.848-8.036 1.394a.127.127 0 0 0-.078 0c-1.37.682-5.545 2.209-5.702 3.133-.133.783 2.436.916 3.243.948a2.96 2.96 0 0 0-.055 2.616c.111.176.243.339.392.485.563.619.438.682.054 1.441-.384.76-.955 1.872-.877 2.49a1.512 1.512 0 0 0 .877 1.058c.783.494.783.666.447 1.66-.243.784-.564 1.818.376 2.39-.784.931-.784 1.292-1.05 2.537a13.245 13.245 0 0 1-1.3-19.792ZM50.145.595c8.13 0 13.628 8.655 10.41 16.393a21.837 21.837 0 0 0-5.945-3.36 3.21 3.21 0 0 1-.188-1.097.446.446 0 0 0 .235-.11c3.133-2.607 1.449-6.523.626-7.698-1.566-2.232-4.746-2.24-7.213-1.042a6.59 6.59 0 0 0-.525 1.566 2.185 2.185 0 0 0 .33 1.473c.782.462 1.237.517 3.132-.047 1.896-.564.948 2.255 1.84 2.608.893.352 1.16-.916 1.677.321.383.893-.642.783-.674 1.284-.032.279-.032.56 0 .839a4.698 4.698 0 0 0 .29 2.208c-1.261 1.128-2.788 1.206-4.425.885v-.102a1.716 1.716 0 0 0-1.16-1.347c-1.19-.595-1.51-1.057-1.809-5.09a.298.298 0 0 0 .564-.04c.089-.06.18-.114.274-.164a.293.293 0 0 0-.258-.525c-.258.125-.532.29-.587.51 0-.26-.04-.455-.055-.596.234-.172.394-.427.446-.713.094-.29.133-.29.102-.36-.337-.666 0-1.637.259-2.35a.118.118 0 0 0-.165-.148c-.325.168-.63.373-.908.61-1.128 1.01-1.066 2.436-.455 2.804.15.094.118-.102.188.87.298 4.096.603 4.918 2.138 5.686.462.235.784.383.838.893-.074.028-.15.051-.227.07-2.756.666-5.975 3.657-7.048 5.42-6.689-7.401-1.606-19.65 8.294-19.65Zm-7.894 20.183c.454-1.096 3.916-4.636 6.72-5.294.124-.025.245-.064.36-.118 1.958.369 3.783.36 5.31-1.112 2.04.812 3.948 1.92 5.663 3.29a11.113 11.113 0 0 1-18.037 3.234h-.016Zm.305 1.073c7.454 6.16 17.795 1.778 19.338-7.37l8.223 1.958c-.624 2.515-.346 5.697.478 8.154-.078 0 1.34-.447-30.71 10.463-.76-1.471-2.403-3.776-3.54-4.981l6.211-8.224ZM9.881 53.117c-8.529-11.294-.438-27.702 13.832-27.702A17.332 17.332 0 0 1 38.28 52.044a21.075 21.075 0 0 0-6.853-6.932c.736-8.466-.125-17.332-8.56-16.823a7.558 7.558 0 0 0-6.446 4.245c-2.804 5.138-1.99 13.072-1.684 14.098-.407.4-.854.783-1.23 1.182a42.737 42.737 0 0 0-3.626 5.303ZM27.973 38.98c.094 1.112-.783 2.874-1.95 3.133-.204.047-.352.313-.258.65-.431.29-.705.556-1.058.783a4.23 4.23 0 0 1-4.088-.258c.125-.44 0-.784-.43-.901-1.144-.243-2.985-2.397-2.718-3.916.219-1.269-1.724-.243-.784-2.726.15-.383 1.386-.039 2.608-.618a19.056 19.056 0 0 0 3.407-2.491 15.09 15.09 0 0 1 2.084 1.668c-.596-.344-.784.454-.314.51l.094.101.063.07a.294.294 0 0 0 .486-.035.293.293 0 0 0-.024-.325 1.737 1.737 0 0 0-.149-.188c.462.368 1.653 1.379 2.522 1.16a1.018 1.018 0 0 1 1.386.712c0 .063.62 1.676-.509 2.162-.352.157-.391.22-.368.509ZM10.281 53.665a30.836 30.836 0 0 1 3.657-5.483c.462-.532 1.089-.97 1.567-1.566 1.652-.783 4.62-2.937 4.699-2.882a4.77 4.77 0 0 0 4.746.298c.486-.275.862-.666 1.324-.925 1.026.556 3.344 1.802 4.401 2.201.029.048.07.089.118.118 3.219 1.848 5.184 4.339 7.049 7.182a17.293 17.293 0 0 1-27.561 1.057Zm26.096 1.707c2.462-2.614 4.454-6.342 5.013-9.89a17.85 17.85 0 0 0-1.504-10.426c32.11-10.965 30.63-10.409 30.709-10.463a13.713 13.713 0 0 0 3.627 5.328c1.616 1.463 4.136 2.677 6.241 3.24l-8.912 49.608-35.174-27.397Zm35.831 32.942c-.571-.932-1.973-2.828-2.584-3.916 1.3-.439 3.728-1.081 4.127-.885.4.195 3.047 4.033 5.483 7.746-.783-.666-1.856-1.74-2.475-1.74-.337 0-.713.338-.588 1.136a.98.98 0 0 0-.5.517 5.137 5.137 0 0 0-.212-.783c-.118-.305-.259-.947-.697-1.05a.548.548 0 0 0-.51.18c-.234-.782-.697-.931-1.182-.657-.133-.642-.533-.736-.83-.548h-.032Zm.54 4.699a9.625 9.625 0 0 1-.336-3.916c0-.157.07-.212.07-.227.189.149.275.932.533 2.678a.306.306 0 0 0 .447.33c.336-.197-.165-1.324-.165-2.147 0-.587.43-.352.525-.078.25.838.445 1.69.587 2.553a.296.296 0 0 0 .258.364.298.298 0 0 0 .33-.301c.07-.627-.635-1.88-.314-2.28.102.205.186.417.25.635.408 1.112.158 1.895.784 2.96.227.384.086.377.345.91a4.848 4.848 0 0 1-3.282-1.512l-.031.03Zm.486 1.19c.804.514 1.72.824 2.671.901.642 0 .368-.196.611.086a3.376 3.376 0 0 1-3.133-.243c-.086-.117-.078-.015-.117-.775l-.032.031Zm.196 1.982a5.835 5.835 0 0 1-.07-.517 3.963 3.963 0 0 0 3.595-.055c.124.11.254.212.391.306a4.574 4.574 0 0 1-3.885.235l-.03.03Zm.11.72c1.323.51 3.916-.14 4.354-.634 1.098.579 2.284.973 3.51 1.167.375.088.758.148 1.143.18-.611 1.708-.971 4.464-1.073 8.192-1.653-.297-6.548-1.683-7.903-8.936l-.031.031Zm9.586.83a90.43 90.43 0 0 0 8.521 5.835.128.128 0 0 0-.039.079c-.783 7.049.337 25.454.454 27.302a24.282 24.282 0 0 1-8.936-5.106c-.29-.337-2.154-22.212.031-28.14l-.03.03Zm.078 28.979a24.884 24.884 0 0 0 9.078 4.95v.47c-1.747-.572-6.603-2.491-9.038-4.872.039-.242.015-.423-.008-.603l-.032.055Zm.212 1.7v-.259c2.867 2.444 7.832 4.269 8.952 4.613v.462c-1.37-.454-7.534-3.039-8.92-4.871l-.032.055Zm43.311-.141c-3.916 3.273-21.93 7.91-23.198 5.795 7.385.784 16.893-2.811 23.245-6.539l-.047.744Zm.094-1.449c-.446.274-13.032 7.879-23.574 6.626a5.469 5.469 0 0 1-.165-.439c.612.064 1.226.096 1.841.094 8.074 0 19.102-4.919 21.929-6.681.024.071.016.204 0 .345l-.031.055Zm.078-1.152c-2.482 1.778-16.134 7.738-23.95 6.712-.258 0-.07 1.316-2.13-24.005 5.145 2.225 9.743 3.352 13.667 3.345 6.265 0 11.669-3.039 13.557-9.477.07 4.01-.517 14.466-1.112 23.378l-.032.047Zm-4.307-16.776c-11.114 7.417-30.921-5.639-36.858-9.915.72-1.95 1.888-4.456 1.567-7.339 8.458-1.566 21.726.228 22.18.36a.297.297 0 0 0 .431-.352c-.071-.211-.165-.243-2.099-.485 2.741-9.509 5.482-9.618 4.777-10.245a.294.294 0 0 0-.326-.065.305.305 0 0 0-.097.065c-2.686 2.937-3.916 6.76-4.95 10.182a289.514 289.514 0 0 0-5.106-.51c.063-.477 2.624-18.921 2.491-19.329 1.245-.783 4.824-2.584 6.14-2.772.76-.031 1.52.035 2.263.196a.285.285 0 0 0 .166.153.292.292 0 0 0 .226-.012c1.339.25 13.98 6.007 14.881 18.06.893 12.806-.58 18.57-5.655 21.953l-.031.055Z" fill="#2A344A"/><path d="M92.665 58.393c.783 0 .556-1.755-.22-1.786-.775-.031-.555 1.755.22 1.786Zm-4.848-.768c-.783 0-.564 1.755.22 1.778.782.024.563-1.746-.22-1.778ZM79.421 15.89c-.439.062-.274 1.19.165 1.127.438-.062.274-1.198-.165-1.127Zm2.968.61c.44 0 .376-1.182-.086-1.135-.462.047-.337 1.136.087 1.136Zm36.537 9.571c-.039-.783-.705-.728-.666 0 .039.729.705.776.666 0Zm-3.438-.078c-.118.329 0 .916.328.916.329 0 .306-.517.298-.603-.055-.587-.485-.697-.626-.313ZM49.855 9.004c0 .783.784.783.784 0s-.784-.79-.784 0ZM25.083 35.805c-.517 0-.517 1.19 0 1.19s.509-1.19 0-1.19Zm-3.838.572c0-.783-.783-.783-.783 0s.783.791.783 0ZM47.475 8.66c-.517 0-.51 1.19 0 1.19.508 0 .532-1.19 0-1.19Zm67.754 16.713s.055-.094.337-.235a.3.3 0 0 0 .204-.294.298.298 0 0 0-.47-.23c-1.348.68-.282 1.315-.071.76Zm3.172-.423c.392 0 .352.29.627.29a.296.296 0 0 0 .293-.356.293.293 0 0 0-.082-.153.992.992 0 0 0-.838-.376.298.298 0 1 0 0 .595Zm-1.746 1.488c0 1.19-.165 2.06 1.018 1.66a.3.3 0 0 0 .181-.273.3.3 0 0 0-.181-.274c-.157-.079-.259 0-.455.047V26.21a.322.322 0 0 0-.36-.438c-.188.054-.211.172-.203.665Zm1.088 2.444a.298.298 0 0 0 .282.391c.094 0 .118 0 .306-.11.385-.14.703-.419.892-.782a.29.29 0 0 0-.133-.392.292.292 0 0 0-.391.133c-.282.548-.854.447-.956.76ZM81.598 18.653a.294.294 0 1 0 0-.587c-.274 0-.65.133-.783.117-.117-.399 0-2.075-.102-2.396a.299.299 0 1 0-.58.149c.017.26.017.522 0 .783 0 1.566-.124 2.302 1.16 2.013.098-.04.2-.066.305-.079Zm1.214-.031c-.156 0-.258.063-.47.227-.978.736-.822.149-1.19.149a.297.297 0 0 0-.212.509c.557.556 1.144.282 1.763-.188.203-.149.313-.188.344-.345a.305.305 0 0 0-.235-.352ZM50.106 7.861c.199-.007.397.03.58.11a.298.298 0 0 0 .328-.494c-.243-.13-.514-.2-.79-.204a.3.3 0 0 0-.118.588Zm-1.316 3.994c-.11.266.313.846.83.846.854 0 1.567-1.449.784-1.81-.251-.124-.463.095-.784.424-.32.329-.72.227-.83.54ZM20.665 35.022c.13-.093.27-.172.416-.235.32-.164.14-.728-.33-.493-1.393.689-.219 1.308-.086.728Zm2.554 3.243c-.087 0-.243 0-.384-.047 0-.455.297-2.193.329-2.42a.297.297 0 0 0-.588-.07c-.078.665-.485 2.552-.25 2.85.235.298.58.235.783.274a.299.299 0 0 0 .11-.587Zm-.807 1.684c-1.057-.243-.783-.533-1.026-.666a.298.298 0 0 0-.407.368 1.644 1.644 0 0 0 1.3.877.298.298 0 0 0 .133-.58ZM92.21 54.712c.32.164.713.196.963.329a.298.298 0 0 0 .274-.525c-.329-.172-.72-.204-.963-.329a.298.298 0 0 0-.274.525Zm-.478 7.472a.298.298 0 0 0 0-.588 3.055 3.055 0 0 1-1.222-.156c-.188-.392-.368-3.916-.517-4.81a.307.307 0 1 0-.61.071c.227 1.37.242 4.833.712 5.17a3.187 3.187 0 0 0 1.637.313Zm1.23 1.566c.595 0 2.17-1.566 2.35-2.718a.293.293 0 1 0-.58-.094 3.798 3.798 0 0 1-1.849 2.225.298.298 0 0 0 .079.587Zm5.882 9.853c.188 0 .43-.22 1.401-1.089a9.23 9.23 0 0 1 2.311-1.73c2.475-1.458 6.602-3.917 5.937-6.33a.3.3 0 0 0-.358-.182.297.297 0 0 0-.214.34c.626 2.287-4.699 5.02-6.563 6.195-.431.266-2.444 2.13-2.616 2.216a.297.297 0 0 0 .102.58Zm-1.63-.353a.298.298 0 0 0 .549.047c.485-.947-4.817-1.872-3.987-3.853a.297.297 0 0 0-.548-.227c-1.026 2.365 3.634 3.571 3.987 4.033ZM85.672 9.412c-1.324-1.081-2.85-2.037-4.597-1.677a4.37 4.37 0 0 0-3.243 2.977.117.117 0 0 0 .086.125c2.28.681 7.762-1.08 7.832-1.324a.126.126 0 0 0-.078-.101ZM72.231 84.41a.62.62 0 0 0-.634.867.62.62 0 0 0 .634.362.618.618 0 1 0 0-1.23Zm26.292-32.942a.392.392 0 1 0 0 .784.392.392 0 0 0 0-.784Zm3.243 1.731a.391.391 0 1 0 0 .782.391.391 0 0 0 0-.782Zm.227-3.845a.393.393 0 0 0 .277-.669.392.392 0 1 0-.277.669Zm1.112 6.978a.391.391 0 1 0 0-.782.391.391 0 0 0 0 .782Zm-2.201-5.991a.393.393 0 0 0-.277.668.393.393 0 0 0 .669-.277.39.39 0 0 0-.392-.391Zm-1.566 3.109a.392.392 0 1 0 0 .784.392.392 0 0 0 0-.784Zm.791 1.292a.391.391 0 1 0 0 .783.391.391 0 0 0 0-.783ZM48.391 10.555a.525.525 0 0 0 .61-.078.298.298 0 1 0-.32-.502 6.17 6.17 0 0 1 .07-1.91.298.298 0 0 0-.587-.079c-.29 2.256.054 2.506.227 2.569Z" fill="#2A344A"/><rect y="112" width="28" height="28" rx="14" fill="#4E6AF3"/><path d="M17.411 129.961V131h-6.515v-.909l3.261-3.63c.401-.447.711-.825.93-1.135.223-.314.378-.595.465-.841.09-.25.136-.506.136-.765 0-.328-.068-.625-.205-.889a1.54 1.54 0 0 0-.588-.643c-.26-.159-.574-.239-.943-.239-.442 0-.811.087-1.107.26-.292.169-.51.406-.657.711a2.413 2.413 0 0 0-.218 1.053h-1.265c0-.561.123-1.074.37-1.538.245-.465.61-.834 1.093-1.108.483-.278 1.078-.417 1.784-.417.63 0 1.167.112 1.613.335.447.219.789.529 1.026.93.241.396.362.861.362 1.394a2.8 2.8 0 0 1-.15.889c-.096.296-.23.592-.404.889a6.904 6.904 0 0 1-.594.875 13.63 13.63 0 0 1-.718.847l-2.666 2.892h4.99Z" fill="#fff"/></svg>