<svg width="140" height="140" fill="none" xmlns="http://www.w3.org/2000/svg"><path d="M99.541 26.767c.105 0 .21-.035.245-.14.21-.315.21-1.085-.21-1.085-.385 0-.42 1.155-.035 1.225Zm2.31 2.1c.07-.14 0-.28-.14-.315l-.595-.035c.105-.77.35-2.625.35-3.185 0-.07-.035-.175-.14-.175-.105-.035-.21 0-.245.105-.07.21-.7 3.29-.455 3.605.175.245.875.21 1.12.14a.483.483 0 0 0 .105-.14Zm-1.435-4.725c.105-.56-.98-.455-1.435-.14-.63.42-.21.805.035.595.28-.245.665-.315 1.05-.245.175.07.315-.035.35-.21Z" fill="#2A344A"/><path d="M111.406 35.342c.42-.094-1.435-4.095-.56-4.97 2.975-2.485 4.2-7.07 4.2-9.065 2.065 0 2.1-2.975.77-3.71 2.1-1.05.665-4.27-2.03-3.01.245-2.275-2.555-2.94-4.27-1.4-.56-2.52-4.655-3.22-6.545-1.19.315-2.1-3.885-3.5-4.795-.84-1.61-2.415-6.895-1.82-6.405 2.31-3.5.98-1.715 6.44 1.05 5.6-.42 2.45 2.975 3.675 5.005 2.415-.42 3.255-1.098 11.698 3.038 14.243m12.047-15.328c.42.455.98.77 1.61.875-.525 3.36-1.225 5.74-3.535 8.225a7.51 7.51 0 0 1 1.155-2.66c.77-1.33.735-2.345-.07-2.87-1.225-.805-2.52.56-2.73.77-.245 0-.56-.315-.77-.595-.525-.805-.7-2.065-.525-3.815 1.225 1.33 3.815 1.645 4.865.07Zm-1.505 14.945-10.542.383c.318-.636-4.455-1.909-2.443-14.523.945 1.435 4.62 1.05 4.725-.7a3.151 3.151 0 0 0 4.34 0c-.105.945-.175 2.835.63 3.955.315.455.98.945 1.365.595.7-.595 1.435-1.19 2.24-.7.595.385.28 1.505-.105 2.1-.805 1.47-1.12 1.365-1.4 3.36-.315 2.31 1.19 5.53 1.19 5.53Z" fill="#2A344A"/><path d="M105.632 23.127c-.385-.63-1.05-1.015-1.75-1.12-.42-.07-.455.595 0 .595.56.035 1.085.315 1.4.77.175.28.525.035.35-.245Zm-2.24 2.835c.035.175.175.315.35.315.385 0 .385-1.015.14-1.19-.28-.175-.63.35-.49.875Zm-.525 5.32c-.105 0-.21.035-.245.14-.035.105 0 .245.14.28.77.28 1.645-.105 1.995-.84.245-.525.14-.77.07-.875-.035-.07-.105-.105-.14-.14-.14-.035-.245.035-.28.175-.175.91-.665 1.435-1.54 1.26ZM42.702 27.689c-1.05.63-2.485 0-3.395-.77-.105-.105-.28-.105-.42 0-.035.07-.07.14-.07.21.105.875.63 1.645 1.4 2.03.07.035.175 0 .21-.105.035-.07 0-.14-.035-.175a2.223 2.223 0 0 1-.806-1.085c.736.49 2.17 1.19 3.29.105.07-.035.07-.14.035-.21-.035-.07-.14-.07-.21 0Zm.595-2.695a.168.168 0 0 0-.07.21c.035.07.07.105.14.105.56 0 1.015-.455 1.015-1.015 0-.105-.035-.21-.07-.315-.21-.49-.7-.42-.805-1.505a.15.15 0 0 0-.14-.14.15.15 0 0 0-.14.14v.77c.105.63.63.735.525 1.19a.737.737 0 0 1-.456.56Zm-3.395-3.605c.105.875-.21 1.47.035 1.75.175.21.49.21.665.035.105-.105.175-.21.175-.35 0-.525-.07-1.05-.21-1.54a.39.39 0 0 0-.49-.21c-.07.07-.175.175-.175.315Zm5.81-.42a.39.39 0 0 0-.49-.21c-.14.035-.21.175-.21.315.035.455 0 .945-.07 1.4 0 .245.175.49.455.49h.035c.7.035.454-.98.28-1.995Zm-5.636-1.68a.291.291 0 0 0 .21-.35c-.035-.14-.14-.21-.245-.21-.84-.07-1.4.875-1.505 1.225-.07.175.21.28.316.105.245-.42.735-.735 1.225-.77Zm4.516-.14c1.05 0 1.084.42 1.26.42.07 0 .14-.07.175-.14 0-.035 0-.07-.035-.105v-.035c-.105-.21-.386-.805-1.47-.63-.28.035-.245.49.07.49Zm-1.015 22.05c.28 0 .49-.21.49-.49s-.21-.49-.49-.49-.49.21-.49.49.21.49.49.49Zm.14 2.205c.035.28.315.49.595.455.245-.035.455-.21.455-.455a.543.543 0 0 0-.596-.455.463.463 0 0 0-.454.455Z" fill="#2A344A"/><path fill-rule="evenodd" clip-rule="evenodd" d="M65.73 20.233c-.84.07-1.68-.105-2.414-.56a3.748 3.748 0 0 1-1.4-2.38c-.21-1.015-.28-7.77-.21-8.4.14-1.89 1.015-2.87 2.8-3.01.315-.035 13.475-.315 13.685-.315 2.135-.07 3.08 1.75 3.08 3.885l.012 2.15c.031 5.372.04 6.746-.397 7.37-.55.781-2.675.702-4.049.65-.29-.01-.545-.02-.746-.02 0 .985.376 1.368.626 1.622.167.17.277.282.179.478-.07.14-.21.21-.385.175-.192-.054-1.011-.33-1.948-.643-1.456-.488-3.196-1.072-3.302-1.072l-2.14.028c-1.478.02-3.21.042-3.39.042Zm4.656-3.395c.105.14.315.14.455.035a.197.197 0 0 0 .029-.038c.011-.018.02-.032.041-.032a60.934 60.934 0 0 1 5.11-7.56c.07-.07.035-.175-.035-.245a.223.223 0 0 0-.21 0c-2.1 2.065-3.885 4.445-5.215 7.07a27.675 27.675 0 0 0-3.22-3.185c-.35-.245-.56-.035-.455.315.07.07 2.975 2.975 3.5 3.64Z" fill="#4E6AF3"/><path d="M45.49 116.726c-.98-.7-5.075-4.2-5.635-4.655h-.001l-.14.49c.456.42 5.496 4.48 5.706 4.48.105 0 .14-.105.14-.175-.035-.07-.035-.105-.07-.14ZM49.491 114.454c-1.085-.805-7.56-6.16-8.225-6.58-.105-.07-.245-.07-.315.035-.07.105-.07.245.035.315.385.455 8.26 6.51 8.4 6.51.105 0 .14-.07.14-.175.035-.035 0-.105-.035-.105Zm2.1-3.605c-1.015-.735-6.09-5.25-6.58-5.6-.245-.175-.49.175-.315.35.49.63 6.65 5.495 6.79 5.495.07 0 .14-.105.14-.175 0 0-.035-.035-.035-.07Zm-4.48-7.98c-.245-.21-.56.21-.35.42.7.63 5.39 4.55 5.81 4.55.07 0 .175-.07.175-.14s-.035-.14-.105-.14c-.49-.315-4.62-3.99-5.53-4.69Z" fill="#2A344A"/><path d="M93.381 99.438c-.385-.28-.734-.07-1.05.105a23.67 23.67 0 0 0-4.305 3.115c-.98-4.9-1.68-8.26-1.715-8.4-.21-.525-.805-.35-1.225-.315l-1.364.175v-.98c.035-.14-.035-.28-.175-.35h-.105c-1.995.035-18.48.105-18.48.105-.21 0-3.5 10.325-5.216 15.645a15.108 15.108 0 0 0-2.73-3.395l1.925-5.53c.105.245.105.525.035.77-.07.455-.84 3.675-.944 4.095 0 .07.035.14.105.14.07 0 .105 0 .14-.07.49-1.505.874-3.01 1.224-4.55a.985.985 0 0 0-.454-.84c.07-.28.105-.595.105-.875 0-.385.07-.84-.316-1.12-1.084-.7-1.925 1.05-1.82 1.085-.175.385-1.085 2.625-2.1 5.18-1.4-1.015-6.37-4.235-6.72-4.34-.174-.035-19.18 11.095-19.32 11.2-.315.315 0 .735.175 1.015.7.98 11.936 9.485 13.3 10.36.245.21.56.35.876.385.56 0 10.64-5.11 14.7-7.91-1.085 3.36-1.47 4.585-1.575 5.04-.105.455.245.455.385.35.14-.105 1.33 0 2.94 0 .35 1.855.035 2.485.245 2.695.21.21 25.445-.56 30.484-1.365 4.76 3.92 4.375 3.955 5.32 3.29.525-.385 10.43-8.61 11.55-9.625.07-.035.07-.105.07-.21.07-.315-13.72-14.665-13.965-14.875Zm-36.015-.84c.35.105.7.28 1.016.49.105.105.07.175 0 .385 0 0-4.305 12.425-4.585 13.3a7.719 7.719 0 0 1-1.785-.63c3.71-9.24 4.83-12.32 5.354-13.545Zm-3.57 14.63c.14 1.645-.245 1.225-1.505 2.8.106-.385.28-.875.35-1.12.42 0 .77-.315.77-.735s-.315-.77-.735-.77-.77.315-.77.735c0 .245.105.49.316.63-.07.28-.28.945-.42 1.435-.386-1.47-1.26-1.575.14-3.57a6.4 6.4 0 0 0 1.855.595Zm-2.24-.84c-1.714 2.415-.244 2.66-.104 4.795 0 .07.035.14.07.175-2.8 1.505-5.075 2.625-7.945 4.06-.175.105-.316.14-.42.07a140.092 140.092 0 0 1-13.755-10.78c0-.07 0-.07.034-.105l18.76-11.06c.21.14 5.74 3.675 6.58 4.27-3.605 9.135-3.36 8.4-3.22 8.575Zm2.066 2.835c.56-.56.77-1.33.594-2.1.245-.665 1.47-4.095 2.625-7.385 1.085.98 1.995 2.135 2.765 3.395-.49 1.505-.945 2.94-1.365 4.235a62.472 62.472 0 0 1-6.23 3.745c.456-.665 1.015-1.295 1.61-1.89Zm5.04-16.52c-.386-.21-.77-.42-1.155-.56.21-.49.7-.98 1.154-.665.21.245.07.84 0 1.225Zm25.76 20.125c.14.035.28-.035.315-.14v-.105c-.21-2.87-.84-18.69-1.015-23.87 2.065-.245 1.995-.28 2.03-.175.035.105 4.9 24.605 5.18 25.76-2.03.28-27.93 1.575-30.556 1.505a8.877 8.877 0 0 0-.21-2.345c7.175-.14 22.856-.56 24.255-.63Zm-1.225-25.445c-.106 3.465.734 22.435.98 24.99-14.7.28-25.796.63-27.196.7.875-2.695 5.145-15.75 8.12-25.55 3.886-.105 14.7-.14 18.096-.14Zm8.294 27.195c.035-.035.07-.07.07-.105 0-.245.175.945-1.89-9.485.07.105.21.14.316.07.28-.14 4.76-4.41 5.705-5.25.14-.14-.07-.35-.21-.21-1.016.875-5.67 4.83-5.846 5.11-.034.07.07.525-.7-3.395.875-.7 3.5-3.08 4.2-3.675.175-.14-.034-.385-.21-.245-.945.7-3.184 2.485-4.13 3.325-.245-1.19-.455-2.345-.7-3.43a39.392 39.392 0 0 1 4.9-3.395c.7.665 12.705 13.23 13.755 14.385-.245.21-11.095 9.205-11.654 9.59-.42-.175-3.43-2.59-4.096-3.115.175-.07.35-.105.49-.175Z" fill="#2A344A"/><path d="M98.106 108.923c.175-.14-.035-.35-.21-.245-1.26 1.015-6.545 5.635-7.07 6.23-.105.105-.07.28.035.35.035.035.105.07.175.07.21 0 5.425-5.04 7.07-6.405Zm-6.335 9.38c-.105.105-.07.28.035.35.035.035.105.07.14.07.14 0 .07.035 4.34-3.43 4.13-3.395 3.955-3.15 3.92-3.255 0-.07-.07-.14-.175-.14-.035 0-.035 0-.07.035-2.1 1.47-7.91 6.02-8.19 6.37Zm2.52 1.995c-.105.105-.105.245 0 .35.105.105.245.105.35 0 .525-.42 6.72-5.775 7.455-6.37.07-.035.07-.14.035-.21-.035-.07-.14-.07-.21-.035-1.12.91-6.44 5.04-7.63 6.265Zm-15.645-11.305c-1.015.07-10.815-.105-11.725-.175a4.523 4.523 0 0 0-1.54.07c-.525.105-1.05.455-1.54.245-.175-.07-.315.175-.14.245.7.315 1.225-.245 2.59-.21 1.085 0 11.2.455 12.355.35.35 0 .35-.525 0-.525ZM63.7 106.088c2.8.42 8.435.595 12.565.735 2.17.07 3.885.14 4.34.175.175.035.315-.07.35-.245.07-.42.175-.385-9.8-.7-3.5-.105-6.79-.21-7.35-.28-.07 0-.14.035-.175.105-.07.105 0 .21.07.21Zm1.12-2.87a.15.15 0 0 0-.14.14c0 .07.07.14.14.14 15.085.35 14.7.525 14.735.105.035-.42.175-.245-14.735-.385Zm-.175-2.45c2.1-.21 14.945-.14 16.1 0 .315 0 .35-.455 0-.49-2.1-.245-14.945.105-16.17.245-.07.035-.07.14-.035.21 0 .035.07.035.105.035Zm1.4-2.835c1.33-.56 2.835-.7 4.235-.385.455.07.945.07 1.4 0 .455-.035.945 0 1.4.07 1.015.105 4.27-.175 7.84-.21.245 0 .315-.42.035-.455a42.715 42.715 0 0 0-5.985.105c-2.135.245-2.03-.105-2.975-.035-.455.07-.945.105-1.4.07-1.715-.175-1.68-.42-4.62.525-.105.035-.14.105-.14.21 0 .07.105.14.21.105Zm.035-2.695c1.4.315 2.66-.805 3.92-.14.7.21 1.4-.21 1.995-.21 0 0 6.3.42 7.42.42.245 0 .49 0 .49-.21 0-.105-.07-.175-.175-.175-.98-.07-6.86-.525-7.35-.56-.665.035-1.295.105-1.925.28-.21-.035-.42-.07-.63-.175-1.33-.42-2.45.7-3.71.455-.105-.035-.175.035-.21.14 0 .035.07.14.175.175Z" fill="#2A344A"/><path fill-rule="evenodd" clip-rule="evenodd" d="M100.267 34.982c.002.244.009.7.034 1.019-.24.24-.472.468-.698.69-.43.422-.837.821-1.227 1.235a13.145 13.145 0 0 0-7.35 7.14c-.61 1.397-2.289 6.02-3.458 9.241-.442 1.216-.811 2.233-1.022 2.799-.105.42-.35.77-.7.98-.228.105-3.194.997-6.16 1.89-2.967.892-5.933 1.785-6.16 1.89-.315.14-.56.35-.7.665-.501-.07-.985-.249-1.472-.43-.501-.186-1.006-.374-1.538-.445-.91-.21-1.89.07-2.555.735-.77-.105-2.8-.175-3.535-.175-.07-.42-.42-.735-.84-.805-.385-.07-9.94-1.4-10.185-1.4-.49-5.285-1.47-11.2-2.1-14.35.428-2.928-.18-4.399-1.14-6.725-.453-1.094-.983-2.377-1.52-4.09.42.455.91.84 1.47 1.12.035.035.105 0 .14-.035.023-.023.015-.047.008-.07a.113.113 0 0 1-.008-.035c-1.19-2.24-2.1-4.62-2.8-7.07.35-3.255.315-6.545-.14-9.8h.7c.07 0 .105-.035.105-.105.21-3.22-1.435-6.3-4.27-7.875a5.35 5.35 0 0 1 1.295.035c.07.035.105 0 .14-.07.035-.07 0-.105-.07-.14a10.17 10.17 0 0 0-7.14-1.085c.14-.385.35-.77.63-1.05.035-.035.035-.07 0-.105-.07-.245-1.26 0-1.855.91a.966.966 0 0 1-.035-1.015c.245-.385-1.085-.07-1.015.98-.91-.455-1.96-.385-2.835.105-.035.035-.07.105-.035.14.035.07.07.07.14.07.455 0 .875.14 1.26.35-6.58 2.59-7.84 9.275-8.155 12.04-.152 1.454-.117 2.279-.075 3.252.045 1.042.098 2.253-.065 4.588-.455 6.79-4.83 19.705-6.23 23.485-1.75 4.06.91 6.72 5.11 8.05.07 2.205.175 5.215.35 6.16.21 1.26.805 2.45 1.75 3.325-.21.805-.315 1.645-.245 2.45-.525.42-.91.98-1.12 1.61-.56 1.155-2.31 12.775-4.2 25.725-4.9 2.17-10.255 4.9-17.255 8.68-.7.385-.175.7.28.455 21.49-11.095 30.59-14.98 58.205-17.325 4.3-.364 8.707-.386 13.013-.409.67-.003 1.337-.006 2.002-.011 19.6-.105 40.285 5.11 58.975 11.515.49.175.42-.28.175-.385a131.84 131.84 0 0 0-18.76-6.44c0-1.015-.14-3.01-.245-3.71.385-.35.735-.735.98-1.19.49-.84 5.18-10.99 5.355-12.075.21-.875.035-1.785-.455-2.555-.321-.455-1.358-.971-2.173-1.377-.251-.125-.481-.24-.662-.338l3.43-2.905c2.765-2.275 3.185-4.585 2.975-7.595-.665-8.645-1.96-18.41-8.225-25.41-1.4-1.54-2.94-2.975-4.9-3.045-.206-.822-1.316-1.543-2.117-1.836.034.032.052.064.052.096-.002.387-2.511.688-5.604.672-2.787-.014-5.098-.28-5.525-.616Zm10.184 35.179c-1.995-1.015-7.28-4.165-8.505-4.97a56.433 56.433 0 0 1-.351-.238c-1.471-1.002-2.189-1.49-3.36-.287-1.61 1.61-2.802 5.602-3.36 7.47l-.07.23c2.66 2.31 5.566 4.27 8.646 5.915.245-.14.49-.315.7-.525a1.41 1.41 0 0 1-.7-1.015c0-.245.175-.455.42-.525a.999.999 0 0 1 .455 0 2.956 2.956 0 0 0 2.1-.49c-.07-.455.105-.91.42-1.225l3.605-4.34Zm-68.32 12.95a.522.522 0 0 0-.385.63v-.035c.332 1.487.752 3.316 1.172 5.145.42 1.829.84 3.657 1.173 5.145l1.05-.175c-.7-2.975-1.715-7.35-2.38-10.325a.522.522 0 0 0-.63-.385Zm59.99-2.52c-.525 0-.7-.21-.77-.35-.134-.427.548-.957 1.081-1.37.165-.129.316-.246.424-.345-5.565-3.22-7.735-5.25-8.26-5.81A84.14 84.14 0 0 1 93.3 76.6c-1.05 2.8-.945 4.76.35 6.09.083.083.14.144.203.199.359.317.879.451 7.287 3.58 5.74 2.836 13.58 6.686 14.35 6.686 1.4-.07 2.135-1.645 2.625-2.695l2.275-4.9c-2.194.445-4.909-.843-11.109-3.786l-1.981-.94c-.323.258-.611.502-.874.727-.851.724-1.45 1.234-2.171 1.234h-.14a1.093 1.093 0 0 1-1.015-1.155c-1.05.175-1.295-.525-.98-1.05Zm18.941-3.744c-.565-.301-1.151-.613-1.441-.806a31.858 31.858 0 0 1-8.925 5.46c-.28.07-.595.07-.875 0 3.045 1.33 7.735 3.36 8.365 3.5.805.14 1.645.14 2.485.035.385-.84 2.345-5.32 2.24-6.195-.035-.455-.21-.84-.455-1.19-.095-.113-.73-.451-1.394-.804Zm-12.536 3.079c-.175.175-.49.42-.805.665l1.96.84c-.337-.184-.567-.555-.97-1.207l-.185-.298Zm-3.737 1c-.401.29-1.331.966-.988 1.24h.035c.659.507 1.392-.143 2.664-1.272.484-.43 1.045-.928 1.711-1.458-.465-.774-1.231-2.316-1.571-3l-.109-.22c-.735.455-1.61.665-2.45.525a.76.76 0 0 1-.064-.003c-.069-.006-.111-.009-.111.073.044.178.445.456.792.698.198.138.379.263.468.352.035.07.035.105.035.175 0 .14-.105.21-.21.175a2.024 2.024 0 0 1-.49-.175c-.106.087-.339.258-.625.468-.753.554-1.873 1.378-2 1.632.892.06 1.725-.325 2.303-.592.419-.194.703-.325.777-.178.064.16-.019.203-.761.586l-.219.114a3.09 3.09 0 0 1-.289.124c-.492.198-1.362.547-1.251.96.058.174.378.157.586.145.044-.002.083-.004.114-.004.665-.14 1.26-.42 1.785-.805.07-.035.14-.035.175.035.085.114-.038.205-.182.31-.032.024-.066.049-.098.075l-.027.02Zm3.161 9.59c-5.868-2.804-14.276-6.822-14.65-7.335l.036.035c-1.645-1.68-1.33-3.885-.665-5.915a9.303 9.303 0 0 1-2.1-.91c-.105 1.54-.805 15.155-.84 15.855 3.045.245 6.055.595 9.03 1.015-.097-.45-.228-1.13-.368-1.857-.263-1.369-.557-2.9-.717-3.358-.035-.21.07-.42.245-.49.21-.105.42 0 .525.21.56 1.855 1.05 3.71 1.4 5.6 5.6.84 11.13 1.96 16.625 3.36-.01-.228-.019-.504-.029-.8-.028-.799-.06-1.744-.111-2.28a3.182 3.182 0 0 1-2.8-.42c-.328-.199-2.634-1.301-5.581-2.71Zm-57.768-1.163c.326 1.347.63 2.605.874 3.628l1.015-.14c-.525-2.17-1.33-5.53-2.03-8.54-.07-.28-.315-.455-.595-.385-.28.07-.49.35-.42.63.375 1.575.78 3.251 1.156 4.807Zm18.164-22.097c-.28.49-.665.91-1.12 1.26l.07-.035c0 .017-.009.026-.018.035-.009.009-.017.017-.017.035-.035.28.665.665 1.785-.98.347-.536-.074-.447-.544-.347a13.05 13.05 0 0 1-.156.032Zm-2.562.352c.427-.279.882-.576 1.022-1.052h.035c0-.105-.105-.21-.315-.21-.7 0-2.03 1.225-1.645 1.61.117.117.307.014.488-.084.036-.02.072-.039.107-.056.097-.07.202-.138.308-.208Zm.007.523c.07 1.12 1.225.105 1.925-.77h.07c.595-.7-.35-.63-.525-.525-.217.488-.687.788-1.115 1.06-.124.08-.245.156-.355.235ZM29.706 39.78c-2.625.805-5.11 4.025-4.9 8.26.172 3.152.12 6.582.072 9.758-.07 4.546-.13 8.57.488 10.507.764 2.529 2.245 2.958 4.214 3.528.375.109.767.223 1.176.357 8.995 2.765 16.17 2.38 21.28-1.19.105-.945.175-1.855.21-2.8l-1.394.103c-6.761.512-9.499.719-14.916-5.388-4.025-4.515-8.12-9.555-7.49-15.54 0-.07.07-.14.14-.14.105-.035.175.035.21.14-.385 4.725 2.485 9.1 5.635 12.845 6.125 7.35 8.435 8.085 14.28 7.7l1.464-.108c3.405-.25 11.578-.85 12.536-.907.175-1.085.28-2.24.35-3.57 0-.08.005-.17.01-.265.023-.411.05-.916-.29-1.03-.035 0-10.815-1.47-11.585-1.68-.91-.21-1.75-.77-2.345-1.54-.63-.84-5.95-9.17-7.245-11.2-.035-.035 0-.105.035-.14.035-.035.105 0 .14.035.608.771 2.02 2.874 3.504 5.084 2.02 3.007 4.172 6.213 4.616 6.536.665.455 1.4.735 2.205.84-.14-1.54-1.4-10.675-2.1-14.7l-3.185-6.02c-.45.506-.561.854-.728.883-.249.043-.62-.622-2.422-2.528a51.182 51.182 0 0 1 2.415 7.875c-.105.735-.84 1.05-1.225.735-.07-.07-.14-.175-.105-.28.035-.14.175-.21.315-.175.28.07.42-.28.42-.49 0-.21-2.205-8.05-2.45-8.295-.07-.07-.07-.21-.035-.315.245-.56.525-1.085.84-1.61-.98-.63-1.575-1.715-1.61-2.905 0-.07.07-.105.105-.105a4.849 4.849 0 0 0 3.78-3.15c.385-3.29.35-6.65-.07-9.94-1.82-.14-3.605-1.575-4.97-2.8-.7-.595-.84-.035-.63.245.35.385 1.925 2.485 1.4 2.485a10.112 10.112 0 0 1-5.215-2.03c-.244.845-.419 1.575-.57 2.21-.46 1.921-.715 2.986-2.055 3.775h-.035c-.07 0-.105 0-.14-.07a2.467 2.467 0 0 0-1.61-1.61c-.455-.035-.945.105-1.26.455-.595.63-.595 1.645.035 2.24.49.385 1.12.56 1.75.455.05.04.1.25.19.645.222.96.698 3.017 2.085 6.46 2.275 1.75 6.685 4.795 7 5.005.245.105.385.35.385.595 0 .249-.478 2.478-.817 4.061-.138.644-.253 1.18-.303 1.434v.035c-.07.14-.245.21-.385.14-1.4-.49-3.22-1.925-4.62-3.325.21.56.525 1.12.875 1.645.63.77.91 1.75.805 2.73-.014.013-.022.027-.029.038-.011.019-.02.032-.041.032-.035.035-.105 0-.14-.035-1.575-2.625-5.005-4.9-8.05-3.99Zm6.23-6.265c-.035.07-.07.105-.14.07a7.246 7.246 0 0 1-1.855-1.26 42.315 42.315 0 0 0 1.785 5.775 24.71 24.71 0 0 0 5.075 3.815c.385-1.68 1.015-4.935 1.015-5.005 0-.02-.298-.215-.794-.54-1.17-.764-3.442-2.248-5.506-3.87.14.315.28.63.42.91v.105Zm10.08 5.88c.21-.28.455-.56.7-.805.069-1.21-.374-1.873-.991-2.799l-.024-.036c-.63-.945-.84-.945-.91-.945a.75.75 0 0 0-.56.35c-.28.49-.525.98-.735 1.505.91.875 1.75 1.785 2.52 2.73ZM54.17 68.13l-1.4.105c.035 1.715-.175 3.465-.56 5.18 1.291 1.098 1.421 1.69 1.68 2.874l.07.31 2.31-1.47c.078-.077-.105-.643-.547-2.016-.353-1.094-.87-2.702-1.553-4.983Zm3.148 9.92c-.334-.423-.817-1.037-1.048-2.255l-2.275 1.47c.35 1.575 1.4 7.035 1.4 7.245 2.03-1.549 1.778-2.545 1.486-3.697-.11-.436-.226-.894-.226-1.413v-.07c.035-.14.175-.21.315-.175.035.035.07.035.105.035.28.035.56-.14.595-.42.028-.238-.129-.437-.352-.72Zm12.847-12.895c.035-.07.14-.07.21-.035.35.175.665.42.91.7a2.307 2.307 0 0 0-.385-.84 11.98 11.98 0 0 0-1.4-1.26c-.212-.12-.789.489-1.055.77l-.1.105c-1.295 1.26-2.24-.28-1.54-1.715-.263 0-1.2-.058-1.994-.108-.583-.036-1.088-.067-1.191-.067 0 .665-.21 3.01-.315 3.99l.049.004c.44.034.912.07 1.35.17.7-.84 2.206-1.574 2.556-.524.455-.105 1.015 0 1.155.42.14-.035.315-.07.455-.07.63-.105.98.315.63 1.015.14.175 1.085 1.015 1.26.945.385-.105.035-1.365-1.015-2.1-.035-.035-.07-.14-.035-.175.035-.035.105-.07.175-.035.56.28 1.015.7 1.26 1.26a.562.562 0 0 0 .175-.385c.099-.725-.516-1.295-1.027-1.768l-.093-.087c-.07-.035-.07-.14-.035-.21ZM26.8 71.42c-.14.7-.21 1.4-.175 2.1l.035.035c3.5 2.03 7.91 2.59 10.99 2.695 5.565.595 9.625.35 13.86-2.8l.067-.285c.117-.491.23-.966.318-1.465-6.58 4.795-15.05 2.94-22.68.7-.84-.21-1.68-.56-2.415-.98Zm9.415 24.22c.07-3.43.245-8.715.77-14.385l.035.035c.035-.315-.175-.56-.49-.595-.315-.035-.56.175-.595.49-.525 5.81-.7 11.27-.77 14.7l1.05-.245Zm89.53-32.69c-.63-6.895-1.89-14.805-6.3-21-1.295-1.75-3.465-4.62-5.81-4.865.49 1.295 2.45 6.615 2.45 6.895 0 .665-.665.665-1.015.665-.35 0-4.025.28-3.885.7.385.595.805 1.155 1.225 1.68.035.035.035.07 0 .105-.63 1.26-8.26 15.575-8.785 16.555-.024.35-.047.73-.07 1.11l-.035.57c2.1 1.33 5.565 3.43 7.42 4.305.513-.622.982-1.185 1.408-1.695 2.329-2.796 3.343-4.013 3.107-4.605a21.099 21.099 0 0 1-2.975-9.59c-.035-.21.35-.245.35 0a24.02 24.02 0 0 0 2.59 8.365c.063.126.144.26.228.399.29.477.619 1.019.402 1.56-.388 1.104-6.316 8.053-8.104 10.149-.31.364-.496.581-.506.597-.28.245-.385.595-.35.945.07.315 2.52 4.655 2.73 4.935.21.245.56.315.84.21 4.604-1.8 8.524-5.176 12.267-8.399l.123-.106c3.395-2.59 3.115-5.635 2.695-9.485Zm-12.775-25.83c-.245-.735-.735-1.575-1.575-1.715a4.102 4.102 0 0 1-.945 2.905c-.628.806-1.068 1.699-1.507 2.586-.246.498-.491.995-.768 1.474-1.225 2.17-2.205 4.445-2.87 6.86-.829 3.04-1.352 9.832-1.601 13.07l-.009.125.33-.635c1.561-3.003 6.967-13.403 7.895-14.555-.229-.295-.447-.548-.638-.771-.513-.597-.836-.972-.657-1.33.165-.33.735-.441 1.093-.512l.062-.012c.256-.051.889-.121 1.567-.197l.743-.083c.197-.023.406-.043.601-.06.393-.037.729-.068.799-.115.096-.064-.014-.335-.087-.514a458.42 458.42 0 0 0-2.433-6.521Zm-12.747.148c.012-.124.029-.302.042-.568-1.68 1.75-6.195 6.79-6.23 7.035-.035.245 1.19 1.575 1.75 2.1.35.28.385.77.14 1.12-.77 1.015-1.47 2.1-2.1 3.255.07.175 1.75 6.09 2.1 7.35.7-7.105 2.17-14.21 4.025-19.11.035 0 .035-.035.035-.035.035-.035.105-.035.14 0 4.515 3.85 9.485 1.68 8.855.595-.088-.154-.204-.1-.468.02-.157.073-.366.169-.652.26.105-1.05.21-2.695.21-2.695 0-.315-.7-.35-.7 0 0 0-.14 2.065-.245 2.905-.77.175-1.575.21-2.38.105 0-.519.029-1.328.049-1.904.012-.318.021-.564.021-.651v-.07c0-.245-.175-.455-.42-.455s-.455.175-.455.42a45.89 45.89 0 0 0-.175 2.45 5.8 5.8 0 0 1-1.295-.49c0-.24-.004-.57-.007-.92-.008-.77-.017-1.64.007-1.88.035-.35-.7-.42-.735-.07-.035.21-.07 1.645-.07 2.555-.49-.28-.98-.63-1.4-1.015-.067-.045-.063-.09-.042-.307ZM84.351 59.173c-2.773.833-10.64 3.197-10.965 3.463-.28.35-.315 6.16-.28 6.685.315.21 12.705-.385 15.82-.7.14-1.365 1.365-10.465 1.61-11.9 0-.105.07-.14.175-.14.105 0 .14.105.14.175-.28 1.715-1.61 17.01-1.61 17.395 0 .315.175.595.385.805a7.087 7.087 0 0 0 3.185 1.715c.892-2.507 1.283-3.414 1.509-4.36.377-1.578.298-3.265 1.326-12.65-.064-.496-.597-2.426-1.149-4.429-.655-2.377-1.34-4.857-1.301-5.161.07-.56 2.17-3.29 2.17-3.29.265-.332.185-.412-.063-.658a15.834 15.834 0 0 1-.042-.042 13.734 13.734 0 0 1-1.82-1.96c-.035-.385.105-.805.42-1.05.07-.105 1.47-1.855 3.57-4.2-4.515 2.257-5.944 6.184-7.274 9.838l-.216.592c-1.785 4.795-3.29 8.785-3.5 8.995-.315.315-.735.49-1.155.595l-.935.282Zm4.61 9.973c-4.27.525-14.805.7-15.575.7-.035 0-.07 0-.175-.105-.49-.035-.805-.455-.77-.91-.28-.035-.945-.105-1.225-.105-.105.175-.28.315-.49.315-.385 0-1.26-.77-1.505-1.015-.35.455-1.12 1.225-1.715 1.225a.816.816 0 0 1-.735-.455c-.595.42-1.295.28-1.47-.42-.665.28-1.225-.28-.98-.98.011-.023.026-.034.025-.043-.004-.02-.079-.026-.41-.097l-.7-.14c-.035.175-.105.35-.315.35l-8.26.595c.105.35 1.89 5.985 1.995 6.265.245.7.14 1.015 0 1.155.21.945.63 1.855 1.26 2.59.14.175.245.385.245.595 0 .56-.385 1.015-.945 1.05.086.433.197.842.311 1.267.025.09.05.18.074.273.42 1.68-.7 3.045-2.03 3.92.182.938.364 1.91.546 2.881.273 1.457.546 2.915.819 4.259a181.226 181.226 0 0 1 32.025-.21c0-1.89.525-12.005.945-16.205-1.155-.805-1.295-1.225-1.19-2.625 0-.047.041-.72.09-1.52.062-1.002.135-2.201.155-2.61Zm-17.987-6.55c-.636-.176-1.25-.346-1.473-.38-.91-.21-1.82.28-2.205 1.155-.175.35-.14.805.035 1.155.315.35.91-.315 1.225-.7l.024-.028c.207-.243.482-.564.886-.497 1.715.84 2.59 2.555 2.275 3.64.07.42-.105.84-.455 1.05.067.216.046.302.08.338.052.057.242-.012 1.145.117 0-.735.035-4.655.105-5.425-.303-.053-.985-.242-1.642-.425Zm-41.688 17.68a.522.522 0 0 0-.63.385c-1.19 5.915-1.96 11.9-2.31 17.955l1.085-.385c.35-5.81 1.12-11.62 2.275-17.325a.576.576 0 0 0-.42-.63Z" fill="#2A344A"/><path d="M110.181 24.175a.225.225 0 0 1-.174-.262.22.22 0 0 1 .262-.175.221.221 0 0 1 .174.262.22.22 0 0 1-.262.175Zm2.001-.604a.224.224 0 0 1-.175-.262.223.223 0 1 1 .175.262Zm1.095-1.598a.224.224 0 0 1 .175.262.225.225 0 0 1-.262.175.224.224 0 0 1-.175-.262.222.222 0 0 1 .262-.175Zm-1.836.555a.224.224 0 0 1-.175-.262.222.222 0 1 1 .175.262ZM108.805 22.44a.219.219 0 0 1-.141-.095c-.033-.05-.045-.11-.033-.167a.22.22 0 0 1 .261-.175.224.224 0 0 1 .142.095c.033.049.045.11.033.167a.222.222 0 0 1-.262.175Z" fill="#2A344A"/><path d="M75.607 115.527c.035-.98-.63.745-1.505.735a.228.228 0 0 1-.07-.315c.28-.525 1.96-4.2 1.4-4.2-.175 0-.385.28-.525.42-1.61 1.61-1.225 3.22-2.52 3.5-.035 0-.105.035-.175.035-.525.035-.98-.315-1.05-.84v-.14c-.175 0-.28.14-1.19.84-.07.07-.175.105-.245.07-.14-.035-.21-.175-.175-.315.35-2.275.875-2.345-1.995.35-.07.07-.175.105-.245.07-.14-.035-.21-.175-.175-.315.105-.28.56-1.575.665-1.785.245-.595.105-.595-.385-.42a3.433 3.433 0 0 0-1.89 1.75c-.14.315-.595.07-.455-.245.77-1.75 1.68-2.87 1.155-3.115-.245-.14-.63.14-.77.21-.63.49-1.085 1.12-1.4 1.855a.168.168 0 0 1-.21.07.168.168 0 0 1-.07-.21 6.141 6.141 0 0 1 1.015-1.645c.455-.49 1.155-.945 1.68-.665.7.42.28 1.295 0 1.89.98-.63 2.065-.735 1.89.42-.315 1.295-.875 1.47.7.07.28-.245.385-.35.56-.385.805-.14.7.77.56 1.575 0 .105-.035.105.105 0 .525-.385 1.085-.77 1.4-.21.07.21 0 .42.14.525.28.175.63.14.875-.105.245-.28.42-.595.525-.945.56-1.47 2.205-3.815 2.905-2.415.07.42.035.805-.14 1.19-.175.56-.35 1.12-.7 1.96.42-.49.42-.665.63-.63.21.035.175.28.175.98.7-.385.665-.455 1.05-.035a4.69 4.69 0 0 1 2.94-.945c.07 0 .14.07.14.14s-.07.14-.14.14c-1.015.105-1.995.525-2.8 1.155-.245.175-.42-.07-.525-.175-.105-.105.035-.105-.805.315-.035.035-.07.035-.105.035a.24.24 0 0 1-.245-.245Z" fill="#4E6AF3"/><path fill-rule="evenodd" clip-rule="evenodd" d="M39.777 112.563c.615-1.934 0-3.325-1.26-3.99-1.295-.56-2.8-.315-3.885.56-1.68 1.33-1.82 3.675.21 4.795a4.323 4.323 0 0 0 3.29.35c.77-.28 1.4-.945 1.645-1.715Zm-3.905-.94.057.351.327-.183c.848-.474 2.501-1.397 2.683-1.427.035-.035.105 0 .14.035.035.07.035.14-.035.175-.455.28-2.345 1.575-2.8 1.89l-.077.056c-.207.152-.373.275-.623.119-.167-.105-.185-.785-.201-1.442-.012-.442-.023-.874-.079-1.113-.035-.105.035-.175.105-.21.105-.035.175.035.21.105.083.331.21 1.12.293 1.644Z" fill="#4E6AF3"/><rect y="112" width="28" height="28" rx="14" fill="#4E6AF3"/><path d="M12.735 125.401h.903c.442 0 .806-.073 1.093-.218a1.51 1.51 0 0 0 .65-.609c.146-.26.219-.551.219-.875 0-.383-.064-.704-.192-.964a1.29 1.29 0 0 0-.574-.588c-.255-.132-.579-.198-.97-.198-.356 0-.67.071-.944.212-.269.137-.48.333-.636.588-.15.255-.225.556-.225.902h-1.265c0-.505.127-.966.383-1.38a2.752 2.752 0 0 1 1.073-.992c.465-.246 1.003-.369 1.613-.369.602 0 1.128.107 1.58.321.45.21.801.525 1.052.944.25.415.376.932.376 1.552 0 .25-.06.519-.178.806a2.382 2.382 0 0 1-.54.793 2.798 2.798 0 0 1-.943.609c-.387.155-.852.232-1.395.232h-1.08v-.766Zm0 1.039v-.758h1.08c.634 0 1.158.075 1.573.225.414.151.74.351.977.602.242.25.41.526.506.827.1.296.15.592.15.889 0 .464-.08.877-.239 1.237-.155.36-.376.665-.663.916a2.82 2.82 0 0 1-.998.567c-.383.128-.8.192-1.25.192-.434 0-.842-.062-1.225-.185a3.176 3.176 0 0 1-1.004-.533 2.494 2.494 0 0 1-.684-.868 2.734 2.734 0 0 1-.246-1.183h1.265c0 .347.075.65.225.909a1.6 1.6 0 0 0 .656.609 2.27 2.27 0 0 0 1.012.212c.388 0 .72-.066.998-.199.283-.136.5-.341.65-.615.154-.273.232-.617.232-1.032 0-.415-.087-.754-.26-1.019a1.524 1.524 0 0 0-.738-.594c-.315-.132-.686-.199-1.114-.199h-.903Z" fill="#fff"/></svg>