<svg width="220" height="220" viewBox="0 0 220 220" fill="none" xmlns="http://www.w3.org/2000/svg">
<path d="M167.954 93.0373C167.492 93.0373 167.492 93.8954 167.954 93.8954C169.054 93.8954 184.377 93.6423 185.664 93.3894C185.781 93.3717 185.888 93.3126 185.965 93.2228C186.042 93.133 186.085 93.0184 186.085 92.8999C186.085 92.7813 186.042 92.6667 185.965 92.5769C185.888 92.4871 185.781 92.428 185.664 92.4104C181.627 91.8824 172.398 92.9494 167.954 93.0373ZM174.092 115.499C173.586 115.499 173.674 116.346 174.158 116.368C177.744 116.489 183.332 116.302 186.995 116.137C187.666 116.137 187.743 115.037 186.995 115.037C182.892 115.059 178.206 115.114 174.092 115.499ZM174.565 77.5604C174.458 77.5649 174.357 77.6081 174.279 77.6818C174.202 77.7556 174.155 77.8548 174.145 77.9611C174.136 78.0674 174.165 78.1735 174.228 78.2596C174.291 78.3458 174.383 78.4061 174.488 78.4294C176.457 78.6714 182.848 78.9244 184.773 78.1104C184.871 78.0615 184.951 77.9819 185 77.8836C185.049 77.7853 185.065 77.6736 185.045 77.5655C185.026 77.4573 184.971 77.3586 184.89 77.2843C184.809 77.2099 184.706 77.1639 184.597 77.1533C182.045 76.9993 177.953 77.8134 174.565 77.5604ZM162.003 98.8124C171.287 98.6804 181.803 98.0313 191.175 97.1733C191.758 97.1733 191.703 96.0733 191.098 96.0733C181.88 96.3043 171.111 96.9093 161.948 97.8553C161.821 97.8626 161.702 97.9201 161.617 98.0149C161.533 98.1098 161.489 98.2344 161.497 98.3613C161.504 98.4883 161.561 98.6071 161.656 98.6916C161.751 98.7762 161.876 98.8196 162.003 98.8124ZM175.313 49.8183C177.898 49.6203 180.483 49.4663 183.013 49.1583C183.739 49.0813 183.552 48.0583 182.837 48.0583C180.263 48.2563 177.689 48.5863 175.137 48.8833C174.543 48.9493 174.708 49.8623 175.313 49.8183ZM160.221 72.7644C159.671 72.7644 159.649 73.6994 160.221 73.7434C166.439 74.033 172.671 73.5974 178.789 72.4453C179.482 72.3244 179.372 71.2243 178.668 71.3454C172.575 72.3843 166.4 72.8593 160.221 72.7644ZM180.692 55.0874C181.649 55.3184 181.792 53.7563 180.912 53.9103C176.618 54.6064 172.267 54.8754 167.921 54.7134C167.338 54.7134 167.206 55.5603 167.8 55.6263C172.101 56.0581 176.441 55.8767 180.692 55.0874ZM156.866 98.2953C156.008 97.9654 152.048 98.5153 150.937 98.6363C150.398 98.6363 150.376 99.5053 150.937 99.4943L155.436 99.3513C157.515 99.2743 157.504 98.5484 156.866 98.2953ZM161.409 145.892C160.485 145.672 153.918 146.167 152.84 146.233C152.268 146.233 152.378 147.113 152.95 147.102C154.116 147.102 160.507 147.102 161.519 146.783C161.97 146.629 161.816 145.98 161.409 145.892ZM152.829 141.239C155.92 141.382 163.576 141.514 166.667 140.777C166.739 140.777 166.81 140.761 166.876 140.731C166.942 140.702 167 140.658 167.049 140.604C167.097 140.55 167.133 140.487 167.155 140.418C167.177 140.35 167.184 140.277 167.177 140.205C167.169 140.133 167.146 140.064 167.11 140.001C167.074 139.939 167.025 139.885 166.967 139.842C166.908 139.8 166.841 139.77 166.771 139.755C166.7 139.74 166.627 139.74 166.557 139.754C162.036 139.754 157.845 140.513 152.961 140.315C152.378 140.293 152.224 141.206 152.829 141.239ZM163.499 121.681C164.159 121.56 164.104 120.581 163.411 120.581C158.527 121.076 157.504 121.197 152.499 121.395C152.015 121.395 151.96 122.231 152.499 122.264C156.175 122.508 159.868 122.313 163.499 121.681ZM170.275 114.762C164.291 114.982 158.076 115.994 151.828 116.214C151.716 116.232 151.614 116.288 151.54 116.374C151.467 116.46 151.426 116.569 151.426 116.682C151.426 116.795 151.467 116.904 151.54 116.99C151.614 117.076 151.716 117.132 151.828 117.149C157.009 117.149 165.347 116.907 170.396 115.785C170.501 115.739 170.589 115.66 170.646 115.559C170.703 115.459 170.726 115.344 170.713 115.229C170.699 115.115 170.649 115.008 170.57 114.924C170.492 114.84 170.388 114.783 170.275 114.762ZM190.658 143.197C190.57 143.197 184.531 143.692 183.497 143.659C183.399 143.677 183.309 143.726 183.241 143.798C183.173 143.871 183.13 143.964 183.119 144.062C183.108 144.161 183.129 144.261 183.179 144.347C183.229 144.433 183.306 144.5 183.398 144.539C184.63 144.77 189.822 144.858 190.889 143.956C190.942 143.897 190.98 143.825 190.997 143.747C191.015 143.669 191.012 143.588 190.988 143.511C190.965 143.435 190.922 143.366 190.864 143.311C190.806 143.256 190.735 143.217 190.658 143.197ZM192.605 119.206C184.982 119.701 176.468 119.987 168.878 120.636C168.284 120.636 168.394 121.527 168.966 121.56C173.069 121.681 187.666 120.933 192.704 120.295C192.775 120.29 192.845 120.27 192.91 120.237C192.974 120.204 193.03 120.158 193.077 120.103C193.123 120.048 193.157 119.984 193.178 119.915C193.199 119.846 193.206 119.773 193.199 119.701C193.185 119.557 193.114 119.425 193.003 119.332C192.892 119.239 192.749 119.194 192.605 119.206ZM163.972 94.1923C164.117 94.1923 164.257 94.1344 164.36 94.0313C164.464 93.9281 164.522 93.7882 164.522 93.6423C164.522 93.4965 164.464 93.3566 164.36 93.2534C164.257 93.1503 164.117 93.0923 163.972 93.0923C159.231 93.2133 154.446 93.2463 149.672 93.6093C149.569 93.6321 149.477 93.6893 149.411 93.7713C149.346 93.8533 149.31 93.9552 149.31 94.0604C149.31 94.1655 149.346 94.2674 149.411 94.3494C149.477 94.4314 149.569 94.4885 149.672 94.5113C154.468 94.5993 159.231 94.3463 163.972 94.1923ZM182.727 138.599C181.055 138.599 175.027 139.028 173.597 139.281C173.135 139.358 173.069 140.117 173.597 140.139C175.148 140.216 181.143 139.831 182.881 139.677C183.552 139.699 183.409 138.599 182.727 138.599ZM179.515 144.77L165.688 145.65C165.061 145.65 165.215 146.607 165.831 146.574C168.515 146.453 177.15 146.112 179.57 145.782C180.109 145.716 180.12 144.77 179.515 144.77ZM169.615 49.1583C165.556 48.6963 152.818 49.4663 148.495 49.9063C147.901 49.9613 147.857 50.8853 148.495 50.8303C155.601 50.3683 162.52 50.2143 169.626 50.2363C169.75 50.2099 169.861 50.1413 169.94 50.0422C170.019 49.9432 170.062 49.8197 170.061 49.6929C170.059 49.566 170.014 49.4434 169.933 49.346C169.852 49.2486 169.739 49.1823 169.615 49.1583ZM170.792 78.8473C171.485 78.7484 171.232 77.7473 170.539 77.7473C163.458 78.554 156.335 78.9214 149.21 78.8473C149.106 78.8638 149.012 78.9167 148.944 78.9963C148.876 79.0759 148.839 79.1772 148.839 79.2818C148.839 79.3865 148.876 79.4878 148.944 79.5674C149.012 79.647 149.106 79.6999 149.21 79.7164C156.415 80.0634 163.637 79.7726 170.792 78.8473ZM163.323 55.8134C163.395 55.8065 163.465 55.7853 163.529 55.7511C163.593 55.7169 163.65 55.6704 163.696 55.6141C163.742 55.5578 163.777 55.493 163.797 55.4234C163.818 55.3537 163.825 55.2806 163.818 55.2083C163.811 55.136 163.79 55.0657 163.755 55.0016C163.721 54.9374 163.675 54.8807 163.618 54.8347C163.562 54.7886 163.497 54.7542 163.428 54.7334C163.358 54.7126 163.285 54.7058 163.213 54.7134C158.362 55.3184 153.764 55.3403 148.979 55.7583C148.473 55.8133 148.418 56.6383 148.979 56.6603C153.774 56.7379 158.569 56.4547 163.323 55.8134ZM149.694 73.2263C149.144 73.2263 149.133 74.0953 149.76 74.1173C151.734 74.3033 153.718 74.3547 155.7 74.2713C155.789 74.2315 155.865 74.1667 155.918 74.0847C155.971 74.0027 155.999 73.9071 155.999 73.8093C155.999 73.7116 155.971 73.616 155.918 73.534C155.865 73.452 155.789 73.3872 155.7 73.3473C155.502 73.2373 150.706 73.2263 149.694 73.2263ZM135.966 79.5624C136.604 79.5624 138.969 75.6464 140.3 74.3044C140.784 73.8204 139.992 73.0063 139.497 73.4683C138.093 74.7335 136.878 76.1929 135.889 77.8024L133.106 75.2394C132.534 74.7114 131.797 75.6134 132.325 76.1524C132.853 76.6914 135.152 79.5624 135.966 79.5624ZM128.442 61.5993C132.952 61.8633 137.638 61.7753 142.588 61.8083C142.94 61.8083 143.149 60.8293 142.588 49.1473C142.588 48.3003 142.511 47.6733 142.5 47.4423C142.502 47.4083 142.498 47.374 142.487 47.3418C142.475 47.3095 142.457 47.2801 142.434 47.2553C142.115 46.9143 140.036 46.9363 135.361 47.0573C127.496 47.2443 126.627 47.1893 126.627 47.6403C126.594 47.7283 127.089 61.4673 128.442 61.5993ZM128.75 60.7853C128.2 57.8483 127.804 51.6443 127.463 48.1683C130.664 48.3553 137.957 47.9923 141.631 47.9043C141.631 47.9043 141.829 57.6834 141.917 60.8404C137.605 60.7414 133.106 60.5763 128.706 60.7303L128.75 60.7853Z" fill="#2A344A"/>
<path d="M144.103 82.4336C145.027 82.0706 143.949 71.8186 143.795 69.1236C143.787 69.0682 143.76 69.0174 143.718 68.9806C143.058 68.4086 129.099 69.1676 128.395 69.2226C127.691 69.2776 128.395 73.1056 128.516 75.7126C128.769 82.2026 129.066 82.7636 129.396 82.8076C131.794 83.1486 141.903 83.2916 144.103 82.4336ZM129.066 70.1246C133.829 69.8166 138.658 69.7946 142.948 69.7726C143.058 72.3466 143.234 79.5956 143.454 81.5536C138.97 82.0173 134.459 82.146 129.957 81.9386C130.144 80.2996 129.231 71.9836 129.066 70.1246ZM138.02 97.8996L140.572 95.5896C140.646 95.4638 140.679 95.3178 140.665 95.1723C140.651 95.0268 140.592 94.8894 140.496 94.7796C140.4 94.6698 140.271 94.5932 140.128 94.5609C139.986 94.5286 139.837 94.5421 139.703 94.5996C138.658 95.2432 137.709 96.0321 136.887 96.9426L134.599 94.8306C134.475 94.7153 134.31 94.6541 134.141 94.6603C133.972 94.6665 133.812 94.7396 133.697 94.8636C133.581 94.9876 133.52 95.1523 133.526 95.3214C133.532 95.4906 133.606 95.6503 133.73 95.7656L135.93 97.9656C133.95 100.056 133.081 101.365 133.279 101.959C133.477 102.553 134.192 102.289 134.379 102.025C135.149 101.079 136.018 100.001 136.953 98.9996C137.879 100.012 138.908 100.926 140.022 101.728C140.136 101.757 140.257 101.756 140.371 101.723C140.485 101.689 140.588 101.626 140.669 101.539C140.75 101.453 140.807 101.346 140.832 101.23C140.857 101.114 140.851 100.993 140.814 100.881C139.985 99.7949 139.049 98.7961 138.02 97.8996ZM138.603 50.7426C136.845 52.2792 135.41 54.1485 134.379 56.2426C133.55 55.2506 132.596 54.3706 131.541 53.6246C130.892 53.1736 130.056 54.0316 130.694 54.5156C131.948 55.6246 133.121 56.8231 134.203 58.1016C134.489 58.3986 134.764 58.2446 135.006 57.9256C136.203 55.5917 137.681 53.4124 139.406 51.4356C139.934 50.8526 139.175 50.2036 138.603 50.7426ZM138.251 122.562C138.823 122.166 141.001 117.964 142.266 116.534C142.761 115.984 141.903 115.225 141.342 115.808C139.836 117.359 138.545 119.105 137.503 121L134.94 118.8C134.379 118.327 133.631 119.174 134.214 119.735C134.797 120.296 137.305 123.376 138.251 122.562ZM146.644 136.664C146.226 135.839 131.178 136.664 131.035 136.664C131.002 136.668 130.97 136.68 130.944 136.699C130.917 136.718 130.895 136.744 130.881 136.774C130.375 137.588 130.881 150.821 131.244 152.053C131.673 153.549 146.259 152.306 146.985 152.372C147.006 152.376 147.029 152.376 147.051 152.372C147.073 152.367 147.093 152.357 147.111 152.344C147.129 152.33 147.144 152.313 147.154 152.293C147.165 152.273 147.17 152.251 147.172 152.229C147.403 150.546 146.699 136.774 146.644 136.664ZM131.739 137.467C136.139 137.654 141.342 137.379 145.808 137.368C145.874 139.205 146.27 149.985 146.325 151.437C141.441 151.657 137.338 151.58 132.135 151.437C132.19 149.6 131.805 139.139 131.739 137.5V137.467Z" fill="#2A344A"/>
<path d="M137.058 144.595C137.839 144.595 141.832 144.87 142.151 144.694C142.235 144.646 142.307 144.579 142.361 144.499C142.415 144.419 142.45 144.327 142.462 144.231C142.475 144.135 142.466 144.038 142.434 143.946C142.403 143.855 142.351 143.772 142.283 143.704C141.7 143.088 138.015 143.22 137.399 143.341C136.563 143.495 136.409 143.814 136.431 144.056C136.46 144.203 136.538 144.335 136.651 144.433C136.765 144.531 136.908 144.588 137.058 144.595ZM138.543 112.31C134.935 112.376 131.14 112.508 130.513 112.552C130.271 112.552 130.018 112.761 129.985 115.049C129.985 117.788 130.458 126.467 131.558 126.544C133.758 126.709 145.132 126.753 146.595 126.643C146.826 126.643 147.013 126.643 146.595 120.923C146.364 117.975 145.847 112.618 145.847 112.618C145.803 112.398 145.781 112.2 138.543 112.31ZM145.022 113.278C145.286 117.381 145.429 121.583 145.869 125.708H131.877C131.448 121.737 131.162 117.645 130.854 113.443L145.022 113.278ZM133.109 106.117C137.575 106.117 145.044 105.512 145.11 105.479C145.814 105.116 145.11 95.1825 144.879 90.9365C144.879 90.1775 140.996 90.1665 137.773 90.2875C136.365 90.2875 129.369 90.6615 129.391 91.6625C129.765 106.392 129.677 105.677 129.952 105.831C130.981 106.099 132.048 106.196 133.109 106.117ZM130.788 105.017C130.535 100.683 130.447 96.0845 130.271 91.8165C134.838 91.4109 139.425 91.2566 144.01 91.3545C144.01 92.8615 144.307 102.883 144.494 104.555C142.866 104.665 132.493 104.742 130.821 105.028L130.788 105.017Z" fill="#2A344A"/>
<path d="M213.408 122.396C210.526 43.9992 211.736 44.6591 211.208 44.1971C210.46 43.4931 204.685 43.9551 203.266 44.0321L202.672 32.0091C202.701 31.9366 202.711 31.8584 202.703 31.781C202.694 31.7036 202.667 31.6293 202.624 31.5646C202.581 31.4998 202.523 31.4464 202.455 31.4089C202.386 31.3714 202.31 31.3509 202.232 31.3491C179.132 31.0631 155.361 32.5921 131.524 34.2091C125.1 34.6601 118.423 35.0561 111.889 35.7491C111.828 35.7393 111.766 35.7432 111.706 35.7605C111.647 35.7778 111.592 35.808 111.546 35.849C111.5 35.8901 111.463 35.9409 111.439 35.9978C111.414 36.0547 111.403 36.1163 111.405 36.1781C112.615 65.5481 116.135 113.024 122.218 165.593C122.284 166.198 127.3 165.67 131.81 165.373C131.869 166.667 132.102 167.947 132.503 169.179C133.163 170.015 214.761 164.955 214.662 161.479C214.31 148.422 213.837 135.2 213.408 122.396ZM207.226 156.694C178.296 161.094 152.281 162.326 123.23 164.834C117.477 114.993 115.112 80.8051 112.23 36.5192C121.162 35.9912 154.195 32.9551 201.913 32.3281C203.101 64.3051 207.523 153.174 207.193 156.694H207.226ZM69.1434 81.0691C68.3954 81.0691 68.4064 82.5211 68.7584 83.0711C68.799 83.1517 68.8624 83.2185 68.9405 83.2635C69.0187 83.3084 69.1084 83.3295 69.1984 83.3242C69.8694 83.2472 69.8364 81.1461 69.1434 81.0691ZM65.2164 87.4272C65.6894 87.5482 66.9654 87.6252 67.2624 87.1852C67.6804 86.5692 66.5474 80.9812 66.4044 80.5852C66.375 80.5043 66.3178 80.4366 66.2431 80.394C66.1684 80.3514 66.0809 80.3367 65.9964 80.3526C65.9119 80.3684 65.8357 80.4138 65.7815 80.4806C65.7273 80.5473 65.6986 80.6312 65.7004 80.7171C65.7004 81.7181 66.1514 85.1172 66.3274 86.5362L65.2274 86.6022C65.147 86.6364 65.0782 86.6933 65.0296 86.7659C64.9809 86.8385 64.9543 86.9237 64.9532 87.0111C64.952 87.0985 64.9763 87.1843 65.023 87.2582C65.0697 87.3321 65.1369 87.3908 65.2164 87.4272ZM68.2084 79.0122C68.534 78.923 68.8764 78.9144 69.2061 78.9873C69.5357 79.0601 69.8427 79.2121 70.1004 79.4302C70.5294 79.8152 71.3544 79.0782 70.1774 78.3302C69.3304 77.7582 67.3504 77.5602 67.5594 78.5722C67.5935 78.7131 67.6789 78.8362 67.7989 78.9176C67.9189 78.9989 68.0649 79.0326 68.2084 79.0122Z" fill="#2A344A"/>
<path d="M100.456 118.998C93.3828 112.024 80.6558 103.829 69.2158 102.201C69.4052 101.547 69.4052 100.853 69.2158 100.199C70.0866 99.4709 70.896 98.6725 71.6358 97.8117C73.2088 95.9637 73.1758 94.1597 70.9318 95.0727C73.1318 90.2107 73.1318 79.6727 72.3398 73.7547C76.0248 76.0537 82.2398 73.8427 81.4808 69.3547C86.4858 70.8617 89.7418 60.9177 83.3838 59.1247C84.2748 51.6007 74.6388 50.5117 71.6908 54.9007C70.0298 50.0497 62.3958 52.6017 62.9458 56.4077C59.5028 52.7117 52.0668 53.9987 51.0328 58.6077C47.9198 55.7807 42.7828 56.9797 43.2338 61.1487C38.3058 58.8607 35.6988 64.7567 39.5268 66.6487C37.0738 67.9687 37.1508 73.4027 40.9128 73.4027C40.9128 77.0327 43.1128 85.3487 48.5578 89.9027C49.1408 94.9957 48.0958 97.6027 46.2808 102.322C28.3288 105.05 14.6998 119.053 8.58379 136.422C1.60979 156.222 4.92079 174.922 25.5898 178.86C25.5468 181.502 25.2372 184.133 24.6658 186.714C24.6555 186.811 24.6806 186.909 24.7366 186.989C24.7926 187.07 24.8756 187.127 24.9705 187.151C25.0654 187.175 25.1658 187.164 25.2533 187.12C25.3408 187.076 25.4095 187.002 25.4468 186.912C26.1831 184.349 26.5825 181.702 26.6348 179.036C31.6142 179.776 36.7012 179 41.2333 176.808C45.7654 174.617 49.5327 171.111 52.0448 166.749C55.229 167.958 58.4792 168.987 61.7798 169.829C72.1638 172.766 85.7048 175.681 98.5308 172.205C98.2778 178.354 97.9258 183.282 97.3758 188.177C97.3758 188.661 98.0468 188.804 98.1238 188.32C98.5528 185.746 99.6198 174.449 99.5538 171.908C107.716 169.4 113.172 163.735 114.514 156.376C116.857 143.902 111.577 129.899 100.456 118.998ZM53.7388 71.6207C54.0248 74.8327 53.7388 77.1207 52.7598 78.6057C52.3968 79.1447 51.8468 79.7057 51.3738 79.7057C51.0108 79.3097 48.6348 76.8457 46.3908 78.2867C44.9278 79.2437 44.8618 81.1027 46.2478 83.5227C47.2384 84.9926 47.9471 86.6338 48.3378 88.3627C44.1248 83.7867 42.8378 79.4967 41.8698 73.3477C42.988 73.1461 44.0086 72.5816 44.7738 71.7417C46.6988 74.6017 51.4068 74.0297 53.7388 71.6207ZM46.9188 79.0127C48.4038 78.0997 49.7788 79.1997 51.0328 80.2997C51.7698 80.9487 52.9798 80.0357 53.5518 79.1997C55.0478 77.1317 54.9158 73.6997 54.7178 71.9837C55.7855 73.0006 57.2034 73.5677 58.6778 73.5677C60.1522 73.5677 61.5701 73.0006 62.6378 71.9837C62.8578 75.1517 69.5018 75.8777 71.2508 73.2487C72.0538 78.7487 72.4388 90.6397 69.7768 95.6227C67.5768 96.5907 62.5718 98.8017 60.0858 97.8227C57.9518 96.9757 56.8738 93.7197 54.3878 92.3227C52.7158 91.3987 51.2858 92.4437 52.4518 94.3137C55.3998 98.9997 55.1358 100.782 52.8038 105.6C50.7599 105.043 48.8486 104.081 47.1828 102.773C49.6028 99.3077 50.2628 93.1257 49.6578 89.0117C49.1188 85.3487 48.5578 85.5687 47.1058 82.8627C46.4348 81.7517 45.8408 79.6947 46.9188 79.0127ZM65.4758 101.2C65.388 101.24 65.3182 101.312 65.2795 101.4C65.2408 101.489 65.2359 101.589 65.2656 101.681C65.2954 101.773 65.3578 101.851 65.4411 101.9C65.5244 101.949 65.6228 101.966 65.7178 101.948C66.6611 101.779 67.5552 101.403 68.3358 100.848C68.3991 101.873 68.129 102.892 67.5658 103.752C67.3678 104.027 67.7198 104.852 68.4348 103.829C68.3798 106.865 66.8288 110.616 63.8478 112.09C61.8274 111.724 59.9047 110.945 58.2007 109.799C56.4968 108.654 55.0487 107.168 53.9478 105.435C57.2478 99.7807 54.3438 95.5347 53.3758 93.7747C52.8368 92.7627 53.1118 92.6087 53.9918 93.1807C56.0708 94.5007 57.8968 98.1857 59.9098 98.6807C63.7048 99.5937 68.3798 97.3057 70.6678 96.2827C71.8558 95.7437 72.5488 95.3807 71.1188 97.1737C69.2048 99.5387 68.1158 100.034 65.4758 101.2ZM18.9238 148.148C18.884 148.237 18.8778 148.338 18.9063 148.432C18.9348 148.525 18.9961 148.606 19.0789 148.658C19.1618 148.71 19.2607 148.73 19.3575 148.715C19.4542 148.701 19.5424 148.651 19.6058 148.577C29.2528 133.375 45.2138 122.826 53.4308 106.557C54.7068 109.395 60.1628 113.047 63.5288 113.047C63.5288 115.786 63.2538 119.042 62.9678 122.166C59.6678 121.407 50.7468 118.613 49.1408 114.961C48.9538 114.51 48.2278 114.818 48.4038 115.269C49.9108 119.35 59.2168 122.628 62.8688 123.321C62.0974 131.54 60.5693 139.67 58.3038 147.609C56.6428 153.549 54.5088 160.732 51.4288 166.045C48.9733 170.413 45.2162 173.906 40.6811 176.038C36.146 178.169 31.0589 178.833 26.1288 177.936C5.82279 174.372 2.76479 156.057 9.66179 136.708C16.1078 118.58 30.2208 105.82 46.5008 103.4C48.2705 104.705 50.2049 105.77 52.2538 106.568C44.0038 122.485 28.2738 132.935 18.9238 148.148ZM59.2498 148.071C69.9387 143.566 81.2955 140.85 92.8658 140.03C96.1658 139.81 99.4658 139.821 102.766 139.821C103.25 139.821 103.261 139.029 102.766 139.029C100.522 138.873 98.271 138.833 96.0228 138.908C95.4838 134.508 87.5528 121.671 84.8578 118.118C84.7888 118.053 84.6987 118.014 84.6038 118.01C84.509 118.006 84.4157 118.035 84.3411 118.094C84.2664 118.153 84.2153 118.236 84.1971 118.329C84.1789 118.423 84.1947 118.519 84.2418 118.602C89.6428 126.17 94.0098 135.806 94.8788 138.952C85.2098 139.315 70.2938 141.603 59.5578 146.861C60.5698 143.154 64.4858 127.864 64.5738 112.761C67.5988 111.408 69.7548 106.513 69.5018 103.224C80.9071 105.821 91.3676 111.533 99.7188 119.724C109.52 129.327 115.526 141.724 113.678 155.199C112.699 162.899 107.232 168.861 99.0698 171.028C85.0008 174.878 70.5248 171.534 56.6318 167.222C55.2868 166.769 53.9169 166.394 52.5288 166.1C55.3402 160.319 57.5908 154.281 59.2498 148.071Z" fill="#2A344A"/>
<path d="M58.7085 77.2526C58.9928 76.8325 59.372 76.4852 59.8153 76.2387C60.2586 75.9922 60.7537 75.8534 61.2605 75.8336C62.0635 75.8336 62.0195 74.6236 61.2605 74.7336C60.6072 74.8023 59.9782 75.0194 59.4215 75.3682C58.8648 75.7171 58.3952 76.1886 58.0485 76.7466C57.7625 77.1976 58.4005 77.6926 58.7085 77.2526ZM61.3045 80.2996C60.8535 80.6626 60.8865 82.4996 61.5685 82.4996C61.7245 82.4834 61.8704 82.4147 61.9823 82.3048C62.0942 82.1949 62.1655 82.0503 62.1845 81.8946C62.4375 80.9376 61.7885 79.9586 61.3045 80.2996ZM60.3365 89.3856C60.316 89.2996 60.2694 89.2221 60.203 89.1636C60.1367 89.1051 60.0539 89.0685 59.966 89.0589C59.8781 89.0493 59.7894 89.067 59.712 89.1098C59.6346 89.1525 59.5722 89.2181 59.5335 89.2976C59.4235 89.4516 59.2145 89.9246 59.6765 90.8816C59.9901 91.5331 60.5314 92.0472 61.1982 92.3269C61.8649 92.6066 62.611 92.6325 63.2955 92.3996C63.3883 92.3628 63.4642 92.2932 63.509 92.2041C63.5538 92.115 63.5643 92.0125 63.5385 91.9161C63.5127 91.8198 63.4524 91.7363 63.3691 91.6814C63.2858 91.6266 63.1852 91.6042 63.0865 91.6186C61.5245 91.9266 60.6225 90.9366 60.3365 89.3856Z" fill="#2A344A"/>
<rect y="184" width="36" height="36" rx="18" fill="#4E6AF3"/>
<path d="M19.3447 195.133V208H17.7188V197.163L14.4404 198.358V196.891L19.0898 195.133H19.3447Z" fill="white"/>
<path d="M43.978 77.884C43.9181 78.017 43.9134 78.1683 43.9651 78.3047C44.0168 78.4411 44.1205 78.5514 44.2535 78.6113C44.3865 78.6713 44.5378 78.6759 44.6743 78.6242C44.8107 78.5726 44.921 78.4688 44.9809 78.3358C45.0408 78.2028 45.0454 78.0515 44.9938 77.9151C44.9421 77.7787 44.8384 77.6684 44.7054 77.6084C44.5724 77.5485 44.421 77.5439 44.2846 77.5956C44.1482 77.6472 44.0379 77.751 43.978 77.884ZM48.0652 74.7306C48.0052 74.8636 48.0006 75.0149 48.0523 75.1513C48.1039 75.2878 48.2077 75.3981 48.3407 75.458C48.4737 75.5179 48.625 75.5225 48.7614 75.4709C48.8978 75.4192 49.0081 75.3155 49.0681 75.1825C49.128 75.0495 49.1326 74.8981 49.0809 74.7617C49.0293 74.6253 48.9255 74.515 48.7925 74.4551C48.6596 74.3952 48.5082 74.3905 48.3718 74.4422C48.2354 74.4939 48.1251 74.5976 48.0652 74.7306ZM52.8495 74.8231C52.9094 74.6901 52.914 74.5388 52.8624 74.4024C52.8107 74.266 52.7069 74.1557 52.5739 74.0957C52.441 74.0358 52.2896 74.0312 52.1532 74.0829C52.0168 74.1345 51.9065 74.2383 51.8466 74.3713C51.7866 74.5043 51.782 74.6556 51.8337 74.792C51.8853 74.9284 51.9891 75.0387 52.1221 75.0986C52.2551 75.1586 52.4064 75.1632 52.5428 75.1115C52.6792 75.0599 52.7895 74.9561 52.8495 74.8231ZM43.9075 74.1844C43.8476 74.3174 43.8429 74.4688 43.8946 74.6052C43.9463 74.7416 44.05 74.8519 44.183 74.9118C44.316 74.9717 44.4674 74.9764 44.6038 74.9247C44.7402 74.8731 44.8505 74.7693 44.9104 74.6363C44.9703 74.5033 44.975 74.352 44.9233 74.2156C44.8716 74.0792 44.7679 73.9688 44.6349 73.9089C44.5019 73.849 44.3505 73.8444 44.2141 73.896C44.0777 73.9477 43.9674 74.0514 43.9075 74.1844ZM49.0965 77.7168C49.0365 77.8498 49.0319 78.0012 49.0836 78.1376C49.1352 78.274 49.239 78.3843 49.372 78.4442C49.505 78.5042 49.6563 78.5088 49.7927 78.4571C49.9291 78.4055 50.0394 78.3017 50.0994 78.1687C50.1593 78.0357 50.1639 77.8844 50.1122 77.748C50.0606 77.6116 49.9568 77.5013 49.8238 77.4413C49.6908 77.3814 49.5395 77.3768 49.4031 77.4285C49.2667 77.4801 49.1564 77.5839 49.0965 77.7168Z" fill="#2A344A"/>
<path d="M45.4897 83.1418C45.4298 83.2748 45.4252 83.4261 45.4768 83.5625C45.5285 83.6989 45.6323 83.8092 45.7652 83.8692C45.8982 83.9291 46.0496 83.9337 46.186 83.8821C46.3224 83.8304 46.4327 83.7267 46.4926 83.5937C46.5526 83.4607 46.5572 83.3093 46.5055 83.1729C46.4539 83.0365 46.3501 82.9262 46.2171 82.8663C46.0841 82.8063 45.9328 82.8017 45.7964 82.8534C45.66 82.905 45.5497 83.0088 45.4897 83.1418Z" fill="#2A344A"/>
<path d="M213.395 122.358C210.513 43.9605 211.723 44.6205 211.195 44.1585C210.447 43.4545 204.658 43.9371 203.239 44.0141L131.798 165.335H131.797C131.856 166.629 132.095 168.268 132.496 169.5C133.156 170.336 215.095 165.476 214.996 162C214.644 148.943 213.824 135.162 213.395 122.358ZM207.496 157C178.566 161.4 160.849 162.827 131.798 165.335L203.239 44.0141C204.831 81.92 207.791 153.849 207.496 157Z" fill="#4E6AF3"/>
</svg>
