<svg width="220" height="220" viewBox="0 0 220 220" fill="none" xmlns="http://www.w3.org/2000/svg">
<path d="M128 57.5L115.5 128.5L66 89M114.5 45.5L71 60.5M66.5 54.5L75.5 42.5M102 31.5L114 34.5M151 43.5L165.5 46.5" stroke="#4E6AF3"/>
<path d="M119 128L112.5 129.5L116.5 136H117L117.5 136.5L118 137H119L119.5 138L120 137.5L120.5 138.5L121.5 140L122.5 139L123 138L127 140.5V139.5L119 128Z" fill="#4E6AF3"/>
<path d="M196.205 133.551C195.435 122.826 188.505 115.742 182.752 111.694C180.33 109.903 177.658 108.476 174.821 107.459C174.869 105.863 174.411 104.292 173.512 102.971C172.038 100.771 169.563 99.4072 166.164 98.9562C160.312 98.1642 160.345 98.0872 160.4 97.8562C160.653 96.5032 161.346 95.2822 161.687 93.8522C164.107 83.4572 158.508 78.0122 158.508 77.8142C158.508 77.4292 155.824 74.0742 150.808 73.5242L151.314 72.5342C151.878 72.6072 152.451 72.54 152.982 72.3386C153.514 72.1371 153.988 71.8075 154.361 71.3792C154.838 70.7187 155.164 69.9616 155.316 69.1614C155.468 68.3612 155.442 67.5374 155.241 66.7482C154.658 64.5482 152.15 64.4272 150.027 64.5482C146.947 64.7792 145.627 68.6402 145.737 71.1482C145.682 71.6872 145.671 72.2482 145.594 72.6772C145.516 73.1017 145.475 73.5324 145.473 73.9642C141.414 75.1632 135.43 79.3432 135.309 86.0642C135.316 86.1289 135.337 86.1912 135.371 86.2465C135.406 86.3017 135.452 86.3485 135.507 86.3832C135.815 89.9802 137.597 100.144 142.294 105.27C143.21 106.133 144.404 106.64 145.66 106.7C145.043 107.141 144.604 107.788 144.42 108.523C144.237 109.259 144.322 110.036 144.659 110.715C138.114 114.488 127.059 126.005 123.979 133.452C122.752 131.439 121.377 129.519 119.865 127.71C119.315 127.237 117.973 127.292 115.751 127.908L128.269 58.2342C133.214 59.2902 138.375 58.3611 142.64 55.647C146.906 52.9329 149.934 48.6513 151.072 43.7252L164.888 46.4642C163.382 49.593 162.935 53.1267 163.613 56.5322C164.292 59.9376 166.059 63.03 168.649 65.3429C171.239 67.6558 174.511 69.0637 177.971 69.3541C181.431 69.6445 184.892 68.8017 187.831 66.9529C190.771 65.1041 193.029 62.3495 194.266 59.1048C195.502 55.8601 195.65 52.3012 194.687 48.9652C193.723 45.6291 191.701 42.6968 188.925 40.6106C186.15 38.5245 182.771 37.3976 179.298 37.4002C176.424 37.4072 173.606 38.1896 171.139 39.6649C168.673 41.1401 166.254 43.9354 164.888 46.4642C164.888 46.4642 164.819 46.4505 151.072 43.7252C152.498 39.0001 151.359 32.9726 148.685 28.7617C146.01 24.5508 141.802 21.5457 136.952 20.3823C132.101 19.2189 126.988 19.9885 122.694 22.5282C118.401 25.068 114.998 29.0001 113.738 34.7492L102.188 31.9992C104.105 20.6362 95.6982 11.6602 85.6883 11.6602C76.4593 11.6602 68.9352 19.4372 68.9352 28.9962C68.9257 31.5302 69.4655 34.0362 70.5176 36.3415C71.5696 38.6469 73.1088 40.6968 75.0292 42.3502L66.3062 53.9002C50.5103 38.1482 23.4062 49.4012 23.4062 71.6982C23.4062 93.9952 50.5982 105.204 66.3502 89.4302L115.751 127.908C114.585 128.282 112.473 128.953 112.22 129.063C110.955 129.547 114.871 134.079 116.169 136.389C116.173 136.408 116.181 136.425 116.193 136.44C116.204 136.456 116.219 136.468 116.235 136.477C116.235 136.653 116.147 136.884 116.114 137.104C115.718 136.631 115.014 136.004 114.519 136.477C114.024 136.95 114.299 138.072 114.585 138.545C115.254 139.445 115.802 140.428 116.213 141.471C116.228 141.52 116.254 141.565 116.288 141.603C116.322 141.641 116.364 141.671 116.411 141.691C116.444 142.001 116.539 142.3 116.69 142.573C116.841 142.845 117.046 143.084 117.291 143.275C117.797 158.081 126.74 160.633 129.71 161.062C129.413 176.462 132.504 202.862 134.264 205.986C134.292 206.034 134.328 206.076 134.372 206.109C134.415 206.143 134.465 206.167 134.518 206.182C134.571 206.196 134.627 206.2 134.681 206.193C134.736 206.185 134.789 206.168 134.836 206.14C134.884 206.113 134.926 206.076 134.959 206.033C134.993 205.989 135.017 205.939 135.032 205.886C135.046 205.833 135.05 205.778 135.043 205.723C135.035 205.668 135.018 205.616 134.99 205.568C134.396 204.534 133.472 199.738 132.625 193.314C135.606 195.921 144.637 200.013 145.583 199.551C145.683 199.497 145.758 199.406 145.792 199.298C145.847 199.111 145.792 197.175 145.726 195.998L158.926 197.384C159.542 199.507 160.136 200.684 160.686 200.97C165.559 203.17 187.306 197.01 193.268 192.841C192.795 199.54 192.344 205.282 192.091 207.878C192.093 207.98 192.132 208.078 192.201 208.153C192.27 208.228 192.363 208.276 192.465 208.287C192.566 208.298 192.668 208.271 192.751 208.212C192.834 208.153 192.893 208.065 192.916 207.966C193.741 199.771 196.777 155.683 195.82 152.614C196.667 147.972 196.81 141.9 196.205 133.551ZM168.199 63.9102C170.487 60.3132 175.338 57.4532 177.659 56.2102C177.582 56.8922 177.571 57.6952 177.571 57.6952C177.571 58.2342 177.736 58.5642 178.066 58.6742C178.594 58.8612 179.166 58.3772 180.112 57.3102C179.87 59.3122 179.628 62.2822 180.112 63.3382C180.75 64.8562 182.312 64.6802 182.191 61.9522C182.03 60.2989 181.751 58.6594 181.355 57.0462C181.655 57.405 181.978 57.7431 182.323 58.0582C182.521 58.2122 182.759 58.3056 183.009 58.3271C183.259 58.3485 183.51 58.2972 183.731 58.1792C184.534 57.6952 184.083 56.8262 183.808 55.9022C186.514 57.2442 190.408 59.2022 191.948 61.8642C190.703 63.8001 189.03 65.4247 187.059 66.6132C185.087 67.8017 182.87 68.5224 180.576 68.72C178.283 68.9176 175.975 68.5868 173.829 67.753C171.683 66.9191 169.757 65.6045 168.199 63.9102ZM174.26 50.2482C173.974 50.2482 173.732 49.9622 173.666 49.6872C174.414 49.6872 174.832 48.9612 174.667 48.5872C174.809 48.5377 174.934 48.4507 175.03 48.3354C175.126 48.2201 175.188 48.081 175.211 47.9328C175.233 47.7847 175.215 47.6332 175.158 47.4946C175.101 47.356 175.008 47.2355 174.887 47.1462C175.023 47.0733 175.136 46.9654 175.215 46.8338C175.294 46.7023 175.337 46.5518 175.338 46.3982C175.303 46.1882 175.228 45.9867 175.118 45.8042C175.184 45.7191 175.239 45.6268 175.283 45.5292C175.516 45.6178 175.773 45.6136 176.003 45.5173C176.232 45.421 176.416 45.2401 176.515 45.0122C176.633 45.1322 176.779 45.2214 176.94 45.2716C177.101 45.3218 177.271 45.3315 177.437 45.3C177.602 45.2684 177.757 45.1965 177.888 45.0907C178.019 44.9848 178.122 44.8483 178.187 44.6932C178.33 44.7974 178.495 44.8688 178.668 44.902C178.842 44.9352 179.021 44.9296 179.193 44.8854C179.364 44.8412 179.524 44.7597 179.66 44.6465C179.796 44.5334 179.905 44.3916 179.98 44.2312C180.184 44.4198 180.451 44.5246 180.728 44.5246C181.006 44.5246 181.273 44.4198 181.476 44.2312C181.612 44.344 181.776 44.4171 181.951 44.4423C182.126 44.4675 182.304 44.444 182.466 44.3742C182.534 44.6337 182.701 44.8559 182.932 44.992C183.163 45.1281 183.439 45.167 183.698 45.1002C183.732 45.3009 183.827 45.4861 183.971 45.63C184.115 45.7739 184.301 45.8694 184.501 45.9032C184.465 46.0137 184.443 46.1282 184.435 46.2442C184.44 46.4054 184.49 46.5622 184.579 46.6965C184.669 46.8307 184.794 46.937 184.941 47.0032C184.849 47.1687 184.808 47.3579 184.823 47.5468C184.839 47.7357 184.91 47.9158 185.027 48.0643C185.145 48.2127 185.304 48.3229 185.485 48.3807C185.665 48.4386 185.859 48.4415 186.041 48.3892C186.195 48.7522 186.184 49.4892 185.821 49.4892C185.739 49.4818 185.657 49.5001 185.586 49.5415C185.515 49.5829 185.459 49.6453 185.425 49.7202C184.963 50.1822 186.129 51.5242 183.016 53.5702C182.279 54.0542 182.433 54.1532 182.466 55.1652C181.817 55.6492 179.771 55.5502 178.528 55.4402C178.451 55.1311 178.422 54.8121 178.44 54.4942C178.454 54.4222 178.447 54.348 178.42 54.2798C178.394 54.2115 178.35 54.1519 178.291 54.1075C178.233 54.063 178.164 54.0356 178.091 54.0281C178.019 54.0206 177.945 54.0335 177.879 54.0652C177.121 53.8613 176.423 53.4752 175.848 52.9403C175.273 52.4054 174.837 51.738 174.579 50.9962C174.674 50.9508 174.747 50.8707 174.784 50.7726C174.821 50.6746 174.818 50.566 174.777 50.4697C174.736 50.3733 174.66 50.2965 174.563 50.2552C174.467 50.2139 174.358 50.2114 174.26 50.2482ZM183.258 57.4972C183.178 57.531 183.091 57.5417 183.005 57.5281C182.92 57.5145 182.84 57.4771 182.774 57.4202C182.384 57.0465 182.017 56.6498 181.674 56.2322C182.101 56.1837 182.515 56.0569 182.895 55.8582C183.148 56.8812 183.434 57.3982 183.258 57.4972ZM180.805 58.6852C181.003 59.6312 181.652 62.6892 181.091 63.4702C180.398 62.8102 180.706 59.6862 180.805 58.6852ZM179.914 56.2872C179.476 56.8793 178.97 57.4183 178.407 57.8932C178.399 57.3305 178.432 56.7679 178.506 56.2102C178.902 56.2432 179.419 56.2762 179.914 56.2872ZM179.298 38.1922C181.966 38.2207 184.58 38.9469 186.88 40.2985C189.181 41.6501 191.087 43.5801 192.411 45.8967C193.734 48.2133 194.428 50.8359 194.425 53.5039C194.421 56.1719 193.719 58.7925 192.388 61.1052C190.573 58.3882 186.646 56.4412 183.984 55.1212C183.779 54.9971 183.561 54.8939 183.335 54.8132V54.3512L183.566 54.1972C184.314 53.8121 184.95 53.2418 185.414 52.5408C185.878 51.8398 186.155 51.0315 186.217 50.1932C187.13 49.9292 187.251 48.6532 186.8 47.8612C186.857 47.7625 186.887 47.6506 186.887 47.5367C186.887 47.4227 186.857 47.3108 186.8 47.2122C186.964 47.1569 187.107 47.0541 187.212 46.917C187.317 46.7799 187.379 46.6147 187.389 46.4424C187.4 46.2701 187.359 46.0986 187.272 45.9496C187.184 45.8007 187.055 45.6811 186.899 45.6062C186.989 45.5096 187.055 45.3927 187.091 45.2655C187.126 45.1382 187.131 45.0042 187.104 44.8749C187.077 44.7455 187.019 44.6245 186.936 44.5221C186.852 44.4196 186.745 44.3387 186.624 44.2862C186.657 44.1851 186.669 44.0785 186.659 43.9728C186.65 43.867 186.62 43.7641 186.571 43.67C186.522 43.5759 186.455 43.4925 186.373 43.4245C186.292 43.3566 186.198 43.3055 186.096 43.2742C186.203 43.0999 186.243 42.8933 186.211 42.6917C186.179 42.4901 186.076 42.3066 185.92 42.1742C185.875 41.9264 185.734 41.7063 185.529 41.5605C185.323 41.4146 185.069 41.3546 184.82 41.3932C184.743 41.254 184.629 41.138 184.492 41.0568C184.355 40.9756 184.199 40.9323 184.039 40.9312C183.904 40.9498 183.771 40.983 183.643 41.0302C183.581 40.8291 183.455 40.6538 183.284 40.5307C183.114 40.4076 182.908 40.3436 182.697 40.3482C182.505 40.3923 182.324 40.4787 182.169 40.6012C182.089 40.4524 181.969 40.328 181.824 40.2409C181.679 40.1539 181.513 40.1073 181.344 40.1062C181.082 40.1656 180.844 40.3037 180.662 40.5022C180.577 40.3691 180.46 40.2593 180.322 40.1825C180.183 40.1057 180.028 40.0644 179.87 40.0622C179.683 40.0622 179.43 40.2162 179.034 40.5792C178.937 40.4647 178.812 40.3758 178.672 40.3203C178.533 40.2648 178.381 40.2442 178.232 40.2605C178.082 40.2768 177.939 40.3293 177.814 40.4136C177.689 40.4979 177.587 40.6114 177.516 40.7442C177.23 40.5352 177.043 40.4032 176.878 40.4032C176.662 40.3988 176.451 40.4652 176.276 40.5923C176.101 40.7194 175.973 40.9002 175.91 41.1072C175.788 41.0581 175.657 41.0343 175.525 41.0373C175.393 41.0402 175.263 41.0698 175.142 41.1243C175.022 41.1787 174.914 41.2569 174.825 41.3542C174.736 41.4514 174.667 41.5657 174.623 41.6902C174.452 41.6506 174.273 41.6589 174.106 41.7142C173.94 41.7696 173.791 41.8698 173.678 42.0038C173.564 42.1379 173.489 42.3007 173.462 42.4743C173.435 42.648 173.456 42.8257 173.523 42.9882C173.283 43.021 173.064 43.1438 172.911 43.3316C172.758 43.5194 172.682 43.7584 172.698 44.0002C172.587 44.0585 172.491 44.142 172.418 44.2442C172.345 44.3463 172.297 44.4641 172.278 44.5882C172.258 44.7123 172.268 44.8392 172.307 44.9587C172.346 45.0782 172.412 45.1869 172.5 45.2762C172.348 45.347 172.22 45.4596 172.13 45.6009C172.04 45.7421 171.992 45.9062 171.992 46.0737C171.992 46.2411 172.04 46.4052 172.13 46.5464C172.22 46.6877 172.348 46.8004 172.5 46.8712C172.373 46.9639 172.274 47.0903 172.214 47.2363C172.154 47.3824 172.137 47.5421 172.163 47.6976C172.189 47.8531 172.259 47.9981 172.363 48.1164C172.467 48.2347 172.602 48.3216 172.753 48.3672C172.68 48.5064 172.65 48.6639 172.665 48.8204C172.681 48.9768 172.742 49.1252 172.841 49.2472C172.782 49.5981 172.842 49.9587 173.011 50.2716C173.181 50.5846 173.45 50.8319 173.776 50.9742C173.853 52.2172 175.877 54.4942 177.67 54.7692V55.2532C175.8 56.1992 170.245 59.2572 167.594 63.2392C159.498 53.3172 166.472 38.1922 179.298 38.1922ZM115.025 137.192C115.267 136.983 115.509 137.412 116.125 138.006C116.125 138.38 116.125 139.172 116.213 139.788C115.322 138.391 114.519 137.5 115.003 137.137L115.025 137.192ZM151.358 84.6012C153.481 84.6012 156.924 80.3222 158.068 78.5842C158.884 79.5892 159.561 80.6991 160.081 81.8842C159.935 81.8842 159.795 81.9421 159.692 82.0452C159.589 82.1484 159.531 82.2883 159.531 82.4342C159.529 82.5411 159.559 82.6463 159.617 82.7358C159.676 82.8254 159.76 82.895 159.859 82.9356C159.958 82.9761 160.067 82.9857 160.171 82.9629C160.276 82.9402 160.371 82.8862 160.444 82.8082C160.737 83.6174 160.965 84.4487 161.126 85.2942C161.035 85.2236 160.923 85.185 160.807 85.1842C160.661 85.1842 160.521 85.2421 160.418 85.3453C160.315 85.4484 160.257 85.5883 160.257 85.7342C160.257 85.88 160.315 86.0199 160.418 86.1231C160.521 86.2262 160.661 86.2842 160.807 86.2842C160.894 86.2847 160.979 86.2639 161.056 86.2237C161.133 86.1834 161.199 86.1248 161.247 86.0532C161.324 86.6252 161.379 87.2082 161.412 87.8132C161.338 87.807 161.264 87.8164 161.194 87.8408C161.124 87.8653 161.06 87.9042 161.006 87.955C160.952 88.0059 160.909 88.0675 160.881 88.1359C160.852 88.2044 160.838 88.278 160.84 88.3522C160.84 88.4278 160.855 88.5027 160.886 88.572C160.916 88.6412 160.961 88.7033 161.017 88.7541C161.073 88.805 161.139 88.8435 161.211 88.8671C161.283 88.8907 161.359 88.8989 161.434 88.8912C161.423 90.0155 161.323 91.1373 161.137 92.2462C160.991 92.2199 160.841 92.2527 160.719 92.3372C160.598 92.4218 160.514 92.5513 160.488 92.6972C160.462 92.843 160.495 92.9933 160.579 93.1151C160.664 93.2368 160.793 93.3199 160.939 93.3462C160.598 94.9302 160.114 95.6232 159.729 97.0972C159.08 96.1512 159.179 95.7662 159.729 94.6222C160.041 94.1461 160.215 93.5933 160.232 93.0246C160.25 92.4559 160.11 91.8935 159.828 91.3992C158.86 89.8152 157.573 89.4852 156 90.7612C155.851 90.9172 155.722 91.0908 155.615 91.2782C155.377 91.6679 155.104 92.0359 154.801 92.3782C154.24 91.4102 153.371 87.7802 151.358 84.6012ZM146.584 71.5002C146.65 71.1372 146.254 71.7312 150.225 72.3692C150.401 72.3692 150.401 72.2262 149.884 73.4692C148.674 73.4311 147.465 73.5531 146.287 73.8322C146.342 73.0498 146.441 72.2712 146.584 71.5002ZM145.484 105.842C144.496 105.794 143.556 105.405 142.822 104.742C139.83 101.442 138.004 95.9422 137.047 91.4212C137.553 91.6632 137.641 91.0472 137.993 90.4862C138.022 90.4392 138.041 90.387 138.05 90.3326C138.059 90.2782 138.057 90.2226 138.044 90.1689C138.031 90.1153 138.008 90.0647 137.976 90.0201C137.943 89.9754 137.903 89.9376 137.856 89.9087C137.809 89.8798 137.757 89.8604 137.702 89.8517C137.648 89.843 137.592 89.845 137.539 89.8578C137.485 89.8706 137.434 89.8938 137.39 89.9261C137.345 89.9584 137.307 89.9992 137.278 90.0462C137.113 90.3212 137.025 90.5412 136.915 90.7502C136.607 89.2212 136.398 87.8462 136.288 86.7572C141.546 87.9672 143.482 83.7432 146.705 83.2042C147.832 83.1264 148.955 83.4034 149.917 83.9962C154.317 89.8812 153.217 96.1952 156.253 91.6962L156.462 91.3772C157.562 90.4862 158.288 90.5412 159.058 91.7952C160.037 93.4122 158.277 94.4242 158.409 96.1292C158.702 97.1824 159.281 98.1342 160.081 98.8792C161.187 100.333 162.219 101.842 163.172 103.4C163.062 104.907 160.972 106.7 159.872 107.745C157.826 109.501 155.661 111.115 153.393 112.574C152.997 112.343 151.435 111.672 150.83 111.408C148.949 110.594 148.74 110.737 148.454 108.801C148.113 106.513 147.53 106.139 145.528 105.831L145.484 105.842ZM145.484 108.042C145.79 107.552 146.239 107.168 146.771 106.942C148.047 107.624 147.09 110.418 148.894 111.419C149.235 111.617 152.733 113.08 152.964 113.245C153.003 113.29 153.05 113.327 153.103 113.354C153.155 113.38 153.213 113.396 153.272 113.399C154.185 113.399 159.63 108.999 160.4 108.328C161.753 107.129 163.997 105.116 163.997 103.224C163.997 103.004 161.599 99.4402 161.291 99.0332C165.768 99.8252 170.267 99.5832 172.797 103.433C173.552 104.548 173.961 105.86 173.974 107.206C172.891 106.974 171.781 106.889 170.674 106.953C168.683 107.228 162.644 110.176 161.225 111.353C159.157 111.793 153.734 115.753 152.964 116.314C147.607 113.487 149.587 114.664 147.992 113.289C146.397 111.914 144.362 110.11 145.506 108.042H145.484ZM158.398 114.4C158.392 114.292 158.427 114.185 158.496 114.101C158.566 114.017 158.664 113.963 158.772 113.949C158.882 113.945 158.989 113.98 159.074 114.049C159.159 114.118 159.216 114.215 159.234 114.323C159.444 116.155 159.384 118.008 159.058 119.823C159.839 120.758 159.498 123.123 158.519 123.123C157.419 123.123 157.177 120.131 158.255 119.614C158.553 117.892 158.601 116.136 158.398 114.4ZM148.993 123.794C148.993 125.631 147.2 125.631 147.2 123.794C147.2 123.079 147.53 122.518 147.959 122.419C148.772 120.363 149.147 118.16 149.059 115.951C149.059 115.84 149.103 115.734 149.182 115.656C149.26 115.577 149.366 115.533 149.477 115.533C149.588 115.533 149.694 115.577 149.773 115.656C149.851 115.734 149.895 115.84 149.895 115.951C149.94 117.913 149.657 119.868 149.059 121.737C148.388 123.398 148.993 122.485 148.993 123.761V123.794ZM145.077 111.463C145.654 112.248 146.327 112.957 147.079 113.575L145.011 138.6C134.528 139.48 134.957 140.283 133.681 140.448C133.527 140.448 133.461 140.448 133.043 140.228C133.604 137.511 136.783 126.148 139.489 122.551C139.544 122.463 139.563 122.358 139.544 122.256C139.526 122.154 139.47 122.063 139.388 122C139.306 121.937 139.203 121.907 139.1 121.915C138.997 121.924 138.9 121.97 138.829 122.045C136.145 125.62 132.966 136.664 132.229 139.898C130.97 139.458 129.755 138.902 128.599 138.237C128.083 137.801 127.414 137.587 126.74 137.643C126.355 137.071 124.54 134.244 124.54 134.244C127.246 127.083 138.499 115.214 145.077 111.43V111.463ZM125.277 145.343C125.596 144.705 124.463 144.782 123.231 143.242C122.813 142.792 122.526 142.237 122.4 141.636C122.274 141.036 122.314 140.412 122.516 139.832C122.626 139.909 123.715 143.022 125.816 143.209C125.918 143.207 126.016 143.169 126.091 143.1C126.167 143.031 126.214 142.937 126.225 142.836C126.236 142.734 126.209 142.632 126.15 142.549C126.091 142.466 126.004 142.407 125.904 142.384C124.254 142.208 122.703 138.732 123.165 138.248C123.671 138.248 126.014 140.525 126.465 140.822C126.676 141.003 126.921 141.138 127.186 141.222C127.45 141.305 127.729 141.334 128.005 141.306C128.134 141.256 128.251 141.177 128.346 141.077C128.441 140.976 128.513 140.855 128.555 140.723C128.665 140.393 128.643 140.569 127.29 138.523C128.631 139.305 130.033 139.978 131.481 140.536C131.932 140.712 132.515 140.932 133.087 141.185C133.615 142.747 133.329 147.18 131.866 147.785C131.789 147.809 131.723 147.86 131.679 147.928C130.796 147.91 129.918 147.792 129.061 147.576C127.279 147.268 124.188 146.179 123.011 144.397C122.814 144.133 122.651 143.845 122.527 143.539C123.129 144.338 123.875 145.017 124.727 145.541C124.778 145.568 124.835 145.583 124.893 145.586C124.95 145.589 125.008 145.578 125.062 145.556C125.115 145.534 125.163 145.501 125.202 145.458C125.241 145.416 125.271 145.365 125.288 145.31L125.277 145.343ZM132.746 148.203C134.198 146.949 134.44 143.132 134 141.284C134.574 141.084 135.157 140.915 135.749 140.778C135.903 145.365 134.198 147.477 133.461 148.379L133.186 148.753C132.537 148.214 132.757 148.423 132.757 148.17L132.746 148.203ZM136.574 140.58L137.036 140.481C137.443 143.869 136.156 147.202 135.012 150.128L133.846 149.259C133.923 148.907 136.838 146.597 136.585 140.547L136.574 140.58ZM121.944 54.5492C122.549 51.9532 122.021 51.8432 126.344 48.1252C127.28 47.3358 128.276 46.6222 129.325 45.9912C131.03 47.5642 134.572 47.8502 137.388 45.7822C137.388 46.3982 136.541 49.0822 138.785 50.8642C139.379 51.3411 140.087 51.6558 140.839 51.7772C141.591 51.8987 142.361 51.8229 143.075 51.5572C145.275 50.6552 145.275 51.0732 145.759 51.0182C146.221 50.9285 146.659 50.7451 147.046 50.4792C144.221 54.2991 140.014 56.863 135.324 57.6235C130.634 58.3839 125.832 57.2806 121.944 54.5492ZM123.253 45.5512C123.022 44.1652 121.229 44.0002 121.13 43.1642C121.031 42.3282 122.736 39.5232 122.813 38.9072C122.956 37.8072 121.988 37.2572 121.636 36.6412C121.404 36.1471 121.305 35.6007 121.349 35.0564C121.393 34.5121 121.58 33.989 121.889 33.5392C122.142 33.2862 121.394 33.5392 124.65 33.3522C124.88 35.8101 125.63 38.1911 126.85 40.3372C128.324 42.5372 131.096 41.4372 130.876 42.7022C130.524 44.9022 127.906 45.6942 126.256 47.1022C122.78 50.1382 123.418 49.8302 123.308 49.7752C121.757 49.0052 123.495 46.9812 123.253 45.5512ZM133.945 37.4552C134.495 39.0942 137.245 38.3242 136.145 41.2282C135.342 43.5932 136.475 44.1872 137.003 44.9242C136.969 44.9542 136.943 44.9919 136.926 45.0342C134.517 46.8382 131.426 46.7062 129.941 45.4632C130.812 44.8537 131.421 43.9385 131.646 42.9002C132.053 40.4692 128.775 41.8002 127.488 39.9302C126.35 37.9017 125.666 35.6494 125.486 33.3302C127.329 33.2217 129.164 33.0197 130.986 32.7252C133.791 32.2522 133.098 32.2082 133.384 32.3952C135.903 34.1002 133.098 35.0022 133.945 37.4552ZM147.035 49.5002C146.727 49.7532 145.935 50.3032 145.594 50.2262C145.253 50.1492 144.681 50.0282 142.734 50.8312C142.126 51.0612 141.467 51.1175 140.829 50.9936C140.191 50.8697 139.6 50.5705 139.123 50.1296C138.645 49.6888 138.3 49.1236 138.126 48.4975C137.952 47.8715 137.955 47.2093 138.136 46.5852C138.675 43.5822 135.936 44.5282 137.036 41.5362C137.872 39.1162 136.541 38.4122 135.661 37.9392C134.781 37.4662 134.297 37.2462 135.001 35.2882C135.313 34.7632 135.413 34.1396 135.282 33.5434C135.152 32.9471 134.8 32.4227 134.297 32.0762C135.464 31.7997 136.614 31.4544 137.74 31.0422C137.723 31.844 137.917 32.6363 138.303 33.3392C138.69 34.0421 139.254 34.6308 139.94 35.0462C141.766 36.4542 142.052 37.0482 141.59 39.4462C141.128 41.8442 141.403 42.1742 142.47 43.2962C142.854 43.5727 143.142 43.9613 143.296 44.4084C143.449 44.8555 143.461 45.3393 143.328 45.7932C142.998 48.9392 144.637 48.1362 144.296 47.4762C144.092 46.97 144.046 46.414 144.164 45.8812C144.303 45.3049 144.273 44.7008 144.078 44.1411C143.883 43.5814 143.531 43.0895 143.064 42.7242C142.173 41.7892 141.964 41.6902 142.393 39.6002C142.932 36.8172 142.459 35.9482 140.435 34.3752C139.8 34.0079 139.283 33.4673 138.944 32.8166C138.605 32.1659 138.458 31.4321 138.521 30.7012C139.234 30.4029 139.916 30.0344 140.556 29.6012C140.909 30.3131 141.407 30.9428 142.019 31.4492C143.119 32.5492 143.515 32.8572 143.515 35.1232C143.515 37.3892 143.801 37.8402 145.484 39.7872C146.342 40.7772 146.584 40.8872 146.276 42.7132C146.1 43.3666 146.076 44.052 146.208 44.7159C146.34 45.3798 146.623 46.0045 147.035 46.5412C147.937 48.0922 148.08 48.5762 147.035 49.5002ZM119.381 26.1692C130.953 14.4872 150.764 22.8692 150.764 39.2922C150.753 42.3393 149.998 45.3375 148.564 48.0262C148.399 47.322 148.112 46.6521 147.717 46.0462C147.348 45.5907 147.095 45.0524 146.98 44.4775C146.865 43.9027 146.892 43.3085 147.057 42.7462C147.442 40.5462 147.057 40.2272 146.067 39.1052C144.527 37.3342 144.307 37.1362 144.318 35.0132C144.318 32.5052 143.812 31.9442 142.547 30.7232C141.018 29.2272 141.348 29.1832 141.205 28.9412C141.541 28.6357 141.84 28.2924 142.096 27.9182C143.405 26.0042 136.365 25.9602 136.002 25.6632C135.976 25.6452 135.946 25.6355 135.914 25.6355C135.883 25.6355 135.852 25.6452 135.826 25.6632C132.801 27.0822 127.829 28.2592 124.54 27.6212C124.505 27.6094 124.466 27.6094 124.43 27.6212C122.505 28.5782 116.642 30.7232 116.422 32.0212C116.235 33.1212 119.843 33.3082 120.976 33.3522C120.683 33.9177 120.523 34.5432 120.51 35.1802C120.496 35.8172 120.63 36.4488 120.899 37.0262C121.056 37.2738 121.24 37.5027 121.449 37.7082C122.241 38.5772 122.065 38.6652 121.526 39.7322C120.987 40.7992 120.184 42.3612 120.294 43.2302C120.368 43.5574 120.518 43.8626 120.732 44.1207C120.946 44.3788 121.218 44.5825 121.526 44.7152C122.626 45.4082 122.626 45.6502 122.153 47.0472C121.812 48.1472 121.361 49.5992 122.681 50.4022C121.581 51.7112 121.581 52.2172 121.207 53.9662C119.125 52.3538 117.409 50.3177 116.173 47.9927C114.937 45.6676 114.208 43.1065 114.035 40.4788C113.863 37.8511 114.25 35.2167 115.172 32.7499C116.093 30.2831 117.528 28.04 119.381 26.1692ZM85.6883 12.4962C97.1063 12.4962 104.828 24.6512 100.307 35.5192C97.7889 33.5181 94.9715 31.9256 91.9582 30.8002C91.7813 30.3061 91.692 29.7849 91.6942 29.2602C91.8171 29.2426 91.9319 29.189 92.0242 29.1062C96.4242 25.4432 94.0592 19.9432 92.9042 18.2932C90.7042 15.1582 86.2383 15.1472 82.7733 16.8302C82.4362 17.5297 82.1886 18.2688 82.0363 19.0302C81.9398 19.7525 82.1036 20.4855 82.4982 21.0982C83.5982 21.7472 84.2363 21.8242 86.8983 21.0322C89.5602 20.2402 88.2292 24.2002 89.4832 24.6952C90.7373 25.1902 91.1112 23.4082 91.8372 25.1462C92.3762 26.4002 90.9352 26.2462 90.8912 26.9502C90.8463 27.3412 90.8463 27.7361 90.8912 28.1272C90.7763 29.1788 90.9159 30.2427 91.2982 31.2292C89.5273 32.8132 87.3822 32.9232 85.0832 32.4722V32.3292C85.0106 31.8952 84.8204 31.4894 84.5334 31.1559C84.2464 30.8223 83.8735 30.5738 83.4553 30.4372C81.7833 29.6012 81.3322 28.9522 80.9142 23.2872C80.9475 23.3686 81.0056 23.4374 81.0803 23.4839C81.155 23.5304 81.2424 23.5521 81.3301 23.546C81.4179 23.5399 81.5015 23.5063 81.569 23.4499C81.6365 23.3936 81.6845 23.3174 81.7062 23.2322C81.8304 23.1484 81.9589 23.0713 82.0912 23.0012C82.189 22.953 82.2636 22.868 82.2987 22.7649C82.3337 22.6617 82.3264 22.5489 82.2783 22.4512C82.2301 22.3534 82.1451 22.2788 82.042 22.2437C81.9388 22.2087 81.826 22.216 81.7283 22.2642C81.3653 22.4402 80.9803 22.6712 80.9033 22.9792C80.9033 22.6162 80.8483 22.3412 80.8263 22.1432C81.1557 21.902 81.3801 21.5438 81.4533 21.1422C81.5853 20.7352 81.6402 20.7352 81.5962 20.6362C81.1232 19.7012 81.5963 18.3372 81.9593 17.3362C81.9726 17.3046 81.9757 17.2697 81.9683 17.2363C81.9609 17.2029 81.9433 17.1726 81.9179 17.1497C81.8925 17.1267 81.8607 17.1122 81.8267 17.1082C81.7927 17.1041 81.7583 17.1108 81.7283 17.1272C81.2717 17.3637 80.8436 17.6516 80.4522 17.9852C78.8682 19.4042 78.9562 21.4062 79.8142 21.9232C80.0232 22.0552 79.9793 21.7802 80.0783 23.1442C80.4963 28.8972 80.9253 30.0522 83.0812 31.1302C83.7303 31.4602 84.1812 31.6692 84.2582 32.3842C84.1541 32.4237 84.0475 32.4568 83.9392 32.4832C80.0672 33.4182 75.5462 37.6202 74.0392 40.0952C64.6452 29.7002 71.7843 12.4962 85.6883 12.4962ZM74.6002 40.8432C75.2382 39.3032 80.1003 34.3312 84.0382 33.4072C84.2128 33.3722 84.3827 33.3168 84.5443 33.2422C87.2943 33.7592 89.8572 33.7482 92.0022 31.6802C94.8664 32.8199 97.5463 34.3767 99.9552 36.3002C98.9125 38.6094 97.3232 40.6301 95.3247 42.1877C93.3262 43.7453 90.9786 44.7929 88.4846 45.2402C85.9906 45.6874 83.4253 45.5208 81.0101 44.7548C78.5949 43.9887 76.4025 42.6462 74.6222 40.8432H74.6002ZM75.0292 42.3502C85.4981 51.0001 100.021 44.8472 102.188 31.9992L113.738 34.7492C112.861 38.2814 113.252 42.7495 114.409 46.2002C114.299 46.2002 116.29 45.5732 71.2783 60.8962C70.2104 58.83 67.902 55.5922 66.3062 53.9002L75.0292 42.3502ZM29.1372 86.2622C17.1582 70.4002 28.5213 47.3552 48.5632 47.3552C52.9169 47.3703 57.1869 48.5529 60.9282 50.7795C64.6694 53.0061 67.745 56.1954 69.8346 60.0149C71.9241 63.8344 72.951 68.1445 72.8083 72.4959C72.6656 76.8472 71.3585 81.0807 69.0232 84.7552C66.6197 80.8027 63.3232 77.4685 59.3982 75.0202C60.4322 63.1292 59.2222 50.6772 47.3752 51.3922C45.4698 51.4808 43.6234 52.0813 42.0303 53.1305C40.4373 54.1796 39.1563 55.6387 38.3222 57.3542C34.3842 64.5702 35.5282 75.7132 35.9572 77.1542C35.3852 77.7152 34.7582 78.2542 34.2302 78.8152C32.3481 81.1662 30.6457 83.6556 29.1372 86.2622ZM54.5472 66.4072C54.6792 67.9692 53.4472 70.4442 51.8082 70.8072C51.5222 70.8732 51.3132 71.2472 51.4452 71.7202C50.8402 72.1272 50.4552 72.5012 49.9602 72.8202C49.0508 73.251 48.0467 73.4437 47.0424 73.3803C46.038 73.3168 45.0662 72.9991 44.2182 72.4572C44.3942 71.8412 44.2183 71.3572 43.6132 71.1922C42.0072 70.8512 39.4222 67.8262 39.7962 65.6922C40.1042 63.9102 37.3762 65.3512 38.6962 61.8642C38.9052 61.3252 40.6432 61.8092 42.3592 60.9952C44.0788 60.0099 45.6837 58.8367 47.1442 57.4972C48.1869 58.1902 49.166 58.9743 50.0702 59.8402C49.2342 59.3562 48.9702 60.4782 49.6302 60.5552L49.7622 60.6982L49.8502 60.7972C49.8835 60.8398 49.9248 60.8754 49.9718 60.9021C50.0188 60.9287 50.0706 60.9459 50.1242 60.9525C50.1778 60.9592 50.2322 60.9552 50.2843 60.9408C50.3364 60.9264 50.3851 60.9019 50.4277 60.8687C50.4704 60.8354 50.506 60.7941 50.5327 60.7471C50.5593 60.7001 50.5765 60.6483 50.5831 60.5947C50.5897 60.5411 50.5858 60.4867 50.5714 60.4346C50.557 60.3825 50.5325 60.3338 50.4992 60.2912C50.4357 60.1985 50.3659 60.1102 50.2902 60.0272C50.9392 60.5442 52.6112 61.9632 53.8322 61.6552C54.0246 61.5745 54.2323 61.537 54.4408 61.5451C54.6492 61.5532 54.8533 61.6069 55.0389 61.7022C55.2244 61.7976 55.3868 61.9324 55.5147 62.0972C55.6426 62.262 55.7329 62.4528 55.7792 62.6562C55.7792 62.7442 56.6483 65.0102 55.0642 65.6922C54.5692 65.9122 54.5142 66.0002 54.5472 66.4072ZM29.6982 87.0322C31.1306 84.2894 32.8528 81.7079 34.8352 79.3322C35.4842 78.5842 36.3642 77.9682 37.0352 77.1322C39.3562 76.0322 43.5252 73.0072 43.6352 73.0842C44.6127 73.7309 45.7427 74.1098 46.9124 74.1832C48.0822 74.2565 49.2507 74.0217 50.3012 73.5022C50.9832 73.1172 51.5112 72.5672 52.1602 72.2042C53.6012 72.9852 56.8573 74.7342 58.3422 75.2952C58.3826 75.3631 58.4393 75.4198 58.5072 75.4602C63.0282 78.0562 65.7892 81.5542 68.4072 85.5472C66.259 88.6249 63.4268 91.1628 60.1327 92.9619C56.8387 94.7609 53.1726 95.772 49.422 95.9159C45.6715 96.0598 41.9387 95.3325 38.5165 93.7911C35.0943 92.2498 32.0759 89.9362 29.6982 87.0322ZM66.3502 89.4302C69.8083 85.7579 72.6062 80.5229 73.3912 75.5401C74.1762 70.5574 73.4398 65.4537 71.2783 60.8962C116.378 45.4962 114.299 46.2772 114.409 46.2002C115.489 49.0643 117.235 51.6299 119.504 53.6844C121.773 55.7389 125.312 57.4432 128.269 58.2342L115.751 127.908L66.3502 89.4302ZM116.675 135.696C115.872 134.387 113.903 131.725 113.045 130.196C114.871 129.58 118.281 128.678 118.842 128.953C119.403 129.228 123.121 134.618 126.542 139.832C125.442 138.897 123.935 137.39 123.066 137.39C122.593 137.39 122.065 137.863 122.241 138.985C121.923 139.129 121.671 139.389 121.537 139.711C121.467 139.337 121.368 138.969 121.24 138.611C121.075 138.182 120.877 137.28 120.261 137.137C120.13 137.114 119.996 137.125 119.87 137.17C119.745 137.214 119.633 137.29 119.546 137.39C119.216 136.29 118.567 136.081 117.885 136.466C117.698 135.564 117.137 135.432 116.719 135.696H116.675ZM117.434 142.296C116.9 140.515 116.739 138.643 116.961 136.796C116.961 136.576 117.06 136.499 117.06 136.477C117.324 136.686 117.445 137.786 117.808 140.239C117.792 140.319 117.799 140.403 117.828 140.479C117.857 140.556 117.908 140.622 117.974 140.671C118.04 140.719 118.118 140.748 118.2 140.753C118.282 140.759 118.363 140.741 118.435 140.701C118.908 140.426 118.204 138.842 118.204 137.687C118.204 136.862 118.809 137.192 118.941 137.577C119.292 138.754 119.567 139.952 119.766 141.163C119.753 141.221 119.752 141.281 119.763 141.339C119.775 141.397 119.798 141.452 119.833 141.5C119.867 141.549 119.911 141.589 119.962 141.619C120.013 141.649 120.07 141.668 120.129 141.674C120.188 141.68 120.247 141.674 120.304 141.655C120.36 141.637 120.412 141.607 120.455 141.567C120.499 141.527 120.534 141.478 120.557 141.424C120.581 141.369 120.592 141.31 120.591 141.251C120.69 140.371 119.7 138.611 120.151 138.05C120.294 138.337 120.412 138.635 120.503 138.941C121.075 140.503 120.723 141.603 121.603 143.099C121.922 143.638 121.724 143.627 122.087 144.375C120.335 144.288 118.684 143.527 117.478 142.252L117.434 142.296ZM118.116 143.968C119.244 144.69 120.532 145.124 121.867 145.233C122.769 145.233 122.384 144.958 122.725 145.354C122.019 145.658 121.25 145.786 120.483 145.727C119.717 145.667 118.976 145.423 118.325 145.013C118.204 144.848 118.215 144.991 118.16 143.924L118.116 143.968ZM118.391 146.751C118.347 146.509 118.314 146.267 118.292 146.025C119.08 146.411 119.949 146.606 120.826 146.592C121.703 146.579 122.565 146.358 123.341 145.948C123.515 146.102 123.699 146.246 123.891 146.377C123.062 146.83 122.143 147.094 121.2 147.151C120.257 147.208 119.313 147.057 118.435 146.707L118.391 146.751ZM118.545 147.763C120.404 148.478 124.045 147.565 124.661 146.872C126.203 147.685 127.868 148.238 129.589 148.511C130.118 148.634 130.654 148.719 131.195 148.764C130.337 151.162 129.831 155.034 129.688 160.27C127.367 159.852 120.492 157.905 118.589 147.719L118.545 147.763ZM132.009 148.929C135.839 151.887 139.835 154.623 143.977 157.124C143.946 157.153 143.927 157.192 143.922 157.234C142.822 167.134 144.395 192.984 144.56 195.58C139.912 194.114 135.632 191.668 132.009 188.408C131.602 187.935 128.984 157.212 132.053 148.885L132.009 148.929ZM132.119 189.629C135.835 192.814 140.179 195.182 144.868 196.581V197.241C142.415 196.438 135.595 193.743 132.174 190.399C132.229 190.058 132.196 189.805 132.163 189.552L132.119 189.629ZM132.416 192.016V191.653C136.442 195.085 143.416 197.648 144.989 198.132V198.781C143.064 198.143 134.407 194.513 132.46 191.939L132.416 192.016ZM193.246 191.818C187.746 196.416 162.446 202.928 160.664 199.958C171.037 201.058 184.391 196.009 193.312 190.773L193.246 191.818ZM193.378 189.783C192.751 190.168 175.074 200.849 160.268 199.089C160.191 198.913 160.114 198.704 160.037 198.473C160.896 198.563 161.759 198.607 162.622 198.605C173.963 198.605 189.451 191.697 193.422 189.222C193.455 189.321 193.444 189.508 193.422 189.706L193.378 189.783ZM193.488 188.166C190.001 190.663 170.828 199.034 159.85 197.593C159.487 197.593 159.751 199.441 156.858 163.878C164.085 167.002 170.542 168.586 176.053 168.575C184.853 168.575 192.443 164.307 195.094 155.265C195.193 160.897 194.368 175.582 193.532 188.1L193.488 188.166ZM187.438 164.604C171.829 175.021 144.01 156.684 135.672 150.678C136.684 147.939 138.323 144.419 137.872 140.371C149.752 138.171 168.386 140.69 169.024 140.877C169.098 140.92 169.182 140.938 169.267 140.932C169.352 140.925 169.432 140.892 169.498 140.838C169.563 140.785 169.611 140.712 169.635 140.631C169.658 140.549 169.656 140.463 169.629 140.382C169.53 140.085 169.398 140.041 166.681 139.7C170.531 126.346 174.381 126.192 173.391 125.312C173.352 125.273 173.306 125.242 173.255 125.221C173.204 125.199 173.149 125.188 173.094 125.188C173.039 125.188 172.984 125.199 172.933 125.221C172.882 125.242 172.836 125.273 172.797 125.312C169.024 129.437 167.297 134.805 165.845 139.612C163.722 139.37 159.564 138.974 158.673 138.897C158.761 138.226 162.358 112.321 162.171 111.749C163.92 110.649 168.947 108.119 170.795 107.855C171.862 107.812 172.931 107.904 173.974 108.13C173.997 108.18 174.029 108.225 174.069 108.262C174.109 108.299 174.156 108.327 174.207 108.346C174.259 108.364 174.313 108.372 174.368 108.369C174.422 108.366 174.475 108.352 174.524 108.328C176.405 108.68 194.159 116.765 195.424 133.694C196.678 151.679 194.61 159.775 187.482 164.527L187.438 164.604Z" fill="#2A344A"/>
<path d="M145.404 93.6763C146.504 93.6763 146.185 91.2123 145.096 91.1683C144.007 91.1243 144.315 93.6323 145.404 93.6763ZM138.595 92.5983C137.495 92.5983 137.803 95.0623 138.903 95.0953C140.003 95.1283 139.695 92.6423 138.595 92.5983ZM126.803 33.9793C126.187 34.0673 126.418 35.6513 127.034 35.5633C127.65 35.4753 127.419 33.8803 126.803 33.9793ZM130.972 34.8373C131.588 34.8373 131.5 33.1763 130.851 33.2423C130.202 33.3083 130.378 34.8373 130.972 34.8373ZM182.287 48.2793C182.232 47.1793 181.297 47.2563 181.352 48.2793C181.407 49.3023 182.342 49.3683 182.287 48.2793ZM177.458 48.1693C177.293 48.6313 177.458 49.4563 177.92 49.4563C178.382 49.4563 178.349 48.7303 178.338 48.6093C178.261 47.7843 177.656 47.6303 177.458 48.1693ZM85.2777 24.3103C85.2777 25.4103 86.3777 25.4103 86.3777 24.3103C86.3777 23.2103 85.2777 23.1993 85.2777 24.3103ZM50.4847 61.9523C49.7587 61.9523 49.7587 63.6243 50.4847 63.6243C51.2107 63.6243 51.1997 61.9523 50.4847 61.9523ZM45.0947 62.7553C45.0947 61.6553 43.9947 61.6553 43.9947 62.7553C43.9947 63.8553 45.0947 63.8663 45.0947 62.7553ZM81.9337 23.8263C81.2077 23.8263 81.2187 25.4983 81.9337 25.4983C82.6487 25.4983 82.6817 23.8263 81.9337 23.8263ZM177.095 47.3003C177.095 47.3003 177.172 47.1683 177.568 46.9703C177.625 46.9514 177.677 46.9204 177.721 46.8794C177.766 46.8384 177.8 46.7884 177.823 46.7327C177.846 46.6771 177.857 46.6171 177.854 46.5569C177.852 46.4968 177.837 46.4378 177.81 46.3841C177.782 46.3304 177.744 46.2832 177.697 46.2458C177.649 46.2084 177.595 46.1816 177.536 46.1673C177.478 46.153 177.417 46.1514 177.358 46.1628C177.299 46.1742 177.243 46.1982 177.194 46.2333C175.302 47.1903 176.798 48.0813 177.095 47.3003ZM181.55 46.7063C182.1 46.7063 182.045 47.1133 182.43 47.1133C182.513 47.1138 182.594 47.0896 182.663 47.0437C182.733 46.9978 182.787 46.9324 182.819 46.8556C182.85 46.7789 182.859 46.6944 182.842 46.6129C182.826 46.5315 182.786 46.4567 182.727 46.3983C182.587 46.2221 182.408 46.0822 182.203 45.9903C181.998 45.8984 181.774 45.8572 181.55 45.8703C181.439 45.8703 181.332 45.9143 181.254 45.9927C181.176 46.0711 181.132 46.1774 181.132 46.2883C181.132 46.3991 181.176 46.5054 181.254 46.5838C181.332 46.6622 181.439 46.7063 181.55 46.7063ZM179.097 48.7963C179.097 50.4683 178.866 51.6893 180.527 51.1283C180.602 51.0963 180.667 51.0427 180.712 50.9742C180.758 50.9057 180.782 50.8254 180.782 50.7433C180.782 50.6611 180.758 50.5808 180.712 50.5123C180.667 50.4438 180.602 50.3903 180.527 50.3583C180.307 50.2483 180.164 50.3583 179.889 50.4243V48.4773C179.92 48.4016 179.931 48.3188 179.919 48.2377C179.907 48.1566 179.873 48.0803 179.821 48.0169C179.769 47.9536 179.701 47.9056 179.624 47.8782C179.546 47.8508 179.463 47.8449 179.383 47.8613C179.119 47.9383 179.086 48.1033 179.097 48.7963ZM180.626 52.2283C180.605 52.291 180.599 52.3579 180.609 52.4233C180.619 52.4887 180.644 52.5508 180.683 52.6045C180.722 52.6582 180.773 52.7019 180.831 52.7322C180.89 52.7624 180.956 52.7782 181.022 52.7783C181.154 52.7783 181.187 52.7783 181.451 52.6243C181.992 52.4275 182.439 52.035 182.705 51.5243C182.753 51.4265 182.76 51.3137 182.725 51.2105C182.69 51.1074 182.615 51.0224 182.518 50.9743C182.42 50.9261 182.307 50.9188 182.204 50.9539C182.101 50.9889 182.016 51.0635 181.968 51.1613C181.572 51.9313 180.769 51.7883 180.626 52.2283ZM129.861 37.8623C129.97 37.8623 130.075 37.8188 130.152 37.7414C130.23 37.6641 130.273 37.5592 130.273 37.4498C130.273 37.3404 130.23 37.2354 130.152 37.1581C130.075 37.0807 129.97 37.0373 129.861 37.0373C129.476 37.0373 128.948 37.2243 128.761 37.2023C128.596 36.6413 128.761 34.2873 128.618 33.8363C128.604 33.7828 128.58 33.7326 128.547 33.6885C128.514 33.6443 128.472 33.6072 128.425 33.5791C128.377 33.551 128.325 33.5325 128.27 33.5248C128.215 33.517 128.16 33.52 128.106 33.5338C128.053 33.5475 128.003 33.5716 127.958 33.6047C127.914 33.6379 127.877 33.6794 127.849 33.7269C127.821 33.7744 127.802 33.8269 127.795 33.8816C127.787 33.9362 127.79 33.9918 127.804 34.0453C127.827 34.4116 127.827 34.779 127.804 35.1453C127.804 37.3453 127.628 38.3793 129.432 37.9723C129.569 37.9169 129.713 37.8799 129.861 37.8623ZM131.566 37.8183C131.346 37.8183 131.203 37.9063 130.906 38.1373C129.531 39.1713 129.751 38.3463 129.234 38.3463C129.151 38.3457 129.069 38.3699 129 38.4158C128.931 38.4617 128.877 38.5272 128.845 38.6039C128.813 38.6806 128.805 38.7651 128.821 38.8466C128.837 38.9281 128.878 39.0028 128.937 39.0613C129.718 39.8423 130.543 39.4573 131.412 38.7973C131.698 38.5883 131.852 38.5333 131.896 38.3133C131.915 38.2041 131.892 38.0916 131.83 37.9993C131.769 37.907 131.674 37.8421 131.566 37.8183ZM85.6297 22.7043C85.9091 22.6945 86.1872 22.7471 86.4437 22.8583C86.5354 22.9086 86.6427 22.9226 86.7443 22.8977C86.8459 22.8728 86.9345 22.8107 86.9925 22.7236C87.0505 22.6366 87.0738 22.5309 87.0577 22.4276C87.0417 22.3242 86.9874 22.2306 86.9057 22.1653C86.5638 21.9819 86.1827 21.8837 85.7947 21.8793C85.6853 21.8574 85.5717 21.8799 85.4789 21.9417C85.4329 21.9724 85.3934 22.0118 85.3627 22.0577C85.3319 22.1036 85.3105 22.1551 85.2997 22.2093C85.2889 22.2634 85.2888 22.3192 85.2995 22.3734C85.3102 22.4276 85.3315 22.4791 85.3622 22.5251C85.4241 22.6179 85.5203 22.6824 85.6297 22.7043ZM83.7817 28.3143C83.6277 28.6883 84.2217 29.5023 84.9477 29.5023C86.1467 29.5023 87.1477 27.4673 86.0477 26.9613C85.6957 26.7853 85.3987 27.0933 84.9477 27.5553C84.4967 28.0173 83.9357 27.8743 83.7817 28.3143ZM44.2807 60.8523C44.4627 60.7218 44.6581 60.6111 44.8637 60.5223C45.3147 60.2913 45.0617 59.4993 44.4017 59.8293C42.4437 60.7973 44.0937 61.6663 44.2807 60.8523ZM47.8667 65.4063C47.7457 65.4063 47.5257 65.4063 47.3277 65.3403C47.3277 64.7023 47.7457 62.2603 47.7897 61.9413C47.7906 61.8384 47.7536 61.7388 47.6857 61.6615C47.6177 61.5842 47.5237 61.5347 47.4215 61.5224C47.3194 61.5102 47.2163 61.536 47.132 61.595C47.0477 61.654 46.9881 61.7421 46.9647 61.8423C46.8547 62.7773 46.2827 65.4283 46.6127 65.8463C46.9427 66.2643 47.4267 66.1763 47.7127 66.2313C47.8221 66.2517 47.9351 66.2278 48.0269 66.1649C48.1187 66.102 48.1818 66.0052 48.2022 65.8958C48.2226 65.7864 48.1987 65.6733 48.1358 65.5815C48.0729 65.4897 47.9761 65.4267 47.8667 65.4063ZM46.7337 67.7713C45.2487 67.4303 45.6337 67.0233 45.2927 66.8363C45.2181 66.8012 45.1349 66.7891 45.0534 66.8012C44.9719 66.8133 44.8959 66.8493 44.8348 66.9045C44.7736 66.9598 44.7302 67.0318 44.7099 67.1117C44.6896 67.1915 44.6934 67.2755 44.7207 67.3533C44.8984 67.6944 45.1585 67.9858 45.4774 68.2009C45.7963 68.4161 46.1638 68.5482 46.5467 68.5853C46.6526 68.6048 46.762 68.5826 46.852 68.5235C46.942 68.4643 47.0057 68.3727 47.0298 68.2678C47.0539 68.1628 47.0366 68.0526 46.9814 67.9601C46.9263 67.8676 46.8375 67.7999 46.7337 67.7713ZM144.766 88.5063C145.217 88.7373 145.767 88.7813 146.119 88.9683C146.215 89.0064 146.322 89.0075 146.418 88.9715C146.515 88.9355 146.595 88.8649 146.643 88.7733C146.691 88.6816 146.703 88.5755 146.678 88.4754C146.652 88.3754 146.59 88.2884 146.504 88.2313C146.042 87.9893 145.492 87.9453 145.151 87.7693C145.055 87.7311 144.948 87.73 144.851 87.766C144.754 87.802 144.674 87.8727 144.626 87.9643C144.578 88.0559 144.566 88.162 144.592 88.2621C144.618 88.3622 144.68 88.4492 144.766 88.5063ZM144.095 99.0003C144.193 98.9842 144.281 98.9339 144.346 98.8584C144.41 98.7828 144.445 98.6869 144.445 98.5878C144.445 98.4886 144.41 98.3927 144.346 98.3171C144.281 98.2416 144.193 98.1913 144.095 98.1753C143.514 98.2192 142.93 98.1444 142.379 97.9553C142.115 97.4053 141.862 92.4553 141.653 91.2013C141.646 91.1449 141.629 91.0904 141.601 91.0408C141.574 90.9913 141.536 90.9476 141.492 90.9124C141.448 90.8772 141.397 90.851 141.342 90.8355C141.288 90.8199 141.231 90.8153 141.174 90.8218C141.118 90.8283 141.063 90.8458 141.014 90.8734C140.964 90.9009 140.921 90.938 140.885 90.9824C140.85 91.0268 140.824 91.0778 140.808 91.1323C140.793 91.1869 140.788 91.2439 140.795 91.3003C141.114 93.2253 141.136 98.0873 141.796 98.5603C142.509 98.9082 143.303 99.0601 144.095 99.0003ZM145.822 101.2C146.658 101.2 148.869 99.0003 149.122 97.3833C149.139 97.2753 149.113 97.1648 149.049 97.0761C148.985 96.9874 148.889 96.9278 148.781 96.9103C148.673 96.8928 148.562 96.9189 148.474 96.9828C148.385 97.0468 148.325 97.1433 148.308 97.2513C147.888 98.5942 146.955 99.717 145.712 100.375C145.61 100.399 145.521 100.459 145.462 100.545C145.403 100.63 145.378 100.735 145.391 100.838C145.405 100.941 145.457 101.035 145.536 101.102C145.616 101.169 145.718 101.204 145.822 101.2ZM154.083 115.038C154.347 115.038 154.688 114.73 156.052 113.509C156.999 112.533 158.094 111.713 159.297 111.078C162.773 109.032 168.57 105.578 167.635 102.19C167.598 102.093 167.526 102.012 167.434 101.964C167.341 101.917 167.233 101.906 167.133 101.933C167.032 101.961 166.945 102.025 166.89 102.113C166.834 102.202 166.813 102.308 166.832 102.41C167.712 105.622 160.232 109.461 157.614 111.111C157.009 111.485 154.182 114.103 153.94 114.224C153.845 114.256 153.765 114.321 153.714 114.407C153.663 114.493 153.644 114.594 153.661 114.693C153.679 114.791 153.731 114.88 153.808 114.944C153.885 115.007 153.983 115.041 154.083 115.038ZM151.795 114.543C151.82 114.622 151.867 114.692 151.932 114.744C151.997 114.795 152.075 114.827 152.158 114.834C152.24 114.841 152.323 114.823 152.395 114.783C152.468 114.743 152.527 114.683 152.565 114.609C153.247 113.278 145.8 111.98 146.966 109.197C146.998 109.097 146.992 108.989 146.948 108.893C146.904 108.797 146.825 108.722 146.728 108.682C146.631 108.641 146.522 108.639 146.423 108.676C146.325 108.712 146.243 108.784 146.196 108.878C144.755 112.2 151.3 113.894 151.795 114.543ZM135.581 24.8823C133.722 23.3643 131.577 22.0223 129.124 22.5283C128.063 22.7599 127.082 23.2688 126.282 24.0031C125.482 24.7375 124.891 25.671 124.57 26.7083C124.566 26.7472 124.576 26.7862 124.598 26.8185C124.62 26.8507 124.653 26.874 124.691 26.8843C127.892 27.8413 135.592 25.3663 135.691 25.0253C135.687 24.9937 135.675 24.9638 135.655 24.9386C135.636 24.9134 135.61 24.894 135.581 24.8823ZM116.705 130.218C116.583 130.205 116.46 130.217 116.343 130.254C116.227 130.291 116.119 130.352 116.028 130.434C115.937 130.515 115.864 130.615 115.814 130.727C115.764 130.838 115.738 130.959 115.738 131.082C115.738 131.204 115.764 131.325 115.814 131.437C115.864 131.548 115.937 131.648 116.028 131.73C116.119 131.811 116.227 131.873 116.343 131.91C116.46 131.947 116.583 131.959 116.705 131.945C116.826 131.959 116.949 131.947 117.066 131.91C117.183 131.873 117.29 131.811 117.381 131.73C117.472 131.648 117.546 131.548 117.595 131.437C117.645 131.325 117.671 131.204 117.671 131.082C117.671 130.959 117.645 130.838 117.595 130.727C117.546 130.615 117.472 130.515 117.381 130.434C117.29 130.352 117.183 130.291 117.066 130.254C116.949 130.217 116.826 130.205 116.705 130.218ZM153.632 83.9523C153.486 83.9523 153.346 84.0102 153.243 84.1134C153.14 84.2165 153.082 84.3564 153.082 84.5023C153.082 84.6481 153.14 84.788 153.243 84.8912C153.346 84.9943 153.486 85.0523 153.632 85.0523C153.778 85.0523 153.917 84.9943 154.021 84.8912C154.124 84.788 154.182 84.6481 154.182 84.5023C154.182 84.3564 154.124 84.2165 154.021 84.1134C153.917 84.0102 153.778 83.9523 153.632 83.9523ZM158.186 86.3833C158.04 86.3833 157.9 86.4412 157.797 86.5443C157.694 86.6475 157.636 86.7874 157.636 86.9333C157.636 87.0791 157.694 87.219 157.797 87.3222C157.9 87.4253 158.04 87.4833 158.186 87.4833C158.332 87.4833 158.471 87.4253 158.575 87.3222C158.678 87.219 158.736 87.0791 158.736 86.9333C158.736 86.7874 158.678 86.6475 158.575 86.5443C158.471 86.4412 158.332 86.3833 158.186 86.3833ZM158.505 80.9823C158.651 80.9823 158.79 80.9243 158.894 80.8212C158.997 80.718 159.055 80.5781 159.055 80.4323C159.055 80.2864 158.997 80.1465 158.894 80.0434C158.79 79.9402 158.651 79.8823 158.505 79.8823C158.359 79.8823 158.219 79.9402 158.116 80.0434C158.013 80.1465 157.955 80.2864 157.955 80.4323C157.955 80.5781 158.013 80.718 158.116 80.8212C158.219 80.9243 158.359 80.9823 158.505 80.9823ZM160.067 90.7833C160.213 90.7833 160.352 90.7253 160.456 90.6222C160.559 90.519 160.617 90.3791 160.617 90.2333C160.617 90.0874 160.559 89.9475 160.456 89.8443C160.352 89.7412 160.213 89.6833 160.067 89.6833C159.921 89.6833 159.781 89.7412 159.678 89.8443C159.575 89.9475 159.517 90.0874 159.517 90.2333C159.517 90.3791 159.575 90.519 159.678 90.6222C159.781 90.7253 159.921 90.7833 160.067 90.7833ZM156.976 82.3683C156.83 82.3683 156.69 82.4262 156.587 82.5294C156.484 82.6325 156.426 82.7724 156.426 82.9183C156.426 83.0641 156.484 83.204 156.587 83.3072C156.69 83.4103 156.83 83.4683 156.976 83.4683C157.122 83.4683 157.261 83.4103 157.365 83.3072C157.468 83.204 157.526 83.0641 157.526 82.9183C157.526 82.7724 157.468 82.6325 157.365 82.5294C157.261 82.4262 157.122 82.3683 156.976 82.3683ZM154.776 86.7353C154.63 86.7353 154.49 86.7932 154.387 86.8963C154.284 86.9995 154.226 87.1394 154.226 87.2853C154.226 87.4311 154.284 87.571 154.387 87.6742C154.49 87.7773 154.63 87.8353 154.776 87.8353C154.922 87.8353 155.061 87.7773 155.165 87.6742C155.268 87.571 155.326 87.4311 155.326 87.2853C155.326 87.1394 155.268 86.9995 155.165 86.8963C155.061 86.7932 154.922 86.7353 154.776 86.7353ZM155.887 88.5503C155.741 88.5503 155.601 88.6082 155.498 88.7113C155.395 88.8145 155.337 88.9544 155.337 89.1003C155.337 89.2461 155.395 89.386 155.498 89.4892C155.601 89.5923 155.741 89.6503 155.887 89.6503C156.033 89.6503 156.172 89.5923 156.276 89.4892C156.379 89.386 156.437 89.2461 156.437 89.1003C156.437 88.9544 156.379 88.8145 156.276 88.7113C156.172 88.6082 156.033 88.5503 155.887 88.5503ZM83.2207 26.4883C83.3571 26.5627 83.5134 26.5921 83.6675 26.5724C83.8216 26.5526 83.9655 26.4847 84.0787 26.3783C84.1721 26.3185 84.2378 26.224 84.2616 26.1157C84.2853 26.0074 84.265 25.8941 84.2052 25.8008C84.1454 25.7074 84.0509 25.6416 83.9426 25.6179C83.8343 25.5942 83.7211 25.6145 83.6277 25.6743C83.521 24.7799 83.5544 23.8744 83.7267 22.9903C83.7307 22.8863 83.6958 22.7845 83.6287 22.7049C83.5617 22.6254 83.4674 22.5736 83.3643 22.5599C83.2611 22.5461 83.1565 22.5713 83.071 22.6306C82.9854 22.6898 82.9251 22.7789 82.9017 22.8803C82.4947 26.0483 82.9787 26.4003 83.2207 26.4883Z" fill="#2A344A"/>
<rect y="184" width="36" height="36" rx="18" fill="#4E6AF3"/>
<path d="M22.3857 206.664V208H14.0098V206.831L18.2021 202.164C18.7178 201.59 19.1162 201.104 19.3975 200.705C19.6846 200.301 19.8838 199.94 19.9951 199.624C20.1123 199.302 20.1709 198.974 20.1709 198.64C20.1709 198.218 20.083 197.837 19.9072 197.497C19.7373 197.151 19.4854 196.876 19.1514 196.671C18.8174 196.466 18.4131 196.363 17.9385 196.363C17.3701 196.363 16.8955 196.475 16.5146 196.697C16.1396 196.914 15.8584 197.219 15.6709 197.611C15.4834 198.004 15.3896 198.455 15.3896 198.965H13.7637C13.7637 198.244 13.9219 197.585 14.2383 196.987C14.5547 196.39 15.0234 195.915 15.6445 195.563C16.2656 195.206 17.0303 195.027 17.9385 195.027C18.7471 195.027 19.4385 195.171 20.0127 195.458C20.5869 195.739 21.0264 196.138 21.3311 196.653C21.6416 197.163 21.7969 197.761 21.7969 198.446C21.7969 198.821 21.7324 199.202 21.6035 199.589C21.4805 199.97 21.3076 200.351 21.085 200.731C20.8682 201.112 20.6133 201.487 20.3203 201.856C20.0332 202.226 19.7256 202.589 19.3975 202.946L15.9697 206.664H22.3857Z" fill="white"/>
</svg>
