<svg width="220" height="220" viewBox="0 0 220 220" fill="none" xmlns="http://www.w3.org/2000/svg">
<path d="M156.431 49.9227C156.596 49.9227 156.761 49.8677 156.816 49.7027C157.146 49.2077 157.146 47.9977 156.486 47.9977C155.881 47.9977 155.826 49.8127 156.431 49.9227ZM160.061 53.2227C160.171 53.0027 160.061 52.7827 159.841 52.7277L158.906 52.6727C159.071 51.4627 159.456 48.5477 159.456 47.6677C159.456 47.5577 159.401 47.3927 159.236 47.3927C159.071 47.3377 158.906 47.3927 158.851 47.5577C158.741 47.8877 157.751 52.7277 158.136 53.2227C158.411 53.6077 159.511 53.5527 159.896 53.4427C159.951 53.3877 160.006 53.3327 160.061 53.2227ZM157.806 45.7977C157.971 44.9177 156.266 45.0827 155.551 45.5777C154.561 46.2377 155.221 46.8427 155.606 46.5127C156.046 46.1277 156.651 46.0177 157.256 46.1277C157.531 46.2377 157.751 46.0727 157.806 45.7977Z" fill="#2A344A"/>
<path d="M175.074 63.3972C175.734 63.2496 172.819 56.9622 174.194 55.5872C178.869 51.6822 180.794 44.4772 180.794 41.3422C184.039 41.3422 184.094 36.6672 182.004 35.5122C185.304 33.8622 183.049 28.8022 178.814 30.7822C179.199 27.2072 174.799 26.1622 172.104 28.5822C171.224 24.6222 164.789 23.5222 161.819 26.7122C162.314 23.4122 155.714 21.2122 154.284 25.3922C151.754 21.5972 143.449 22.5322 144.219 29.0222C138.719 30.5622 141.524 39.1422 145.869 37.8222C145.209 41.6722 150.544 43.5972 153.734 41.6172C153.074 46.7322 152.008 59.9996 158.508 63.9996M177.439 39.9122C178.099 40.6272 178.979 41.1222 179.969 41.2872C179.144 46.5672 178.044 50.3072 174.414 54.2122C174.744 52.7272 175.349 51.2972 176.229 50.0322C177.439 47.9422 177.384 46.3472 176.119 45.5222C174.194 44.2572 172.159 46.4022 171.829 46.7322C171.444 46.7322 170.949 46.2372 170.619 45.7972C169.794 44.5322 169.519 42.5522 169.794 39.8022C171.719 41.8922 175.789 42.3872 177.439 39.9122ZM175.074 63.3972L158.508 63.9996C159.008 62.9996 151.508 60.9996 154.669 41.1772C156.154 43.4322 161.929 42.8272 162.094 40.0772C164.019 41.8922 166.989 41.8922 168.914 40.0772C168.749 41.5622 168.639 44.5322 169.904 46.2922C170.399 47.0072 171.444 47.7772 172.049 47.2272C173.149 46.2922 174.304 45.3572 175.569 46.1272C176.504 46.7322 176.009 48.4922 175.404 49.4272C174.139 51.7372 173.644 51.5722 173.204 54.7072C172.709 58.3372 175.074 63.3972 175.074 63.3972Z" fill="#2A344A"/>
<path d="M166 44.2017C165.395 43.2117 164.35 42.6067 163.25 42.4417C162.59 42.3317 162.535 43.3767 163.25 43.3767C164.13 43.4317 164.955 43.8717 165.45 44.5867C165.725 45.0267 166.275 44.6417 166 44.2017ZM162.48 48.6567C162.535 48.9317 162.755 49.1517 163.03 49.1517C163.635 49.1517 163.635 47.5567 163.25 47.2817C162.81 47.0067 162.26 47.8317 162.48 48.6567ZM161.655 57.0167C161.49 57.0167 161.325 57.0717 161.27 57.2367C161.215 57.4017 161.27 57.6217 161.49 57.6767C162.7 58.1167 164.075 57.5117 164.625 56.3567C165.01 55.5317 164.845 55.1467 164.735 54.9817C164.68 54.8717 164.57 54.8167 164.515 54.7617C164.295 54.7067 164.13 54.8167 164.075 55.0367C163.8 56.4667 163.03 57.2917 161.655 57.0167Z" fill="#2A344A"/>
<path d="M67.1015 51.3708C65.4515 52.3608 63.1965 51.3708 61.7665 50.1608C61.6015 49.9958 61.3265 49.9958 61.1065 50.1608C61.0515 50.2708 60.9965 50.3808 60.9965 50.4908C61.1615 51.8658 61.9865 53.0758 63.1965 53.6808C63.3065 53.7358 63.4715 53.6808 63.5265 53.5158C63.5815 53.4058 63.5265 53.2958 63.4715 53.2408C62.8665 52.8008 62.4265 52.1958 62.2065 51.5358C63.3615 52.3058 65.6165 53.4058 67.3765 51.7008C67.4865 51.6458 67.4865 51.4808 67.4315 51.3708C67.3765 51.2608 67.2115 51.2608 67.1015 51.3708ZM68.0365 47.1358C67.9265 47.1908 67.8715 47.3558 67.9265 47.4658C67.9815 47.5758 68.0365 47.6308 68.1465 47.6308C69.0265 47.6308 69.7415 46.9158 69.7415 46.0358C69.7415 45.8708 69.6865 45.7058 69.6315 45.5408C69.3015 44.7708 68.5315 44.8808 68.3665 43.1758C68.3665 43.0658 68.2565 42.9558 68.1465 42.9558C68.0365 42.9558 67.9265 43.0658 67.9265 43.1758C67.9265 43.5608 67.9265 44.0008 67.9265 44.3858C68.0915 45.3758 68.9165 45.5408 68.7515 46.2558C68.6965 46.6408 68.4215 46.9708 68.0365 47.1358ZM62.7015 41.4708C62.8665 42.8458 62.3715 43.7808 62.7565 44.2208C63.0315 44.5508 63.5265 44.5508 63.8015 44.2758C63.9665 44.1108 64.0765 43.9458 64.0765 43.7258C64.0765 42.9008 63.9665 42.0758 63.7465 41.3058C63.6365 41.0308 63.3065 40.8658 62.9765 40.9758C62.8665 41.0858 62.7015 41.2508 62.7015 41.4708ZM71.8315 40.8108C71.7215 40.5358 71.3915 40.3708 71.0615 40.4808C70.8415 40.5358 70.7315 40.7558 70.7315 40.9758C70.7865 41.6908 70.7315 42.4608 70.6215 43.1758C70.6215 43.5608 70.8965 43.9458 71.3365 43.9458H71.3915C72.4915 44.0008 72.1065 42.4058 71.8315 40.8108ZM62.9765 38.1708C63.1965 38.1158 63.3615 37.8958 63.3065 37.6208C63.2515 37.4008 63.0865 37.2908 62.9215 37.2908C61.6015 37.1808 60.7215 38.6658 60.5565 39.2158C60.4465 39.4908 60.8865 39.6558 61.0515 39.3808C61.4365 38.7208 62.2065 38.2258 62.9765 38.1708ZM70.0715 37.9508C71.7215 37.9508 71.7765 38.6108 72.0515 38.6108C72.1615 38.6108 72.2715 38.5008 72.3265 38.3908C72.3265 38.3358 72.3265 38.2808 72.2715 38.2258V38.1708C72.1065 37.8408 71.6665 36.9058 69.9615 37.1808C69.5215 37.2358 69.5765 37.9508 70.0715 37.9508ZM68.4765 72.6008C68.9165 72.6008 69.2465 72.2708 69.2465 71.8308C69.2465 71.3908 68.9165 71.0608 68.4765 71.0608C68.0365 71.0608 67.7065 71.3908 67.7065 71.8308C67.7065 72.2708 68.0365 72.6008 68.4765 72.6008ZM68.6965 76.0658C68.7515 76.5058 69.1915 76.8358 69.6315 76.7808C70.0165 76.7258 70.3465 76.4508 70.3465 76.0658C70.2915 75.6258 69.8515 75.2958 69.4115 75.3508C69.0265 75.3508 68.6965 75.6808 68.6965 76.0658Z" fill="#2A344A"/>
<path fill-rule="evenodd" clip-rule="evenodd" d="M103.288 39.6555C101.968 39.7655 100.648 39.4905 99.4931 38.7755C98.2831 37.8405 97.5131 36.4655 97.2931 35.0355C96.9631 33.4405 96.8531 22.8255 96.9631 21.8355C97.1831 18.8655 98.5581 17.3255 101.363 17.1055C101.858 17.0505 122.538 16.6105 122.868 16.6105C126.223 16.5005 127.708 19.3605 127.708 22.7155C127.714 23.9416 127.721 25.065 127.727 26.0948C127.777 34.5352 127.789 36.6951 127.103 37.6755C126.24 38.9022 122.9 38.7778 120.741 38.6974C120.286 38.6805 119.884 38.6655 119.568 38.6655C119.568 40.2131 120.16 40.8145 120.552 41.2131C120.814 41.4803 120.988 41.6565 120.833 41.9655C120.723 42.1855 120.503 42.2955 120.228 42.2405C119.927 42.1544 118.639 41.7226 117.167 41.2291C114.879 40.4619 112.145 39.5455 111.978 39.5455C111.861 39.5455 110.349 39.5656 108.617 39.5885C106.293 39.6194 103.572 39.6555 103.288 39.6555ZM110.603 34.3205C110.768 34.5405 111.098 34.5405 111.318 34.3755C111.339 34.3545 111.352 34.3335 111.363 34.3155C111.381 34.2865 111.394 34.2655 111.428 34.2655C113.793 30.1405 116.488 26.1255 119.458 22.3855C119.568 22.2755 119.513 22.1105 119.403 22.0005C119.293 21.9455 119.183 21.9455 119.073 22.0005C115.773 25.2455 112.968 28.9855 110.878 33.1105C109.338 31.2955 107.633 29.6455 105.818 28.1055C105.268 27.7205 104.938 28.0505 105.103 28.6005L105.103 28.6005C105.213 28.7107 109.778 33.2755 110.603 34.3205Z" fill="#4E6AF3"/>
<path d="M71.4812 191.288C69.9412 190.188 63.5062 184.688 62.6262 183.973L62.6249 183.973L62.4062 184.743C63.1212 185.403 71.0412 191.783 71.3712 191.783C71.5362 191.783 71.5912 191.618 71.5912 191.508C71.5362 191.398 71.5362 191.343 71.4812 191.288Z" fill="#2A344A"/>
<path d="M77.7701 187.715C76.0651 186.45 65.8901 178.035 64.8451 177.375C64.6801 177.265 64.4601 177.265 64.3501 177.43C64.2401 177.595 64.2401 177.815 64.4051 177.925C65.0101 178.64 77.3851 188.155 77.6051 188.155C77.7701 188.155 77.8251 188.045 77.8251 187.88C77.8801 187.825 77.8251 187.715 77.7701 187.715ZM81.0701 182.05C79.4751 180.895 71.5001 173.8 70.7301 173.25C70.3451 172.975 69.9601 173.525 70.2351 173.8C71.0051 174.79 80.6851 182.435 80.9051 182.435C81.0151 182.435 81.1251 182.27 81.1251 182.16C81.1251 182.16 81.0701 182.105 81.0701 182.05ZM74.0301 169.51C73.6451 169.18 73.1501 169.84 73.4801 170.17C74.5801 171.16 81.9501 177.32 82.6101 177.32C82.7201 177.32 82.8851 177.21 82.8851 177.1C82.8851 176.99 82.8301 176.88 82.7201 176.88C81.9501 176.385 75.4601 170.61 74.0301 169.51Z" fill="#2A344A"/>
<path d="M146.74 164.12C146.135 163.68 145.585 164.01 145.09 164.285C142.67 165.66 140.36 167.31 138.325 169.18C136.785 161.48 135.685 156.2 135.63 155.98C135.3 155.155 134.365 155.43 133.705 155.485L131.56 155.76V154.22C131.615 154 131.505 153.78 131.285 153.67C131.23 153.67 131.175 153.67 131.12 153.67C127.985 153.725 102.08 153.835 102.08 153.835C101.75 153.835 96.58 170.06 93.885 178.42C92.73 176.44 91.245 174.625 89.595 173.085L92.62 164.395C92.785 164.78 92.785 165.22 92.6751 165.605C92.5651 166.32 91.3551 171.38 91.1901 172.04C91.1901 172.15 91.2451 172.26 91.3551 172.26C91.4651 172.26 91.5201 172.26 91.5751 172.15C92.3451 169.785 92.9501 167.42 93.5 165C93.5 164.45 93.225 163.955 92.785 163.68C92.8951 163.24 92.9501 162.745 92.9501 162.305C92.9501 161.7 93.0601 160.985 92.4551 160.545C90.7501 159.445 89.43 162.195 89.595 162.25C89.32 162.855 87.89 166.375 86.295 170.39C84.095 168.795 76.285 163.735 75.735 163.57C75.46 163.515 45.5951 181.005 45.3751 181.17C44.8801 181.665 45.3751 182.325 45.6501 182.765C46.7501 184.305 64.4051 197.67 66.5501 199.045C66.9351 199.375 67.43 199.595 67.9251 199.65C68.805 199.65 84.6451 191.62 91.0251 187.22C89.32 192.5 88.715 194.425 88.5501 195.14C88.3851 195.855 88.9351 195.855 89.1551 195.69C89.3751 195.525 91.2451 195.69 93.7751 195.69C94.3251 198.605 93.83 199.595 94.16 199.925C94.4901 200.255 134.145 199.045 142.065 197.78C149.545 203.94 148.94 203.995 150.425 202.95C151.25 202.345 166.815 189.42 168.575 187.825C168.685 187.77 168.685 187.66 168.685 187.495C168.795 187 147.125 164.45 146.74 164.12ZM90.145 162.8C90.695 162.965 91.2451 163.24 91.7401 163.57C91.9051 163.735 91.8501 163.845 91.7401 164.175C91.7401 164.175 84.975 183.7 84.535 185.075C83.545 184.855 82.6101 184.525 81.7301 184.085C87.5601 169.565 89.32 164.725 90.145 162.8ZM84.535 185.79C84.7551 188.375 84.15 187.715 82.17 190.19C82.335 189.585 82.61 188.815 82.72 188.43C83.38 188.43 83.9301 187.935 83.9301 187.275C83.9301 186.615 83.4351 186.065 82.7751 186.065C82.1151 186.065 81.5651 186.56 81.5651 187.22C81.5651 187.605 81.73 187.99 82.0601 188.21C81.9501 188.65 81.6201 189.695 81.4001 190.465C80.7951 188.155 79.42 187.99 81.62 184.855C82.5 185.295 83.49 185.625 84.535 185.79ZM81.0151 184.47C78.3201 188.265 80.6301 188.65 80.8501 192.005C80.8501 192.115 80.905 192.225 80.96 192.28C76.56 194.645 72.9851 196.405 68.475 198.66C68.2001 198.825 67.9801 198.88 67.8151 198.77C60.2801 193.6 53.0751 187.935 46.2001 181.83C46.2001 181.72 46.2 181.72 46.255 181.665L75.735 164.285C76.065 164.505 84.7551 170.06 86.0751 170.995C80.41 185.35 80.7951 184.195 81.0151 184.47ZM84.26 188.925C85.14 188.045 85.47 186.835 85.195 185.625C85.58 184.58 87.505 179.19 89.32 174.02C91.025 175.56 92.4551 177.375 93.6651 179.355C92.8951 181.72 92.18 183.975 91.52 186.01C88.385 188.155 85.0851 190.135 81.7301 191.895C82.4451 190.85 83.3251 189.86 84.26 188.925ZM92.1801 162.965C91.5751 162.635 90.9701 162.305 90.3651 162.085C90.6951 161.315 91.4651 160.545 92.1801 161.04C92.5101 161.425 92.2901 162.36 92.1801 162.965ZM132.66 194.59C132.88 194.645 133.1 194.535 133.155 194.37C133.155 194.315 133.155 194.26 133.155 194.205C132.825 189.695 131.835 164.835 131.56 156.695C134.805 156.31 134.695 156.255 134.75 156.42C134.805 156.585 142.45 195.085 142.89 196.9C139.7 197.34 99 199.375 94.875 199.265C94.93 198.055 94.82 196.79 94.545 195.58C105.82 195.36 130.46 194.7 132.66 194.59ZM130.735 154.605C130.57 160.05 131.89 189.86 132.275 193.875C109.175 194.315 91.7401 194.865 89.5401 194.975C90.9151 190.74 97.625 170.225 102.3 154.825C108.405 154.66 125.4 154.605 130.735 154.605ZM143.77 197.34C143.825 197.285 143.88 197.23 143.88 197.175C143.88 196.79 144.155 198.66 140.91 182.27C141.02 182.435 141.24 182.49 141.405 182.38C141.845 182.16 148.885 175.45 150.37 174.13C150.59 173.91 150.26 173.58 150.04 173.8C148.445 175.175 141.13 181.39 140.855 181.83C140.8 181.94 140.965 182.655 139.755 176.495C141.13 175.395 145.255 171.655 146.355 170.72C146.63 170.5 146.3 170.115 146.025 170.335C144.54 171.435 141.02 174.24 139.535 175.56C139.15 173.69 138.82 171.875 138.435 170.17C140.855 168.19 143.44 166.43 146.135 164.835C147.235 165.88 166.1 185.625 167.75 187.44C167.365 187.77 150.315 201.905 149.435 202.51C148.775 202.235 144.045 198.44 143 197.615C143.275 197.505 143.55 197.45 143.77 197.34Z" fill="#2A344A"/>
<path d="M154.166 179.025C154.441 178.805 154.111 178.475 153.836 178.64C151.856 180.235 143.551 187.495 142.726 188.43C142.561 188.595 142.616 188.87 142.781 188.98C142.836 189.035 142.946 189.09 143.056 189.09C143.386 189.09 151.581 181.17 154.166 179.025ZM144.211 193.765C144.046 193.93 144.101 194.205 144.266 194.315C144.321 194.37 144.431 194.425 144.486 194.425C144.706 194.425 144.596 194.48 151.306 189.035C157.796 183.7 157.521 184.085 157.466 183.92C157.466 183.81 157.356 183.7 157.191 183.7C157.136 183.7 157.136 183.7 157.081 183.755C153.781 186.065 144.651 193.215 144.211 193.765ZM148.171 196.9C148.006 197.065 148.006 197.285 148.171 197.45C148.336 197.615 148.556 197.615 148.721 197.45C149.546 196.79 159.281 188.375 160.436 187.44C160.546 187.385 160.546 187.22 160.491 187.11C160.436 187 160.271 187 160.161 187.055C158.401 188.485 150.041 194.975 148.171 196.9ZM123.586 179.135C121.991 179.245 106.591 178.97 105.161 178.86C104.336 178.75 103.511 178.805 102.741 178.97C101.916 179.135 101.091 179.685 100.321 179.355C100.046 179.245 99.8259 179.63 100.101 179.74C101.201 180.235 102.026 179.355 104.171 179.41C105.876 179.41 121.771 180.125 123.586 179.96C124.136 179.96 124.136 179.135 123.586 179.135ZM100.101 174.57C104.501 175.23 113.356 175.505 119.846 175.725C123.256 175.835 125.951 175.945 126.666 176C126.941 176.055 127.161 175.89 127.216 175.615C127.326 174.955 127.491 175.01 111.816 174.515C106.316 174.35 101.146 174.185 100.266 174.075C100.156 174.075 100.046 174.13 99.9909 174.24C99.8809 174.405 99.9909 174.57 100.101 174.57ZM101.861 170.06C101.751 170.06 101.641 170.17 101.641 170.28C101.641 170.39 101.751 170.5 101.861 170.5C125.566 171.05 124.961 171.325 125.016 170.665C125.071 170.005 125.291 170.28 101.861 170.06ZM101.586 166.21C104.886 165.88 125.071 165.99 126.886 166.21C127.381 166.21 127.436 165.495 126.886 165.44C123.586 165.055 103.401 165.605 101.476 165.825C101.366 165.88 101.366 166.045 101.421 166.155C101.421 166.21 101.531 166.21 101.586 166.21ZM103.786 161.755C105.876 160.875 108.241 160.655 110.441 161.15C111.156 161.26 111.926 161.26 112.641 161.15C113.356 161.095 114.126 161.15 114.841 161.26C116.436 161.425 121.551 160.985 127.161 160.93C127.546 160.93 127.656 160.27 127.216 160.215C124.081 160.05 120.946 160.105 117.811 160.38C114.456 160.765 114.621 160.215 113.136 160.325C112.421 160.435 111.651 160.49 110.936 160.435C108.241 160.16 108.296 159.775 103.676 161.26C103.511 161.315 103.456 161.425 103.456 161.59C103.456 161.7 103.621 161.81 103.786 161.755ZM103.841 157.52C106.041 158.015 108.021 156.255 110.001 157.3C111.101 157.63 112.201 156.97 113.136 156.97C113.136 156.97 123.036 157.63 124.796 157.63C125.181 157.63 125.566 157.63 125.566 157.3C125.566 157.135 125.456 157.025 125.291 157.025C123.751 156.915 114.511 156.2 113.741 156.145C112.696 156.2 111.706 156.31 110.716 156.585C110.386 156.53 110.056 156.475 109.726 156.31C107.636 155.65 105.876 157.41 103.896 157.025C103.731 156.97 103.621 157.08 103.566 157.245C103.566 157.3 103.676 157.465 103.841 157.52Z" fill="#2A344A"/>
<path fill-rule="evenodd" clip-rule="evenodd" d="M157.564 62.8322C157.568 63.2168 157.579 63.9332 157.618 64.4338C157.24 64.8113 156.876 65.1694 156.522 65.5169C155.845 66.182 155.207 66.8086 154.593 67.4588C149.368 69.4938 145.243 73.5088 143.043 78.6788C142.085 80.8743 139.447 88.1395 137.609 93.1997C136.915 95.1117 136.335 96.7089 136.003 97.5988C135.838 98.2588 135.453 98.8088 134.903 99.1388C134.545 99.3038 129.884 100.706 125.223 102.109C120.562 103.511 115.9 104.914 115.543 105.079C115.048 105.299 114.663 105.629 114.443 106.124C113.656 106.015 112.896 105.733 112.13 105.448C111.343 105.155 110.549 104.86 109.713 104.749C108.283 104.419 106.743 104.859 105.698 105.904C104.488 105.739 101.298 105.629 100.143 105.629C100.033 104.969 99.4829 104.474 98.8229 104.364C98.2179 104.254 83.2029 102.164 82.8179 102.164C82.0479 93.8588 80.5079 84.5638 79.5179 79.6138C80.1913 75.0126 79.2363 72.7012 77.7258 69.0456C77.0155 67.3266 76.1823 65.3103 75.3379 62.6188C75.9979 63.3338 76.7679 63.9388 77.6479 64.3788C77.7029 64.4338 77.8129 64.3788 77.8679 64.3238C77.9046 64.2872 77.8924 64.2505 77.8802 64.2138C77.874 64.1955 77.8679 64.1772 77.8679 64.1588C75.9979 60.6388 74.5679 56.8988 73.4679 53.0488C74.0179 47.9338 73.9629 42.7638 73.2479 37.6488H74.3479C74.4579 37.6488 74.5129 37.5938 74.5129 37.4838C74.8429 32.4238 72.2579 27.5838 67.8029 25.1088C68.4629 25.0538 69.1779 25.0538 69.8379 25.1638C69.9479 25.2188 70.0029 25.1638 70.0579 25.0538C70.1129 24.9438 70.0579 24.8888 69.9479 24.8338C66.5379 22.9088 62.5229 22.3038 58.7279 23.1288C58.9479 22.5238 59.2779 21.9188 59.7179 21.4788C59.7729 21.4238 59.7729 21.3688 59.7179 21.3138C59.6079 20.9288 57.7379 21.3138 56.8029 22.7438C56.4729 22.2488 56.4729 21.6438 56.7479 21.1488C57.1329 20.5438 55.0429 21.0388 55.1529 22.6888C53.7229 21.9738 52.0729 22.0838 50.6979 22.8538C50.6429 22.9088 50.5879 23.0188 50.6429 23.0738C50.6979 23.1838 50.7529 23.1838 50.8629 23.1838C51.5779 23.1838 52.2379 23.4038 52.8429 23.7338C42.5029 27.8038 40.5229 38.3088 40.0279 42.6538C39.7889 44.9382 39.8449 46.2348 39.9109 47.7642C39.9816 49.4014 40.0639 51.3054 39.8079 54.9738C39.0929 65.6438 32.2179 85.9388 30.0179 91.8788C27.2679 98.2588 31.4479 102.439 38.0479 104.529C38.1579 107.994 38.3229 112.724 38.5979 114.209C38.9279 116.189 39.8629 118.059 41.3479 119.434C41.0179 120.699 40.8529 122.019 40.9629 123.284C40.1379 123.944 39.5329 124.824 39.2029 125.814C38.3229 127.629 35.5729 145.889 32.6029 166.239C24.9029 169.649 16.4879 173.939 5.48794 179.879C4.38794 180.484 5.21294 180.979 5.92794 180.594C39.6979 163.159 53.9979 157.054 97.3929 153.369C104.152 152.798 111.075 152.762 117.843 152.727C118.895 152.722 119.944 152.716 120.988 152.709C151.788 152.544 184.293 160.739 213.663 170.804C214.433 171.079 214.323 170.364 213.938 170.199C204.368 166.074 194.523 162.719 184.458 160.079C184.458 158.484 184.238 155.349 184.073 154.249C184.678 153.699 185.228 153.094 185.613 152.379C186.383 151.059 193.753 135.109 194.028 133.404C194.358 132.029 194.083 130.599 193.313 129.389C192.808 128.674 191.179 127.863 189.899 127.226C189.504 127.029 189.143 126.849 188.858 126.694C190.288 125.484 194.248 122.129 194.248 122.129C198.593 118.554 199.253 114.924 198.923 110.194C197.878 96.6088 195.843 81.2638 185.998 70.2638C183.798 67.8438 181.378 65.5888 178.298 65.4788C177.975 64.1874 176.231 63.054 174.971 62.5934C175.025 62.6432 175.053 62.6939 175.053 62.7453C175.05 63.3528 171.107 63.8252 166.247 63.8004C161.867 63.778 158.236 63.3594 157.564 62.8322ZM173.568 118.114C170.433 116.519 162.128 111.569 160.203 110.304C160.012 110.175 159.828 110.05 159.651 109.93C157.34 108.356 156.212 107.588 154.373 109.479C151.842 112.01 149.968 118.282 149.091 121.219C149.053 121.345 149.017 121.465 148.983 121.579C153.163 125.209 157.728 128.289 162.568 130.874C162.953 130.654 163.338 130.379 163.668 130.049C163.063 129.719 162.678 129.114 162.568 128.454C162.568 128.069 162.843 127.739 163.228 127.629C163.448 127.574 163.723 127.574 163.943 127.629C165.098 127.794 166.308 127.519 167.243 126.859C167.133 126.144 167.408 125.429 167.903 124.934L173.568 118.114ZM66.2079 138.464C65.7679 138.574 65.4929 139.014 65.6029 139.454V139.399C66.1254 141.736 66.7854 144.61 67.4454 147.484C68.1054 150.358 68.7654 153.231 69.2879 155.569L70.9379 155.294C69.8379 150.619 68.2429 143.744 67.1979 139.069C67.0879 138.629 66.6479 138.354 66.2079 138.464ZM160.478 134.504C159.653 134.504 159.378 134.174 159.268 133.954C159.058 133.282 160.13 132.45 160.967 131.8C161.227 131.599 161.464 131.415 161.633 131.259C152.888 126.199 149.478 123.009 148.653 122.129C148.048 124.109 147.388 126.089 146.618 128.234C144.968 132.634 145.133 135.714 147.168 137.804C147.299 137.934 147.389 138.03 147.488 138.117C148.052 138.615 148.868 138.826 158.938 143.744C167.958 148.199 180.278 154.249 181.488 154.249C183.688 154.139 184.843 151.664 185.613 150.014L189.188 142.314C185.74 143.013 181.475 140.989 171.731 136.364C170.751 135.899 169.714 135.407 168.618 134.889C168.111 135.292 167.659 135.677 167.245 136.029C165.908 137.167 164.967 137.969 163.833 137.969H163.613C162.678 137.914 161.963 137.089 162.018 136.154C160.368 136.429 159.983 135.329 160.478 134.504ZM190.244 128.62C189.355 128.147 188.433 127.657 187.978 127.354C183.853 130.929 179.123 133.844 173.953 135.934C173.513 136.044 173.018 136.044 172.578 135.934C177.363 138.024 184.733 141.214 185.723 141.434C186.988 141.654 188.308 141.654 189.628 141.489C190.233 140.169 193.313 133.129 193.148 131.754C193.093 131.039 192.818 130.434 192.433 129.884C192.284 129.706 191.286 129.175 190.244 128.62ZM170.543 133.459C170.268 133.734 169.773 134.119 169.278 134.504L172.358 135.824C171.829 135.535 171.468 134.952 170.834 133.927C170.743 133.78 170.646 133.624 170.543 133.459ZM164.672 135.029C164.041 135.487 162.58 136.549 163.118 136.979H163.173C164.209 137.776 165.36 136.754 167.359 134.98C168.12 134.306 169.002 133.522 170.048 132.689C169.318 131.472 168.114 129.05 167.58 127.975C167.511 127.835 167.452 127.717 167.408 127.629C166.253 128.344 164.878 128.674 163.558 128.454C163.522 128.454 163.488 128.451 163.458 128.449C163.35 128.44 163.283 128.435 163.283 128.564C163.353 128.844 163.982 129.281 164.529 129.661C164.839 129.877 165.123 130.074 165.263 130.214C165.318 130.324 165.318 130.379 165.318 130.489C165.318 130.709 165.153 130.819 164.988 130.764C164.713 130.709 164.438 130.599 164.218 130.489C164.052 130.625 163.686 130.894 163.237 131.224C162.053 132.095 160.292 133.39 160.093 133.789C161.495 133.884 162.805 133.279 163.712 132.859C164.371 132.554 164.817 132.347 164.933 132.579C165.034 132.831 164.904 132.898 163.738 133.5C163.632 133.555 163.517 133.614 163.393 133.679C163.312 133.725 163.147 133.791 162.939 133.875C162.165 134.185 160.799 134.733 160.973 135.384C161.064 135.656 161.567 135.629 161.894 135.611C161.964 135.607 162.025 135.604 162.073 135.604C163.118 135.384 164.053 134.944 164.878 134.339C164.988 134.284 165.098 134.284 165.153 134.394C165.287 134.573 165.093 134.716 164.868 134.881C164.817 134.919 164.764 134.958 164.713 134.999L164.672 135.029ZM169.639 150.101C160.417 145.694 147.204 139.379 146.618 138.574L146.673 138.629C144.088 135.989 144.583 132.524 145.628 129.334C144.473 129.004 143.373 128.509 142.328 127.904C142.163 130.324 141.063 151.719 141.008 152.819C145.793 153.204 150.523 153.754 155.198 154.414C155.045 153.708 154.84 152.638 154.62 151.496C154.207 149.345 153.744 146.937 153.493 146.219C153.438 145.889 153.603 145.559 153.878 145.449C154.208 145.284 154.538 145.449 154.703 145.779C155.583 148.694 156.353 151.609 156.903 154.579C165.703 155.899 174.393 157.659 183.028 159.859C183.013 159.501 182.998 159.067 182.982 158.601C182.939 157.347 182.888 155.861 182.808 155.019C181.323 155.514 179.673 155.239 178.408 154.359C177.893 154.046 174.269 152.314 169.639 150.101ZM78.8602 148.272C79.3723 150.39 79.85 152.365 80.2329 153.974L81.8279 153.754C81.0029 150.344 79.7379 145.064 78.6379 140.334C78.5279 139.894 78.1429 139.619 77.7029 139.729C77.2629 139.839 76.9329 140.279 77.0429 140.719C77.6324 143.194 78.2691 145.828 78.8602 148.272ZM107.403 113.549C106.963 114.319 106.358 114.979 105.643 115.529L105.753 115.474C105.753 115.501 105.739 115.515 105.725 115.529C105.712 115.543 105.698 115.556 105.698 115.584C105.643 116.024 106.743 116.629 108.503 114.044C109.048 113.201 108.388 113.341 107.648 113.498C107.567 113.515 107.485 113.532 107.403 113.549ZM103.378 114.103C104.049 113.664 104.763 113.197 104.983 112.449H105.038C105.038 112.284 104.873 112.119 104.543 112.119C103.443 112.119 101.353 114.044 101.958 114.649C102.142 114.832 102.44 114.671 102.726 114.517C102.782 114.486 102.838 114.456 102.893 114.429C103.046 114.319 103.211 114.212 103.378 114.103ZM103.388 114.924C103.498 116.684 105.313 115.089 106.413 113.714H106.523C107.458 112.614 105.973 112.724 105.698 112.889C105.357 113.656 104.619 114.126 103.946 114.555C103.751 114.679 103.561 114.8 103.388 114.924ZM46.6829 70.3738C42.5579 71.6388 38.6529 76.6988 38.9829 83.3538C39.2543 88.307 39.1723 93.6974 39.0964 98.6873C38.9877 105.832 38.8915 112.155 39.8629 115.199C41.0642 119.172 43.3911 119.847 46.4849 120.743C47.0739 120.914 47.6908 121.093 48.3329 121.304C62.4679 125.649 73.7429 125.044 81.7729 119.434C81.9379 117.949 82.0479 116.519 82.1029 115.034C81.3435 115.088 80.6146 115.143 79.9133 115.196C69.2883 116 64.986 116.325 56.4729 106.729C50.1479 99.6338 43.7129 91.7138 44.7029 82.3088C44.7029 82.1988 44.8129 82.0888 44.9229 82.0888C45.0879 82.0338 45.1979 82.1438 45.2529 82.3088C44.6479 89.7338 49.1579 96.6088 54.1079 102.494C63.7329 114.044 67.3629 115.199 76.5479 114.594C76.698 114.583 77.554 114.52 78.849 114.425C84.1992 114.032 97.0423 113.087 98.5479 112.999C98.8229 111.294 98.9879 109.479 99.0979 107.389C99.0979 107.264 99.1058 107.122 99.114 106.972C99.1496 106.326 99.1934 105.532 98.6579 105.354C98.6029 105.354 81.6629 103.044 80.4529 102.714C79.0229 102.384 77.7029 101.504 76.7679 100.294C75.7779 98.9738 67.4179 85.8838 65.3829 82.6938C65.3279 82.6388 65.3829 82.5288 65.4379 82.4738C65.4929 82.4188 65.6029 82.4738 65.6579 82.5288C66.6133 83.7405 68.8323 87.045 71.1647 90.5185C74.3377 95.2438 77.7206 100.282 78.4179 100.789C79.4629 101.504 80.6179 101.944 81.8829 102.109C81.6629 99.6888 79.6829 85.3338 78.5829 79.0088L73.5779 69.5488C72.8713 70.3438 72.6966 70.8905 72.4345 70.9362C72.0438 71.0044 71.4589 69.9593 68.6279 66.9638C70.2229 70.9788 71.4879 75.1038 72.4229 79.3388C72.2579 80.4938 71.1029 80.9888 70.4979 80.4938C70.3879 80.3838 70.2779 80.2188 70.3329 80.0538C70.3879 79.8338 70.6079 79.7238 70.8279 79.7788C71.2679 79.8888 71.4879 79.3388 71.4879 79.0088C71.4879 78.6788 68.0229 66.3588 67.6379 65.9738C67.5279 65.8638 67.5279 65.6438 67.5829 65.4788C67.9679 64.5988 68.4079 63.7738 68.9029 62.9488C67.3629 61.9588 66.4279 60.2538 66.3729 58.3838C66.3729 58.2738 66.4829 58.2188 66.5379 58.2188C69.2879 57.7788 71.5429 55.8538 72.4779 53.2688C73.0829 48.0988 73.0279 42.8188 72.3679 37.6488C69.5079 37.4288 66.7029 35.1738 64.5579 33.2488C63.4579 32.3138 63.2379 33.1938 63.5679 33.6338C64.1179 34.2388 66.5929 37.5388 65.7679 37.5388C62.7979 37.2638 59.9379 36.1638 57.5729 34.3488C57.1897 35.6764 56.9155 36.8235 56.6765 37.8231C55.9551 40.8405 55.5549 42.5144 53.4479 43.7538H53.3929C53.2829 43.7538 53.2279 43.7538 53.1729 43.6438C52.7879 42.4338 51.8529 41.4988 50.6429 41.1138C49.9279 41.0588 49.1579 41.2788 48.6629 41.8288C47.7279 42.8188 47.7279 44.4138 48.7179 45.3488C49.4879 45.9538 50.4779 46.2288 51.4679 46.0638C51.5483 46.1281 51.624 46.4557 51.7679 47.0781C52.116 48.5847 52.8634 51.8189 55.0429 57.2288C58.6179 59.9788 65.5479 64.7638 66.0429 65.0938C66.4279 65.2588 66.6479 65.6438 66.6479 66.0288C66.6479 66.4198 65.8975 69.9237 65.3648 72.4111C65.1481 73.4228 64.9674 74.2663 64.8879 74.6638V74.7188C64.7779 74.9388 64.5029 75.0488 64.2829 74.9388C62.0829 74.1688 59.2229 71.9138 57.0229 69.7138C57.3529 70.5938 57.8479 71.4738 58.3979 72.2988C59.3879 73.5088 59.8279 75.0488 59.6629 76.5888C59.6419 76.6098 59.6289 76.6308 59.6179 76.6488C59.5999 76.6778 59.5869 76.6988 59.5529 76.6988C59.4979 76.7538 59.3879 76.6988 59.3329 76.6438C56.8579 72.5188 51.4679 68.9438 46.6829 70.3738ZM56.4729 60.5288C56.4179 60.6388 56.3629 60.6938 56.2529 60.6388C55.2079 60.1438 54.2179 59.4838 53.3379 58.6588C54.0529 61.7388 54.9879 64.7638 56.1429 67.7338C58.5079 70.0438 61.2029 72.0788 64.1179 73.7288C64.7229 71.0888 65.7129 65.9738 65.7129 65.8638C65.7129 65.8311 65.2448 65.5252 64.4653 65.016C62.627 63.815 59.0572 61.4829 55.8129 58.9338C56.0329 59.4288 56.2529 59.9238 56.4729 60.3638V60.5288ZM72.3129 69.7688C72.6429 69.3288 73.0279 68.8888 73.4129 68.5038C73.5215 66.6036 72.8262 65.5608 71.856 64.1059L71.8179 64.0488C70.8279 62.5638 70.4979 62.5638 70.3879 62.5638C70.0029 62.6188 69.7279 62.7838 69.5079 63.1138C69.0679 63.8838 68.6829 64.6538 68.3529 65.4788C69.7829 66.8538 71.1029 68.2838 72.3129 69.7688ZM85.1279 114.924L82.9279 115.089C82.9829 117.784 82.6529 120.534 82.0479 123.229C84.0778 124.954 84.2816 125.884 84.6898 127.745C84.724 127.901 84.7597 128.064 84.7979 128.234L88.4279 125.924C88.5504 125.801 88.264 124.912 87.5687 122.754C87.0147 121.035 86.2011 118.509 85.1279 114.924ZM90.0759 130.514C89.5505 129.847 88.7911 128.884 88.4279 126.969L84.8529 129.279C85.4029 131.754 87.0529 140.334 87.0529 140.664C90.2445 138.23 89.8478 136.665 89.3891 134.855C89.2155 134.17 89.0329 133.449 89.0329 132.634V132.524C89.0879 132.304 89.3079 132.194 89.5279 132.249C89.5829 132.304 89.6379 132.304 89.6929 132.304C90.1329 132.359 90.5729 132.084 90.6279 131.644C90.6719 131.27 90.4258 130.958 90.0759 130.514ZM110.263 110.249C110.318 110.139 110.483 110.139 110.593 110.194C111.143 110.469 111.638 110.854 112.023 111.294C111.913 110.799 111.693 110.359 111.418 109.974C110.758 109.259 109.988 108.599 109.218 107.994C108.886 107.804 107.979 108.762 107.561 109.204C107.494 109.274 107.44 109.331 107.403 109.369C105.368 111.349 103.883 108.929 104.983 106.674C104.571 106.674 103.097 106.582 101.85 106.505C100.934 106.448 100.141 106.399 99.9779 106.399C99.9779 107.444 99.6479 111.129 99.4829 112.669L99.5596 112.675C100.253 112.728 100.993 112.785 101.683 112.944C102.783 111.624 105.148 110.469 105.698 112.119C106.413 111.954 107.293 112.119 107.513 112.779C107.733 112.724 108.008 112.669 108.228 112.669C109.218 112.504 109.768 113.164 109.218 114.264C109.438 114.539 110.923 115.859 111.198 115.749C111.803 115.584 111.253 113.604 109.603 112.449C109.548 112.394 109.493 112.229 109.548 112.174C109.603 112.119 109.713 112.064 109.823 112.119C110.703 112.559 111.418 113.219 111.803 114.099C111.968 113.934 112.078 113.714 112.078 113.494C112.233 112.355 111.267 111.459 110.465 110.716C110.415 110.669 110.366 110.624 110.318 110.579C110.208 110.524 110.208 110.359 110.263 110.249ZM42.1179 120.094C41.8979 121.194 41.7879 122.294 41.8429 123.394L41.8979 123.449C47.3979 126.639 54.3279 127.519 59.1679 127.684C67.9129 128.619 74.2929 128.234 80.9479 123.284C80.9834 123.133 81.0188 122.984 81.054 122.836C81.2374 122.064 81.4145 121.318 81.5529 120.534C71.2129 128.069 57.9029 125.154 45.9129 121.634C44.5929 121.304 43.2729 120.754 42.1179 120.094ZM56.9129 158.154C57.0229 152.764 57.2979 144.459 58.1229 135.549L58.1779 135.604C58.2329 135.109 57.9029 134.724 57.4079 134.669C56.9129 134.614 56.5279 134.944 56.4729 135.439C55.6479 144.569 55.3729 153.149 55.2629 158.539L56.9129 158.154ZM197.603 106.784C196.613 95.9488 194.633 83.5188 187.703 73.7838C185.668 71.0338 182.258 66.5238 178.573 66.1388C179.343 68.1738 182.423 76.5338 182.423 76.9738C182.423 78.0188 181.378 78.0188 180.828 78.0188C180.278 78.0188 174.503 78.4588 174.723 79.1188C175.328 80.0538 175.988 80.9338 176.648 81.7588C176.703 81.8138 176.703 81.8688 176.648 81.9238C175.658 83.9038 163.668 106.399 162.843 107.939C162.806 108.488 162.77 109.086 162.733 109.684C162.715 109.984 162.696 110.285 162.678 110.579C165.978 112.669 171.423 115.969 174.338 117.344C175.145 116.367 175.882 115.482 176.55 114.68C180.211 110.287 181.805 108.374 181.433 107.444C178.683 102.879 177.088 97.7088 176.758 92.3738C176.703 92.0438 177.308 91.9888 177.308 92.3738C177.858 96.9938 179.233 101.449 181.378 105.519C181.477 105.717 181.604 105.927 181.737 106.145C182.192 106.895 182.709 107.747 182.368 108.599C181.759 110.333 172.444 121.252 169.634 124.546C169.146 125.117 168.854 125.459 168.838 125.484C168.398 125.869 168.233 126.419 168.288 126.969C168.398 127.464 172.248 134.284 172.578 134.724C172.908 135.109 173.458 135.219 173.898 135.054C181.134 132.225 187.293 126.921 193.174 121.856L193.368 121.689C198.703 117.619 198.263 112.834 197.603 106.784ZM177.528 66.1938C177.143 65.0388 176.373 63.7188 175.053 63.4988C175.163 65.0938 174.668 66.7438 173.568 68.0638C172.582 69.3312 171.889 70.7338 171.201 72.1274C170.814 72.9109 170.428 73.6916 169.993 74.4438C168.068 77.8538 166.528 81.4288 165.483 85.2238C164.18 90.0016 163.359 100.675 162.968 105.763L162.953 105.959C163.066 105.742 163.243 105.402 163.472 104.96C165.925 100.241 174.419 83.8993 175.878 82.0888C175.519 81.6254 175.177 81.2271 174.876 80.8771C174.07 79.9395 173.563 79.3496 173.843 78.7888C174.102 78.27 174.998 78.0938 175.56 77.9831C175.594 77.9765 175.627 77.9701 175.658 77.9638C176.061 77.8832 177.055 77.773 178.12 77.655C178.508 77.612 178.906 77.5679 179.288 77.5238C179.598 77.4873 179.926 77.4569 180.232 77.4285C180.85 77.3713 181.378 77.3223 181.488 77.2488C181.639 77.1479 181.467 76.7232 181.352 76.4413C181.342 76.4159 181.332 76.3916 181.323 76.3688C181.323 76.3138 178.078 67.5688 177.528 66.1938ZM157.497 66.4261C157.516 66.2323 157.543 65.9513 157.563 65.5338C154.923 68.2838 147.828 76.2038 147.773 76.5888C147.718 76.9738 149.643 79.0638 150.523 79.8888C151.073 80.3288 151.128 81.0988 150.743 81.6488C149.533 83.2438 148.433 84.9488 147.443 86.7638C147.553 87.0388 150.193 96.3338 150.743 98.3138C151.843 87.1488 154.153 75.9838 157.068 68.2838C157.123 68.2838 157.123 68.2288 157.123 68.2288C157.178 68.1738 157.288 68.1738 157.343 68.2288C164.438 74.2788 172.248 70.8688 171.258 69.1638C171.12 68.9222 170.938 69.0055 170.523 69.1963C170.277 69.3095 169.948 69.4605 169.498 69.6038C169.663 67.9538 169.828 65.3688 169.828 65.3688C169.828 64.8738 168.728 64.8188 168.728 65.3688C168.728 65.3688 168.508 68.6138 168.343 69.9338C167.133 70.2088 165.868 70.2638 164.603 70.0988C164.603 69.2836 164.649 68.0115 164.681 67.1069C164.699 66.6079 164.713 66.2207 164.713 66.0838V65.9738C164.713 65.5888 164.438 65.2588 164.053 65.2588C163.668 65.2588 163.338 65.5338 163.338 65.9188C163.283 66.3038 163.118 68.4488 163.063 69.7688C162.348 69.6038 161.688 69.3288 161.028 68.9988C161.028 68.6206 161.023 68.1026 161.017 67.5524C161.004 66.3425 160.99 64.9769 161.028 64.5988C161.083 64.0488 159.928 63.9388 159.873 64.4888C159.818 64.8188 159.763 67.0738 159.763 68.5038C158.993 68.0638 158.223 67.5138 157.563 66.9088C157.458 66.8386 157.464 66.7683 157.497 66.4261ZM132.554 100.847C128.196 102.156 115.834 105.871 115.323 106.289C114.883 106.839 114.828 115.969 114.883 116.794C115.378 117.124 134.848 116.189 139.743 115.694C139.963 113.549 141.888 99.2488 142.273 96.9938C142.273 96.8288 142.383 96.7738 142.548 96.7738C142.713 96.7738 142.768 96.9388 142.768 97.0488C142.328 99.7438 140.238 123.779 140.238 124.384C140.238 124.879 140.513 125.319 140.843 125.649C142.273 126.969 143.978 127.904 145.848 128.344C147.25 124.405 147.864 122.979 148.219 121.491C148.812 119.012 148.687 116.361 150.303 101.614C150.202 100.834 149.366 97.8015 148.498 94.6546C147.468 90.9184 146.393 87.0215 146.453 86.5438C146.563 85.6638 149.863 81.3738 149.863 81.3738C150.28 80.8523 150.153 80.7264 149.764 80.3396C149.743 80.3185 149.721 80.2966 149.698 80.2738C148.653 79.3388 147.663 78.2938 146.838 77.1938C146.783 76.5888 147.003 75.9288 147.498 75.5438C147.608 75.3788 149.808 72.6288 153.108 68.9438C146.013 72.4912 143.767 78.6611 141.678 84.4029C141.564 84.7146 141.451 85.0251 141.338 85.3338C138.533 92.8688 136.168 99.1388 135.838 99.4688C135.343 99.9638 134.683 100.239 134.023 100.404C133.886 100.447 133.355 100.606 132.554 100.847ZM139.798 116.519C133.088 117.344 116.533 117.619 115.323 117.619C115.268 117.619 115.213 117.619 115.048 117.454C114.278 117.399 113.783 116.739 113.838 116.024C113.398 115.969 112.353 115.859 111.913 115.859C111.748 116.134 111.473 116.354 111.143 116.354C110.538 116.354 109.163 115.144 108.778 114.759C108.228 115.474 107.018 116.684 106.083 116.684C105.588 116.684 105.148 116.409 104.928 115.969C103.993 116.629 102.893 116.409 102.618 115.309C101.573 115.749 100.693 114.869 101.078 113.769C101.096 113.733 101.119 113.715 101.117 113.701C101.112 113.671 100.994 113.66 100.473 113.549L99.3729 113.329C99.3179 113.604 99.2079 113.879 98.8779 113.879L85.8979 114.814C86.0629 115.364 88.8679 124.219 89.0329 124.659C89.4179 125.759 89.2529 126.254 89.0329 126.474C89.3629 127.959 90.0229 129.389 91.0129 130.544C91.2329 130.819 91.3979 131.149 91.3979 131.479C91.3979 132.359 90.7929 133.074 89.9129 133.129C90.049 133.809 90.2225 134.452 90.4026 135.12C90.4408 135.261 90.4794 135.404 90.5179 135.549C91.1779 138.189 89.4179 140.334 87.3279 141.709C87.614 143.183 87.9 144.71 88.186 146.237C88.615 148.527 89.044 150.817 89.4729 152.929C106.193 151.334 123.023 151.224 139.798 152.599C139.798 149.629 140.623 133.734 141.283 127.134C139.468 125.869 139.248 125.209 139.413 123.009C139.413 122.936 139.478 121.876 139.555 120.62C139.652 119.045 139.767 117.161 139.798 116.519ZM111.533 106.227C110.533 105.95 109.57 105.683 109.218 105.629C107.788 105.299 106.358 106.069 105.753 107.444C105.478 107.994 105.533 108.709 105.808 109.259C106.303 109.809 107.238 108.764 107.733 108.159C107.745 108.144 107.758 108.129 107.771 108.114C108.097 107.733 108.528 107.228 109.163 107.334C111.858 108.654 113.233 111.349 112.738 113.054C112.848 113.714 112.573 114.374 112.023 114.704C112.129 115.043 112.096 115.178 112.148 115.235C112.231 115.325 112.529 115.216 113.948 115.419C113.948 114.264 114.003 108.104 114.113 106.894C113.638 106.81 112.566 106.513 111.533 106.227ZM46.0229 134.009C45.5829 133.899 45.1429 134.174 45.0329 134.614C43.1629 143.909 41.9529 153.314 41.4029 162.829L43.1079 162.224C43.6579 153.094 44.8679 143.964 46.6829 134.999C46.7379 134.559 46.4629 134.119 46.0229 134.009Z" fill="#2A344A"/>
<rect y="184" width="36" height="36" rx="18" fill="#4E6AF3"/>
<path d="M16.374 200.802H17.5342C18.1025 200.802 18.5713 200.708 18.9404 200.521C19.3154 200.327 19.5938 200.066 19.7754 199.738C19.9629 199.404 20.0566 199.029 20.0566 198.613C20.0566 198.121 19.9746 197.708 19.8105 197.374C19.6465 197.04 19.4004 196.788 19.0723 196.618C18.7441 196.448 18.3281 196.363 17.8242 196.363C17.3672 196.363 16.9629 196.454 16.6113 196.636C16.2656 196.812 15.9932 197.063 15.7939 197.392C15.6006 197.72 15.5039 198.106 15.5039 198.552H13.8779C13.8779 197.901 14.042 197.31 14.3701 196.776C14.6982 196.243 15.1582 195.818 15.75 195.502C16.3477 195.186 17.0391 195.027 17.8242 195.027C18.5977 195.027 19.2744 195.165 19.8545 195.44C20.4346 195.71 20.8857 196.114 21.208 196.653C21.5303 197.187 21.6914 197.852 21.6914 198.648C21.6914 198.971 21.6152 199.316 21.4629 199.686C21.3164 200.049 21.085 200.389 20.7686 200.705C20.458 201.021 20.0537 201.282 19.5557 201.487C19.0576 201.687 18.46 201.786 17.7627 201.786H16.374V200.802ZM16.374 202.138V201.162H17.7627C18.5771 201.162 19.251 201.259 19.7842 201.452C20.3174 201.646 20.7363 201.903 21.041 202.226C21.3516 202.548 21.5684 202.902 21.6914 203.289C21.8203 203.67 21.8848 204.051 21.8848 204.432C21.8848 205.029 21.7822 205.56 21.5771 206.022C21.3779 206.485 21.0938 206.878 20.7246 207.2C20.3613 207.522 19.9336 207.766 19.4414 207.93C18.9492 208.094 18.4131 208.176 17.833 208.176C17.2764 208.176 16.752 208.097 16.2598 207.938C15.7734 207.78 15.3428 207.552 14.9678 207.253C14.5928 206.948 14.2998 206.576 14.0889 206.137C13.8779 205.691 13.7725 205.185 13.7725 204.616H15.3984C15.3984 205.062 15.4951 205.451 15.6885 205.785C15.8877 206.119 16.1689 206.38 16.5322 206.567C16.9014 206.749 17.335 206.84 17.833 206.84C18.3311 206.84 18.7588 206.755 19.1162 206.585C19.4795 206.409 19.7578 206.146 19.9512 205.794C20.1504 205.442 20.25 205 20.25 204.467C20.25 203.934 20.1387 203.497 19.916 203.157C19.6934 202.812 19.377 202.557 18.9668 202.393C18.5625 202.223 18.085 202.138 17.5342 202.138H16.374Z" fill="white"/>
<path d="M173.141 45.8497C173.05 45.8315 172.97 45.778 172.919 45.7008C172.867 45.6236 172.849 45.5291 172.867 45.4381C172.885 45.3471 172.939 45.2671 173.016 45.2156C173.093 45.1641 173.187 45.1453 173.278 45.1635C173.369 45.1816 173.449 45.2352 173.501 45.3124C173.552 45.3896 173.571 45.4841 173.553 45.5751C173.535 45.6661 173.481 45.7461 173.404 45.7976C173.327 45.8491 173.232 45.8679 173.141 45.8497ZM176.285 44.9001C176.194 44.882 176.114 44.8284 176.063 44.7512C176.011 44.674 175.992 44.5796 176.01 44.4886C176.029 44.3976 176.082 44.3175 176.159 44.266C176.237 44.2145 176.331 44.1958 176.422 44.2139C176.513 44.2321 176.593 44.2857 176.645 44.3628C176.696 44.44 176.715 44.5345 176.697 44.6255C176.679 44.7165 176.625 44.7966 176.548 44.8481C176.471 44.8996 176.376 44.9183 176.285 44.9001ZM178.006 42.3895C178.097 42.4076 178.177 42.4612 178.229 42.5384C178.28 42.6156 178.299 42.7101 178.281 42.8011C178.263 42.8921 178.209 42.9721 178.132 43.0236C178.055 43.0751 177.96 43.0938 177.869 43.0757C177.778 43.0575 177.698 43.004 177.647 42.9268C177.595 42.8496 177.577 42.7551 177.595 42.6641C177.613 42.5731 177.666 42.493 177.744 42.4415C177.821 42.39 177.915 42.3713 178.006 42.3895ZM175.121 43.2621C175.03 43.2439 174.95 43.1903 174.898 43.1132C174.847 43.036 174.828 42.9415 174.846 42.8505C174.864 42.7595 174.918 42.6794 174.995 42.6279C175.072 42.5764 175.167 42.5577 175.258 42.5759C175.349 42.594 175.429 42.6476 175.48 42.7248C175.532 42.802 175.55 42.8964 175.532 42.9874C175.514 43.0784 175.461 43.1585 175.383 43.21C175.306 43.2615 175.212 43.2802 175.121 43.2621Z" fill="#2A344A"/>
<path d="M170.979 43.123C170.888 43.1048 170.808 43.0512 170.756 42.974C170.705 42.8969 170.686 42.8024 170.704 42.7114C170.722 42.6204 170.776 42.5403 170.853 42.4888C170.93 42.4373 171.025 42.4186 171.116 42.4367C171.207 42.4549 171.287 42.5085 171.338 42.5857C171.39 42.6628 171.409 42.7573 171.391 42.8483C171.372 42.9393 171.319 43.0194 171.242 43.0709C171.164 43.1224 171.07 43.1411 170.979 43.123Z" fill="#2A344A"/>
<path d="M118.815 189.4C118.87 187.86 117.825 190.57 116.45 190.555C116.285 190.445 116.23 190.225 116.34 190.06C116.78 189.235 119.42 183.46 118.54 183.46C118.265 183.46 117.935 183.9 117.715 184.12C115.185 186.65 115.79 189.18 113.755 189.62C113.7 189.62 113.59 189.675 113.48 189.675C112.655 189.73 111.94 189.18 111.83 188.355V188.135C111.555 188.135 111.39 188.355 109.96 189.455C109.85 189.565 109.685 189.62 109.575 189.565C109.355 189.51 109.245 189.29 109.3 189.07C109.85 185.495 110.675 185.385 106.165 189.62C106.055 189.73 105.89 189.785 105.78 189.73C105.56 189.675 105.45 189.455 105.505 189.235C105.67 188.795 106.385 186.76 106.55 186.43C106.935 185.495 106.715 185.495 105.945 185.77C104.625 186.265 103.58 187.255 102.975 188.52C102.755 189.015 102.04 188.63 102.26 188.135C103.47 185.385 104.9 183.625 104.075 183.24C103.69 183.02 103.085 183.46 102.865 183.57C101.875 184.34 101.16 185.33 100.665 186.485C100.61 186.595 100.445 186.65 100.335 186.595C100.225 186.54 100.17 186.375 100.225 186.265C100.61 185.33 101.16 184.45 101.82 183.68C102.535 182.91 103.635 182.195 104.46 182.635C105.56 183.295 104.9 184.67 104.46 185.605C106 184.615 107.705 184.45 107.43 186.265C106.935 188.3 106.055 188.575 108.53 186.375C108.97 185.99 109.135 185.825 109.41 185.77C110.675 185.55 110.51 186.98 110.29 188.245C110.29 188.41 110.235 188.41 110.455 188.245C111.28 187.64 112.16 187.035 112.655 187.915C112.765 188.245 112.655 188.575 112.875 188.74C113.315 189.015 113.865 188.96 114.25 188.575C114.635 188.135 114.91 187.64 115.075 187.09C115.955 184.78 118.54 181.095 119.64 183.295C119.75 183.955 119.695 184.56 119.42 185.165C119.145 186.045 118.87 186.925 118.32 188.245C118.98 187.475 118.98 187.2 119.31 187.255C119.64 187.31 119.585 187.695 119.585 188.795C120.685 188.19 120.63 188.08 121.235 188.74C122.555 187.75 124.205 187.2 125.855 187.255C125.965 187.255 126.075 187.365 126.075 187.475C126.075 187.585 125.965 187.695 125.855 187.695C124.26 187.86 122.72 188.52 121.455 189.51C121.07 189.785 120.795 189.4 120.63 189.235C120.465 189.07 120.685 189.07 119.365 189.73C119.31 189.785 119.255 189.785 119.2 189.785C118.98 189.785 118.815 189.62 118.815 189.4Z" fill="#4E6AF3"/>
<path fill-rule="evenodd" clip-rule="evenodd" d="M62.5049 184.741C63.4719 181.702 62.5049 179.516 60.5249 178.471C58.4899 177.591 56.1249 177.976 54.4199 179.351C51.7799 181.441 51.5599 185.126 54.7499 186.886C56.3449 187.766 58.2149 187.931 59.9199 187.436C61.1299 186.996 62.1199 185.951 62.5049 184.741ZM56.369 183.264C56.4043 183.485 56.4348 183.675 56.4581 183.815C56.5904 183.741 56.7659 183.643 56.9715 183.528C58.3045 182.784 60.9022 181.332 61.1881 181.285C61.2431 181.23 61.3531 181.285 61.4081 181.34C61.4631 181.45 61.4631 181.56 61.3531 181.615C60.6381 182.055 57.6681 184.09 56.9531 184.585C56.9116 184.614 56.8714 184.644 56.8322 184.673C56.5069 184.912 56.2457 185.105 55.8531 184.86C55.5901 184.695 55.5629 183.627 55.5366 182.595C55.5189 181.9 55.5016 181.221 55.4131 180.845C55.3581 180.68 55.4681 180.57 55.5781 180.515C55.7431 180.46 55.8531 180.57 55.9081 180.68C56.0382 181.2 56.2369 182.44 56.369 183.264Z" fill="#4E6AF3"/>
</svg>
