<svg width="220" height="220" viewBox="0 0 220 220" fill="none" xmlns="http://www.w3.org/2000/svg">
<path d="M39.065 85.238C39.3193 85.4591 39.6413 85.5871 39.978 85.601C40.1685 85.6452 40.3666 85.6453 40.5572 85.6015C40.7478 85.5577 40.9259 85.4709 41.078 85.348C41.2731 85.1522 41.4069 84.9038 41.4627 84.6331C41.5186 84.3624 41.4943 84.0813 41.3926 83.8243C41.291 83.5673 41.1165 83.3456 40.8906 83.1863C40.6647 83.0271 40.3972 82.9373 40.121 82.928C39.8235 82.9227 39.5312 83.0069 39.2821 83.1697C39.033 83.3325 38.8386 83.5663 38.724 83.841C38.6323 84.0809 38.6158 84.3431 38.6767 84.5926C38.7376 84.8422 38.8731 85.0673 39.065 85.238ZM39.23 84.138C39.2934 83.9666 39.405 83.8172 39.5514 83.7079C39.6978 83.5986 39.8727 83.534 40.055 83.522C40.704 83.522 41.155 84.347 40.88 84.71C40.7065 84.897 40.4734 85.018 40.2206 85.0521C39.9677 85.0862 39.7109 85.0314 39.494 84.897C39.3787 84.8143 39.2916 84.6982 39.2444 84.5645C39.1972 84.4307 39.1922 84.2857 39.23 84.149V84.138ZM60.57 84.402C60.5693 84.3305 60.5428 84.2616 60.4954 84.2081C60.448 84.1546 60.3828 84.1199 60.3119 84.1106C60.241 84.1012 60.1691 84.1177 60.1094 84.1571C60.0498 84.1965 60.0063 84.2561 59.987 84.325C59.8866 85.0991 59.8866 85.8829 59.987 86.657C60.0207 86.7292 60.0778 86.7878 60.1491 86.8233C60.2203 86.8588 60.3015 86.8691 60.3794 86.8525C60.4573 86.8359 60.5273 86.7934 60.5779 86.7319C60.6285 86.6704 60.6567 86.5936 60.658 86.514C60.68 86.327 60.559 84.556 60.57 84.402ZM65.773 87.24C65.8751 87.24 65.9731 87.1994 66.0453 87.1272C66.1175 87.055 66.158 86.9571 66.158 86.855C66.158 86.778 66.037 85.26 66.026 85.029C66.026 84.9619 65.9994 84.8975 65.9519 84.8501C65.9045 84.8026 65.8401 84.776 65.773 84.776C65.7059 84.776 65.6416 84.8026 65.5941 84.8501C65.5467 84.8975 65.52 84.9619 65.52 85.029C65.4474 85.6498 65.407 86.274 65.399 86.899C65.4073 86.9923 65.4503 87.0792 65.5196 87.1423C65.5888 87.2055 65.6793 87.2403 65.773 87.24ZM63.364 89.099C63.4276 89.0804 63.4823 89.0396 63.5182 88.984C63.554 88.9283 63.5686 88.8616 63.5593 88.7961C63.5499 88.7306 63.5172 88.6706 63.4672 88.6272C63.4172 88.5838 63.3532 88.56 63.287 88.56C62.7961 88.4552 62.3143 88.3118 61.846 88.131C62.2049 87.5593 62.493 86.9461 62.704 86.305C62.7112 86.2739 62.7123 86.2417 62.7071 86.2103C62.7019 86.1788 62.6905 86.1487 62.6736 86.1216C62.6568 86.0946 62.6348 86.0711 62.6088 86.0525C62.5829 86.034 62.5536 86.0207 62.5225 86.0135C62.4915 86.0062 62.4593 86.0052 62.4278 86.0104C62.3964 86.0156 62.3662 86.027 62.3392 86.0439C62.3121 86.0607 62.2886 86.0827 62.2701 86.1087C62.2515 86.1346 62.2382 86.1639 62.231 86.195C62.165 86.503 61.197 87.955 61.131 88.142C61.065 88.329 61.362 88.681 61.472 88.758C62.059 89.0444 62.7139 89.1625 63.364 89.099ZM63.804 92.289C64.4498 92.5565 65.1655 92.6045 65.8412 92.4257C66.5169 92.2468 67.1152 91.8509 67.544 91.299C67.753 91.013 67.324 90.672 67.071 90.925C66.674 91.3406 66.1723 91.6417 65.6187 91.7965C65.0652 91.9513 64.4801 91.9543 63.925 91.805C63.628 91.717 63.474 92.168 63.804 92.289ZM63.287 101.199C63.3181 101.17 63.3408 101.133 63.3524 101.093C63.364 101.052 63.3643 101.009 63.353 100.968C63.1275 100.017 63.1275 99.0261 63.353 98.075C63.529 97.811 63.111 97.525 62.935 97.778C61.978 99.142 62.759 101.617 63.287 101.199ZM64.827 101.375C64.8688 101.402 64.9179 101.416 64.9677 101.414C65.0174 101.412 65.0655 101.395 65.1052 101.365C65.1449 101.335 65.1743 101.293 65.1895 101.246C65.2047 101.198 65.2049 101.148 65.19 101.1C65.0982 100.101 65.0982 99.0959 65.19 98.097C65.1922 98.0409 65.1749 97.9859 65.1411 97.9412C65.1072 97.8965 65.0588 97.8649 65.0043 97.8519C64.9497 97.839 64.8923 97.8453 64.8419 97.87C64.7916 97.8946 64.7513 97.9359 64.728 97.987C64.64 98.119 64.222 101.001 64.827 101.375ZM67.104 101.43C67.654 101.694 68.204 99.857 67.434 98.295C67.4005 98.2264 67.3411 98.174 67.2689 98.1492C67.1967 98.1245 67.1176 98.1294 67.049 98.163C66.9805 98.1965 66.928 98.2559 66.9033 98.3281C66.8785 98.4003 66.8835 98.4794 66.917 98.548C67.742 100.528 66.631 101.199 67.104 101.43ZM69.788 101.529C70.1428 100.556 70.1428 99.4883 69.788 98.515C69.7779 98.4846 69.7619 98.4566 69.741 98.4324C69.72 98.4083 69.6945 98.3885 69.6659 98.3742C69.6082 98.3453 69.5413 98.3405 69.48 98.361C69.4188 98.3814 69.3681 98.4253 69.3392 98.4831C69.3103 98.5408 69.3056 98.6077 69.326 98.669C69.3985 99.5625 69.3912 100.461 69.304 101.353C69.3095 101.406 69.3299 101.457 69.3629 101.5C69.396 101.542 69.4403 101.574 69.4908 101.593C69.5413 101.611 69.596 101.615 69.6486 101.604C69.7012 101.592 69.7495 101.566 69.788 101.529ZM71.834 101.485C72.274 101.485 73.209 99.802 72.593 98.185C72.483 97.888 72.054 98.108 72.175 98.383C72.2494 99.2903 72.0704 100.2 71.658 101.012C71.5953 101.035 71.5444 101.083 71.5166 101.143C71.4887 101.204 71.4862 101.274 71.5095 101.336C71.5329 101.399 71.5802 101.45 71.641 101.478C71.7019 101.506 71.7713 101.508 71.834 101.485ZM53.904 142.053C55.433 143.153 57.864 144.165 59.976 145.617C60.581 146.035 60.658 146.112 60.768 146.112C60.8111 146.111 60.853 146.098 60.8886 146.074C60.9242 146.05 60.952 146.016 60.9684 145.976C60.9848 145.936 60.9891 145.892 60.9809 145.85C60.9726 145.808 60.9522 145.769 60.922 145.738C59.162 143.813 56.291 143.164 54.179 141.624C53.904 141.437 53.574 141.899 53.904 142.053Z" fill="#2A344A"/>
<path d="M118.536 31.272L170.511 30.612C170.581 30.612 170.648 30.5842 170.697 30.5347C170.747 30.4852 170.775 30.418 170.775 30.348C170.775 30.278 170.747 30.2108 170.697 30.1613C170.648 30.1118 170.581 30.084 170.511 30.084C170.511 30.084 122.111 30.348 118.536 30.491C118.443 30.5065 118.36 30.5543 118.299 30.6258C118.239 30.6973 118.206 30.7879 118.206 30.8815C118.206 30.9751 118.239 31.0657 118.299 31.1372C118.36 31.2087 118.443 31.2564 118.536 31.272ZM129.525 46.287C133.672 46.441 169.521 47.574 169.521 47.574C169.591 47.574 169.658 47.5462 169.707 47.4967C169.757 47.4472 169.785 47.38 169.785 47.31C169.785 47.24 169.757 47.1728 169.707 47.1233C169.658 47.0738 169.591 47.046 169.521 47.046C169.521 47.046 132.22 45.605 129.525 45.528C129.435 45.5433 129.354 45.5898 129.295 45.6592C129.237 45.7287 129.205 45.8166 129.205 45.9075C129.205 45.9983 129.237 46.0863 129.295 46.1557C129.354 46.2252 129.435 46.2717 129.525 46.287ZM129.448 50.599C129.063 50.676 129.129 51.325 129.547 51.27C131.065 51.116 171.677 51.336 174.438 51.369C174.5 51.3564 174.556 51.3226 174.596 51.2735C174.636 51.2244 174.658 51.1629 174.658 51.0995C174.658 51.0361 174.636 50.9746 174.596 50.9254C174.556 50.8763 174.5 50.8426 174.438 50.83C169.059 50.599 131.12 50.225 129.448 50.599ZM128.777 55.615C132.077 55.516 168.443 55.472 171.468 55.615C171.541 55.615 171.611 55.586 171.662 55.5344C171.714 55.4829 171.743 55.4129 171.743 55.34C171.743 55.267 171.714 55.1971 171.662 55.1455C171.611 55.094 171.541 55.065 171.468 55.065C166.32 54.669 131.978 54.471 128.722 54.823C128.282 54.911 128.304 55.637 128.777 55.615ZM170.269 72.874C166.848 72.874 130.009 72.698 130.009 72.698C129.91 72.698 129.814 72.7374 129.744 72.8075C129.674 72.8777 129.635 72.9728 129.635 73.072C129.635 73.1712 129.674 73.2663 129.744 73.3364C129.814 73.4066 129.91 73.446 130.009 73.446C130.834 73.446 168.058 73.446 170.291 73.369C170.347 73.3547 170.397 73.3213 170.432 73.2746C170.466 73.2279 170.484 73.1707 170.481 73.1125C170.479 73.0544 170.456 72.9989 170.417 72.9555C170.379 72.912 170.326 72.8832 170.269 72.874ZM173.173 77.197C173.21 77.2048 173.248 77.2043 173.284 77.1955C173.321 77.1866 173.355 77.1698 173.384 77.1461C173.414 77.1223 173.437 77.0924 173.454 77.0584C173.47 77.0244 173.478 76.9872 173.478 76.9495C173.478 76.9118 173.47 76.8746 173.454 76.8406C173.437 76.8066 173.414 76.7766 173.384 76.7529C173.355 76.7292 173.321 76.7123 173.284 76.7035C173.248 76.6947 173.21 76.6942 173.173 76.702C167.288 76.416 132.187 76.537 128.997 76.845C128.921 76.859 128.852 76.8991 128.803 76.9584C128.754 77.0177 128.727 77.0924 128.727 77.1695C128.727 77.2466 128.754 77.3213 128.803 77.3806C128.852 77.4398 128.921 77.48 128.997 77.494C128.997 77.494 170.159 77.142 173.173 77.197ZM171.226 81.828C171.293 81.828 171.357 81.8013 171.405 81.7539C171.452 81.7064 171.479 81.6421 171.479 81.575C171.479 81.5079 171.452 81.4435 171.405 81.3961C171.357 81.3486 171.293 81.322 171.226 81.322C165.946 80.937 132.858 80.299 129.481 80.431C129.388 80.4465 129.305 80.4943 129.244 80.5658C129.184 80.6373 129.151 80.7279 129.151 80.8215C129.151 80.9151 129.184 81.0057 129.244 81.0772C129.305 81.1487 129.388 81.1964 129.481 81.212C146.3 81.212 168.696 81.652 171.226 81.828ZM170.5 100.935L130.746 99.835C130.647 99.835 130.551 99.8744 130.481 99.9445C130.411 100.015 130.372 100.11 130.372 100.209C130.372 100.308 130.411 100.403 130.481 100.473C130.551 100.544 130.647 100.583 130.746 100.583C133.177 100.825 170.434 101.386 170.522 101.386C170.566 101.366 170.604 101.333 170.63 101.292C170.655 101.25 170.668 101.202 170.665 101.153C170.663 101.104 170.646 101.057 170.616 101.018C170.587 100.979 170.546 100.95 170.5 100.935ZM130.713 104.224C130.602 104.224 130.496 104.268 130.417 104.346C130.339 104.425 130.295 104.531 130.295 104.642C130.295 104.753 130.339 104.859 130.417 104.938C130.496 105.016 130.602 105.06 130.713 105.06C136.499 104.895 174.878 105.225 174.878 105.225C174.951 105.225 175.021 105.196 175.072 105.144C175.124 105.093 175.153 105.023 175.153 104.95C175.153 104.877 175.124 104.807 175.072 104.756C175.021 104.704 174.951 104.675 174.878 104.675C169.4 104.356 133.98 104.059 130.713 104.224ZM171.963 109.999C172.033 109.999 172.1 109.971 172.149 109.922C172.199 109.872 172.227 109.805 172.227 109.735C172.227 109.665 172.199 109.598 172.149 109.548C172.1 109.499 172.033 109.471 171.963 109.471C166.584 108.844 133.771 108.371 130.933 108.723C130.449 108.723 130.405 109.548 130.933 109.537C133.584 109.537 168.828 109.669 171.897 109.999H171.963ZM132 126.917C131.913 126.932 131.834 126.977 131.777 127.045C131.721 127.112 131.69 127.197 131.69 127.285C131.69 127.374 131.721 127.459 131.777 127.526C131.834 127.594 131.913 127.639 132 127.654L171.039 127.335C171.101 127.322 171.157 127.289 171.197 127.24C171.237 127.19 171.259 127.129 171.259 127.065C171.259 127.002 171.237 126.941 171.197 126.891C171.157 126.842 171.101 126.809 171.039 126.796C166.199 126.686 134.805 126.697 132 126.917ZM130.735 131.999C133.903 131.724 171.875 130.789 174.867 131.042C174.921 131.03 174.969 131 175.004 130.957C175.039 130.914 175.057 130.861 175.057 130.805C175.057 130.75 175.039 130.697 175.004 130.654C174.969 130.611 174.921 130.581 174.867 130.569C169.158 130.019 133.738 130.734 130.614 131.273C130.533 131.299 130.464 131.352 130.418 131.423C130.371 131.494 130.35 131.578 130.358 131.662C130.365 131.747 130.401 131.826 130.46 131.887C130.518 131.948 130.596 131.988 130.68 131.999H130.735ZM132.913 135.64C132.913 135.64 169.147 135.409 171.963 135.486C172.022 135.474 172.076 135.441 172.114 135.394C172.152 135.347 172.173 135.288 172.173 135.227C172.173 135.167 172.152 135.108 172.114 135.061C172.076 135.014 172.022 134.981 171.963 134.969C166.716 134.705 135.498 134.65 132.891 134.826C132.783 134.829 132.68 134.875 132.606 134.953C132.532 135.031 132.492 135.136 132.495 135.244C132.498 135.352 132.543 135.454 132.622 135.529C132.7 135.603 132.805 135.643 132.913 135.64ZM131.703 154.527C133.98 154.615 168.157 153.988 171.985 153.922C172.019 153.922 172.053 153.915 172.084 153.902C172.116 153.888 172.144 153.869 172.168 153.844C172.191 153.819 172.21 153.79 172.222 153.758C172.234 153.726 172.239 153.692 172.238 153.658C172.239 153.623 172.234 153.589 172.221 153.557C172.208 153.524 172.189 153.495 172.163 153.471C172.138 153.447 172.109 153.429 172.076 153.417C172.043 153.406 172.008 153.402 171.974 153.405C171.039 153.405 134.134 153.68 131.703 153.834C131.621 153.849 131.548 153.891 131.495 153.955C131.442 154.018 131.413 154.098 131.413 154.18C131.413 154.263 131.442 154.343 131.495 154.406C131.548 154.47 131.621 154.512 131.703 154.527ZM132.187 157.101C132.093 157.101 132.004 157.138 131.938 157.204C131.872 157.27 131.835 157.36 131.835 157.453C131.835 157.546 131.872 157.636 131.938 157.702C132.004 157.768 132.093 157.805 132.187 157.805C134.277 157.75 172.953 157.618 176.088 157.805C176.152 157.805 176.213 157.779 176.259 157.734C176.304 157.689 176.33 157.627 176.33 157.563C176.33 157.499 176.304 157.437 176.259 157.392C176.213 157.346 176.152 157.321 176.088 157.321C170.412 156.859 133.837 156.892 132.187 157.101ZM172.249 161.479C166.551 161.028 132.209 160.885 130.834 161.16C130.786 161.166 130.74 161.182 130.699 161.207C130.657 161.231 130.621 161.263 130.592 161.301C130.562 161.34 130.541 161.383 130.529 161.43C130.517 161.476 130.514 161.525 130.52 161.572C130.527 161.62 130.543 161.666 130.567 161.708C130.591 161.749 130.623 161.786 130.662 161.815C130.7 161.844 130.744 161.865 130.79 161.877C130.837 161.89 130.885 161.892 130.933 161.886C132.385 161.776 169.125 161.776 172.227 162.007C172.297 162.01 172.365 161.985 172.417 161.937C172.468 161.89 172.499 161.824 172.502 161.754C172.505 161.684 172.48 161.616 172.432 161.564C172.385 161.512 172.319 161.482 172.249 161.479ZM124.795 40.699H107.393C107.305 43.031 107.393 54.999 107.635 58.299L124.795 58.211C124.905 55.307 124.905 43.46 124.795 40.699ZM121.154 44.758C119.713 47.827 117.777 51.567 117.315 52.744C117.273 52.8636 117.201 52.9705 117.107 53.0543C117.012 53.1381 116.897 53.1961 116.773 53.2226C116.649 53.2492 116.521 53.2434 116.4 53.2058C116.279 53.1682 116.17 53.1 116.083 53.008C114.62 51.3171 112.995 49.7734 111.232 48.399C111.166 48.3531 111.11 48.2944 111.068 48.2265C111.026 48.1585 110.997 48.0827 110.985 48.0036C110.973 47.9245 110.977 47.8437 110.996 47.7661C111.016 47.6885 111.051 47.6157 111.1 47.552C111.186 47.4286 111.318 47.3444 111.466 47.3176C111.615 47.2909 111.767 47.3237 111.892 47.409C113.529 48.4931 115.045 49.7508 116.413 51.16C117.552 48.7724 118.818 46.448 120.208 44.197C120.29 44.0999 120.402 44.0342 120.527 44.0108C120.652 43.9874 120.781 44.0079 120.892 44.0688C121.003 44.1296 121.09 44.2271 121.138 44.3447C121.186 44.4623 121.191 44.5928 121.154 44.714V44.758ZM124.795 68.639H107.393C107.305 70.971 107.393 82.939 107.635 86.239L124.795 86.162C124.905 83.28 124.905 71.433 124.795 68.639ZM121.979 72.885C120.505 75.987 118.602 79.694 118.14 80.871C118.098 80.9906 118.026 81.0974 117.932 81.1813C117.837 81.2651 117.722 81.3231 117.598 81.3496C117.474 81.3762 117.346 81.3703 117.225 81.3327C117.104 81.2952 116.995 81.227 116.908 81.135C115.445 79.4441 113.82 77.9004 112.057 76.526C111.929 76.4296 111.844 76.2873 111.819 76.1292C111.795 75.9711 111.832 75.8097 111.925 75.679C111.967 75.6167 112.021 75.5635 112.083 75.5225C112.146 75.4814 112.217 75.4534 112.291 75.4401C112.364 75.4267 112.44 75.4284 112.513 75.4448C112.587 75.4613 112.656 75.4923 112.717 75.536C114.354 76.6201 115.87 77.8778 117.238 79.287C118.355 76.8946 119.611 74.5696 121 72.324C121.074 72.1942 121.197 72.0992 121.341 72.06C121.486 72.0208 121.64 72.0406 121.77 72.115C121.9 72.1894 121.995 72.3123 122.034 72.4567C122.073 72.6011 122.053 72.7552 121.979 72.885ZM124.795 97.162H107.393C107.305 99.494 107.393 111.462 107.635 114.762L124.795 114.685C124.905 111.803 124.905 99.956 124.795 97.162ZM120.56 109.262C120.66 109.364 120.716 109.502 120.715 109.645C120.714 109.789 120.656 109.926 120.554 110.026C120.452 110.127 120.314 110.183 120.171 110.182C120.027 110.181 119.89 110.123 119.79 110.021C118.921 109.284 118.074 108.503 117.007 107.546C116.163 108.429 115.254 109.249 114.29 109.999C114.187 110.079 114.057 110.118 113.927 110.108C113.797 110.099 113.675 110.041 113.585 109.947C113.494 109.852 113.442 109.728 113.439 109.597C113.435 109.467 113.479 109.34 113.564 109.24C114.334 108.338 115.126 107.458 115.918 106.589C115.148 105.918 113.212 104.279 112.167 103.465C112.084 103.39 112.022 103.295 111.986 103.189C111.95 103.083 111.942 102.97 111.962 102.86C111.982 102.75 112.029 102.647 112.099 102.561C112.17 102.474 112.261 102.407 112.365 102.365C112.464 102.325 112.573 102.311 112.679 102.327C112.785 102.342 112.886 102.386 112.97 102.453C114.147 103.355 115.511 104.422 116.853 105.588C117.788 104.554 118.701 103.531 119.559 102.486C119.61 102.419 119.675 102.363 119.748 102.321C119.822 102.279 119.903 102.253 119.987 102.242C120.071 102.232 120.156 102.239 120.237 102.262C120.319 102.284 120.395 102.323 120.461 102.376C120.608 102.491 120.704 102.659 120.728 102.844C120.753 103.029 120.704 103.216 120.593 103.366C119.603 104.653 118.756 105.676 117.942 106.578C118.869 107.41 119.744 108.299 120.56 109.24V109.262ZM124.795 123.408H107.393C107.305 125.74 107.393 137.708 107.635 141.008L124.795 140.931C124.905 138.049 124.905 126.202 124.795 123.408ZM122.1 128.435C120.549 131.735 118.723 135.244 118.261 136.421C118.22 136.543 118.148 136.652 118.053 136.737C117.957 136.823 117.84 136.882 117.715 136.909C117.589 136.935 117.459 136.929 117.337 136.889C117.214 136.85 117.104 136.78 117.018 136.685C115.552 135 113.927 133.461 112.167 132.087C112.039 131.991 111.954 131.848 111.929 131.69C111.905 131.532 111.942 131.371 112.035 131.24C112.078 131.177 112.133 131.124 112.196 131.083C112.26 131.042 112.332 131.014 112.406 131C112.481 130.987 112.558 130.989 112.632 131.005C112.706 131.022 112.776 131.053 112.838 131.097C114.473 132.184 115.989 133.441 117.359 134.848C118.493 132.455 119.76 130.126 121.154 127.874C121.229 127.751 121.35 127.663 121.49 127.629C121.63 127.594 121.778 127.616 121.902 127.69C122.026 127.763 122.117 127.882 122.154 128.022C122.19 128.161 122.171 128.31 122.1 128.435ZM124.795 149.654H107.393C107.305 151.975 107.393 163.954 107.635 167.254L124.795 167.166C124.905 164.295 124.905 152.448 124.795 149.654ZM119.691 161.314C119.758 161.392 119.802 161.488 119.816 161.59C119.831 161.692 119.816 161.796 119.773 161.89C119.73 161.984 119.661 162.063 119.574 162.119C119.488 162.175 119.387 162.205 119.284 162.205C118.998 162.205 119.053 162.205 116.149 159.598C115.302 160.479 114.394 161.299 113.432 162.051C113.329 162.123 113.204 162.156 113.079 162.144C112.954 162.132 112.838 162.076 112.75 161.986C112.663 161.896 112.611 161.778 112.602 161.653C112.594 161.528 112.631 161.404 112.706 161.303C113.476 160.401 114.268 159.521 115.06 158.641C114.279 157.97 112.343 156.32 111.298 155.517C111.215 155.442 111.153 155.347 111.117 155.241C111.081 155.135 111.073 155.022 111.093 154.912C111.113 154.802 111.16 154.699 111.23 154.613C111.301 154.526 111.392 154.459 111.496 154.417C111.596 154.374 111.706 154.359 111.814 154.372C111.922 154.386 112.025 154.428 112.112 154.494C113.289 155.407 114.664 156.474 115.995 157.64C116.93 156.606 117.832 155.583 118.69 154.527C118.742 154.459 118.808 154.403 118.883 154.361C118.958 154.319 119.04 154.293 119.125 154.284C119.21 154.274 119.297 154.282 119.379 154.307C119.461 154.332 119.537 154.373 119.603 154.428C119.75 154.543 119.846 154.711 119.87 154.896C119.895 155.081 119.846 155.268 119.735 155.418C118.887 156.517 118.002 157.589 117.084 158.63C118.009 159.469 118.879 160.365 119.691 161.314Z" fill="#4E6AF3"/>
<path d="M191.753 180.641C191.753 180.641 192.303 25.7173 192.292 25.3103C192.215 21.6803 192.116 17.9293 190.862 14.5633C190.306 12.8897 189.418 11.3452 188.252 10.0222C187.086 8.69926 185.665 7.62489 184.075 6.86332C182.266 6.19326 180.36 5.82175 178.432 5.76332C176.87 5.64232 109.242 5.36732 109.242 5.36732C107.407 5.27237 105.567 5.32756 103.742 5.53232C102.004 5.75336 100.331 6.3365 98.8324 7.24408C97.3336 8.15165 96.0419 9.36349 95.0407 10.8013C93.0387 13.6723 92.2247 17.1263 92.4557 21.6693C92.5437 23.4513 92.4557 140.623 92.4557 141.569C90.8323 138.714 88.7891 136.118 86.3947 133.869C86.2731 127.614 85.7957 121.37 84.9647 115.169C84.7328 113.266 84.2058 111.41 83.4027 109.669C81.6977 105.94 78.7387 101.518 74.6027 101.518C75.072 100.81 75.2704 99.9566 75.1613 99.114C75.0521 98.2715 74.6429 97.4965 74.0087 96.9313V95.2373C74.4416 95.1767 74.8547 95.0169 75.2157 94.7704C75.5767 94.5239 75.8758 94.1973 76.0898 93.8161C76.3039 93.435 76.4269 93.0095 76.4494 92.5729C76.4719 92.1364 76.3933 91.7005 76.2197 91.2993C75.9268 90.6942 75.5808 90.1162 75.1857 89.5723C75.7237 89.3948 76.1753 89.0213 76.4504 88.526C76.7256 88.0307 76.8042 87.45 76.6707 86.8993C77.2229 86.7412 77.7663 86.554 78.2987 86.3383C78.6306 86.2171 78.9366 86.0342 79.2007 85.7993C79.5504 86.1564 79.9889 86.414 80.471 86.5457C80.9532 86.6773 81.4618 86.6782 81.9445 86.5483C82.4271 86.4184 82.8665 86.1623 83.2175 85.8065C83.5685 85.4506 83.8184 85.0077 83.9417 84.5233C84.325 84.6139 84.7256 84.5999 85.1017 84.4827C85.4777 84.3656 85.8154 84.1496 86.0796 83.8574C86.3437 83.5652 86.5245 83.2075 86.6031 82.8215C86.6818 82.4356 86.6554 82.0356 86.5267 81.6633C86.8538 81.5658 87.1537 81.3936 87.4028 81.1601C87.6519 80.9267 87.8432 80.6385 87.9616 80.3184C88.0801 79.9982 88.1224 79.6549 88.0853 79.3156C88.0481 78.9763 87.9325 78.6503 87.7477 78.3633C89.4417 78.2423 89.5407 76.3393 88.4517 75.0633C88.7645 74.7999 89.0125 74.4679 89.1762 74.0932C89.34 73.7184 89.4153 73.311 89.3961 72.9024C89.377 72.4939 89.264 72.0952 89.0658 71.7374C88.8677 71.3797 88.5898 71.0723 88.2537 70.8393C88.6424 70.6383 88.9574 70.3192 89.1532 69.9278C89.3491 69.5365 89.4157 69.0931 89.3436 68.6614C89.2714 68.2298 89.0642 67.8321 88.7517 67.5257C88.4393 67.2193 88.0376 67.02 87.6047 66.9563C87.7443 66.5304 87.7933 66.0799 87.7484 65.634C87.7035 65.188 87.5658 64.7563 87.3441 64.3667C87.1224 63.9772 86.8216 63.6383 86.461 63.372C86.1005 63.1057 85.6882 62.9177 85.2507 62.8203C85.4927 60.6973 83.7107 59.3333 81.6317 59.5203C81.3277 59.0167 80.9275 58.578 80.454 58.2291C79.9804 57.8803 79.4427 57.6282 78.8717 57.4872C78.3007 57.3462 77.7074 57.3192 77.1259 57.4076C76.5444 57.4959 75.986 57.698 75.4827 58.0023C75.0884 57.6691 74.6252 57.4273 74.1265 57.2942C73.6277 57.1611 73.1056 57.1401 72.5977 57.2326C72.0899 57.3252 71.6088 57.529 71.189 57.8294C70.7692 58.1298 70.4211 58.5195 70.1697 58.9703C69.3613 58.8475 68.5349 58.9875 67.812 59.3697C67.0892 59.7519 66.5083 60.3561 66.1547 61.0933C65.6836 61.0509 65.2095 61.1322 64.7795 61.3292C64.3495 61.5262 63.9783 61.8321 63.7027 62.2165C63.4272 62.601 63.2567 63.0507 63.2083 63.5213C63.1599 63.9918 63.2352 64.4668 63.4267 64.8993C62.9553 65.3757 62.6562 65.9955 62.5765 66.6609C62.4968 67.3262 62.6411 67.9992 62.9867 68.5733C62.5771 69.0125 62.3586 69.5964 62.3792 70.1966C62.3998 70.7968 62.6579 71.3643 63.0967 71.7743C60.6987 72.5223 57.7287 74.6123 57.2777 77.0433C57.1195 78.1836 57.3857 79.3423 58.0257 80.2993C57.7064 83.015 57.5778 85.7497 57.6407 88.4833C57.7177 91.0353 57.9047 93.4773 59.4667 95.2813C59.9801 95.8891 60.6438 96.3518 61.3917 96.6233C60.9334 96.8853 60.5537 97.2651 60.2917 97.7233C60.0631 98.2892 59.968 98.9001 60.0138 99.5087C60.0595 100.117 60.245 100.707 60.5557 101.232C59.5794 101.602 58.6805 102.151 57.9047 102.849C57.7177 101.595 58.3887 101.232 59.0047 100.55C59.1615 100.42 59.2757 100.245 59.3325 100.049C59.3894 99.8531 59.3863 99.6446 59.3237 99.4503C59.2532 99.2866 59.1388 99.1455 58.9932 99.0427C58.8477 98.9398 58.6765 98.8791 58.4987 98.8673C58.1012 98.8796 57.7171 99.0141 57.3987 99.2523C56.8143 99.6248 56.2753 100.064 55.7927 100.561C55.2647 100.022 53.0537 97.7893 52.6687 97.3273C52.4157 97.0413 51.5687 96.1613 50.7657 96.7443C50.573 96.9125 50.4494 97.1462 50.419 97.4001C50.3885 97.6541 50.4532 97.9103 50.6007 98.1193C50.7877 98.5593 51.8877 100.132 52.2727 100.715C52.0952 100.867 51.9708 101.072 51.9174 101.299C51.864 101.527 51.8844 101.765 51.9757 101.98C51.2607 102.079 50.8757 102.904 51.4037 103.883C51.8833 104.796 52.4745 105.646 53.1637 106.413C49.4775 108.693 46.347 111.767 44.0007 115.411C43.4177 113.442 42.7247 111.264 42.1417 109.119C41.8337 108.019 41.0417 104.422 40.9757 103.828C40.9405 103.262 40.7862 102.71 40.5227 102.207C40.2592 101.705 39.8925 101.264 39.4467 100.913C39.401 99.7445 39.1861 98.5885 38.8087 97.4813C38.7634 97.4142 38.7119 97.3516 38.6547 97.2943C38.7731 97.1852 38.8834 97.0675 38.9847 96.9423C39.3477 98.0973 40.0847 99.8573 40.1507 100.077C40.2197 100.299 40.3539 100.494 40.5357 100.638C40.6893 100.709 40.8562 100.745 41.0252 100.745C41.1941 100.745 41.361 100.709 41.5147 100.638C43.4977 100.111 45.4189 99.3732 47.2457 98.4383C47.3337 98.4383 47.4547 98.2623 47.9827 97.5253C47.9933 97.5049 47.9988 97.4823 47.9988 97.4593C47.9988 97.4363 47.9933 97.4137 47.9827 97.3933C44.8587 84.9853 44.0667 81.6523 43.8027 80.7833C43.6817 80.3983 43.6707 80.4863 43.6047 80.4863C40.4857 80.5971 37.4508 81.5265 34.8047 83.1813C34.7504 83.2156 34.7077 83.2654 34.6822 83.3242C34.6567 83.3831 34.6495 83.4483 34.6617 83.5113C35.1718 85.84 35.9086 88.1132 36.8617 90.2983C34.9477 91.9703 33.9247 96.1063 33.7597 96.8983C33.5454 96.958 33.3505 97.0726 33.1942 97.2308C33.0379 97.389 32.9257 97.5854 32.8687 97.8003C32.6722 99.0459 32.5509 100.302 32.5057 101.562C30.2067 105.258 30.9327 114.828 31.2957 118.634C31.7027 123.034 32.6597 127.797 36.5867 129.964C37.5802 130.482 38.6436 130.852 39.7437 131.064C40.863 131.334 41.9982 131.532 43.1427 131.658C45.3771 131.797 47.603 131.277 49.5447 130.162C49.1487 131.801 48.5767 133.935 47.8617 136.509C45.0897 139.391 40.2717 138.896 36.4877 139.006C27.8197 139.237 19.7787 140.821 13.3877 146.706C10.6819 149.152 8.59133 152.202 7.28589 155.608C5.98046 159.014 5.49695 162.68 5.87466 166.308C6.05066 167.705 6.10566 167.76 6.14966 167.804C6.84517 168.521 7.60764 169.169 8.42666 169.74C8.67966 175.592 10.0657 187.054 10.2307 188.44C9.52354 188.58 8.89076 188.971 8.44866 189.54C8.29528 189.776 8.21364 190.051 8.21364 190.332C8.21364 190.613 8.29528 190.889 8.44866 191.124C10.7477 198.824 11.6827 204.39 12.0677 206.04C8.76766 206.733 7.31566 210.308 7.26066 210.682C7.23828 210.778 7.23582 210.877 7.25344 210.974C7.27106 211.07 7.30838 211.162 7.36307 211.244C7.41776 211.325 7.48866 211.395 7.57134 211.448C7.65403 211.5 7.74672 211.536 7.84366 211.551C8.37166 211.65 11.7927 211.947 12.8377 212.046C12.8683 212.367 13.0173 212.665 13.2557 212.882C13.8363 213.328 14.561 213.543 15.2907 213.487C17.5567 213.487 26.2907 213.135 27.9737 213.047C28.0332 213.038 28.0896 213.014 28.1376 212.978C28.1856 212.941 28.2238 212.893 28.2487 212.838L29.4697 209.296C44.3747 213.553 59.2467 216.996 73.9427 212.354C78.5693 210.813 83.0434 208.846 87.3077 206.48C90.0579 204.984 92.5199 203.009 94.5787 200.65C94.9212 201.801 95.5106 202.863 96.3057 203.763C99.1767 207.547 103.61 209.802 109.715 209.582C112.443 209.494 172.58 209.483 172.921 209.472C174.598 209.458 176.273 209.341 177.937 209.12C185.692 207.921 191.236 202.652 191.984 194.237C192.358 190.607 191.72 189.133 191.753 180.641ZM74.0527 93.4993C73.9066 92.3139 74.0618 91.1109 74.5037 90.0013C74.7375 90.2313 74.9309 90.499 75.0757 90.7933C76.1867 92.9493 75.1857 93.8733 74.0527 93.4993ZM74.4487 76.4493C77.0667 79.7493 76.6487 84.0063 76.2527 86.0523C76.0559 85.7995 75.8063 85.5928 75.5213 85.4464C75.2363 85.3001 74.9228 85.2178 74.6027 85.2053C73.92 83.6806 73.0794 82.2317 72.0947 80.8823C70.9067 79.2433 70.3017 78.3193 68.7947 77.5823C67.5234 75.3877 65.6014 73.6425 63.2947 72.5883C65.3254 72.0622 67.4661 72.1457 69.4497 72.8284C71.4333 73.5111 73.1719 74.7628 74.4487 76.4273V76.4493ZM59.8187 74.4583C60.4979 73.7353 61.425 73.2953 62.4147 73.2263C63.2146 73.281 63.9803 73.5719 64.6147 74.0623C65.7883 74.9295 66.8328 75.9592 67.7167 77.1203C66.0199 76.6704 64.2406 76.6289 62.5247 76.9993C61.6922 77.1155 60.8932 77.4045 60.179 77.8478C59.4648 78.2911 58.8512 78.8788 58.3777 79.5733C57.5637 77.8683 57.6187 76.4603 59.8187 74.4363V74.4583ZM58.6637 91.9703C58.1247 89.2863 58.3887 83.5663 58.6637 80.7833C59.2577 79.6833 59.4777 79.6833 59.4777 79.6833C59.6647 79.8373 59.4777 80.9703 59.9287 81.1243C60.3797 81.2783 60.6987 80.6953 61.1827 80.0243C61.4247 79.6833 61.8537 79.0563 62.0077 79.0563C62.0985 79.3364 62.1322 79.632 62.1067 79.9253C62.1067 80.4863 62.1067 81.0253 62.4147 81.0253C62.7227 81.0253 63.1077 80.6293 63.6357 79.7933C63.8486 79.3952 64.111 79.0256 64.4167 78.6933C64.4721 79.0173 64.4721 79.3483 64.4167 79.6723C64.4167 80.4093 64.3397 81.0473 64.7137 81.2013C65.3957 81.4763 66.5397 79.3423 67.1227 78.9133C67.1227 79.6393 66.1107 81.8503 66.7597 82.2133C67.4087 82.5763 68.8717 80.7503 69.5097 80.3983C69.3557 81.0693 68.1677 82.7853 68.6627 83.2253C69.1577 83.6653 70.8627 82.1253 71.5667 81.9713C71.3467 82.5983 69.8397 84.1713 70.2467 84.6333C70.4777 84.8863 70.9947 84.6333 71.8197 84.2373C72.1664 84.045 72.536 83.8972 72.9197 83.7973C72.6801 84.2668 72.3806 84.7031 72.0287 85.0953C71.2697 86.0743 70.8077 86.6793 71.0497 87.0093C71.2917 87.3393 71.7977 87.3063 74.4707 85.9093C74.7595 85.9031 75.0442 85.9782 75.2923 86.1261C75.5405 86.2739 75.742 86.4886 75.8739 86.7456C76.0059 87.0026 76.0629 87.2915 76.0384 87.5793C76.014 87.8671 75.909 88.1423 75.7357 88.3733C75.4572 88.705 75.0649 88.9207 74.6357 88.9783C74.4109 88.7915 74.2338 88.554 74.1187 88.2853C73.9537 87.8343 73.2167 88.0433 73.3927 88.5163C73.5937 88.8846 73.8373 89.228 74.1187 89.5393C73.5329 90.6378 73.2951 91.8885 73.4367 93.1253C72.3367 92.2563 72.4357 91.2443 73.4367 90.2653C73.7447 89.9683 73.4367 89.4073 73.0847 89.6053C70.8187 90.7053 70.7967 94.8193 73.4587 95.2043V96.6453C71.4109 96.4042 69.3492 96.3013 67.2877 96.3373C65.7034 96.2093 64.1133 96.1689 62.5247 96.2163C60.3687 95.8753 59.0487 93.8513 58.6637 91.9703ZM60.7647 98.4603C60.7992 98.1941 60.892 97.9388 61.0365 97.7125C61.181 97.4863 61.3737 97.2946 61.6007 97.1513C62.3487 96.6453 63.0087 96.6783 72.0397 97.1513C72.6382 97.1202 73.2352 97.2373 73.7777 97.4923C74.1447 97.8525 74.4049 98.3073 74.5291 98.8063C74.6534 99.3054 74.637 99.8291 74.4817 100.319C74.3203 100.884 73.976 101.379 73.5027 101.727C72.1277 103.487 67.1337 103.003 64.3947 102.442H64.1857C63.1187 102.178 60.4237 101.705 60.7647 98.4603ZM61.4687 109.075C61.7904 107.995 62.0295 106.892 62.1837 105.775C63.5801 106.565 65.1147 107.08 66.7047 107.293C66.0628 108.306 65.5353 109.387 65.1317 110.516C63.7908 110.427 62.5107 109.924 61.4687 109.075ZM64.8787 111.275C64.3353 113.1 64.0538 114.993 64.0427 116.896C63.295 114.625 62.2873 112.447 61.0397 110.406C61.1277 110.175 61.2047 109.955 61.2707 109.724C62.332 110.535 63.5804 111.064 64.9007 111.264L64.8787 111.275ZM62.2607 105.071C62.3906 104.257 62.4165 103.429 62.3377 102.607C64.7728 103.455 67.3565 103.792 69.9277 103.597C68.9573 104.529 68.0462 105.521 67.1997 106.567C65.4618 106.446 63.7735 105.935 62.2607 105.071ZM62.4807 114.575C59.2687 114.366 56.7497 115.532 54.1647 117.171C53.8897 117.347 54.1647 117.787 54.4287 117.6C55.8257 116.742 59.3897 114.806 62.7557 115.268C64.2847 119.327 64.0977 119.129 64.2627 119.151C64.2988 119.157 64.3357 119.15 64.3676 119.132C64.3994 119.114 64.4244 119.086 64.4387 119.052C65.6453 116.22 67.0456 113.475 68.6297 110.835C70.1587 108.305 71.1047 107.062 72.7327 106.435C73.3699 106.133 74.0609 105.961 74.7654 105.929C75.4698 105.897 76.1736 106.006 76.8357 106.248C79.7617 107.469 80.2787 111.748 80.5537 114.08C80.7811 116 80.6844 117.945 80.2677 119.833C78.3044 117.191 75.5728 115.22 72.4467 114.19C71.2382 113.852 69.9784 113.737 68.7287 113.849C68.6665 113.862 68.6106 113.896 68.5705 113.945C68.5303 113.994 68.5084 114.055 68.5084 114.119C68.5084 114.182 68.5303 114.244 68.5705 114.293C68.6106 114.342 68.6665 114.376 68.7287 114.388C70.8586 114.321 72.9641 114.858 74.8007 115.939C76.8305 117.174 78.6043 118.787 80.0257 120.691C79.6957 121.417 77.2207 126.95 76.5717 128.391C74.8494 125.062 72.4913 122.102 69.6307 119.679C68.6825 118.715 67.4998 118.014 66.1987 117.644C66.1341 117.641 66.0704 117.661 66.0188 117.7C65.9672 117.739 65.931 117.794 65.9165 117.858C65.9021 117.921 65.9103 117.987 65.9398 118.044C65.9693 118.102 66.0181 118.147 66.0777 118.172C67.1554 118.497 68.1324 119.091 68.9157 119.899C69.8667 120.689 70.76 121.545 71.5887 122.462C73.4249 124.495 74.9654 126.776 76.1647 129.238C72.8647 136.938 66.8037 137.444 65.6267 137.477C65.9306 135.582 66.0815 133.666 66.0777 131.746C66.1431 128.119 65.6231 124.505 64.5377 121.043C64.5129 120.973 64.4622 120.914 64.3959 120.879C64.3296 120.844 64.2525 120.835 64.1802 120.855C64.1078 120.874 64.0454 120.92 64.0057 120.984C63.9659 121.047 63.9516 121.124 63.9657 121.197C64.555 123.382 64.9633 125.612 65.1867 127.863C65.5585 131.049 65.5178 134.269 65.0657 137.444C57.7507 136.168 54.9677 127.544 54.7147 126.686C55.2537 125.861 58.6197 120.911 62.9647 119.591C63.0187 119.562 63.0609 119.515 63.0842 119.459C63.1074 119.402 63.1101 119.339 63.0919 119.28C63.0737 119.222 63.0356 119.171 62.9843 119.138C62.933 119.104 62.8716 119.09 62.8107 119.096C59.3791 120.316 56.4475 122.636 54.4727 125.696C53.4636 122.65 52.9293 119.467 52.8887 116.258C52.8116 114.728 53.1579 113.205 53.8897 111.858C55.2317 109.867 58.4107 109.603 60.2037 110.758C60.8307 111.099 62.0297 113.497 62.4807 114.575ZM77.9577 141.602C77.9608 141.627 77.9586 141.652 77.9511 141.676C77.9437 141.7 77.9313 141.723 77.9146 141.741C77.8979 141.76 77.8774 141.775 77.8545 141.785C77.8316 141.795 77.8067 141.801 77.7817 141.8C74.4817 142.064 70.9177 141.503 68.8387 138.885C68.5637 138.544 69.0697 138.104 69.3227 138.445C71.3577 141.052 74.9107 141.25 77.7817 141.415C77.8269 141.424 77.8682 141.447 77.8998 141.48C77.9314 141.514 77.9516 141.557 77.9577 141.602ZM62.4037 139.908C62.2185 139.855 62.0584 139.737 61.9518 139.577C61.8451 139.416 61.7989 139.223 61.8214 139.032C61.8438 138.84 61.9335 138.663 62.0743 138.531C62.2152 138.4 62.3982 138.323 62.5907 138.313C62.7425 138.292 62.8973 138.314 63.0373 138.377C63.1772 138.439 63.2966 138.54 63.3817 138.668C63.4667 138.795 63.514 138.944 63.5181 139.098C63.5222 139.251 63.4828 139.402 63.4047 139.534C63.3033 139.699 63.1498 139.826 62.9684 139.893C62.7871 139.961 62.5883 139.966 62.4037 139.908ZM62.1067 143.208C61.8786 143.144 61.685 142.993 61.5677 142.787C61.4504 142.581 61.4188 142.337 61.4797 142.108C61.53 141.943 61.6257 141.795 61.7561 141.681C61.8864 141.567 62.046 141.492 62.2168 141.465C62.3876 141.437 62.5626 141.458 62.7221 141.525C62.8815 141.592 63.0189 141.703 63.1187 141.844C63.2273 142 63.2848 142.185 63.2832 142.375C63.2816 142.565 63.2209 142.749 63.1096 142.903C62.9983 143.056 62.8419 143.172 62.6622 143.232C62.4825 143.293 62.2883 143.296 62.1067 143.241V143.208ZM60.6437 136.498C60.4787 137.136 60.3137 137.774 60.1377 138.401C57.9049 137.779 55.8458 136.649 54.1207 135.101C54.5717 133.528 55.0007 131.933 55.3857 130.349C56.6067 132.809 58.412 134.931 60.6437 136.531V136.498ZM54.5057 110.098C53.9956 110.434 53.5611 110.872 53.2297 111.385C53.2957 108.316 52.9877 107.931 54.3297 107.579C54.3165 108.433 54.3754 109.287 54.5057 110.131V110.098ZM54.8467 107.447C55.0777 107.447 55.6167 107.282 55.9467 107.227C55.9467 107.667 56.1117 108.91 56.1447 109.427C55.7648 109.519 55.396 109.652 55.0447 109.823C55.0007 109.295 54.8467 108.008 54.8467 107.48V107.447ZM56.4747 107.15L57.2557 107.062C57.5297 107.776 57.7395 108.512 57.8827 109.262C57.5347 109.24 57.1856 109.24 56.8377 109.262C56.7556 108.563 56.6344 107.869 56.4747 107.183V107.15ZM58.8507 107.084C59.0528 107.438 59.1831 107.828 59.234 108.232C59.285 108.636 59.2556 109.046 59.1477 109.438L58.4767 109.317C58.3565 108.531 58.1499 107.76 57.8607 107.018C58.1926 107.028 58.5234 107.061 58.8507 107.117V107.084ZM52.1847 104.147C51.9097 103.718 51.5357 103.146 51.7887 102.75C52.0417 102.354 52.6907 102.992 53.1087 103.289C53.3507 103.465 53.6037 103.168 53.3947 102.937C53.1345 102.637 52.8304 102.377 52.4927 102.167C52.3782 102.003 52.3235 101.804 52.3375 101.604C52.3515 101.404 52.4334 101.214 52.5697 101.067L53.9007 102.717C54.1207 103.014 54.5387 102.64 54.3077 102.365C53.8347 101.76 51.8877 99.2303 51.4367 98.5263C51.2387 98.2183 50.8317 97.5913 51.0737 97.3493C51.3157 97.1073 51.7557 97.3493 51.9427 97.5693C52.1297 97.7893 55.3417 101.155 55.8257 101.485C55.8819 101.515 55.9467 101.525 56.009 101.512C56.0714 101.499 56.1275 101.466 56.1677 101.416C56.2079 101.367 56.2298 101.305 56.2296 101.242C56.2294 101.178 56.2072 101.116 56.1667 101.067C56.5627 100.649 57.8937 99.4833 58.4657 99.4833C58.5516 99.474 58.6377 99.4987 58.7056 99.5522C58.7735 99.6057 58.8176 99.6836 58.8287 99.7693C58.8287 99.9783 58.5537 100.231 58.3557 100.44C56.8707 101.958 57.2007 102.233 57.9267 106.424C56.7588 106.502 55.5996 106.678 54.4617 106.952C53.5859 106.131 52.8205 105.199 52.1847 104.18V104.147ZM38.8417 100.462L38.4677 100.242C38.5686 99.8354 38.6239 99.4185 38.6327 98.9993C38.6767 99.3623 38.6767 99.3293 38.8417 100.462ZM35.3657 83.5993C37.6178 82.319 40.0994 81.493 42.6697 81.1683C44.1363 86.7563 45.57 92.3443 46.9707 97.9323C44.9961 98.8142 42.9592 99.5495 40.8767 100.132C40.7777 100.132 40.7777 100.132 40.7337 100.022C40.6127 99.7583 39.6337 97.3713 39.4247 96.4473C40.0622 95.5715 40.4431 94.5355 40.5247 93.4553C41.1297 93.4553 42.4497 93.3893 42.9007 92.7403C43.0278 92.5599 43.0815 92.3378 43.0508 92.1192C43.0202 91.9006 42.9075 91.7019 42.7357 91.5633C43.0877 91.1563 43.0217 90.6723 42.3397 90.3753C42.4167 89.4733 41.5367 89.2753 40.6347 89.2753C39.5341 89.2652 38.4449 89.4981 37.4447 89.9573C36.5658 87.9033 35.8701 85.7757 35.3657 83.5993ZM34.9367 94.9073C35.7837 92.3663 36.5647 90.5843 38.9627 89.9903C39.5326 89.8628 40.118 89.8184 40.7007 89.8583C41.1187 89.8583 41.7237 89.8583 41.7127 90.2653L39.2487 90.4853C38.8417 90.4853 38.9187 91.0353 39.3257 90.9583C40.199 90.7921 41.0911 90.7477 41.9767 90.8263C42.3507 90.8813 42.4277 91.0353 42.1197 91.3543C41.1195 91.173 40.0948 91.173 39.0947 91.3543C38.6877 91.4313 38.7647 91.8493 39.0947 91.7833C40.0737 91.6183 41.9767 91.5413 42.3177 91.9593C42.3498 91.9899 42.3737 92.0282 42.3872 92.0704C42.4006 92.1127 42.4032 92.1578 42.3947 92.2013C42.3947 92.3003 42.2077 92.4433 41.6577 92.5973C41.1068 92.751 40.5347 92.8141 39.9637 92.7843C39.8954 92.7812 39.8286 92.8047 39.7774 92.8499C39.7261 92.895 39.6943 92.9582 39.6887 93.0263C39.6825 93.1005 39.7054 93.1741 39.7527 93.2317C39.7999 93.2892 39.8677 93.326 39.9417 93.3343C39.8234 94.7157 39.1678 95.9954 38.1157 96.8983C36.8996 96.6136 35.6382 96.5799 34.4087 96.7993C34.5737 96.1063 34.7497 95.5013 34.9367 94.9183V94.9073ZM36.5097 97.2833C36.9613 97.2856 37.41 97.3561 37.8407 97.4923C38.1347 98.2932 38.1731 99.1656 37.9507 99.9893C37.4689 99.795 36.9611 99.6727 36.4437 99.6263C36.5081 98.8508 36.5302 98.0723 36.5097 97.2943V97.2833ZM35.8827 99.6153C35.4276 99.6308 34.9781 99.72 34.5517 99.8793C34.3173 99.0417 34.3915 98.1478 34.7607 97.3603L35.9487 97.2833C35.9709 98.0649 35.9489 98.8472 35.8827 99.6263V99.6153ZM33.4187 98.3393C33.5067 97.7783 33.5617 97.5473 34.1557 97.4483C33.9374 97.8524 33.8123 98.3002 33.7894 98.7589C33.7666 99.2176 33.8466 99.6756 34.0237 100.099C33.7127 100.267 33.4274 100.478 33.1767 100.726C33.2168 99.9271 33.2976 99.1304 33.4187 98.3393ZM34.0347 100.924C34.899 100.422 35.9116 100.237 36.8978 100.402C37.8839 100.566 38.7816 101.07 39.4357 101.826C40.0958 102.702 40.4789 103.756 40.5357 104.851C40.6457 105.412 40.6567 105.137 40.4697 105.291C39.29 106.113 37.9186 106.617 36.4877 106.754C34.9794 106.804 33.4783 106.526 32.0877 105.94C32.2417 104.103 32.6157 101.892 34.0347 100.924ZM42.3507 130.899C42.9337 130.008 44.9357 126.334 43.9567 120.218C43.7192 119.141 43.3107 118.108 42.7467 117.16C42.5817 116.83 42.0867 117.094 42.2407 117.424C43.2753 119.527 43.7562 121.86 43.6377 124.2C43.5556 126.519 42.914 128.783 41.7677 130.8C41.2837 130.701 39.3477 130.305 38.4677 130.008C36.6021 129.373 35.0357 128.073 34.0677 126.356C33.1539 124.297 32.5177 122.126 32.1757 119.899C37.3017 119.25 40.5577 117.501 42.0757 114.575C42.1077 114.523 42.1177 114.46 42.1032 114.4C42.0888 114.34 42.0512 114.288 41.9987 114.256C41.9461 114.224 41.883 114.214 41.8232 114.229C41.7634 114.243 41.7118 114.281 41.6797 114.333C39.7877 117.05 36.6417 118.667 32.0547 119.283C31.8677 117.413 31.6697 113.376 31.6257 112.122C32.9776 113.093 34.6346 113.543 36.2918 113.389C37.949 113.236 39.4951 112.489 40.6457 111.286C40.685 111.247 40.7072 111.194 40.7072 111.138C40.7072 111.082 40.685 111.029 40.6457 110.989C40.6063 110.95 40.5529 110.928 40.4972 110.928C40.4415 110.928 40.388 110.95 40.3487 110.989C39.1689 112.073 37.6413 112.7 36.0405 112.759C34.4396 112.817 32.8704 112.303 31.6147 111.308C31.6147 109.889 31.8237 107.293 31.8897 106.523C33.3379 107.153 34.9099 107.446 36.4877 107.381C38.0262 107.322 39.5043 106.766 40.7007 105.797C41.9327 110.681 43.6267 116.082 43.6597 116.203C43.6724 116.255 43.6999 116.302 43.7387 116.338C43.7776 116.375 43.8261 116.399 43.8785 116.408C43.931 116.418 43.9849 116.412 44.0339 116.391C44.083 116.37 44.1249 116.335 44.1547 116.291C45.0457 115.191 48.0377 110.175 53.5267 106.875L53.7907 107.128C52.5477 107.579 52.6027 108.47 52.5807 109.713C52.5146 110.739 52.5146 111.768 52.5807 112.793C52.0798 115.083 51.9794 117.443 52.2837 119.767C52.1847 120.229 51.8107 121.725 51.5687 122.638C50.9676 119.354 49.6698 116.237 47.7627 113.497C47.5537 113.189 47.0807 113.497 47.2897 113.794C49.3586 116.973 50.6476 120.595 51.0517 124.365C50.9197 124.827 49.9517 128.655 49.7757 129.381C46.9267 130.778 45.2437 131.383 42.3507 130.899ZM6.71066 167.474C6.17536 163.91 6.5012 160.27 7.66092 156.858C8.82063 153.446 10.7805 150.361 13.3767 147.861C19.6027 141.679 27.4017 140.161 36.0807 139.765C39.8427 139.6 44.4407 140.095 47.5977 137.565C47.5977 137.675 47.5207 137.785 47.5977 137.862C48.2137 138.291 51.4147 140.062 52.2287 140.48C52.2495 140.489 52.272 140.493 52.2946 140.493C52.3172 140.493 52.3395 140.488 52.3602 140.479C52.3808 140.469 52.3993 140.456 52.4145 140.439C52.4298 140.422 52.4414 140.403 52.4487 140.381C52.8227 139.281 53.5487 136.74 53.8677 135.882C55.5901 137.446 57.6721 138.561 59.9287 139.127L58.7407 143.527C58.7337 143.564 58.7385 143.602 58.7543 143.635C58.7701 143.669 58.7961 143.696 58.8287 143.714C66.6008 147.977 75.3668 150.095 84.2277 149.852C83.7767 155.924 81.1037 160.951 76.9677 165.472C66.6827 162.051 55.2097 161.435 46.3217 167.672C46.2774 167.698 46.2408 167.735 46.2156 167.779C46.1905 167.824 46.1777 167.874 46.1787 167.925C46.1545 171.032 45.6954 174.12 44.8147 177.099C44.6607 177.517 44.5177 177.726 44.0887 177.77C43.1757 177.847 42.2297 177.847 41.4157 177.847C32.7367 177.847 23.8157 175.262 15.6867 172.435C12.4967 171.368 9.19666 169.993 6.71066 167.474ZM30.6797 197.009C26.4227 198.109 21.6487 196.052 20.4937 195.524C20.3947 193.841 19.2287 181.389 19.0747 174.382C24.9409 176.373 31.0034 177.73 37.1587 178.43C35.1347 183.413 31.1747 195.161 30.6797 197.009ZM32.1317 194.699C32.7697 195.315 32.2417 196.074 31.5267 196.58C31.7137 196.052 31.9007 195.447 32.1317 194.699ZM19.8887 195.238C19.4955 195.069 19.158 194.793 18.9148 194.441C18.6716 194.088 18.5326 193.675 18.5137 193.247C18.5197 192.947 18.6344 192.658 18.8367 192.436C19.0389 192.213 19.315 192.072 19.6137 192.037C19.6577 193.126 19.8007 194.204 19.8887 195.271V195.238ZM9.10866 170.213C12.0743 171.912 15.2364 173.242 18.5247 174.173C18.7117 179.739 19.4157 189.914 19.5147 191.366C19.1229 191.455 18.763 191.65 18.474 191.93C18.1851 192.209 17.9781 192.562 17.8757 192.95C15.3127 193.808 12.0567 192.785 11.4737 192.576C11.3087 191.135 9.60366 179.222 9.10866 170.246V170.213ZM10.3407 189.023C10.4397 189.837 10.6597 191.487 10.8027 192.323C8.16266 191.058 8.38266 189.705 10.3407 189.056V189.023ZM12.9477 211.474L7.97566 211.001C7.72266 211.001 8.17366 210.187 8.31666 209.901C8.70549 209.11 9.25431 208.408 9.92838 207.84C10.6024 207.272 11.3871 206.85 12.2327 206.601C12.4087 206.601 12.6067 206.513 12.6507 206.337C11.8396 201.503 10.7153 196.726 9.28466 192.037C10.4964 192.858 11.8617 193.426 13.2984 193.705C14.735 193.985 16.2134 193.971 17.6447 193.665C17.4653 194.696 17.4062 195.745 17.4687 196.789C17.5457 199.231 18.7667 206.623 19.0747 208.493C17.564 208.837 16.0731 209.263 14.6087 209.769C13.8647 210.131 13.2753 210.748 12.9477 211.507V211.474ZM27.7647 212.508L23.4967 212.684C24.069 211.587 24.8721 210.626 25.8507 209.868C26.8611 209.13 28.0037 208.592 29.2167 208.284C28.9417 209.12 28.1827 211.342 27.7647 212.541V212.508ZM29.4477 207.624C27.9941 207.841 26.6189 208.422 25.4497 209.312C24.2805 210.202 23.3552 211.374 22.7597 212.717C21.2527 212.783 15.2907 212.915 14.6857 212.805C13.1347 212.53 13.3107 211.342 14.7517 210.605C15.3677 210.286 18.2167 209.505 19.1517 209.252L19.2177 209.56C19.2375 209.633 19.2832 209.696 19.346 209.737C19.4089 209.778 19.4847 209.795 19.5591 209.784C19.6334 209.773 19.7013 209.735 19.7498 209.678C19.7984 209.621 19.8243 209.547 19.8227 209.472C19.7715 208.775 19.6796 208.08 19.5477 207.393C20.0992 207.525 20.6717 207.543 21.2307 207.448C21.2846 207.432 21.33 207.395 21.3568 207.346C21.3837 207.296 21.3897 207.238 21.3737 207.184C21.3576 207.13 21.3208 207.085 21.2713 207.058C21.2218 207.031 21.1636 207.025 21.1097 207.041C20.5429 207.03 19.9803 206.941 19.4377 206.777C19.3607 206.326 19.1187 204.797 18.9867 203.95C20.6037 204.544 21.7587 204.016 21.5277 203.631C21.4979 203.582 21.4517 203.545 21.3973 203.527C21.3429 203.509 21.2839 203.511 21.2307 203.532C20.8413 203.657 20.4299 203.696 20.024 203.649C19.618 203.602 19.2268 203.468 18.8767 203.257L18.5577 201.145C19.5178 201.407 20.5223 201.463 21.5057 201.31C21.5495 201.289 21.5845 201.253 21.6045 201.208C21.6246 201.164 21.6284 201.114 21.6153 201.067C21.6023 201.02 21.5731 200.979 21.533 200.951C21.4929 200.923 21.4443 200.91 21.3957 200.914C20.3987 200.937 19.4052 200.788 18.4587 200.474C18.3817 199.946 18.3267 199.506 18.2827 199.099C18.818 199.354 19.4075 199.474 19.9999 199.449C20.5922 199.424 21.1696 199.255 21.6817 198.956C21.7193 198.93 21.7472 198.892 21.7611 198.848C21.775 198.805 21.7742 198.758 21.7587 198.714C21.7337 198.675 21.6959 198.646 21.6516 198.632C21.6074 198.618 21.5596 198.62 21.5167 198.637C20.9882 198.868 20.4117 198.966 19.8368 198.924C19.2618 198.882 18.7058 198.7 18.2167 198.395C18.0959 197.159 18.0959 195.914 18.2167 194.677C18.6035 195.219 19.1172 195.657 19.7127 195.953C20.9653 196.604 22.291 197.102 23.6617 197.438C25.7847 197.977 29.6677 198.461 31.6147 197.438C32.1261 197.167 32.5525 196.76 32.8467 196.261C32.8689 196.506 32.8689 196.753 32.8467 196.998C32.8027 198.296 30.1737 205.545 29.4477 207.657V207.624ZM89.3647 204.324C85.4011 206.839 81.1876 208.937 76.7917 210.583C60.9407 216.699 46.2777 213.399 29.7007 208.801C33.4847 197.856 33.5287 198.032 33.5287 196.778C33.5668 196.271 33.4783 195.762 33.2709 195.297C33.0635 194.833 32.7438 194.427 32.3407 194.116C32.9457 192.235 36.9277 180.806 37.8407 178.485C39.8646 178.641 41.8964 178.667 43.9237 178.562C44.7597 178.562 45.1667 178.408 45.5077 177.55C46.4711 174.492 46.9245 171.296 46.8497 168.09C51.0655 165.392 55.9275 163.872 60.9297 163.69C69.7297 163.228 77.6386 166.088 85.6247 169.531C85.9107 169.652 86.1197 169.234 85.8447 169.102C83.2655 167.853 80.6176 166.752 77.9137 165.802C80.6527 163.899 86.6477 157.156 86.4497 134.881C94.6337 142.944 97.5597 155.44 99.6497 166.979C100.642 171.982 101.033 177.086 100.816 182.181C100.156 191.102 96.7347 199.319 89.3647 204.39V204.324ZM100.893 170.51C100.226 165.764 99.3039 161.056 98.1317 156.408C98.1317 146.981 97.5377 21.6473 97.5157 16.4003C109.616 16.1473 179.653 16.4003 186.957 16.5983C187.199 40.2263 187.276 177.198 187.221 191.036C176.034 191.036 108.637 190.915 99.8697 190.97C101.982 184.37 101.85 177.495 100.893 170.576V170.51ZM191.258 189.287C191.456 192.84 191.39 197.438 188.97 201.387C186.783 204.762 183.351 207.135 179.422 207.987C177.419 208.415 175.376 208.629 173.328 208.625C171.205 208.691 108.307 208.878 107.13 208.79C103.523 208.491 100.159 206.85 97.7027 204.192C96.4334 203.024 95.567 201.484 95.2277 199.792C97.1506 197.299 98.6382 194.499 99.6277 191.509H187.507C187.55 191.509 187.593 191.501 187.632 191.484C187.672 191.467 187.708 191.442 187.738 191.41C188.233 190.893 187.738 30.9973 187.507 16.2463C187.53 16.1977 187.541 16.144 187.539 16.0901C187.537 16.0361 187.522 15.9834 187.495 15.9367C187.468 15.89 187.43 15.8507 187.384 15.8222C187.338 15.7937 187.286 15.7769 187.232 15.7733C187.232 15.7733 103.423 15.3333 97.1417 15.4873C96.8007 15.4873 96.8447 15.7293 96.8447 15.9163C96.7787 22.7363 97.3397 153.24 97.3397 153.416C96.3138 149.699 94.9057 146.097 93.1377 142.669C93.1377 141.261 93.3577 23.7153 93.3247 22.9563C93.1597 19.5463 93.0057 16.3563 94.4247 13.1663C96.1847 9.69032 98.5937 7.69932 102.356 6.94032C104.699 6.48932 125.159 6.55532 176.551 6.75332C183.261 6.75332 187.815 8.28232 190.202 15.1133C191.357 18.4133 191.434 22.0763 191.511 25.6293C191.709 36.0573 190.774 181.224 191.258 189.353V189.287Z" fill="#2A344A"/>
<rect y="184" width="36" height="36" rx="18" fill="#4E6AF3"/>
<path d="M19.3447 195.133V208H17.7188V197.163L14.4404 198.358V196.891L19.0898 195.133H19.3447Z" fill="white"/>
<path d="M77.2809 153.192C77.2438 153.252 77.1844 153.294 77.1159 153.31C71.5071 154.606 65.6292 154.044 60.3677 151.709C55.1062 149.374 50.7459 145.392 47.9439 140.363C47.92 140.305 47.918 140.239 47.9385 140.179C47.9589 140.119 48.0003 140.068 48.0551 140.036C48.1098 140.004 48.1744 139.993 48.2368 140.004C48.2992 140.016 48.3553 140.05 48.3949 140.099C51.2126 144.963 55.4967 148.81 60.6339 151.09C65.7712 153.37 71.4981 153.966 76.9949 152.793C77.0634 152.777 77.1356 152.789 77.1954 152.826C77.2552 152.864 77.2978 152.923 77.3139 152.991C77.3299 153.06 77.3181 153.132 77.2809 153.192Z" fill="#2A344A"/>
<path d="M41.6079 164.607C37.1419 158.315 31.2019 148.987 24.1179 145.907C24.0493 145.884 23.9928 145.835 23.9609 145.77C23.9289 145.705 23.924 145.63 23.9474 145.561C23.9707 145.492 24.0203 145.436 24.0853 145.404C24.1503 145.372 24.2253 145.367 24.2939 145.39C30.9599 147.513 38.9789 159.316 42.1139 164.288C42.1562 164.356 42.1701 164.437 42.1526 164.514C42.135 164.591 42.0875 164.659 42.0204 164.701C41.9533 164.743 41.8721 164.757 41.7948 164.74C41.7174 164.722 41.6502 164.675 41.6079 164.607Z" fill="#2A344A"/>
<path d="M36.7276 169.012C36.6915 169.037 36.6466 169.048 36.6029 169.04C30.0139 168.974 18.3099 160.053 12.0509 154.124C11.9079 153.981 12.0949 153.739 12.2599 153.871C21.0269 160.427 25.5259 165.113 36.6579 168.71C36.7016 168.718 36.7407 168.742 36.7665 168.778C36.7923 168.814 36.8027 168.859 36.7954 168.903C36.7881 168.947 36.7637 168.986 36.7276 169.012Z" fill="#2A344A"/>
<path d="M52.2512 160.704C52.2027 160.682 52.1648 160.642 52.1459 160.592C49.3107 153.525 45.1977 147.041 40.0129 141.463C39.9618 141.411 39.9337 141.34 39.9347 141.267C39.9358 141.194 39.9659 141.124 40.0184 141.073C40.0709 141.022 40.1415 140.994 40.2148 140.995C40.288 140.996 40.3578 141.026 40.4089 141.078C41.7949 142.486 42.9059 143.696 43.8739 144.884C47.7214 149.474 50.6561 154.758 52.5199 160.449C52.5388 160.499 52.5373 160.554 52.5157 160.603C52.494 160.651 52.454 160.689 52.4044 160.708C52.3548 160.727 52.2997 160.725 52.2512 160.704Z" fill="#2A344A"/>
</svg>
