<svg width="220" height="220" viewBox="0 0 220 220" fill="none" xmlns="http://www.w3.org/2000/svg">
<path d="M181.076 54.3071C181.524 54.2122 181.934 53.9863 182.253 53.6581C182.216 53.8403 182.168 54.0202 182.11 54.1971C182.022 54.4941 182.352 54.5821 182.462 54.3951C182.851 53.8175 183.005 53.1131 182.891 52.4261C182.885 52.3612 182.861 52.2992 182.821 52.2477C182.782 52.1961 182.728 52.157 182.667 52.135C182.605 52.113 182.539 52.109 182.475 52.1236C182.412 52.1381 182.354 52.1706 182.308 52.2171C181.846 52.7781 181.758 53.5701 180.977 53.8121C180.915 53.8289 180.862 53.8686 180.829 53.9231C180.795 53.9777 180.783 54.0429 180.796 54.1058C180.808 54.1686 180.844 54.2243 180.896 54.2617C180.948 54.2991 181.013 54.3153 181.076 54.3071ZM178.909 50.6001C178.971 50.6395 179.041 50.6617 179.114 50.6644C179.187 50.667 179.26 50.6501 179.324 50.6152C179.388 50.5803 179.441 50.5289 179.479 50.4662C179.516 50.4036 179.536 50.332 179.536 50.2591C179.536 50.1711 179.536 50.0721 179.008 49.2801C178.898 49.1151 178.766 48.8071 178.48 48.9611C178.194 49.1151 178.392 49.4011 178.546 49.7861C178.854 50.6001 178.854 50.6001 178.909 50.6001ZM178.733 48.5871C179.272 48.5871 179.646 48.5871 179.712 49.0381C179.721 49.1052 179.756 49.166 179.81 49.2073C179.863 49.2486 179.931 49.2668 179.998 49.2581C180.065 49.2493 180.126 49.2143 180.167 49.1606C180.209 49.107 180.227 49.0392 180.218 48.9721C180.131 48.6157 179.921 48.3013 179.626 48.0841C179.33 47.8669 178.967 47.7607 178.601 47.7841C178.514 47.8202 178.442 47.8847 178.396 47.9671C178.35 48.0495 178.334 48.1449 178.349 48.2378C178.364 48.3308 178.411 48.4159 178.48 48.4793C178.55 48.5427 178.639 48.5806 178.733 48.5871ZM44.1922 82.1151C41.1067 83.6075 37.7112 84.3469 34.2846 84.2723C30.8579 84.1977 27.4978 83.3114 24.4802 81.6861C24.4247 81.6525 24.3583 81.6424 24.2953 81.6578C24.2324 81.6733 24.1782 81.7131 24.1447 81.7686C24.1111 81.824 24.101 81.8905 24.1164 81.9534C24.1319 82.0163 24.1717 82.0705 24.2272 82.1041C30.2552 86.0311 39.1102 86.2511 44.3572 82.4011C44.3951 82.3792 44.4228 82.3431 44.4341 82.3008C44.4455 82.2586 44.4396 82.2135 44.4177 82.1756C44.3958 82.1376 44.3597 82.11 44.3175 82.0986C44.2752 82.0873 44.2301 82.0932 44.1922 82.1151ZM43.3782 49.5001C44.0052 49.7531 45.0392 49.5001 44.7642 48.9171C44.5806 48.4722 44.4513 48.0069 44.3792 47.5311C44.3792 47.464 44.3525 47.3996 44.3051 47.3522C44.2576 47.3047 44.1933 47.2781 44.1262 47.2781C44.0591 47.2781 43.9947 47.3047 43.9473 47.3522C43.8998 47.3996 43.8732 47.464 43.8732 47.5311C43.8666 47.9965 43.9108 48.4613 44.0052 48.9171C43.8551 49.0024 43.6815 49.0371 43.5102 49.0161C43.4784 49.0074 43.4452 49.0051 43.4125 49.0092C43.3799 49.0134 43.3483 49.0239 43.3197 49.0403C43.2911 49.0566 43.266 49.0784 43.2459 49.1045C43.2257 49.1305 43.2108 49.1603 43.2022 49.1921C43.1935 49.2238 43.1912 49.257 43.1953 49.2897C43.1995 49.3224 43.21 49.3539 43.2264 49.3825C43.2427 49.4111 43.2645 49.4362 43.2906 49.4564C43.3166 49.4766 43.3464 49.4914 43.3782 49.5001ZM42.1132 47.0911C42.2835 46.6954 42.4233 46.2872 42.5312 45.8701C42.541 45.8318 42.5431 45.7919 42.5373 45.7528C42.5315 45.7137 42.518 45.6761 42.4975 45.6423C42.477 45.6085 42.45 45.5791 42.418 45.5559C42.386 45.5327 42.3497 45.5161 42.3112 45.5071C41.9812 45.4081 41.9262 45.7601 41.7612 46.1891C41.6664 46.4025 41.5892 46.6232 41.5302 46.8491C41.5298 46.9168 41.5496 46.983 41.5871 47.0394C41.6245 47.0958 41.6779 47.1398 41.7404 47.1658C41.803 47.1917 41.8718 47.1985 41.9382 47.1852C42.0046 47.1719 42.0655 47.1391 42.1132 47.0911ZM45.7762 48.1251C45.8388 48.1526 45.9084 48.1599 45.9754 48.1462C46.0424 48.1324 46.1035 48.0981 46.1502 48.0481C46.3189 47.6517 46.4586 47.2436 46.5682 46.8271C46.5798 46.7895 46.5835 46.75 46.5791 46.7109C46.5747 46.6718 46.5624 46.6341 46.5427 46.6C46.5231 46.566 46.4967 46.5363 46.4651 46.5129C46.4335 46.4895 46.3975 46.4729 46.3592 46.4641C46.0182 46.3651 45.9522 46.7611 45.8092 47.1351C45.6662 47.5091 45.3912 47.9711 45.7762 48.1251ZM40.4962 50.3801C40.891 50.5778 41.3434 50.6285 41.7722 50.5231C42.0472 50.4021 41.8602 49.9841 41.5962 50.0721C41.3056 50.0522 41.0268 49.9491 40.7932 49.7751C40.6443 49.6774 40.5162 49.5514 40.4162 49.4042C40.3161 49.2569 40.2461 49.0914 40.2102 48.9171C40.1332 48.4551 39.4072 48.6311 39.5172 49.0931C39.5706 49.3684 39.6867 49.6277 39.8564 49.8508C40.0262 50.074 40.2451 50.2551 40.4962 50.3801ZM118.695 170.797C118.695 170.505 118.579 170.226 118.373 170.019C118.167 169.813 117.887 169.697 117.595 169.697C117.303 169.697 117.024 169.813 116.817 170.019C116.611 170.226 116.495 170.505 116.495 170.797C116.495 171.089 116.611 171.369 116.817 171.575C117.024 171.781 117.303 171.897 117.595 171.897C117.887 171.897 118.167 171.781 118.373 171.575C118.579 171.369 118.695 171.089 118.695 170.797ZM118.673 181.632C118.847 181.648 119.022 181.628 119.188 181.573C119.353 181.518 119.506 181.428 119.635 181.311C119.764 181.193 119.867 181.05 119.937 180.89C120.008 180.731 120.044 180.558 120.044 180.384C120.044 180.209 120.008 180.036 119.937 179.877C119.867 179.717 119.764 179.574 119.635 179.456C119.506 179.339 119.353 179.249 119.188 179.194C119.022 179.139 118.847 179.119 118.673 179.135C118.499 179.119 118.324 179.139 118.158 179.194C117.993 179.249 117.841 179.339 117.712 179.456C117.583 179.574 117.479 179.717 117.409 179.877C117.338 180.036 117.302 180.209 117.302 180.384C117.302 180.558 117.338 180.731 117.409 180.89C117.479 181.05 117.583 181.193 117.712 181.311C117.841 181.428 117.993 181.518 118.158 181.573C118.324 181.628 118.499 181.648 118.673 181.632ZM118.992 190.542C118.693 190.571 118.414 190.71 118.212 190.933C118.01 191.155 117.897 191.446 117.897 191.747C117.897 192.048 118.01 192.338 118.212 192.56C118.414 192.783 118.693 192.922 118.992 192.951C119.292 192.922 119.57 192.783 119.772 192.56C119.975 192.338 120.087 192.048 120.087 191.747C120.087 191.446 119.975 191.155 119.772 190.933C119.57 190.71 119.292 190.571 118.992 190.542ZM112.315 142.769C112.857 145.641 113.225 148.543 113.415 151.459C113.415 151.561 113.456 151.659 113.528 151.731C113.6 151.803 113.698 151.844 113.8 151.844C113.902 151.844 114 151.803 114.072 151.731C114.145 151.659 114.185 151.561 114.185 151.459C113.969 148.494 113.517 145.552 112.832 142.659C112.804 142.606 112.76 142.564 112.706 142.539C112.651 142.514 112.591 142.507 112.532 142.519C112.474 142.532 112.421 142.563 112.382 142.608C112.343 142.653 112.319 142.71 112.315 142.769ZM114.405 174.977C114.405 174.901 114.375 174.828 114.321 174.775C114.268 174.721 114.195 174.691 114.119 174.691C114.043 174.691 113.971 174.721 113.917 174.775C113.863 174.828 113.833 174.901 113.833 174.977C113.723 182.512 113.591 200.519 113.657 202.477C113.672 202.564 113.717 202.643 113.785 202.699C113.852 202.756 113.938 202.787 114.026 202.787C114.114 202.787 114.199 202.756 114.266 202.699C114.334 202.643 114.379 202.564 114.394 202.477C114.548 198.924 114.405 176.737 114.405 174.977Z" fill="#2A344A"/>
<path d="M75.132 107.656C75.0165 105.433 74.2381 103.296 72.8971 101.52C71.5561 99.7434 69.7139 98.4095 67.608 97.6896C58.115 94.4776 49.381 105.599 55.002 114.036C56.328 116.011 58.2588 117.503 60.5046 118.288C62.7504 119.073 65.1903 119.109 67.4582 118.39C69.7261 117.672 71.6999 116.237 73.0834 114.301C74.467 112.366 75.1858 110.034 75.132 107.656ZM57.532 100.616C64.275 94.4116 74.175 99.5156 74.439 107.667C74.4141 109.743 73.8152 111.772 72.7086 113.529C71.602 115.286 70.0308 116.702 68.169 117.622C62.031 120.295 54.617 115.686 54.1 109.196C53.9642 107.6 54.2005 105.995 54.7903 104.506C55.3801 103.017 56.3073 101.685 57.499 100.616H57.532ZM136.402 99.1086C137.357 100.571 138.65 101.783 140.172 102.641C141.694 103.5 143.399 103.98 145.145 104.041C146.891 104.103 148.626 103.743 150.204 102.994C151.783 102.245 153.157 101.127 154.213 99.7351C155.269 98.3432 155.975 96.718 156.271 94.9963C156.568 93.2746 156.446 91.5068 155.916 89.842C155.387 88.1772 154.465 86.6641 153.228 85.4302C151.991 84.1962 150.476 83.2776 148.81 82.7516C138.932 79.6936 130.99 91.1996 136.402 99.1086ZM138.932 85.6996C145.807 79.3636 155.575 84.8526 155.828 92.7506C155.806 94.822 155.213 96.8472 154.115 98.6035C153.016 100.36 151.455 101.779 149.602 102.706C143.475 105.379 136.05 100.781 135.522 94.2796C135.389 92.6802 135.631 91.0719 136.229 89.5824C136.826 88.093 137.763 86.7635 138.965 85.6996H138.932ZM68.565 47.0346C60.436 29.8746 39.602 22.5596 22.794 33.9996C1.01397 48.8826 6.16197 80.2986 30.648 88.7466C54.562 97.2386 80.665 72.5986 68.565 47.0346ZM53.242 86.5246C51.2458 87.5021 49.1412 88.2405 46.972 88.7246C47.115 87.3606 47.291 83.8406 47.357 82.1906C48.391 83.8406 50.261 85.4906 52.582 85.1606C54.606 84.8416 56.399 82.9606 58.082 79.6606C59.7297 76.0543 60.6564 72.1606 60.81 68.1986C60.9892 67.74 61.104 67.2588 61.151 66.7686C61.71 65.4807 62.3606 64.2345 63.098 63.0396C63.4939 62.6945 63.8384 62.2944 64.121 61.8516C64.4284 60.9989 64.4969 60.0784 64.319 59.1896C64.2845 58.2982 63.9557 57.4434 63.384 56.7586C63.835 55.8456 65.089 51.6766 65.298 50.8626C65.3159 50.7754 65.3012 50.6846 65.2566 50.6075C65.212 50.5305 65.1406 50.4725 65.056 50.4446C62.8507 50.1084 60.62 49.9685 58.39 50.0266C58.313 49.8836 54.353 61.1916 53.99 62.1266C53.9732 62.1779 53.9671 62.232 53.9719 62.2857C53.9768 62.3394 53.9926 62.3915 54.0184 62.4389C54.0441 62.4863 54.0793 62.5279 54.1217 62.5612C54.1641 62.5945 54.2128 62.6188 54.265 62.6326C55.3582 62.8022 56.4598 62.9124 57.565 62.9626C57.565 63.4356 57.356 64.7446 57.279 65.1626C56.9653 65.5609 56.7098 66.0016 56.52 66.4716C55.1542 67.6595 54.1929 69.2437 53.77 71.0036C51.823 62.4566 50.47 58.7826 42.77 54.5036C42.385 54.2946 41.923 54.1406 41.505 53.8656C46.829 55.1416 47.423 55.7466 47.621 55.4826C53.649 46.9906 50.844 37.2776 44.662 33.3726C38.876 29.1926 33.167 33.1416 31.088 39.7526C29.548 44.9556 32.188 49.5096 33.552 51.4016C32.298 51.5226 31.869 51.6656 30.868 51.7756C22.398 52.6886 15.534 62.8416 12.388 70.7726C3.00497 49.2456 23.443 24.7376 47.203 30.4136C74.362 37.8606 79.301 73.9186 53.242 86.5246ZM19.593 81.0246C20.429 79.7266 22.519 76.1186 23.003 75.2716C29.119 79.9796 40.603 80.5956 46.631 76.5806C46.631 76.7676 46.356 87.3716 46.356 88.8786C41.5916 89.7506 36.6891 89.4944 32.0416 88.1305C27.394 86.7666 23.1306 84.333 19.593 81.0246ZM54.1 73.4566C54.0801 73.1135 54.0397 72.7719 53.979 72.4336C54.078 72.1256 54.144 71.8506 54.243 71.4876C54.958 72.6756 57.323 74.7876 58.302 74.9086C58.3512 74.9125 58.4004 74.8997 58.4415 74.8722C58.4826 74.8447 58.5132 74.8042 58.5284 74.7572C58.5437 74.7102 58.5427 74.6594 58.5255 74.613C58.5084 74.5667 58.4761 74.5274 58.434 74.5016C56.8054 73.4894 55.4972 72.0362 54.661 70.3106C54.9143 69.6205 55.2866 68.9802 55.761 68.4186C56.6232 69.772 57.8358 70.8668 59.27 71.5866C59.2952 71.5931 59.3216 71.5946 59.3474 71.5909C59.3732 71.5873 59.3981 71.5785 59.4206 71.5653C59.4431 71.552 59.4627 71.5344 59.4784 71.5135C59.4941 71.4927 59.5055 71.4689 59.512 71.4436C59.5185 71.4183 59.5199 71.392 59.5163 71.3662C59.5126 71.3404 59.5039 71.3155 59.4906 71.293C59.4773 71.2705 59.4597 71.2509 59.4389 71.2352C59.418 71.2196 59.3942 71.2081 59.369 71.2016C58.0825 70.3173 57.0233 69.1413 56.278 67.7696C56.421 67.5936 56.575 67.4176 56.729 67.2526C57.6125 68.1222 58.7901 68.6285 60.029 68.6716C59.8344 71.9686 59.1562 75.219 58.016 78.3186C57.1146 80.4978 55.7038 82.4291 53.902 83.9506C55.4178 81.0081 55.7637 77.6008 54.87 74.4136C54.8479 74.3382 54.8013 74.2724 54.7375 74.2265C54.6737 74.1807 54.5965 74.1575 54.518 74.1606C53.583 74.1606 54.892 77.9886 48.303 82.2236C47.9626 81.7364 47.6575 81.2254 47.39 80.6946C47.456 76.9546 47.302 73.2256 47.148 69.6176C47.148 69.5505 47.1213 69.4862 47.0739 69.4387C47.0264 69.3913 46.9621 69.3646 46.895 69.3646C46.8279 69.3646 46.7635 69.3913 46.7161 69.4387C46.6686 69.4862 46.642 69.5505 46.642 69.6176C46.708 71.5316 46.642 73.4236 46.642 75.6896C42.946 78.0106 38.711 78.8136 33.299 78.2086C29.6989 78.019 26.2303 76.7928 23.311 74.6776C23.696 73.9736 25.302 70.8936 25.753 70.0686C25.7747 70.0311 25.7859 69.9884 25.7855 69.945C25.7851 69.9016 25.773 69.8591 25.7505 69.822C25.728 69.7849 25.6959 69.7545 25.6577 69.734C25.6194 69.7135 25.5763 69.7037 25.533 69.7056C25.269 69.7056 25.533 69.6396 23.333 73.4126C19.863 72.0534 17.0608 69.3932 15.523 65.9986C17.3034 62.5998 19.6381 59.5216 22.431 56.8906C23.8656 58.8824 25.6859 60.5655 27.7838 61.8398C29.8818 63.1142 32.2144 63.9538 34.6433 64.3089C37.0721 64.6639 39.5475 64.5271 41.9224 63.9066C44.2973 63.286 46.5233 62.1944 48.468 60.6966C48.5053 60.6569 48.5273 60.6052 48.5301 60.5507C48.533 60.4963 48.5165 60.4426 48.4836 60.3991C48.4507 60.3557 48.4034 60.3253 48.3503 60.3133C48.2971 60.3013 48.2414 60.3085 48.193 60.3336C46.5966 61.4306 44.8618 62.3109 43.034 62.9516C39.4283 64.0937 35.5545 64.0707 31.9626 62.886C28.3708 61.7012 25.2435 59.4148 23.025 56.3516C24.0785 55.4968 25.2219 54.7591 26.435 54.1516C30.604 63.5346 40.889 64.2056 45.861 57.4516C48.435 59.4536 49.227 59.7066 51.284 64.6786C46.565 68.7926 42.264 70.8386 38.15 70.7946C34.7314 70.8185 31.352 70.0655 28.267 68.5925C25.1819 67.1196 22.4717 64.9651 20.341 62.2916C20.165 62.0496 19.769 62.2916 19.945 62.5556C23.245 67.5826 29.504 70.8826 37.16 71.6086C42.341 72.1146 47.841 69.1556 51.537 65.3936C52.109 67.2856 52.802 70.0686 52.879 70.3986C52.538 71.4986 48.853 74.9196 48.27 75.0516C47.929 75.1286 48.105 75.6566 48.413 75.5246C50.1859 74.4987 51.7828 73.1952 53.143 71.6636C53.264 72.2356 53.484 73.2586 53.517 73.5116C53.55 73.7646 54.122 73.8086 54.1 73.4566ZM60.7 56.8686C60.5636 56.8303 60.42 56.8258 60.2816 56.8556C60.1431 56.8854 60.0141 56.9486 59.9056 57.0397C59.7972 57.1308 59.7126 57.247 59.6594 57.3783C59.6061 57.5095 59.5857 57.6517 59.6 57.7926C58.423 58.0456 58.5 58.8926 59.182 59.4426C59.8571 59.8687 60.5548 60.258 61.272 60.6086C61.019 61.2136 60.821 61.7086 60.557 62.2916C59.457 62.2916 56.036 62.0826 54.848 61.9836C55.288 60.6086 57.609 54.2176 58.885 50.7636C59.985 50.8186 63.428 50.9066 64.539 51.0826C64.275 52.1826 63.153 55.3836 62.834 56.3846C62.6641 56.2726 62.4734 56.1961 62.2732 56.1598C62.073 56.1234 61.8675 56.128 61.6691 56.1732C61.4707 56.2185 61.2836 56.3034 61.1189 56.4229C60.9542 56.5424 60.8155 56.694 60.711 56.8686H60.7ZM61.184 62.8196C61.371 62.2256 61.602 61.6536 61.91 60.9056C61.959 60.9142 62.0094 60.9068 62.0539 60.8844C62.0983 60.862 62.1343 60.8259 62.1566 60.7814C62.1788 60.7369 62.1861 60.6864 62.1773 60.6375C62.1686 60.5885 62.1442 60.5437 62.108 60.5096C61.833 60.2566 59.281 58.9036 59.38 58.6396C59.479 58.3756 60.117 58.5626 60.48 58.7716C61.1959 59.0665 61.9309 59.3127 62.68 59.5086C62.7281 59.5138 62.7766 59.5031 62.8179 59.4779C62.8593 59.4528 62.8912 59.4147 62.9087 59.3696C62.9263 59.3246 62.9285 59.2749 62.9149 59.2285C62.9014 59.182 62.873 59.1413 62.834 59.1126C61.9749 58.8009 61.1372 58.4334 60.326 58.0126C60.161 57.8586 60.084 57.4406 60.326 57.4516C61.1341 57.6442 61.887 58.0206 62.526 58.5516C62.5512 58.5755 62.581 58.5941 62.6134 58.6064C62.6459 58.6188 62.6805 58.6246 62.7152 58.6236C62.75 58.6226 62.7842 58.6147 62.8159 58.6005C62.8475 58.5862 62.8761 58.5659 62.9 58.5406C62.9238 58.5154 62.9424 58.4856 62.9548 58.4531C62.9671 58.4207 62.9729 58.3861 62.9719 58.3513C62.9709 58.3166 62.9631 58.2824 62.9488 58.2507C62.9346 58.219 62.9142 58.1905 62.889 58.1666C62.4757 57.8404 62.0381 57.5462 61.58 57.2866C61.03 56.9676 61.426 56.5716 61.976 56.6486C62.713 56.7586 63.659 57.7486 63.56 59.7836C63.6516 60.3302 63.5805 60.8917 63.3556 61.3982C63.1307 61.9048 62.7619 62.334 62.295 62.6326C61.5861 63.7575 60.9857 64.9472 60.502 66.1856C60.0183 66.3108 59.5089 66.2955 59.0335 66.1416C58.5582 65.9877 58.1365 65.7016 57.818 65.3166C57.895 64.9316 58.126 63.6116 58.192 63.1166C60.645 63.1936 61.074 63.1826 61.195 62.8196H61.184ZM54.441 76.1406C54.8197 78.9474 54.3565 81.8035 53.11 84.3466C52.3063 84.5769 51.4509 84.5514 50.6624 84.2734C49.8739 83.9955 49.1916 83.479 48.71 82.7956C51.3905 81.3785 53.4372 79.0017 54.441 76.1406ZM34.201 52.3916C34.2205 52.4148 34.2461 52.4321 34.2749 52.4417C34.3037 52.4513 34.3346 52.4527 34.3641 52.4459C34.3937 52.4391 34.4208 52.4243 34.4424 52.403C34.4641 52.3818 34.4795 52.355 34.487 52.3256C36.148 45.7916 36.104 46.1986 35.95 46.1106C34.102 45.0986 34.685 43.1296 35.433 42.8986C35.807 42.7776 36.302 43.0196 36.797 43.5696C37.1202 43.8735 37.3655 44.2508 37.512 44.6696C38.612 47.7496 44.706 43.6906 47.346 41.7436C47.5291 41.5913 47.7458 41.4846 47.9782 41.4323C48.2106 41.3799 48.4521 41.3834 48.6829 41.4424C48.9137 41.5015 49.1272 41.6144 49.3059 41.7719C49.4846 41.9294 49.6234 42.1271 49.711 42.3486C49.964 42.8326 49.502 43.2396 49.227 42.7116C48.655 41.7436 47.654 42.2826 47.676 42.5466C47.896 45.2746 47.39 49.1466 45.267 51.0386C43.144 52.9306 40.68 51.9516 40.46 52.1386C40.24 52.3256 40.361 52.5016 40.361 52.7106C40.2626 52.9441 40.2189 53.197 40.2333 53.4499C40.2477 53.7028 40.3197 53.9491 40.4439 54.1699C40.5681 54.3907 40.7412 54.5802 40.9499 54.7238C41.1586 54.8675 41.3974 54.9615 41.648 54.9986C42.5469 55.3383 43.4033 55.7813 44.2 56.3186C40.284 62.3686 31.726 61.4776 28.448 53.3266C30.2805 52.701 32.1904 52.3308 34.124 52.2266L34.201 52.3916ZM15.16 66.6916C15.8707 68.39 16.9317 69.9194 18.2736 71.1799C19.6156 72.4404 21.2084 73.4036 22.948 74.0066C22.816 74.2156 19.747 79.2316 19.021 80.4636C16.3501 77.8976 14.1793 74.8577 12.619 71.4986C13.708 69.5406 14.302 68.3526 15.16 66.7026V66.6916ZM207.418 47.1996C201.225 27.3996 178.906 18.3026 161.57 28.8406C142.034 40.6986 140.868 67.0986 159.502 80.4306C183.988 97.8986 215.932 73.7866 207.418 47.1996ZM173.978 77.2076C177.619 82.0366 181.271 82.4106 183.713 81.8496C188.267 80.8156 192.26 75.7006 193.426 69.3976C193.442 69.3232 193.428 69.2455 193.387 69.1816C193.345 69.1176 193.28 69.0727 193.206 69.0566C193.132 69.0406 193.054 69.0547 192.99 69.096C192.926 69.1373 192.881 69.2022 192.865 69.2766C192.347 71.968 191.218 74.5046 189.565 76.6906C183.097 85.1166 176.365 81.0026 171.206 71.6746C169.529 69.0002 168.588 65.9304 168.478 62.7756C171.096 61.5436 171.041 61.4776 171.349 61.7416C174.407 64.3706 179.962 70.6406 180.732 71.4876C180.746 71.5607 180.785 71.6267 180.842 71.6742C180.899 71.7217 180.971 71.7476 181.045 71.7476C181.12 71.7476 181.192 71.7217 181.249 71.6742C181.306 71.6267 181.345 71.5607 181.359 71.4876C182.591 66.5156 183.559 61.3566 187.222 57.8036C188.582 57.4906 189.959 57.2592 191.347 57.1106C196.22 63.2706 195.527 71.4876 195.505 79.2866C192.238 81.7811 188.485 83.5641 184.488 84.5208C180.491 85.4776 176.337 85.5868 172.295 84.8416C172.533 82.2363 173.098 79.6714 173.978 77.2076ZM192.282 57.0116C192.876 57.0116 192.821 56.0436 192.282 56.1206C189.986 56.3122 187.732 56.8461 185.594 57.7046C185.297 57.8256 184.956 57.8916 185.066 58.1886C185.176 58.4856 185.418 58.2656 186.243 58.0566C183.009 61.4776 181.788 66.2956 180.941 70.6296C180.336 69.8926 178.84 68.1876 178.455 67.7476C181.843 60.2786 181.656 60.0476 183.647 58.5406C184.417 57.9246 187.552 55.6586 190.148 54.0306C191.534 53.1506 192.524 52.5346 194.834 55.7356C196.979 58.7166 197.034 58.7606 195.659 65.3056C195.246 62.2917 194.055 59.4373 192.205 57.0226L192.282 57.0116ZM168.082 50.5326C168.28 50.5326 168.379 50.6866 168.533 50.9176C172.163 56.4176 171.888 55.7906 171.888 55.9006C171.888 56.4286 172.603 57.2206 173.318 57.8916C172.735 58.1116 171.646 58.5516 170.997 58.8156C170.997 56.7916 169.567 56.7916 169.182 57.6386C168.5 56.6376 166.982 54.6576 166.674 54.2726C166.59 54.1542 166.478 54.0594 166.347 53.9977C166.215 53.936 166.07 53.9094 165.926 53.9206C165.409 53.2606 164.243 51.7206 163.792 51.0496C163.902 51.0276 167.73 50.5986 168.071 50.5326H168.082ZM175.562 60.9606C175.397 62.3026 173.296 60.8066 174.11 60.0586C174.26 60.3133 174.47 60.5282 174.721 60.6852C174.971 60.8421 175.256 60.9366 175.551 60.9606H175.562ZM175.441 60.2676C174.99 60.1906 174.077 59.1676 174.341 58.9366C174.605 58.7056 175.738 60.0916 175.716 60.2566C175.624 60.2877 175.524 60.2916 175.43 60.2676H175.441ZM177.96 67.2526C177.003 66.2406 172.658 61.7526 172.548 61.6646C172.388 61.4264 172.182 61.2228 171.942 61.0659C171.702 60.909 171.433 60.8022 171.151 60.7516C171.006 60.3771 170.95 59.9744 170.986 59.5746L173.824 58.3646C174.088 58.5956 173.824 58.3646 173.692 58.8706C173.629 59.1067 173.656 59.3578 173.769 59.5746C172.669 60.3886 173.769 62.2806 175.221 62.1376C175.652 62.4332 176.025 62.8062 176.321 63.2376C176.646 64.3605 177.108 65.4392 177.696 66.4496C178.059 67.0986 178.037 67.0216 177.949 67.2526H177.96ZM177.025 63.3256C177.025 62.9736 178.29 61.6536 178.488 61.4886C179.077 61.66 179.652 61.8808 180.204 62.1486C179.885 62.8746 178.862 65.1956 178.356 66.3726C177.804 65.4064 177.354 64.3852 177.014 63.3256H177.025ZM176.574 62.6216C176.361 62.3413 176.109 62.0931 175.826 61.8846C175.962 61.7382 176.063 61.5638 176.124 61.3737C176.185 61.1837 176.203 60.9826 176.178 60.7846C176.241 60.7425 176.294 60.6874 176.334 60.6228C176.374 60.5583 176.4 60.4859 176.409 60.4106C176.497 59.8936 175.914 59.4646 175.529 59.1016C174.39 58.2076 173.376 57.1642 172.515 55.9996C173.389 56.4375 174.225 56.949 175.012 57.5286C176.332 58.5076 178.026 59.4316 177.894 61.0596C177.408 61.5431 176.963 62.0655 176.563 62.6216H176.574ZM166.102 54.5806C167.22 55.8435 168.246 57.1853 169.171 58.5956C169.203 58.6447 169.249 58.6832 169.303 58.7063C169.356 58.7294 169.416 58.7361 169.473 58.7255C169.531 58.715 169.584 58.6876 169.626 58.6469C169.668 58.6061 169.698 58.5539 169.71 58.4966C169.71 58.1886 169.853 57.6386 170.139 57.7596C170.744 58.5846 170.139 59.8716 170.546 60.8946C167.598 62.1926 170.007 61.8626 168.192 59.7946C166.509 58.0236 165.849 55.1416 166.102 54.5806ZM177.443 53.4806C177.845 52.0415 177.845 50.5198 177.443 49.0806C177.28 48.4393 177.18 47.7835 177.146 47.1226C177.807 47.1931 178.474 47.1635 179.126 47.0346C181.051 46.7156 182.041 45.6816 182.514 46.0006C182.822 46.2096 182.877 46.8586 182.679 47.8926C182.675 47.9262 182.681 47.9602 182.696 47.9902C182.712 48.0202 182.736 48.0447 182.766 48.0603C182.796 48.0759 182.831 48.0819 182.864 48.0775C182.898 48.0731 182.929 48.0585 182.954 48.0356C183.373 47.6926 183.898 47.506 184.439 47.5076C185.902 47.6286 185.847 49.7076 184.439 50.5986C184.409 50.6227 184.388 50.6567 184.38 50.6946C184.372 50.7325 184.378 50.772 184.396 50.8061C184.415 50.8401 184.444 50.8667 184.48 50.8811C184.516 50.8954 184.556 50.8967 184.593 50.8846C185.121 50.7032 185.688 50.6636 186.236 50.7698C186.784 50.876 187.295 51.1242 187.717 51.4896C187.947 52.4106 188.26 53.3089 188.652 54.1736C187.123 55.2186 185.077 56.6486 183.614 57.7816C182.294 55.0096 180.655 56.9786 179.522 54.7566C178.378 52.8536 177.652 53.5136 177.388 53.4476L177.443 53.4806ZM195.879 66.6806C196.672 64.2651 197.127 61.7517 197.232 59.2116C197.076 57.9889 196.581 56.8343 195.802 55.8786C192.678 51.3686 191.402 52.1166 188.993 53.7446C188.773 53.0736 188.289 51.6766 188.201 51.3026C188.344 51.1596 188.718 50.7966 188.828 50.7196C189.235 50.1486 189.55 49.5177 189.763 48.8496C190.044 47.9163 190.16 46.9408 190.104 45.9676C190.159 45.0452 190.013 44.1217 189.675 43.2616C188.975 42.0386 187.869 41.0993 186.549 40.6069C185.229 40.1146 183.778 40.1003 182.448 40.5666C180.391 39.8846 177.74 39.1806 176.739 39.6096C175.943 39.8016 175.23 40.2437 174.703 40.871C174.177 41.4983 173.866 42.2778 173.816 43.095C173.765 43.9123 173.978 44.7241 174.423 45.4114C174.868 46.0987 175.522 46.6252 176.288 46.9136C176.255 47.763 176.351 48.6124 176.574 49.4326C176.947 50.5872 176.977 51.8251 176.662 52.9966C176.464 53.8766 176.75 54.2726 177.762 54.0966C178.95 54.1846 178.301 56.2966 180.996 56.6926C181.645 56.8026 182.162 56.9016 182.833 58.1446C181.711 59.0415 180.868 60.2396 180.402 61.5986C179.804 61.2459 179.169 60.9582 178.51 60.7406C178.437 60.1922 178.246 59.6661 177.95 59.1988C177.653 58.7316 177.259 58.3344 176.794 58.0346C175.769 57.1787 174.664 56.4235 173.494 55.7796C173.263 55.6586 172.779 55.2846 172.394 55.3616C168.566 49.5316 168.962 49.7846 167.763 49.7846C166.214 49.844 164.675 50.0503 163.165 50.4006C163.111 50.421 163.062 50.4533 163.022 50.4952C162.982 50.5371 162.952 50.5875 162.934 50.6426C162.868 50.9066 162.934 50.7526 164.474 52.9526C165.904 54.9546 165.387 53.9756 165.475 55.0536C165.67 57.132 166.517 59.0955 167.895 60.6636C168.157 61.0668 168.263 61.5519 168.192 62.0276L168.049 62.0936C167.675 62.2806 168.148 66.0316 168.412 66.9116C169.62 70.3688 171.361 73.6162 173.571 76.5366C172.488 79.1364 171.824 81.8911 171.602 84.6986C161.779 82.4986 153.386 75.8216 149.602 67.1536C145.818 58.4856 146.786 48.3216 152.528 38.8286C168.423 15.4976 203.282 24.8696 207.418 52.1276C208.936 62.4786 204.404 72.3016 196.264 78.7476C196.375 74.7268 196.221 70.7031 195.802 66.7026L195.879 66.6806ZM191.545 89.0106C191.641 90.7752 191.947 92.5219 192.458 94.2136C192.493 94.3186 192.568 94.4053 192.667 94.4548C192.766 94.5043 192.881 94.5125 192.986 94.4776C193.822 94.2356 192.59 93.0806 192.227 88.9776C192.194 88.5486 191.512 88.5706 191.545 89.0106ZM194.911 102.156C194.889 102.064 194.832 101.984 194.751 101.935C194.671 101.885 194.574 101.87 194.482 101.892C194.39 101.914 194.311 101.971 194.261 102.051C194.212 102.132 194.196 102.229 194.218 102.321C195.626 109.471 195.439 110.164 196.154 110.021C196.869 109.878 196.363 109.196 194.911 102.156ZM197.496 119.162C196.891 119.327 197.694 119.415 198.233 126.092C198.233 126.697 199.223 126.664 199.157 126.092C198.88 123.834 198.442 121.599 197.848 119.404C197.845 119.363 197.832 119.323 197.812 119.288C197.791 119.252 197.763 119.222 197.73 119.199C197.696 119.176 197.657 119.16 197.617 119.154C197.577 119.147 197.535 119.15 197.496 119.162ZM169.578 100.968C170.753 97.4826 171.733 93.9352 172.515 90.3416C172.532 90.2589 172.516 90.173 172.471 90.1015C172.426 90.03 172.356 89.9784 172.274 89.9573C172.192 89.9362 172.106 89.9471 172.032 89.9879C171.958 90.0287 171.903 90.0963 171.877 90.1766C170.997 93.7076 169.831 97.1286 168.742 100.715C168.724 100.82 168.745 100.929 168.801 101.021C168.857 101.112 168.945 101.18 169.048 101.211C169.151 101.242 169.261 101.235 169.359 101.19C169.457 101.145 169.535 101.066 169.578 100.968ZM165.112 115.499C165.728 115.499 165.618 114.751 167.367 108.206C167.39 108.127 167.381 108.042 167.342 107.97C167.303 107.898 167.237 107.844 167.158 107.821C167.079 107.797 166.994 107.806 166.922 107.845C166.85 107.885 166.796 107.951 166.773 108.03C166.432 109.13 164.936 113.761 164.661 114.927C164.644 114.995 164.643 115.066 164.658 115.135C164.673 115.203 164.703 115.268 164.747 115.323C164.79 115.378 164.846 115.422 164.909 115.453C164.972 115.483 165.042 115.499 165.112 115.499ZM160.118 129.799C160.503 129.799 160.481 129.513 160.8 128.237C161.229 126.499 161.9 123.837 162.164 123.089C162.329 122.649 161.658 122.451 161.493 122.869C160.751 125.023 160.167 127.229 159.744 129.469C159.752 129.561 159.796 129.647 159.865 129.708C159.935 129.769 160.025 129.802 160.118 129.799ZM156.488 139.16C155.474 141.123 154.692 143.198 154.156 145.342C154.127 145.452 154.143 145.57 154.201 145.669C154.258 145.768 154.353 145.84 154.464 145.87C154.575 145.899 154.693 145.883 154.792 145.825C154.891 145.767 154.963 145.672 154.992 145.562C156.829 139.325 157.423 139.27 156.884 138.962C156.845 138.946 156.803 138.939 156.762 138.941C156.72 138.943 156.679 138.953 156.642 138.972C156.604 138.991 156.571 139.017 156.545 139.049C156.518 139.082 156.499 139.119 156.488 139.16ZM144.993 107.183C145.103 108.041 145.499 111.583 145.631 112.562C145.639 112.622 145.659 112.681 145.689 112.734C145.72 112.787 145.761 112.833 145.809 112.871C145.858 112.908 145.913 112.935 145.972 112.951C146.031 112.967 146.093 112.971 146.153 112.963C146.214 112.955 146.273 112.935 146.326 112.905C146.379 112.874 146.425 112.834 146.462 112.785C146.5 112.737 146.527 112.681 146.543 112.622C146.559 112.563 146.563 112.501 146.555 112.441C146.412 111.495 145.796 107.942 145.664 107.095C145.598 106.699 144.938 106.776 144.993 107.183ZM146.72 122.924C146.841 123.617 147.292 126.609 147.435 127.401C147.545 127.995 148.425 127.775 148.315 127.192C148.051 125.729 147.699 124.255 147.424 122.792C147.336 122.297 146.643 122.473 146.72 122.924ZM148.502 138.225C148.551 140.071 148.75 141.91 149.096 143.725C149.228 144.33 150.13 144.088 150.02 143.494C149.644 141.746 149.358 139.98 149.162 138.203C149.063 137.796 148.425 137.785 148.502 138.225ZM119.902 46.6826C119.693 46.2866 119.11 46.6166 119.297 47.0126C122.872 54.3496 122.597 54.4156 123.114 54.4156C123.199 54.4148 123.283 54.3925 123.357 54.3507C123.432 54.309 123.494 54.2491 123.539 54.1767C123.584 54.1042 123.61 54.0216 123.615 53.9365C123.619 53.8513 123.602 53.7664 123.565 53.6896C122.355 51.3246 121.079 49.0256 119.902 46.6826ZM126.722 61.0266C126.557 60.6526 125.996 60.9496 126.161 61.3236C127.261 63.7766 128.174 66.2956 129.296 68.7596C129.538 69.3096 130.341 68.8696 130.099 68.3306C129.01 65.8006 127.723 63.2596 126.722 61.0266ZM136.402 83.4336C136.469 83.4373 136.535 83.4245 136.596 83.3964C136.656 83.3683 136.709 83.3257 136.749 83.2725C136.789 83.2193 136.816 83.1569 136.826 83.0911C136.837 83.0252 136.831 82.9577 136.809 82.8946C136.424 81.7946 134.521 77.7576 134.037 76.6686C133.839 76.2176 133.179 76.5696 133.366 77.0206C135.984 83.0266 135.94 83.4336 136.402 83.4336ZM156.444 79.4406C156.037 80.1336 154.167 82.6746 153.661 83.3236C153.623 83.372 153.596 83.4273 153.58 83.4864C153.563 83.5455 153.559 83.6072 153.567 83.668C153.574 83.7287 153.594 83.7874 153.624 83.8406C153.655 83.8939 153.695 83.9406 153.743 83.9781C153.792 84.0157 153.847 84.0434 153.906 84.0595C153.965 84.0757 154.027 84.0801 154.088 84.0724C154.149 84.0648 154.207 84.0452 154.26 84.0149C154.314 83.9845 154.36 83.944 154.398 83.8956C155.345 82.5745 156.205 81.1929 156.972 79.7596C157.014 79.6896 157.027 79.6057 157.007 79.5262C156.988 79.4468 156.937 79.3784 156.867 79.3361C156.797 79.2938 156.714 79.2811 156.634 79.3007C156.555 79.3203 156.486 79.3706 156.444 79.4406ZM137.227 37.9486C137.678 37.9486 137.92 37.2666 137.447 37.0576C136.446 36.6066 132.233 35.2096 131.188 34.8576C130.759 34.6926 130.539 35.3526 130.968 35.5176C132.079 35.9136 136.864 37.9486 137.227 37.9486ZM141.044 39.5986C143.019 40.6729 145.093 41.5533 147.237 42.2276C147.36 42.2488 147.487 42.2238 147.592 42.1572C147.698 42.0907 147.775 41.9874 147.81 41.8673C147.844 41.7471 147.832 41.6185 147.777 41.5064C147.722 41.3942 147.628 41.3063 147.512 41.2596C145.407 40.6881 143.359 39.9222 141.396 38.9716C140.978 38.7846 140.626 39.4226 141.044 39.5986ZM88.541 38.9386C92.941 35.9796 94.261 36.6506 94.041 35.8696C94.0283 35.8246 94.0069 35.7826 93.9778 35.746C93.9487 35.7094 93.9127 35.6789 93.8717 35.6564C93.8307 35.6338 93.7857 35.6197 93.7392 35.6148C93.6927 35.6098 93.6457 35.6142 93.601 35.6276C91.615 36.1499 89.725 36.9854 88.002 38.1026C87.496 38.4986 88.002 39.2906 88.541 38.9386ZM78.542 42.6456C78.201 42.9206 78.476 43.3716 78.861 43.3716C78.993 43.3716 79.015 43.3716 80.225 42.7666C81.435 42.1616 82.821 41.5126 83.338 41.3586C83.4248 41.3244 83.4957 41.259 83.5368 41.1752C83.5778 41.0914 83.5861 40.9953 83.5599 40.9057C83.5337 40.8161 83.475 40.7396 83.3953 40.6911C83.3155 40.6426 83.2205 40.6257 83.129 40.6436C81.5371 41.1566 80.0005 41.8272 78.542 42.6456Z" fill="#2A344A"/>
<path d="M74.2952 44.7256C73.7232 45.0446 70.5662 46.7056 70.2252 46.9256C70.1551 46.9744 70.1016 47.0436 70.072 47.1238C70.0424 47.204 70.0381 47.2914 70.0597 47.3741C70.0812 47.4568 70.1276 47.5309 70.1927 47.5864C70.2577 47.6419 70.3381 47.6762 70.4232 47.6846C71.8846 46.9942 73.3026 46.2155 74.6692 45.3526C74.731 45.2941 74.7711 45.2164 74.7828 45.1322C74.7945 45.0479 74.7771 44.9622 74.7335 44.8892C74.6899 44.8161 74.6228 44.7601 74.5431 44.7304C74.4634 44.7006 74.376 44.6989 74.2952 44.7256ZM64.9012 27.1476C66.3775 27.1575 67.8406 26.8683 69.2021 26.2976C70.5637 25.7268 71.7955 24.8862 72.8234 23.8264C73.8513 22.7667 74.6539 21.5097 75.1829 20.1314C75.7119 18.7531 75.9562 17.2819 75.9012 15.8066C75.5712 5.98355 62.8442 1.29755 56.4092 9.65755C50.6012 16.9286 56.1892 27.1476 64.9012 27.1476ZM58.3012 8.79955C65.0442 2.58455 74.9442 7.69955 75.1972 15.8506C75.177 17.9193 74.5806 19.9416 73.475 21.6903C72.3694 23.439 70.7984 24.845 68.9382 25.7506C62.7892 28.4346 55.3862 23.8256 54.8582 17.3356C54.7314 15.7432 54.9765 14.1433 55.574 12.6619C56.1715 11.1805 57.1051 9.85827 58.3012 8.79955ZM89.3652 17.8306C91.3122 18.0396 93.2702 18.0616 95.2172 18.1496C95.3047 18.1496 95.3887 18.1148 95.4506 18.0529C95.5125 17.991 95.5472 17.9071 95.5472 17.8196C95.5472 17.732 95.5125 17.6481 95.4506 17.5862C95.3887 17.5243 95.3047 17.4896 95.2172 17.4896C93.1712 17.3026 91.9172 17.0496 89.3652 16.8846C88.7822 16.8516 88.7712 17.7646 89.3652 17.8306ZM77.8372 16.6646C78.7282 16.7636 82.3912 17.0166 83.3372 17.1376C83.8322 17.2146 84.0302 16.4666 83.5132 16.3786C81.6513 16.0863 79.7749 15.8953 77.8922 15.8066C77.8359 15.8029 77.7794 15.8105 77.726 15.8287C77.6725 15.8469 77.6232 15.8755 77.5808 15.9128C77.5384 15.95 77.5038 15.9953 77.4789 16.046C77.454 16.0966 77.4393 16.1517 77.4357 16.2081C77.4321 16.2644 77.4396 16.3209 77.4579 16.3743C77.4761 16.4277 77.5046 16.4771 77.5419 16.5195C77.5792 16.5618 77.6245 16.5965 77.6751 16.6214C77.7258 16.6463 77.7809 16.6609 77.8372 16.6646ZM34.1012 98.0536C34.4202 96.0295 34.4972 94.0166 34.7392 92.0036C34.7942 91.6296 34.1782 91.5415 34.1232 91.9266C33.8152 93.9066 33.3422 95.8976 33.1112 97.9106C33.1123 98.0314 33.1566 98.1479 33.2362 98.239C33.3157 98.33 33.4252 98.3896 33.5449 98.4068C33.6645 98.4241 33.7864 98.398 33.8884 98.3332C33.9905 98.2684 34.066 98.1692 34.1012 98.0536ZM32.9132 103.499C31.8132 109.538 31.5602 110.275 32.3522 110.275C32.9462 110.275 32.8362 109.879 33.5842 103.587C33.6392 103.18 33.0012 103.092 32.9132 103.499ZM53.1422 113.553C51.4702 114.433 49.3912 115.456 48.7422 115.841C48.652 115.894 48.5821 115.976 48.5434 116.073C48.5047 116.17 48.4994 116.278 48.5284 116.378C48.5573 116.479 48.6189 116.567 48.7033 116.629C48.7878 116.691 48.8905 116.723 48.9952 116.721C50.5291 115.96 52.02 115.115 53.4612 114.191C53.5285 114.139 53.5757 114.066 53.5949 113.984C53.614 113.902 53.6038 113.815 53.5659 113.739C53.5281 113.664 53.4651 113.604 53.3878 113.57C53.3104 113.536 53.2236 113.529 53.1422 113.553ZM46.7072 116.941C45.5063 117.503 44.3351 118.128 43.1982 118.811C42.8462 119.13 43.2642 119.658 43.6822 119.46C44.1002 119.262 46.4432 117.81 46.9822 117.557C47.5212 117.304 47.1142 116.765 46.7072 116.941ZM91.0042 126.104C91.4002 126.357 91.7742 125.752 91.3892 125.488C90.5532 124.938 87.3742 122.584 86.4942 122.122C86.3804 122.067 86.2503 122.055 86.1287 122.09C86.0071 122.124 85.9024 122.202 85.8342 122.309C85.3832 123.013 86.9012 123.409 91.0042 126.104ZM75.7692 115.94C76.3192 116.325 76.8692 116.688 77.4302 117.04C81.1812 119.526 81.0052 119.603 81.2362 119.603C81.3122 119.601 81.3862 119.578 81.4489 119.535C81.5115 119.492 81.56 119.431 81.5883 119.361C81.6165 119.29 81.6232 119.213 81.6075 119.138C81.5919 119.064 81.5545 118.996 81.5002 118.943C79.8302 117.568 78.0859 116.286 76.2752 115.104C75.7472 114.785 75.2632 115.599 75.7692 115.94ZM184.086 152.394C182.282 152.647 180.423 152.834 178.586 153.252C178.473 153.286 178.376 153.361 178.313 153.461C178.25 153.561 178.225 153.68 178.242 153.797C178.26 153.914 178.318 154.021 178.408 154.098C178.497 154.176 178.611 154.219 178.729 154.22C179.158 154.22 181.897 153.483 184.229 153.12C184.801 153.076 184.581 152.306 184.086 152.394ZM174.362 154.176C172.514 154.451 170.479 154.616 168.477 154.957C167.916 155.056 168.07 155.87 168.62 155.87C169.17 155.87 173.108 155.078 174.505 154.858C174.956 154.781 174.802 154.11 174.362 154.176ZM107.801 114.741C107.746 114.647 107.656 114.58 107.55 114.553C107.445 114.526 107.334 114.542 107.24 114.598C107.147 114.653 107.079 114.743 107.053 114.848C107.026 114.954 107.042 115.065 107.097 115.159C107.64 116.043 108.495 116.691 109.494 116.975C110.492 117.258 111.561 117.155 112.487 116.688C112.549 116.65 112.594 116.59 112.614 116.52C112.633 116.45 112.625 116.375 112.592 116.311C112.558 116.247 112.502 116.198 112.433 116.174C112.365 116.149 112.29 116.152 112.223 116.182C111.434 116.499 110.559 116.529 109.75 116.265C108.941 116.002 108.251 115.462 107.801 114.741ZM115.501 110.671C115.424 111.309 114.852 110.957 114.808 111.342C114.808 111.551 114.984 111.628 115.204 111.628C115.399 111.621 115.589 111.562 115.755 111.458C115.92 111.353 116.054 111.206 116.143 111.033C116.233 110.859 116.275 110.665 116.264 110.47C116.254 110.274 116.192 110.086 116.084 109.923C115.467 109.261 114.904 108.551 114.401 107.8C114.382 107.731 114.337 107.673 114.275 107.638C114.213 107.603 114.14 107.594 114.071 107.613C114.003 107.632 113.944 107.677 113.909 107.739C113.874 107.801 113.865 107.874 113.884 107.943C114.143 108.524 114.468 109.074 114.852 109.582C115.104 109.922 115.321 110.287 115.501 110.671ZM109.66 102.619C109.631 102.487 109.551 102.373 109.437 102.301C109.324 102.229 109.186 102.204 109.055 102.234C108.924 102.263 108.81 102.343 108.737 102.456C108.665 102.57 108.641 102.707 108.67 102.839C108.978 104.929 108.791 105.82 109.616 105.82C109.774 105.82 109.925 105.757 110.036 105.646C110.148 105.534 110.21 105.383 110.21 105.226C110.21 104.951 109.748 103.081 109.66 102.619ZM118.306 102.718C118.283 102.598 118.217 102.49 118.121 102.415C118.024 102.34 117.904 102.302 117.782 102.309C117.66 102.316 117.544 102.366 117.457 102.451C117.369 102.537 117.315 102.651 117.305 102.773C117.305 102.938 117.459 104.907 117.514 105.061C117.53 105.206 117.604 105.34 117.718 105.432C117.833 105.524 117.979 105.566 118.125 105.55C118.271 105.534 118.404 105.461 118.496 105.346C118.588 105.232 118.63 105.085 118.614 104.94C118.592 104.808 118.416 103.73 118.306 102.718ZM107.933 102.058C108.074 101.59 108.367 101.183 108.766 100.9C109.164 100.617 109.645 100.475 110.133 100.496C110.219 100.505 110.305 100.483 110.374 100.432C110.444 100.381 110.491 100.305 110.507 100.221C110.617 99.4286 107.658 99.7476 107.009 101.805C106.976 101.927 106.992 102.058 107.055 102.168C107.118 102.279 107.222 102.36 107.345 102.393C107.467 102.427 107.598 102.41 107.708 102.347C107.819 102.284 107.9 102.18 107.933 102.058ZM116.161 100.1C116.561 100.076 116.958 100.186 117.29 100.41C117.622 100.635 117.871 100.962 117.998 101.343C118.196 101.772 118.889 101.486 118.757 101.024C118.542 100.505 118.153 100.077 117.658 99.8122C117.163 99.5475 116.591 99.4625 116.04 99.5715C115.981 99.5967 115.932 99.642 115.902 99.6996C115.873 99.7572 115.865 99.8233 115.879 99.8863C115.894 99.9494 115.93 100.005 115.981 100.044C116.033 100.083 116.097 100.103 116.161 100.1ZM201.048 137.115C201.048 137.115 200.465 134.453 200.311 133.683C200.292 133.596 200.24 133.521 200.166 133.474C200.091 133.427 200.001 133.411 199.915 133.43C199.829 133.449 199.754 133.501 199.707 133.575C199.659 133.649 199.643 133.74 199.662 133.826L200.179 136.961L201.048 137.115Z" fill="#2A344A"/>
<path d="M164.76 159.499C169.259 146.431 169.039 147.202 168.962 147.092C168.885 146.982 154.662 146.718 146.764 146.872C143.614 142.149 139.497 138.149 134.687 135.136C129.876 132.123 124.48 130.165 118.857 129.392C118.001 128.455 116.822 127.877 115.557 127.776L114.182 127.303C114.127 126.229 114.127 125.153 114.182 124.08C117.268 122.904 119.79 120.594 121.233 117.622C122.85 113.992 122.047 109.35 121.101 97.5475C123.367 98.2515 123.422 95.9195 122.047 94.0935C122.109 93.7032 122.089 93.3044 121.989 92.9221C121.889 92.5398 121.711 92.1823 121.466 91.8723C121.221 91.5622 120.915 91.3063 120.566 91.1206C120.217 90.935 119.834 90.8236 119.44 90.7935C119.651 90.469 119.773 90.0944 119.794 89.7075C119.814 89.3207 119.732 88.9353 119.555 88.5904C119.379 88.2455 119.115 87.9533 118.789 87.7433C118.464 87.5333 118.089 87.413 117.702 87.3945C117.472 86.891 117.091 86.4718 116.612 86.1957C116.133 85.9195 115.579 85.8002 115.029 85.8545C114.951 85.4845 114.776 85.142 114.521 84.8623C114.266 84.5827 113.942 84.3762 113.581 84.264C113.22 84.1519 112.835 84.1382 112.467 84.2245C112.099 84.3107 111.76 84.4937 111.487 84.7545C111.256 84.4025 110.684 83.5335 110.387 83.2035C110.622 82.972 110.783 82.6765 110.852 82.3538C110.92 82.0312 110.892 81.6955 110.772 81.3885C111.311 81.2198 111.782 80.8834 112.116 80.4283C112.45 79.9733 112.631 79.4233 112.631 78.8585C112.631 78.2937 112.45 77.7437 112.116 77.2886C111.782 76.8336 111.311 76.4972 110.772 76.3285C111.641 73.1605 108.671 71.2135 105.976 72.4785C105.83 72.1151 105.58 71.803 105.257 71.5817C104.934 71.3605 104.552 71.24 104.161 71.2355C106.361 68.4635 103.226 66.5275 100.245 67.4735C100.049 66.9706 99.7193 66.5307 99.292 66.2009C98.8648 65.8711 98.3558 65.664 97.8197 65.6018C97.2836 65.5396 96.7406 65.6247 96.2492 65.8478C95.7578 66.071 95.3365 66.4239 95.0306 66.8685C94.3088 66.679 93.5414 66.7802 92.8935 67.1504C92.2455 67.5207 91.7687 68.1304 91.5656 68.8485C91.1037 68.7397 90.6235 68.7345 90.1594 68.8334C89.6953 68.9323 89.2589 69.1328 88.8816 69.4205C88.6299 68.9853 88.2282 68.6568 87.7518 68.4962C87.2753 68.3357 86.7567 68.3543 86.293 68.5484C85.8292 68.7425 85.4521 69.099 85.2321 69.551C85.0121 70.003 84.9643 70.5198 85.0976 71.0045C84.7932 71.0894 84.5233 71.2679 84.3259 71.5146C84.1285 71.7614 84.0136 72.0639 83.9976 72.3795C83.8766 72.3592 83.7527 72.3647 83.634 72.3957C83.5153 72.4267 83.4045 72.4824 83.3089 72.5593C83.2133 72.6362 83.135 72.7325 83.0793 72.8418C83.0236 72.9511 82.9917 73.071 82.9856 73.1935C82.6991 73.1208 82.3977 73.1333 82.1182 73.2295C81.8388 73.3257 81.5935 73.5014 81.4124 73.735C81.2314 73.9686 81.1225 74.25 81.0991 74.5446C81.0756 74.8392 81.1387 75.1342 81.2806 75.3935C80.9223 75.474 80.5956 75.6582 80.3413 75.9232C80.087 76.1882 79.9163 76.5222 79.8506 76.8835C79.7849 77.2448 79.8271 77.6175 79.9718 77.955C80.1166 78.2926 80.3575 78.58 80.6646 78.7815C78.9266 79.2875 77.8046 80.9815 78.4646 82.5215C76.4846 83.7205 75.6706 86.1515 77.0676 87.8455C76.8162 88.5447 76.8271 89.3114 77.0982 90.0033C77.3692 90.6951 77.8821 91.2651 78.5416 91.6075C78.2539 91.9611 78.071 92.3882 78.0135 92.8405C77.956 93.2927 78.0263 93.752 78.2163 94.1663C78.4063 94.5807 78.7085 94.9336 79.0887 95.1851C79.4689 95.4367 79.9119 95.5767 80.3676 95.5895C80.4012 95.988 80.5371 96.371 80.7623 96.7015C80.9874 97.0319 81.2942 97.2986 81.6527 97.4757C82.0112 97.6528 82.4095 97.7342 82.8087 97.7121C83.208 97.69 83.5948 97.5651 83.9316 97.3495C84.1108 97.6354 84.3699 97.8625 84.6767 98.0028C84.9836 98.1431 85.3249 98.1905 85.6583 98.139C85.9918 98.0875 86.3029 97.9394 86.5532 97.7131C86.8034 97.4868 86.9819 97.1921 87.0666 96.8655C87.605 97.068 88.1828 97.1435 88.7552 97.0863C89.3275 97.029 89.879 96.8406 90.3666 96.5355C89.9156 99.2745 87.8366 99.4725 88.4856 102.343C88.1023 102.848 87.8902 103.461 87.8803 104.094C87.8704 104.728 88.0632 105.348 88.4306 105.863C88.3058 106.129 88.2353 106.416 88.2232 106.709C88.2111 107.002 88.2577 107.294 88.3602 107.569C88.4626 107.844 88.619 108.095 88.82 108.308C89.021 108.522 89.2626 108.693 89.5306 108.811C89.4276 109.014 89.3789 109.239 89.3892 109.465C89.3995 109.692 89.4685 109.912 89.5893 110.104C89.7102 110.296 89.8789 110.453 90.0788 110.56C90.2786 110.667 90.5029 110.72 90.7296 110.714C90.9459 111.523 91.3611 112.265 91.9375 112.872C92.514 113.479 93.2332 113.933 94.0296 114.19C94.1396 128.017 94.6456 126.356 93.3256 127.962C92.1098 128.601 91.1136 129.59 90.4656 130.801C71.1716 137.5 63.3836 152.801 60.8316 173.338C59.3576 173.107 59.2916 173.052 59.2366 173.239C58.6428 175.55 58.4347 177.943 58.6206 180.322C58.6206 180.465 58.6206 180.454 60.3806 180.883C60.8756 189.365 65.4626 198.56 74.6806 200.177C74.5596 201.959 74.4166 212.167 74.6806 214.477C74.6923 214.532 74.7222 214.58 74.7652 214.615C74.8082 214.649 74.8618 214.668 74.9171 214.668C74.9724 214.668 75.026 214.649 75.069 214.615C75.112 214.58 75.1419 214.532 75.1536 214.477C75.1536 213.245 75.3076 202.18 75.4066 200.343C81.0056 200.893 84.2836 198.55 88.6946 193.743C95.6246 186.043 99.5516 177.738 103.644 169.026C104.362 167.619 104.941 166.145 105.371 164.626C106.016 164.886 106.728 164.937 107.403 164.769C108.079 164.601 108.684 164.223 109.133 163.691C110.708 164.199 112.382 164.327 114.017 164.064C114.293 164.013 114.556 163.905 114.789 163.748C115.022 163.591 115.22 163.387 115.371 163.149C115.521 162.912 115.622 162.646 115.665 162.368C115.708 162.09 115.694 161.807 115.623 161.535C117.031 161.469 117.911 160.193 116.503 159.126C116.054 158.781 115.58 158.472 115.084 158.202C116.25 158.125 119.33 157.784 120.331 157.102C121.332 156.42 121.299 154.714 119.913 154.527C119.33 154.45 110.761 154.802 108.814 155.077C106.887 155.282 105.063 156.047 103.567 157.277C101.367 159.092 85.8126 172.018 80.2576 176.682C77.0346 176.099 64.9566 174.031 61.7446 173.525C64.4066 151.338 73.4486 138.071 90.1686 131.823C89.1456 136.003 94.0956 140.294 95.6686 141.57C98.2536 143.693 102.478 145.97 106.097 144.98C108.396 144.364 110.112 142.592 111.212 139.699C116.096 143.934 118.395 143.461 119.165 143.065C122.124 141.514 122.003 133.968 119.539 130.339C124.818 131.156 129.872 133.054 134.384 135.914C138.896 138.774 142.77 142.534 145.763 146.96C140.714 147.07 141.022 147.07 140.978 147.202C139.785 150.419 138.626 153.65 137.502 156.893C137.062 154.154 136.402 150.425 136.116 149.347C136.091 149.288 136.046 149.24 135.989 149.211C135.932 149.183 135.867 149.176 135.805 149.192C135.744 149.208 135.69 149.246 135.654 149.299C135.618 149.351 135.602 149.415 135.61 149.479C135.929 150.821 136.589 155.914 136.952 158.488C132.486 171.413 128.988 183.061 129.076 183.182C129.164 183.303 140.076 183.303 141.484 183.281C142.584 192.477 143.42 211.65 143.387 213.927C143.387 213.992 143.412 214.053 143.457 214.099C143.503 214.144 143.564 214.169 143.629 214.169C143.693 214.169 143.754 214.144 143.8 214.099C143.845 214.053 143.871 213.992 143.871 213.927C144.069 209.879 143.871 197.714 143.684 195.085C146.285 194.653 148.669 193.368 150.46 191.432C151.802 190.057 153.76 185.988 155.113 182.71C157.247 182.567 157.313 182.599 157.313 182.456C158.567 179.541 159.81 176.11 160.855 172.766C166.047 171.985 168.676 164.702 166.575 161.402C166.103 160.653 165.486 160.006 164.76 159.499ZM75.0766 182.885C75.7806 182.764 74.9996 181.786 101.554 159.962C105.954 156.365 106.295 156.023 111.63 155.66C113.61 155.528 118.747 155.342 119.33 155.331C119.781 155.331 120.177 155.331 120.144 155.738C120.144 156.442 119.044 156.651 118.285 156.838C116.008 157.389 113.675 157.676 111.333 157.695C111.263 157.695 111.195 157.723 111.146 157.773C111.096 157.822 111.069 157.889 111.069 157.96C111.069 158.03 111.096 158.097 111.146 158.146C111.195 158.196 111.263 158.223 111.333 158.223H113.621C114.322 158.563 114.992 158.965 115.623 159.423C115.887 159.609 116.36 159.786 116.393 160.039C116.569 161.502 112.873 160.148 111.575 159.521C111.529 159.498 111.477 159.494 111.428 159.509C111.38 159.525 111.339 159.559 111.316 159.604C111.293 159.649 111.288 159.702 111.304 159.75C111.319 159.799 111.353 159.839 111.399 159.863C112.334 160.446 115.568 161.578 114.82 162.678C113.863 164.064 111.355 163.471 109.694 163.141C110.041 162.86 110.458 162.68 110.9 162.62C111.342 162.56 111.792 162.622 112.202 162.799C112.258 162.814 112.317 162.807 112.368 162.781C112.42 162.756 112.461 162.712 112.483 162.659C112.506 162.606 112.509 162.547 112.491 162.492C112.474 162.437 112.437 162.39 112.389 162.36C111.713 162.075 110.965 162.008 110.25 162.168C109.534 162.327 108.886 162.706 108.396 163.251C107.087 164.505 105.459 164.208 104.194 162.932C104.148 162.891 104.09 162.869 104.03 162.868C103.97 162.867 103.911 162.888 103.864 162.926C103.818 162.965 103.787 163.019 103.777 163.078C103.766 163.137 103.778 163.199 103.809 163.251C104.062 163.639 104.391 163.972 104.777 164.23C102.817 169.05 100.614 173.767 98.1766 178.365C93.7766 186.615 89.3106 192.445 84.2946 196.691C78.8606 201.366 70.8746 199.649 66.2876 194.303C63.5376 191.124 61.8106 186.67 61.1726 181.104C63.4606 181.5 72.6016 182.808 75.0766 182.885ZM94.1506 91.1235C93.2016 91.7901 92.4676 92.719 92.0386 93.7965C91.6092 93.4175 91.2772 92.9409 91.0705 92.4068C90.8637 91.8727 90.7883 91.2968 90.8506 90.7275C91.8296 86.3275 96.3506 82.4775 100.102 81.3445C102.412 80.4095 108.286 81.4545 110.178 84.2815C109.56 84.2255 108.944 84.402 108.451 84.7765C108.155 84.3916 107.776 84.0785 107.342 83.8607C106.908 83.6428 106.43 83.5258 105.945 83.5184C105.459 83.511 104.978 83.6134 104.538 83.8179C104.098 84.0224 103.709 84.3238 103.402 84.6995C102.8 84.8749 102.256 85.2093 101.829 85.6675C101.424 85.4508 100.964 85.3571 100.507 85.3982C100.05 85.4392 99.6144 85.6131 99.2546 85.8985C98.8714 86.0025 98.5347 86.2329 98.2991 86.5524C98.0634 86.8719 97.9427 87.2617 97.9566 87.6585C97.4737 87.6107 96.9862 87.6649 96.5257 87.8175C96.0651 87.9702 95.6417 88.2178 95.2829 88.5445C94.9241 88.8711 94.6379 89.2695 94.4429 89.7137C94.2478 90.158 94.1482 90.6383 94.1506 91.1235ZM114.952 136.828C109.815 142.152 94.3816 135.948 93.3806 130.998C93.3014 130.466 93.3487 129.923 93.5188 129.413C93.6889 128.903 93.977 128.44 94.3596 128.061C94.4696 127.951 94.5466 127.831 94.6566 127.721C94.6694 127.689 94.6694 127.653 94.6566 127.621L94.8656 127.357C95.1406 126.84 94.7996 115.896 94.7446 114.322C95.1586 114.328 95.5636 114.202 95.9016 113.963C96.2396 113.724 96.493 113.384 96.6256 112.991C96.8599 113.119 97.1266 113.174 97.3923 113.151C97.658 113.127 97.9108 113.025 98.1188 112.858C98.3269 112.691 98.481 112.467 98.5617 112.213C98.6424 111.958 98.6462 111.686 98.5726 111.43L101.279 108.526C101.275 108.887 101.375 109.241 101.566 109.548C101.757 109.854 102.032 110.099 102.358 110.254C102.685 110.409 103.048 110.467 103.407 110.422C103.765 110.377 104.103 110.23 104.381 109.999C104.665 109.793 104.9 109.526 105.069 109.218C105.239 108.91 105.338 108.568 105.36 108.217C105.364 108.18 105.355 108.141 105.334 108.109C105.314 108.077 105.282 108.054 105.246 108.042C105.21 108.03 105.171 108.031 105.135 108.045C105.1 108.059 105.07 108.085 105.052 108.118C104.869 108.392 104.598 108.596 104.284 108.696C103.971 108.796 103.632 108.786 103.325 108.668C103.432 108.212 103.411 107.735 103.263 107.291C103.116 106.846 102.848 106.451 102.489 106.149C100.839 100.869 100.993 98.7795 103.952 96.7995C106.152 95.1385 113.852 91.4425 119.033 96.1615C119.389 96.575 119.813 96.9247 120.287 97.1955C121.629 115.467 122.487 115.708 117.471 121.011C115.934 122.569 113.888 123.521 111.707 123.694C111.322 123.694 111.278 124.255 111.707 124.299C112.265 124.376 112.831 124.376 113.39 124.299C113.39 128.028 113.225 127.742 114.292 128.116C117.933 129.799 117.614 134.046 114.952 136.828ZM147.303 192.731C146.147 193.371 144.912 193.856 143.629 194.172C143.464 192.324 142.793 186.472 142.353 183.172C146.357 183.084 150.383 182.919 154.222 182.677C152.616 186.681 150.185 191.323 147.303 192.731ZM154.574 156.431C152.154 156.365 152.154 153.373 154.574 153.307C156.994 153.241 156.994 156.419 154.574 156.485V156.431ZM144.773 150.766C144.259 151.072 143.843 151.519 143.574 152.052C143.244 152.679 133.795 178.387 133.344 179.85C133.32 179.928 133.267 179.995 133.194 180.034C133.122 180.073 133.037 180.082 132.959 180.059C132.88 180.035 132.814 179.981 132.774 179.909C132.735 179.837 132.726 179.752 132.75 179.673C133.311 177.594 141.462 154.253 141.55 154.11C143.497 149.248 144.256 149.325 147.974 149.204C149.679 149.149 162.087 149.094 163.88 149.391C164.276 149.457 164.188 150.018 163.88 150.051C162.901 150.172 145.543 150.435 144.773 150.82V150.766ZM161.185 171.665C161.603 170.257 161.988 168.882 162.285 167.574C162.774 167.771 163.283 167.919 163.803 168.014C163.859 168.027 163.919 168.017 163.969 167.986C164.018 167.955 164.053 167.905 164.067 167.848C164.08 167.792 164.07 167.732 164.039 167.682C164.008 167.633 163.958 167.598 163.902 167.585C162.702 167.115 161.588 166.454 160.602 165.627C159.931 164.868 159.623 164.307 160.404 163.757C161.9 164.934 163.847 165.956 164.562 166.473C164.607 166.496 164.659 166.502 164.708 166.491C164.758 166.479 164.802 166.451 164.833 166.411C164.864 166.371 164.88 166.321 164.879 166.27C164.878 166.22 164.859 166.171 164.826 166.133C164.023 165.407 161.306 163.58 159.887 162.161C159.864 161.937 159.911 161.711 160.021 161.514C160.132 161.318 160.3 161.16 160.503 161.061C161.779 162.175 163.173 163.145 164.661 163.954C164.709 163.984 164.767 163.993 164.822 163.981C164.878 163.969 164.926 163.936 164.958 163.889C165.123 163.68 164.958 163.603 163.858 162.689C163.033 162.007 161.878 161.05 161.031 160.214C159.832 159.114 162.131 159.312 164.232 160.214C164.963 160.632 165.559 161.252 165.949 161.998C166.339 162.745 166.507 163.588 166.432 164.427C166.267 167.606 164.309 170.907 161.185 171.776V171.665Z" fill="#2A344A"/>
<path d="M41.5162 118.888C36.0162 110.924 23.4982 113.74 21.9802 123.101C21.6729 124.669 21.7221 126.286 22.124 127.832C22.526 129.378 23.2704 130.815 24.3022 132.035C25.3341 133.254 26.627 134.227 28.0853 134.879C29.5436 135.532 31.13 135.849 32.7272 135.806C41.8792 135.806 46.2022 125.708 41.5162 118.888Z" fill="#4E6AF3"/>
<path fill-rule="evenodd" clip-rule="evenodd" d="M29.4143 128.982C29.1881 128.93 29.1059 128.752 28.9825 128.426C28.6397 127.515 27.447 123.453 27.5018 122.867C27.5058 122.797 27.5287 122.729 27.5676 122.673C27.6066 122.616 27.6599 122.573 27.7212 122.549C28.5369 122.156 33.9522 120.51 35.6453 120.021C35.6646 120.009 35.6863 120.001 35.7087 120C35.731 119.999 35.7533 120.004 35.7736 120.014C35.7939 120.024 35.8115 120.04 35.825 120.059C35.8385 120.078 35.8474 120.101 35.851 120.125C36.5037 122.113 37.0507 124.14 37.4893 126.195C37.5188 126.362 37.4868 126.535 37.4002 126.677C36.8998 127.277 30.2986 129.205 29.4143 128.982ZM28.4958 122.978C29.6982 123.574 30.9346 124.087 32.1974 124.513C32.8075 124.691 35.2066 120.933 35.5768 120.362C31.32 122.015 30.2232 122.356 28.4958 122.978ZM35.7207 120.666C34.9199 122.131 34.0339 123.54 33.0679 124.883C32.8349 125.172 32.7252 125.284 32.4304 125.247C30.993 124.852 29.5948 124.305 28.2559 123.616C28.6296 125.217 29.0873 126.793 29.6268 128.337C32.1233 127.905 34.5766 127.22 36.9546 126.292C36.6477 124.391 36.2357 122.513 35.7207 120.666Z" fill="#D4D8E1"/>
<rect y="184" width="36" height="36" rx="18" fill="#4E6AF3"/>
<path d="M22.3857 206.664V208H14.0098V206.831L18.2021 202.164C18.7178 201.59 19.1162 201.104 19.3975 200.705C19.6846 200.301 19.8838 199.94 19.9951 199.624C20.1123 199.302 20.1709 198.974 20.1709 198.64C20.1709 198.218 20.083 197.837 19.9072 197.497C19.7373 197.151 19.4854 196.876 19.1514 196.671C18.8174 196.466 18.4131 196.363 17.9385 196.363C17.3701 196.363 16.8955 196.475 16.5146 196.697C16.1396 196.914 15.8584 197.219 15.6709 197.611C15.4834 198.004 15.3896 198.455 15.3896 198.965H13.7637C13.7637 198.244 13.9219 197.585 14.2383 196.987C14.5547 196.39 15.0234 195.915 15.6445 195.563C16.2656 195.206 17.0303 195.027 17.9385 195.027C18.7471 195.027 19.4385 195.171 20.0127 195.458C20.5869 195.739 21.0264 196.138 21.3311 196.653C21.6416 197.163 21.7969 197.761 21.7969 198.446C21.7969 198.821 21.7324 199.202 21.6035 199.589C21.4805 199.97 21.3076 200.351 21.085 200.731C20.8682 201.112 20.6133 201.487 20.3203 201.856C20.0332 202.226 19.7256 202.589 19.3975 202.946L15.9697 206.664H22.3857Z" fill="white"/>
<path d="M106.062 12.7792C108.144 11.9233 110.376 11.4886 112.627 11.5002C114.878 11.4886 117.109 11.9233 119.191 12.7794C121.273 13.6354 123.164 14.8957 124.756 16.4874C126.348 18.0791 127.608 19.9706 128.464 22.0524C129.32 24.1343 129.755 26.3653 129.743 28.6162C129.303 51.2872 95.9512 51.2762 95.5002 28.6162C95.49 26.3647 95.9261 24.1336 96.7833 22.0516C97.6406 19.9697 98.9019 18.0783 100.494 16.4867C102.087 14.8952 103.979 13.6351 106.062 12.7792Z" fill="#4E6AF3"/>
<path d="M194.989 137.347C196.673 136.831 198.448 136.678 200.195 136.899C203.006 137.448 205.703 138.301 208.217 141.335C210.029 143.552 211.008 146.334 210.986 149.197C210.656 165.444 186.863 165.774 186.203 149.197C186.208 147.436 186.587 145.696 187.315 144.092C188.043 142.488 189.104 141.057 190.427 139.894C191.75 138.732 193.305 137.863 194.989 137.347Z" fill="#4E6AF3"/>
<path d="M122.407 21.9634C122.39 21.7489 122.199 21.5856 121.981 21.6006C116.264 21.9555 110.463 22.0297 104.74 21.8214C104.654 21.8183 104.323 21.8766 104.323 22.2143C103.493 26.3374 103.496 30.3651 104.333 35.2707C104.366 35.4608 104.533 35.5996 104.729 35.5996L122.155 35.3219C122.365 35.3188 122.538 35.1563 122.549 34.9496C122.795 30.6372 122.746 26.268 122.406 21.9626L122.407 21.9634ZM104.947 23.2515C106.703 24.7771 108.495 26.3232 110.361 27.7817L104.981 34.2476C104.361 30.1844 104.349 26.7231 104.947 23.2515ZM110.993 28.27C111.979 29.0233 112.986 29.749 114.019 30.4321C114.178 30.5362 114.386 30.5173 114.521 30.3887L116.736 28.3086C118.473 30.2941 120.117 32.3876 121.632 34.541L105.56 34.7966L110.992 28.2692L110.993 28.27ZM117.315 27.7596C118.841 26.2979 120.303 24.8094 121.683 23.0812C121.916 26.5156 121.961 29.9848 121.82 33.4264C120.413 31.4718 118.902 29.5715 117.315 27.7596ZM121.176 22.4383C119.089 25.0816 116.797 27.1641 114.201 29.5999C111.106 27.523 108.23 25.0524 105.449 22.6347C110.673 22.8027 115.955 22.7365 121.176 22.4383Z" fill="#D4D8E1"/>
<path fill-rule="evenodd" clip-rule="evenodd" d="M203.32 154.976C203.637 154.907 203.752 154.67 203.925 154.235C204.404 153.02 206.074 147.604 205.997 146.823C205.992 146.729 205.96 146.639 205.905 146.563C205.851 146.488 205.776 146.43 205.69 146.398C204.548 145.874 196.967 143.68 194.597 143.028C194.57 143.011 194.539 143.002 194.508 143C194.477 142.999 194.445 143.005 194.417 143.019C194.389 143.032 194.364 143.053 194.345 143.079C194.326 143.104 194.314 143.134 194.309 143.166C193.395 145.817 192.629 148.519 192.015 151.26C191.974 151.483 192.018 151.714 192.14 151.903C192.84 152.703 202.082 155.273 203.32 154.976ZM204.606 146.971C202.922 147.766 201.192 148.449 199.424 149.017C198.57 149.254 195.211 144.244 194.692 143.483C200.652 145.686 202.188 146.141 204.606 146.971ZM194.491 143.888C195.612 145.841 196.853 147.72 198.205 149.511C198.531 149.897 198.685 150.045 199.097 149.995C201.11 149.469 203.067 148.741 204.942 147.821C204.419 149.955 203.778 152.057 203.022 154.116C199.527 153.54 196.093 152.627 192.764 151.389C193.193 148.855 193.77 146.35 194.491 143.888Z" fill="#D4D8E1"/>
<path d="M60.24 13.9698C59.933 13.9627 59.9046 13.215 60.2474 13.1827C63.3997 13.2567 66.596 13.1945 69.7473 13.0009C70.0685 12.9694 70.093 13.7675 69.7659 13.7872C66.7223 13.9753 63.5182 14.0461 60.24 13.9698Z" fill="#2A344A"/>
<path d="M141.24 90.9698C140.933 90.9627 140.905 90.215 141.247 90.1827C144.4 90.2567 147.596 90.1945 150.747 90.0009C151.069 89.9694 151.093 90.7675 150.766 90.7872C147.722 90.9753 144.518 91.0461 141.24 90.9698Z" fill="#2A344A"/>
<path d="M59.2258 17C59.1028 17.0006 59.0014 16.8707 59 16.709C58.9987 16.5468 59.0983 16.4139 59.2222 16.4122C63.0525 16.3593 66.9361 16.2211 70.7659 16.0001C70.8862 15.9954 70.9944 16.1183 70.9998 16.2811C71.0052 16.4433 70.9091 16.5803 70.7852 16.5874C66.9505 16.8084 63.061 16.9735 59.2258 17Z" fill="#2A344A"/>
<path d="M140.226 94C140.103 94.0006 140.001 93.8707 140 93.709C139.999 93.5468 140.098 93.4139 140.222 93.4122C144.052 93.3593 147.936 93.2211 151.766 93.0001C151.886 92.9954 151.994 93.1183 152 93.2811C152.005 93.4433 151.909 93.5803 151.785 93.5874C147.95 93.8084 144.061 93.9735 140.226 94Z" fill="#2A344A"/>
<path d="M60.2153 20C59.9323 20 59.9262 19.3895 60.2096 19.3783L69.7785 19.0003C70.0659 18.9847 70.0776 19.6102 69.7903 19.622L60.2153 20Z" fill="#2A344A"/>
<path d="M141.215 97C140.932 97 140.926 96.3895 141.21 96.3783L150.779 96.0003C151.066 95.9847 151.078 96.6102 150.79 96.622L141.215 97Z" fill="#2A344A"/>
<path d="M58.8467 107.17C58.5549 107.266 58.2787 106.57 58.591 106.426C61.5874 105.444 64.5799 104.319 67.4861 103.085C67.7784 102.948 68.0677 103.692 67.766 103.82C64.9595 105.013 61.9625 106.148 58.8467 107.17Z" fill="#2A344A"/>
<path d="M58.9058 110.365C58.7901 110.407 58.6511 110.318 58.5959 110.166C58.5405 110.014 58.5901 109.855 58.7063 109.813C62.2995 108.485 65.9146 107.059 69.4513 105.573C69.5632 105.528 69.7061 105.608 69.7655 105.76C69.8247 105.911 69.7799 106.072 69.6654 106.12C66.1241 107.608 62.5125 109.061 58.9058 110.365Z" fill="#2A344A"/>
<path d="M60.8334 112.863C60.5666 112.958 60.3572 112.384 60.6207 112.279L69.5153 108.73C69.781 108.62 70.0007 109.206 69.7338 109.312L60.8334 112.863Z" fill="#2A344A"/>
</svg>
