<svg width="200" height="200" fill="none" xmlns="http://www.w3.org/2000/svg"><path d="M89 47.5 38 50l-3 1-3 3.5-.5 6-1 23.5v21l1 27.5.5 18 1 3 2 2.5 3 1.5 51 2-1.5 7H77l-4 1-10 7v2c0-.8 1.333.333 2 1h70v-3l-9-7-2.5-1H111l-1.5-7 44-2 4.5-1.5 2.5-3.5c1.909-38.451 1.81-60.892 1-101.5l-10-1-44-2.5H89Z" fill="#fff"/><path d="M161.262 56.766a7.363 7.363 0 0 0-4.47-6.765c.209.446.409.892.6 1.341a6.48 6.48 0 0 1 2.971 5.457c1.757 23.882 1.757 49.647-.001 76.608a6.452 6.452 0 0 1-6.445 6.445c-3.004 0-47.262 4.763-115.094 0-3.554 0-6.445-2.891-6.446-6.473-1.777-28.732-1.777-53.781 0-76.613 0-3.554 2.891-6.445 6.484-6.447 16.593-1.411 33.29-2.176 49.988-2.34.116-.303.237-.604.36-.904-17.028.158-33.856.939-50.386 2.345-4.05 0-7.345 3.295-7.344 7.31-2.096 26.888-1.603 63.887 0 92.844 0 4.5 3.293 8.162 7.307 8.162 16.71 1.312 33.188 2.078 49.354 2.297l-.806 6.139h-9.731c-2.521 0-4.93.785-6.968 2.269l-7.3 5.318a1.88 1.88 0 0 0-.769 1.809c-.138 1.539.38 4.382 1.895 4.382h69.551c1.511 0 2.026-2.886 1.896-4.399a1.887 1.887 0 0 0-.694-1.732l-6.189-5.011a11.87 11.87 0 0 0-7.446-2.636h-10.42l-.935-6.184c14.898-.268 29.492-1.017 43.715-2.25 4.041-.013 7.325-3.67 7.324-8.138 1.694-29.051 1.957-66.256-.001-92.834ZM121.577 167.07c2.496 0 4.94.865 6.88 2.437l6.189 5.01c.741.6.317 1.797-.636 1.797H64.46c-.98 0-1.387-1.252-.596-1.828l7.3-5.319a10.868 10.868 0 0 1 6.438-2.097h9.612c-.356 2.705-.334 2.666-.208 2.82 3.258 3.966 20.822 4.018 24.544.021.203-.22.147-.159-.258-2.841h10.285Zm-10.836 2.377c-3.708 3.454-19.73 3.315-22.915.012l1.218-9.416c2.92.036 16.443.022 20.269-.042l1.428 9.446Zm49.621-19.874c0 4.005-2.891 7.263-6.445 7.263-3.006 0-47.259 5.328-115.094 0-3.554 0-6.445-3.258-6.446-7.289-.27-4.89-.499-9.684-.687-14.39.787 3.207 3.68 5.593 7.1 5.592 37.94 2.666 76.921 2.962 115.145.001a7.358 7.358 0 0 0 7.141-5.683c-.193 4.798-.43 9.635-.714 14.506Z" fill="#2A344A"/><path d="M137.247 48.26c-13.247-.75-26.069-1.259-38.979-1.206-.128.3-.25.6-.37.901 13.12-.057 26.602.556 39.321 1.205.001-.132.029-.274.028-.9Z" fill="#2A344A"/><path d="M136.289 49.107c5.299.3 10.589.659 15.866 1.073-.108-.202-.455-.83-.518-.941a734.444 734.444 0 0 0-15.489-1.04c.034.306.08.61.141.908ZM98.558 153.945a3.836 3.836 0 0 1-3.831-3.831 3.836 3.836 0 0 1 3.83-3.832 3.836 3.836 0 0 1 3.832 3.832 3.836 3.836 0 0 1-3.831 3.831Zm0-6.763a2.935 2.935 0 0 0-2.931 2.932 2.935 2.935 0 0 0 2.93 2.931 2.935 2.935 0 0 0 2.932-2.931 2.935 2.935 0 0 0-2.931-2.932ZM48.325 132.648a10.389 10.389 0 0 1-3.248-1.037.45.45 0 1 0-.41.801c1.394.713 3.097 1.131 3.594 1.131.553 0 .613-.815.063-.895ZM38.78 116.426a188.462 188.462 0 0 1-.248-3.555.45.45 0 0 0-.898.054c.072 1.204.155 2.394.249 3.573a.45.45 0 0 0 .897-.072ZM43.561 57.08a11.511 11.511 0 0 0-2.715 2.516.45.45 0 0 0 .71.554 10.598 10.598 0 0 1 2.503-2.32.45.45 0 1 0-.498-.75ZM40.37 126.792a.45.45 0 1 0-.81.391 11.403 11.403 0 0 0 2.126 3.03.45.45 0 1 0 .645-.629 10.534 10.534 0 0 1-1.96-2.792ZM39.334 122.217c-.084-.743-.165-1.49-.24-2.242a.45.45 0 1 0-.896.089c.076.757.156 1.508.24 2.203 0 .456.026.914.08 1.362a.451.451 0 0 0 .894-.109c-.05-.412-.075-.834-.078-1.304v.001ZM76.767 135.002a388.323 388.323 0 0 1-3.563-.2.45.45 0 0 0-.054.898c1.191.072 3.595.201 3.595.201.58 0 .602-.869.022-.9v.001ZM69.636 134.571a391.939 391.939 0 0 1-3.56-.261c-.597-.047-.662.852-.07.898.723.056 3.486.263 3.6.263.575 0 .605-.86.03-.9ZM64.8 53.865c-1.19.084-2.38.172-3.568.266-.571.045-.538.9.035.9.012 0 2.409-.184 3.596-.268.59-.042.534-.937-.064-.898ZM71.936 53.422c-1.191.063-2.382.132-3.572.206-.576.036-.55.899.027.899.01 0 2.404-.143 3.592-.207a.45.45 0 0 0 .426-.473.455.455 0 0 0-.473-.425ZM57.67 54.427c-1.188.104-2.376.212-3.563.326-.565.054-.525.898.043.898.09 0 .816-.085 3.598-.328a.45.45 0 0 0-.078-.896ZM55.412 133.356a484.493 484.493 0 0 1-3.549-.375c-.595-.063-.687.83-.098.894.51.056 3.502.378 3.603.378.567 0 .607-.84.044-.897ZM62.52 134.022a393.188 393.188 0 0 1-3.554-.319c-.6-.052-.672.842-.085.897.59.056 3.496.32 3.601.32.572 0 .607-.849.038-.898ZM50.547 55.11c-1.294.139-2.041.039-3.605.452-.57.15-.352 1.024.23.87 2.444-.645 3.962-.037 3.869-.92a.45.45 0 0 0-.494-.402ZM152.519 68.91c.151 1.181.293 2.362.424 3.541a.45.45 0 0 0 .896-.099c-.132-1.184-.274-2.37-.426-3.555-.076-.595-.968-.474-.893.115l-.001-.001ZM153.307 75.998c.112 1.185.213 2.37.303 3.553a.45.45 0 0 0 .898-.07 205.759 205.759 0 0 0-.305-3.568c-.055-.594-.952-.509-.896.085ZM152.14 65.356a.45.45 0 0 0 .894-.105 11.237 11.237 0 0 0-1.03-3.558.45.45 0 1 0-.811.389c.495 1.035.813 2.137.947 3.274ZM38.347 109.313a225.414 225.414 0 0 1-.127-3.564c-.017-.606-.915-.563-.9.026.035 1.204.077 2.395.128 3.576.026.592.925.567.9-.038ZM154.141 90.232c.028 1.19.045 2.378.051 3.564a.451.451 0 0 0 .9-.004 194.71 194.71 0 0 0-.051-3.58c-.015-.62-.914-.56-.9.02ZM38.894 66.95c.246 0 .45-.2.451-.446.008-1.15.204-2.28.58-3.36a.45.45 0 1 0-.85-.296 11.276 11.276 0 0 0-.63 3.65.45.45 0 0 0 .449.452ZM37.7 102.641a.451.451 0 0 0 .446-.456 274.266 274.266 0 0 1-.027-3.567.45.45 0 0 0-.9.002c.002 1.203.01 2.396.027 3.578a.452.452 0 0 0 .453.443ZM37.683 95.497a.45.45 0 0 0 .451-.446c.012-1.179.03-2.368.054-3.567a.45.45 0 0 0-.44-.46.466.466 0 0 0-.46.442 347.136 347.136 0 0 0-.054 3.576.45.45 0 0 0 .449.455ZM38.54 80.785c.053-1.179.11-2.367.171-3.564.03-.587-.867-.651-.899-.046-.061 1.2-.118 2.39-.17 3.57-.028.604.872.62.898.04ZM38.907 73.656c.068-1.178.138-2.366.212-3.563a.45.45 0 1 0-.899-.055 695.417 695.417 0 0 0-.211 3.568c-.035.603.865.631.898.05ZM38.275 87.917a457.7 457.7 0 0 1 .118-3.566c.023-.595-.878-.629-.899-.033-.044 1.2-.085 2.392-.119 3.574-.016.585.882.626.9.025ZM140.876 132.862c-1.18.149-2.361.292-3.543.429-.559.064-.511.897.051.897.121 0 3.258-.388 3.604-.432.588-.075.481-.967-.113-.893l.001-.001ZM149.886 58.656a11.445 11.445 0 0 0-2.971-2.207.45.45 0 1 0-.413.8 10.55 10.55 0 0 1 2.738 2.035.45.45 0 0 0 .646-.627ZM126.683 134.345c-1.184.099-2.37.191-3.558.277-.574.041-.54.899.033.899.011 0 2.412-.179 3.6-.278a.452.452 0 0 0-.075-.898ZM133.785 133.68c-1.183.124-2.366.241-3.552.352-.566.053-.526.898.042.898.121 0 2.957-.287 3.602-.355a.449.449 0 0 0 .401-.494.448.448 0 0 0-.493-.401ZM147.543 130.981a10.459 10.459 0 0 1-3.102 1.416c-.505.136-.406.885.117.885.229 0 1.932-.51 3.487-1.554a.449.449 0 1 0-.502-.747ZM79.086 53.099c-1.191.044-2.382.094-3.573.147-.582.026-.563.9.02.9 0 0 2.398-.104 3.587-.148.592-.021.566-.921-.034-.899ZM154.429 104.061a.451.451 0 0 0-.472.427c-.06 1.187-.132 2.373-.214 3.558a.45.45 0 1 0 .899.061c.082-1.189.153-2.381.215-3.574a.451.451 0 0 0-.428-.472ZM153.948 111.191a.458.458 0 0 0-.488.408 182.745 182.745 0 0 1-.348 3.548.45.45 0 1 0 .896.097c.128-1.187.244-2.376.35-3.564a.45.45 0 0 0-.409-.488l-.001-.001ZM153.201 118.297a.456.456 0 0 0-.503.39 294.72 294.72 0 0 1-.487 3.597c0 .627.895.614.895.049.173-1.177.335-2.354.486-3.533a.451.451 0 0 0-.39-.503h-.001ZM152.22 125.366a.449.449 0 0 0-.571.28 10.524 10.524 0 0 1-1.617 3.004.45.45 0 0 0 .712.549 11.361 11.361 0 0 0 1.757-3.26.451.451 0 0 0-.28-.572l-.001-.001ZM154.634 96.917a.452.452 0 0 0-.453.445 201.52 201.52 0 0 1-.079 3.564c-.019.581.881.63.899.027.038-1.192.065-2.385.08-3.58a.452.452 0 0 0-.447-.456ZM121.982 53.598a438.716 438.716 0 0 0-3.571-.198.45.45 0 1 0-.046.9c2.627.134 3.499.197 3.592.197.577 0 .602-.865.025-.899ZM129.044 54.1a433.774 433.774 0 0 0-3.571-.199.45.45 0 0 0-.046.9c2.627.134 3.499.197 3.592.197.578 0 .602-.865.025-.899ZM136.107 54.6a438.716 438.716 0 0 0-3.571-.198.45.45 0 1 0-.046.9c2.627.134 3.499.197 3.592.197.577 0 .602-.865.025-.899ZM143.107 55.199a438.716 438.716 0 0 0-3.571-.198.45.45 0 1 0-.046.9c2.627.134 3.499.197 3.592.197.577 0 .602-.865.025-.9ZM98.171 135.541l-3.573-.008a.45.45 0 0 0-.002.9c1.65.012 2.606.01 3.577.008a.45.45 0 1 0-.002-.9ZM83.894 135.312a387.417 387.417 0 0 1-3.565-.139.458.458 0 0 0-.47.43.449.449 0 0 0 .431.469c1.192.052 3.59.139 3.59.139.585 0 .6-.879.015-.9v.001ZM100.544 52.833c-1.193-.015-3.578-.028-3.578-.028a.45.45 0 0 0-.002.9c1.189.004 3.574.028 3.574.028a.45.45 0 0 0 .006-.9ZM86.236 52.894c-1.193.024-2.385.054-3.575.088-.587.017-.575.9.012.9 0 0 2.392-.063 3.582-.087.568-.012.608-.874-.019-.901ZM91.03 135.491a387.252 387.252 0 0 1-3.568-.073c-.25-.023-.456.19-.462.438a.45.45 0 0 0 .438.461c1.194.03 3.583.074 3.583.074a.45.45 0 0 0 .007-.9h.001ZM105.301 135.455c-1.188.026-2.377.046-3.567.06a.45.45 0 0 0 .005.9s2.391-.034 3.582-.06c.591-.013.582-.91-.019-.9h-.001ZM114.837 53.23a432.822 432.822 0 0 0-3.574-.14.45.45 0 0 0-.033.9c1.189.042 3.587.14 3.587.14.583 0 .603-.874.02-.9ZM119.564 134.861c-1.186.073-2.374.141-3.562.203-.58.03-.557.899.022.899 0 0 2.406-.13 3.596-.203.592-.037.542-.935-.056-.899ZM112.436 135.23c-1.188.029-2.376.092-3.566.13-.586.019-.572.9.014.9 0 0 2.399-.081 3.59-.131.58-.025.574-.915-.038-.899ZM107.688 52.974a475.292 475.292 0 0 0-3.576-.085c-.597-.012-.612.887-.018.9 1.189.023 3.581.085 3.581.085a.45.45 0 0 0 .013-.9ZM104.692 92.07c12.448.081 24.092.175 25.885.216 2.766.064 5.019 2.252 5.019 5.02a5.025 5.025 0 0 1-4.828 5.016 35.958 35.958 0 0 0 3.097-.12c1.585-1.061 2.631-2.848 2.631-4.895 0-3.264-2.656-5.845-5.898-5.92-3.502-.08-14.522-.16-26.864-.19.315.297.636.587.958.872ZM116.525 102.728c-10.294.221-25.63.359-44.149-.136-.493-3.52-.66-6.854-.363-10.651 1.216-.045 13.684.011 26.829.092-.274-.278-.544-.56-.811-.846-13.437-.016-27.303.032-34.08.2-3.263.081-5.92 2.656-5.92 5.92 0 3.265 2.656 5.861 5.903 5.92 26.41.477 26.387.93 55.502.245a38.682 38.682 0 0 1-2.911-.744Zm-52.574-.401c-2.768-.05-5.02-2.252-5.02-5.02 0-2.769 2.253-4.951 5.042-5.02 2.367-.06 4.744-.221 7.134-.312a48.258 48.258 0 0 0 .355 10.591c-2.51-.07-5.014-.194-7.511-.239Z" fill="#2A344A"/><path d="m67.715 99.753-1.024-1.64c1.496-1.531.423-4.141-1.744-4.141a2.442 2.442 0 0 0-2.44 2.439c0 1.768 1.837 2.953 3.446 2.22l.999 1.599a.45.45 0 0 0 .763-.477Zm-4.307-3.342c0-.849.69-1.54 1.539-1.54s1.539.691 1.539 1.54a1.54 1.54 0 0 1-1.54 1.539 1.54 1.54 0 0 1-1.538-1.54Z" fill="#2A344A"/><path d="m116 27-7 6c19-5.5 32-1 43.5 18s8.5 3.5 8.5 3.5l-1-4-4-7.5-1-2-7-7.5-12.5-6.5H116ZM96 36.5c-3.668 3.992-5.299 6.455-7 11.5l3.5 2.5 1-1 2-4.5 5.5-9 4-5-4 1-5 4.5Z" fill="#fff"/><g clip-path="url(#a)"><path d="M163.007 60c-3-8.5-17.013-31.5-38-31.5s-25 17-38 31.5c-2.507-15.5 17.013-37 38-37s41 21.5 38 37Z" fill="#4E6AF3"/></g><path d="M169.65 136.48c-2.241-4.625-17.364-34.755-19.645-39.438 6.941-4.533 12.026-11.454 14.455-19.763 5.533-18.933-4.187-40.2-21.188-49.134-.335 1.84-1.034 3.566-1.869 5.24 22.25 13.199 25.356 45.638 5.476 58.388 16.127-14.177 12.536-42.543-6.89-55.748l-.32.573c20.871 14.366 22.415 45.191 3.31 57.252-3.582 1.553-7.385 2.295-11.219 2.295-22.793-.001-40.644-24.674-34.156-46.877 1.674-5.727 4.853-10.631 9.154-14.228-.928-1.381-1.564-3.216-1.545-5.829-19.404 10.103-24.345 34.41-13.753 53.48 10.075 18.136 32.003 27.458 51.073 18.412 4.042 8.923 13.611 28.016 19.157 39.181.737 1.484 3.827 1.075 5.53.187 1.813-.946 3.088-2.573 2.43-3.991Zm-77.6-54.117c-9.932-17.882-5.844-40.027 10.156-50.615-13.787 11.805-16.162 32.495-7.01 48.97 9.455 17.025 28.437 25.201 45.007 20.717-17.17 7-38.131-1.03-48.153-19.072Z" fill="#4E6AF3"/><g clip-path="url(#b)"><path d="M91.254 42.936c-.309.186-.62.372-.93.56 3.005-6.812 10.886-12.335 20.293-15.01 9.803-2.786 21.169-2.448 30.198 2.683 9.029 5.133 15.241 14.788 17.915 24.667 2.532 9.356 1.87 18.82-2.468 24.793 1.571-9.692 3.131-31.9-17.83-45.235l-.007-.004-.007-.004c-9.2-5.23-17.154-5.656-24.963-3.47-7.24 2.028-14.353 6.303-22.2 11.02Z" stroke="#4E6AF3" stroke-width=".65"/></g><defs><clipPath id="a"><path fill="#fff" d="M105 23h58v37h-58z"/></clipPath><clipPath id="b"><path fill="#fff" d="m112.547 14.731 32.806 18.648-13.7 24.1L98.849 38.83z"/></clipPath></defs></svg>