<svg width="200" height="200" fill="none" xmlns="http://www.w3.org/2000/svg"><path d="m31.5 157 1.5 1.5.5.5-2.5 1-.5 1.5L32 163h3l1.5-1 .5-1-1-1.5-1-1 .5-.5.5-1 1-1-.5-1.5v-1l-.5-1-.5-1.5-1-1-2 .5-1 .5v1.5l-1 1 .5 1.5.5 2ZM42 150l1.5 1.5.5.5-2.5 1-.5 1.5 1.5 1.5h3l1.5-.5.5-1.5-1-1.5-1-1 .5-.5.5-1 1-1-.5-1.5v-1l-.5-1-.5-1.5-1-1-1.5 1H42v1.5l-1 1 .5 1.5.5 2Z" fill="#fff"/><circle cx="15" cy="15" r="15" fill="#4E6AF3"/><path d="M20.675 10.08a3.682 3.682 0 0 1 0 5.197L14.997 21 9.32 15.277A3.682 3.682 0 0 1 11.9 9a3.675 3.675 0 0 1 2.58 1.08c.2.197.373.42.517.66.145-.24.318-.463.518-.66a3.623 3.623 0 0 1 5.16 0Z" fill="#fff"/><circle cx="32.5" cy="59.5" r="6.5" fill="#4E6AF3"/><path d="M34.962 57.368a1.596 1.596 0 0 1 0 2.253l-2.46 2.48-2.46-2.48a1.596 1.596 0 0 1 1.118-2.72 1.592 1.592 0 0 1 1.342.753 1.57 1.57 0 0 1 2.46-.286Z" fill="#fff"/><circle cx="49.5" cy="27.5" r="9.5" fill="#4E6AF3"/><path d="M53.096 24.387a2.332 2.332 0 0 1 0 3.292L49.5 31.303l-3.596-3.624a2.333 2.333 0 0 1 1.634-3.976 2.327 2.327 0 0 1 1.962 1.102 2.296 2.296 0 0 1 3.596-.418ZM141 166.5c-15.211 6.376-23.521 10.168-37 18.5v2.5l27 11 2 .5 2.5-.5c23.5-13.512 32.506-19.257 33.5-23-11.396-5.128-17.578-7.382-28-9Z" fill="#fff"/><path d="M168.032 174.294c-.956-.394-4.077-2.136-10.864-4.203-3.373-1.026-6.859-2.281-10.443-2.963-4.123-.783-5.198-1.613-11.213.982-14.966 6.458-23.853 11.94-25.505 12.824-2.607 1.395-8.149 4.37-6.457 6.761.375.529.967.785 1.442.99 7.945 3.43 16.161 6.978 24.475 9.927 3.213 1.14 4.53 1.156 8.134-.676a172.742 172.742 0 0 0 30.023-19.419c.73-.588 1.706-1.484 1.765-2.477.069-1.159-.723-1.485-1.358-1.748l.001.002Zm-7.522-2.184c-1.88 1.078-3.513 1.713-5.082 1.983-2.315.398-4.545-.054-6.116-1.239-.485-.366-1.316-1.133-1.435-2.159-.087-.745.358-1.674 1.137-1.816a.437.437 0 0 0 .32-.252c2.121.559 9.107 2.753 11.175 3.482l.001.001Zm-35.04 24.099c-4.884-1.85-9.728-3.868-14.491-5.903 5.688-3.391 12.72-2.353 15.18-.051.931.874 1.394 2.071 1.207 3.125-.259 1.461-1.724 2.593-1.896 2.829Zm11.734.945c-4.218 2.145-4.837 1.638-10.832-.605.862-.849 1.646-1.805 1.86-3.016.238-1.343-.327-2.844-1.473-3.918-2.827-2.65-10.642-3.725-16.764.27-5.113-2.203-5.417-2.258-5.727-2.696-1.116-1.576 4.459-4.572 6.154-5.48 2.031-1.086 4.833-2.899 12.01-6.522 3.293.912 6.387 1.899 9.403 2.939-2.962 2.883-.275 7.475 5.531 7.475 3 0 6.21-1.459 7.417-2.701 3.314 1.25 6.73 2.518 10.326 3.743a171.579 171.579 0 0 1-17.905 10.512v-.001Zm7.298-15.3c-.48-.181-7.667-2.9-10.802-4.008 1.504-.831 3.57-1.27 4.931-1.238 4.154.076 7.281 3.11 5.872 5.246h-.001Zm-.638.698c-1.01.853-2.527 1.379-3.131 1.588-2.66.923-5.435.743-7.422-.479-1.055-.649-1.743-1.7-1.794-2.743-.041-.81.281-1.66 1.268-2.463 3.682 1.29 7.316 2.674 11.079 4.097Zm24.649-6.562c-.028.477-.513 1.098-1.439 1.844a171.087 171.087 0 0 1-11.051 8.19c-3.726-1.256-7.26-2.564-10.683-3.854.513-.892.485-1.847.068-2.791-1.058-2.391-4.2-3.602-6.762-3.649-1.452-.031-4.129.44-6.013 1.742a162.951 162.951 0 0 0-9.034-2.871 247.665 247.665 0 0 1 12.263-5.684c5.789-2.498 6.709-1.686 10.7-.926.515.098 1.03.208 1.542.328-.792.527-1.204 1.575-1.099 2.478.116 1.001.749 1.981 1.778 2.758 1.35 1.018 3.116 1.557 5.016 1.557 2.787 0 5.415-1.176 7.783-2.615 3.669 1.357 5.204 2.234 6.115 2.609.658.271.846.372.816.884Z" fill="#2A344A"/><path d="M76 46.5 57.5 52c-2.696 13.416-3.01 32.84-2 83v3.5h-2l-1 1.5-1 2 1 2c.725 1.675 1.132 2.592 2 2.5l-1.5.5-1.5 2.5 3 1.5h3l1.5 16c10.934 6.692 18.378 9.101 34 11 11.085-1.692 17.411-3.675 29-11l4.5-20h1c18.152 7.947 28.336 11.506 46.5 17 13.688-7.224 19.334-10.631 23-14.5l-15.5-5v-2l-6-2-.5 2-3-1-15-5.5v-1.5l-6.5-2.5-.5 1.5-4-1V130l-6.5-1.5-.5 1.5-3-1v-2.5l-5.5-2c3.396-28.517 4.977-44.61 1-75.5L115 46v-7.5c-8.782-1.326-13.479-1.75-21.5-2-7.511.911-11.46 1.666-17.5 3.5v6.5Z" fill="#fff"/><path d="M103.892 71.846a.44.44 0 0 0 .439.418c.423 0 5.249-1.762 6.35-2.183a.44.44 0 0 0 .282-.43c-.118-2.696-.13-5.544-1.083-8.126a.442.442 0 0 0-.544-.267c-2.134.671-4.024 1.207-5.617 1.593a.44.44 0 0 0-.335.46c.19 2.548.351 5.26.509 8.534h-.001ZM110.607 74.522c-6.085 2.241-6.527 1.851-6.505 2.486.237 7.27.005 7.039.33 7.272a.438.438 0 0 0 .392.06c2.016-.657 3.464-1.554 6.356-2.928a.44.44 0 0 0 .252-.408c-.038-1.529-.044-2.25-.235-6.092a.44.44 0 0 0-.59-.39ZM111.323 86.056c-.232-.137-.389-.034-.691.125-5.701 2.992-6.353 2.169-6.355 2.936a375.123 375.123 0 0 1-.097 7.363.44.44 0 0 0 .439.45c.229 0 3.35-.801 6.612-2.036a.44.44 0 0 0 .284-.404c.044-2.617.051-5.33.021-8.062a.439.439 0 0 0-.213-.372ZM111.189 99.49c-.264-.192-.47-.02-1.035.174-1.835.635-3.771 1.105-5.785 1.621a.436.436 0 0 0-.329.41c-.076 2.16-.18 4.314-.289 6.467a.44.44 0 0 0 .547.449c2.299-.585 4.558-1.482 6.495-2.278a.44.44 0 0 0 .271-.381l.305-6.09a.442.442 0 0 0-.18-.371ZM110.692 111.566a.44.44 0 0 0-.594-.443c-5.917 2.243-6.608 1.56-6.652 2.286-.472 7.627-.638 7.392-.352 7.633.108.092.252.125.389.092a88.143 88.143 0 0 0 6.307-1.827.436.436 0 0 0 .3-.378c.193-2.178.415-4.755.603-7.362l-.001-.001ZM100.986 145.977c1.247 0 4.416-1.214 5.16-1.496.892-.339 1.079-.343 1.124-.671.324-2.394.639-4.791.932-7.191a.44.44 0 0 0-.591-.465c-5.641 2.137-6.206 1.408-6.281 2.115-.249 2.4-.51 4.807-.781 7.22a.44.44 0 0 0 .437.488ZM105.907 148.898c-5.076 1.676-5.842.819-5.93 1.578-.225 1.929-.46 3.871-.7 5.848a.44.44 0 0 0 .422.492c1.703.047 3.359-.467 5.536-1.009a.437.437 0 0 0 .329-.36s.628-4.107.914-6.069a.438.438 0 0 0-.571-.48ZM104.191 160.312c-1.529.343-3.324.679-5.064.581a.444.444 0 0 0-.461.384c-.712 5.726-.765 5.49-.54 5.712a.441.441 0 0 0 .373.119 69.563 69.563 0 0 0 5.083-.958.44.44 0 0 0 .336-.356c.208-1.248.803-4.984.803-4.984a.44.44 0 0 0-.53-.498ZM102 133.403c.11.096.259.128.39.095 2.052-.485 4.193-1.33 6.194-2.125a.439.439 0 0 0 .275-.359 588.8 588.8 0 0 0 .711-6.659.439.439 0 0 0-.564-.464c-6.002 1.829-6.436 1.399-6.49 2.021-.641 7.481-.812 7.232-.516 7.491ZM124.875 61.092c.134 1.55.044 1.814.355 1.981.132.072.291.07.422-.001a139.51 139.51 0 0 0 4.528-2.623.438.438 0 0 0 .209-.43 123.132 123.132 0 0 0-.896-6.013.442.442 0 0 0-.257-.325c-.457-.203-.287.242-4.802 2.444a.438.438 0 0 0-.233.5c.392 1.572.566 3.213.674 4.467ZM125.354 68.157l.344 5.692a.44.44 0 0 0 .439.414c.279 0 4.751-2.555 4.987-2.691a.441.441 0 0 0 .22-.403 168.575 168.575 0 0 0-.391-5.725.44.44 0 0 0-.66-.341c-4.841 2.843-4.967 2.58-4.939 3.054ZM131.546 76.71a.44.44 0 0 0-.652-.374c-4.863 2.69-4.956 2.444-4.94 2.906.306 8.363-.068 8.25.353 8.507a.442.442 0 0 0 .431.016 250.48 250.48 0 0 0 4.603-2.433.437.437 0 0 0 .23-.38c.043-2.82.034-5.594-.025-8.242ZM131.211 90.23c-.351-.22-.182-.073-4.96 2.326-.37.187-.173.143-.418 4.521-.14 2.503-.259 2.564.043 2.767a.44.44 0 0 0 .435.031 62.457 62.457 0 0 0 4.556-2.422.436.436 0 0 0 .216-.351c.155-2.506.261-4.566.334-6.482a.438.438 0 0 0-.205-.389h-.001ZM130.471 102.569c-.411-.268-.284.067-4.915 2.158a.439.439 0 0 0-.258.367 427.486 427.486 0 0 1-.609 7.114.44.44 0 0 0 .438.479c.299 0 4.44-2.418 4.695-2.568.12-.072.2-.196.214-.334.254-2.489.459-4.718.63-6.814a.44.44 0 0 0-.195-.402ZM129.172 115.454c-.4-.271-.327.045-4.837 2.294a.44.44 0 0 0-.24.346l-.662 5.911a.44.44 0 0 0 .644.44 80.44 80.44 0 0 0 4.347-2.507.445.445 0 0 0 .204-.314c.257-1.901.504-3.82.736-5.753a.441.441 0 0 0-.192-.417ZM127.548 127.442c-.384-.265-.223-.022-4.634 2.154-.36.177-.12-.019-1.354 8.071a.44.44 0 0 0 .434.506c.293 0 4.014-2.102 4.262-2.244a.437.437 0 0 0 .215-.306c.471-2.733.883-5.269 1.261-7.753a.438.438 0 0 0-.184-.427v-.001ZM125.176 141.394c-.383-.284-.357.028-4.335 1.887-.316.148-.133-.153-1.381 6.8a.44.44 0 0 0 .432.516c.298 0 3.569-1.783 3.963-2.003a.439.439 0 0 0 .216-.295c.43-2.09.857-4.248 1.275-6.471a.441.441 0 0 0-.169-.435l-.001.001ZM122.564 154.158c-.344-.271-.165-.085-3.959 1.559-.363.158-.152.086-1.283 5.587a.44.44 0 0 0 .662.462 72.698 72.698 0 0 0 3.503-2.33c.167-.118.147.015 1.234-4.836a.438.438 0 0 0-.157-.441v-.001ZM107.269 161.551a.44.44 0 0 0-.509.357 630.724 630.724 0 0 1-.729 4.07.439.439 0 1 0 .863.158c.248-1.357.491-2.716.731-4.076a.441.441 0 0 0-.356-.509ZM109.386 148.615a.437.437 0 0 0-.5.368 508.204 508.204 0 0 1-.747 4.769.44.44 0 0 0 .867.141c.256-1.591.506-3.184.748-4.778a.438.438 0 0 0-.368-.5ZM111.079 136.3a.438.438 0 0 0-.49.382c-.2 1.598-.408 3.195-.624 4.79a.44.44 0 0 0 .871.118c.216-1.598.425-3.199.624-4.8a.439.439 0 0 0-.381-.49ZM112.419 123.929a.439.439 0 0 0-.478.397 369.34 369.34 0 0 1-.477 4.811.44.44 0 0 0 .874.093c.17-1.607.329-3.214.479-4.821a.439.439 0 0 0-.397-.478l-.001-.002ZM113.337 111.516a.438.438 0 0 0-.463.413c-.092 1.611-.195 3.22-.31 4.828a.439.439 0 1 0 .876.063c.115-1.612.218-3.226.311-4.841a.44.44 0 0 0-.414-.463ZM113.328 99.498a289.021 289.021 0 0 1-.117 4.838c-.02.591.86.606.878.028.053-1.616.092-3.234.118-4.853.008-.563-.869-.62-.879-.013ZM113.227 86.37c.059 1.843.098 3.687.118 5.53a.44.44 0 0 0 .879-.01c-.02-1.849-.06-3.699-.12-5.547-.018-.61-.896-.534-.877.028ZM112.595 74.906c.126 1.57.235 3.141.328 4.714a.439.439 0 1 0 .877-.053 233.097 233.097 0 0 0-.329-4.73.447.447 0 0 0-.473-.404.44.44 0 0 0-.403.473ZM112.119 67.44a.439.439 0 1 0 .876-.064 350.81 350.81 0 0 0-.438-5.423c-.051-.582-.926-.5-.875.077.159 1.802.305 3.605.437 5.41ZM115.951 158.116a.439.439 0 0 0-.511.353l-.87 4.739a.439.439 0 1 0 .863.158l.87-4.74a.44.44 0 0 0-.353-.511l.001.001ZM117.778 150.493c.282-1.582.56-3.165.834-4.749a.439.439 0 1 0-.866-.149 960.745 960.745 0 0 1-.833 4.745.439.439 0 0 0 .865.153ZM119.361 138.633a.439.439 0 0 0 .504-.363c.293-1.815.58-3.632.857-5.45a.439.439 0 0 0-.868-.131 549.305 549.305 0 0 1-.856 5.44.439.439 0 0 0 .363.504ZM121.459 121.089a430.89 430.89 0 0 1-.439 3.417.44.44 0 1 0 .871.116c.151-1.141.299-2.283.44-3.425.071-.572-.8-.69-.872-.108ZM122.872 107.381a297.07 297.07 0 0 1-.495 5.493.44.44 0 1 0 .874.087c.183-1.834.348-3.671.497-5.51.046-.58-.83-.65-.876-.07ZM123.815 100.276a.44.44 0 0 0 .438-.418c.071-1.383.129-2.767.177-4.152a.44.44 0 0 0-.423-.455c-.235-.02-.445.182-.454.424-.048 1.38-.107 2.76-.178 4.138-.005.105.064.457.44.461v.002ZM124.48 82.541a.447.447 0 0 0-.451-.426.44.44 0 0 0-.427.451c.051 1.811.077 3.67.079 5.525a.44.44 0 0 0 .878 0 202.791 202.791 0 0 0-.079-5.55ZM123.23 75.003a.44.44 0 0 0 .877-.062 177.856 177.856 0 0 0-.403-4.835.44.44 0 0 0-.874.085c.154 1.582.288 3.201.4 4.812ZM121.938 63.042a.44.44 0 0 0 .867-.149c-.317-1.838-.751-3.416-1.326-4.826a.44.44 0 1 0-.814.332c.551 1.35.968 2.87 1.273 4.643ZM96.617 63.177a.44.44 0 0 0-.402-.404c-12.147-.985-30.125-4.735-36.992-7.717a.44.44 0 0 0-.612.36 432.036 432.036 0 0 0 1.983 102.132c.016.121.083.23.184.3 7.137 4.954 16.85 8.129 29.696 9.706a.44.44 0 0 0 .49-.378c4.328-32.468 8.442-68.1 5.653-104ZM70.494 161.96c.24-.243.085-.01-.305-9.068 3.11 1.072 6.416 1.91 10.025 2.644-.31 4.085-.591 7.238-.811 9.179-3.23-.771-6.193-1.688-8.909-2.755Zm-.345-10.013a870.751 870.751 0 0 1-.408-11.728c3.766 1.338 7.646 2.312 11.3 3.021-.257 4.271-.516 8.12-.76 11.413-3.657-.748-6.999-1.603-10.132-2.706Zm-9.982-4.742c-.47-4.1-.88-8.207-1.232-12.319 2.993 2.054 6.393 3.696 9.918 5.01.113 4.049.248 7.977.403 11.728-3.083-1.148-5.97-2.554-8.769-4.358a.441.441 0 0 0-.32-.061Zm-1.974-75.65c3.45 1.665 7.14 3.09 11.023 4.267a648.674 648.674 0 0 0-.547 16.155c-7.728-2.28-10.7-4.23-11.174-4.19.13-5.413.363-10.825.698-16.233ZM82.59 61.86c-.11.325.246 3.35.358 16.078a91.441 91.441 0 0 1-12.823-2.76c.273-5.614.623-10.88 1.058-15.626 3.584.841 7.503 1.635 11.407 2.308Zm.366 16.966c.038 5.3.01 10.723-.069 16.148-4.302-.592-8.803-1.456-13.346-2.743.121-5.577.3-11.004.541-16.15a92.428 92.428 0 0 0 12.873 2.745ZM96.619 96.17c-.346-.063-5.915-.176-12.854-1.078.08-5.422.109-10.844.07-16.144 4.054.538 8.232.873 12.5.904.092 0 .186-.03.257-.08.142 5.52.144 10.977.027 16.398Zm-.684 16.08c-4.622.1-8.564-.082-12.56-.667.164-5.122.293-10.36.376-15.606 3.015.389 12.075 1.17 12.848 1.06a402.497 402.497 0 0 1-.664 15.213Zm-1.303 16.506c-4.201-.271-8.036-.42-11.892-.924.227-4.905.434-10.067.607-15.363 4.252.615 8.274.75 12.536.66a511.13 511.13 0 0 1-1.251 15.627Zm-1.619 15.214a108.116 108.116 0 0 1-11.05-1.446c.254-4.248.504-8.894.735-13.811 3.85.499 7.66.649 11.85.918a713.868 713.868 0 0 1-1.535 14.339Zm-23.669-34.908c4.969 1.583 9.1 2.634 13.13 3.274-.174 5.3-.381 10.467-.608 15.375-4.102-.594-8.865-1.869-12.443-3.139-.065-5.124-.093-10.326-.079-15.51ZM57.476 88.685c3.696 1.743 7.448 3.117 11.174 4.204a878.192 878.192 0 0 0-.18 14.966c-3.31-1.08-8.694-3.351-11.081-5.683a431.63 431.63 0 0 1 .087-13.487Zm12.047 4.454c4.55 1.276 9.05 2.132 13.352 2.72a967.319 967.319 0 0 1-.374 15.588c-4.025-.647-8.16-1.709-13.155-3.308.017-5.052.076-10.081.177-15Zm12.302 35.453c-.23 4.899-.48 9.529-.73 13.765-3.689-.719-7.6-1.711-11.38-3.077a1014.33 1014.33 0 0 1-.28-13.772c3.724 1.294 8.38 2.509 12.39 3.084Zm-13.358-19.813c-.015 5.17.011 10.358.074 15.471-3.73-1.405-7.395-3.331-10.71-6.376l-.012-.01c-.22-4.832-.36-9.668-.417-14.506 2.718 2.226 7.477 4.256 11.065 5.421Zm.087 16.414c.062 4.678.154 9.29.275 13.759-3.579-1.359-7.01-3.065-9.99-5.206a429.319 429.319 0 0 1-.96-14.654c3.342 2.896 6.985 4.742 10.675 6.101Zm13.357 18.212c4.177.772 8.018 1.2 11 1.437a1154.03 1154.03 0 0 1-1.445 11.741c-3.723-.572-7.139-1.128-10.318-1.755.245-3.294.505-7.146.763-11.423Zm14.662-64.366c-.415-.258-4.264.157-12.743-.98a487.64 487.64 0 0 0-.382-16.054c4.317.725 8.583 1.296 12.323 1.613.398 5.208.66 10.34.802 15.421ZM59.427 56.094c2.586 1.052 6.452 2.184 10.894 3.253-.435 4.728-.786 9.975-1.06 15.57-3.858-1.18-7.518-2.608-10.937-4.276a.441.441 0 0 0-.072-.027c.31-4.846.701-9.686 1.175-14.52Zm.853 92.083c2.88 1.827 5.848 3.246 9.017 4.4.135 3.17.284 6.209.446 9.082-3.094-1.27-5.855-2.741-8.305-4.423a423.716 423.716 0 0 1-1.158-9.059Zm29.87 18.451c-3.535-.447-6.826-1.016-9.886-1.713.22-1.92.504-5.086.817-9.206 3.17.622 6.571 1.175 10.271 1.745-.39 3.036-.792 6.093-1.202 9.174Z" fill="#2A344A"/><path d="M131.869 48.678a.439.439 0 0 0-.341-.482c-3.245-.717-9.291-1.768-15.906-2.714.276-2.554.348-5.066.181-7.088a.438.438 0 0 0-.367-.455c-4.264-.704-17.701-2.222-22.1-1.893-6.445.484-16.96 2.974-17.414 3.248a.437.437 0 0 0-.206.298c-.3 1.682-.54 3.708-.34 6.438-9.35 2.255-18.042 5.09-18.507 5.462a.438.438 0 0 0-.343.385c-3.856 38.371-3.095 77.133 2.261 115.209a.44.44 0 0 0 .187.3c9.646 6.625 22.195 9.748 33.837 10.94a.405.405 0 0 0 .116-.001c13.442-1.67 21.443-5.822 29.381-11.089a.443.443 0 0 0 .183-.257c8.793-34.44 15.873-83.6 9.379-118.3l-.001-.001Zm-17.714.648c-4.558 2.224-10.686 3.937-16.56 4.637.774-3.153 1.46-7.503 1.314-10.487 4.79-.858 12.259-2.826 16.06-4.409.167 2.95-.135 6.794-.814 10.26ZM93.4 36.922c3.918-.29 15.152.91 20.416 1.66-4.02 1.533-10.983 3.326-15.394 4.089-6.51-.395-15.777-1.76-20.61-2.987 4.214-1.05 10.965-2.415 15.588-2.762Zm-16.904 3.314c4.399 1.288 14.473 2.833 21.536 3.29.145 2.968-.569 7.37-1.352 10.473-5.413-.506-10.282-1.286-14.086-2.229l-.1-5.53c-.008-.461-.17-.74-.658-.884-3.047-.896-2.916-.92-3.149-.757a.437.437 0 0 0-.186.333 35.727 35.727 0 0 0 .097 5.644 18.937 18.937 0 0 1-1.83-.77c-.84-4.4-.637-7.314-.272-9.57Zm-1.046 6.66c.102 1.002.263 2.093.497 3.29.026.131.11.244.23.306 5.401 2.772 16.343 4.012 20.795 4.416.742.074 10.208-1.145 17.765-4.89a.436.436 0 0 0 .235-.307c.22-1.093.403-2.226.547-3.361 5.97.855 11.476 1.797 14.857 2.497-7.219 4.093-22.021 9.28-31.101 11.375-13.288-1.072-32.642-5.001-41.11-8.286 4.364-1.533 10.797-3.469 17.285-5.04ZM87.714 176.72c-10.035-1.62-18.184-4.213-24.697-7.859a68.132 68.132 0 0 1-.937-6.372c14.486 8.45 26.082 7.851 26.374 8.365.08.139.062.055-.74 5.866Zm4.77.68c-1.33-.166-2.631-.347-3.901-.543l.747-5.417c.139-1.02-.242-1.518-1.269-1.6-9.137-.744-18.221-3.698-26.27-8.544a.44.44 0 0 0-.664.413c.189 2.198.486 4.405.886 6.573a44.298 44.298 0 0 1-2.383-1.512A481.131 481.131 0 0 1 57.34 52.554c8.201 3.326 27.947 7.383 41.559 8.52 1.581 20.275 1.305 40.033-.159 60.131 0 0-2.445 25.921-2.461 26.062-.02.181-3.584 28.583-3.793 30.133h-.002Zm29.195-10.804c-7.679 5.078-15.481 8.859-28.303 10.774 5.228-38.86 9.609-76.762 6.398-116.362 9.291-2.183 24.242-7.458 31.341-11.571 6.266 34.471-.735 83.017-9.436 117.159Z" fill="#2A344A"/><path d="M197.821 149.674c-.099-.46-.101-.066-16.314-5.584a15.2 15.2 0 0 1-.097.916 645.958 645.958 0 0 0 15.103 4.947c-6.153 5.295-13.604 8.862-20.817 12.317-1.836.878-2.368.952-4.47.351-12.136-3.475-21.615-6.977-31.854-11.161l27.175-11.616c2.841 1.001 5.703 2.004 8.58 3.002.02-.275.032-.604.042-.932-3.56-1.231-16.365-5.732-18.331-6.423-.024.284-.041.548-.084.902l8.568 3.02-27.096 11.581a1741.493 1741.493 0 0 0-11.542-4.624l-.176.881c18.383 7.352 27.472 11.346 44.476 16.213 2.315.665 3.071.563 5.091-.402 7.5-3.59 15.254-7.304 21.61-12.967a.435.435 0 0 0 .137-.42l-.001-.001ZM145.966 131.713c-.024.287-.041.551-.083.9 1.526.524 3.05 1.05 4.573 1.579.015-.289.026-.611.034-.918-1.504-.522-3.012-1.043-4.524-1.561ZM139.612 129.56c-1.229-.41-2.46-.818-3.693-1.221-.022.247-.051.52-.107.885 1.259.412 2.51.831 3.766 1.251.015-.285.025-.607.034-.915Z" fill="#2A344A"/><path d="M185.68 147.48c-1.017-5.047-.976-7.732-2.046-7.864l-9.921-2.995a.439.439 0 0 0-.441.114c-.514.29-2.885 8.77-3.139 9.457-.201.546.619.85.822.31.124-.33 1.822-6.148 2.601-8.388.247 1.095.528 3.339.884 5.333l.671-.432c.017-.183.029-.402.039-.635-.301-1.841-.554-3.754-.783-4.643l8.473 2.557c-.76 1.577-2.317 7.481-2.907 9.255a.44.44 0 0 0 .834.278c.577-1.736 2.056-7.308 2.795-9.019.351 1.135.692 4.041 1.257 6.846.047.238.28.395.517.345a.442.442 0 0 0 .345-.518l-.001-.001Z" fill="#2A344A"/><path d="M181.961 142.252c-.287-.416-4.797-1.928-6.687-2.2a.43.43 0 0 0-.335.09c-.207.165-.178.352-.2 1.229-.012.453-.025.978-.052 1.391l-2.283 1.47a.44.44 0 0 0 .083.78c6.536 2.472 6.165 2.345 6.284 2.345.184 0 .039.057 2.849-1.794a.437.437 0 0 0 .192-.301c.078-.517.107-.854.133-1.19.097-1.235.262-1.465.016-1.82ZM175.629 141c1.716.312 3.419.973 5.581 1.759-.142.942-.119 1.167-.195 1.845l-5.444-1.896c.029-.495.042-1.1.058-1.708Zm3.088 5.428-5.103-1.929 1.552-1.001 5.229 1.821-1.679 1.109h.001ZM157.273 133.863c-.188-.272-.363-.279-1.662-.753-1.61-.586-3.273-1.194-5.024-1.447a.441.441 0 0 0-.335.091c-.3.238-.122.639-.252 2.62-2.506 1.614-2.456 1.509-2.482 1.801-.027.315-.075 1.128.039 1.865a.439.439 0 1 0 .868-.136 6.51 6.51 0 0 1-.061-1.067l5.268 1.992c-.006.173-.036 1.19-.045 1.397-.005.104.063.454.439.459a.437.437 0 0 0 .438-.42c.01-.211.043-1.303.049-1.493l1.716-1.134c0 .035-.015.834-.024 1.036-.006.105.063.456.439.459a.436.436 0 0 0 .438-.419c.019-.395.027-1.458.045-1.867.076-.503.103-.834.129-1.165.101-1.248.261-1.465.016-1.82l.001.001Zm-6.332-1.252c1.676.306 3.269.92 5.582 1.761-.144.95-.119 1.174-.2 1.874-1.419-.44-4.463-1.557-5.44-1.919.029-.495.041-1.102.058-1.716Zm3.089 5.429-5.104-1.93 1.548-.997c.786.291 3.564 1.315 5.193 1.845l-1.637 1.082ZM146.398 130.118c-.188-.272-.363-.279-1.662-.753-1.61-.587-3.273-1.194-5.024-1.447a.441.441 0 0 0-.335.091c-.3.238-.122.639-.252 2.62-2.506 1.614-2.456 1.509-2.482 1.801-.027.315-.075 1.128.039 1.864a.439.439 0 1 0 .868-.135 6.524 6.524 0 0 1-.061-1.067l5.268 1.992c-.006.172-.036 1.19-.045 1.397-.005.104.063.454.439.459a.437.437 0 0 0 .438-.42c.01-.211.043-1.303.049-1.493l1.716-1.134c0 .035-.015.834-.024 1.036-.006.105.063.456.439.459a.437.437 0 0 0 .438-.419c.019-.395.027-1.458.045-1.867.076-.503.103-.834.129-1.165.101-1.248.261-1.465.016-1.82l.001.001Zm-6.332-1.252c1.676.306 3.269.92 5.582 1.761-.144.949-.119 1.173-.2 1.874-1.419-.441-4.463-1.557-5.44-1.919.029-.496.041-1.102.058-1.716Zm3.089 5.428-5.104-1.929 1.548-.997c.786.291 3.564 1.314 5.193 1.845l-1.637 1.081ZM136.398 126.278c-.188-.272-.364-.279-1.662-.753-1.374-.501-2.787-1.016-4.261-1.314l-.126.871c1.575.321 3.116.911 5.298 1.705-.144.949-.119 1.173-.2 1.874-1.377-.427-4.285-1.492-5.349-1.885l-.134.887c1.073.396 3.394 1.243 4.827 1.71l-1.638 1.081-3.42-1.293-.139.887 3.162 1.195c-.005.172-.036 1.19-.044 1.397-.005.104.063.454.439.459a.438.438 0 0 0 .438-.42c.01-.211.041-1.303.048-1.493l1.717-1.134c0 .035-.015.834-.024 1.036-.005.105.064.456.44.459a.437.437 0 0 0 .438-.419c.018-.395.026-1.458.045-1.867.075-.503.103-.834.129-1.165.1-1.248.261-1.465.016-1.82v.002ZM160.62 153.362a.436.436 0 0 0-.549-.29 1.51 1.51 0 0 0-.648.409c0-.305.061-.609.179-.892a.44.44 0 1 0-.811-.338 3.237 3.237 0 0 0-.238.996 1.771 1.771 0 0 0-.48-.6.44.44 0 1 0-.548.687.91.91 0 0 1 .325.567.44.44 0 0 0 .796.187.44.44 0 0 0 .522.157.439.439 0 0 0 .392.242c.441 0 .337-.442.771-.576a.437.437 0 0 0 .289-.549ZM173.038 152.583a.44.44 0 0 0-.615-.09l-.448.333a.437.437 0 0 1 .108-.098.44.44 0 0 0 .128-.608c-.32-.492-.922-.015-1.138.53a3.37 3.37 0 0 0-.186-.331.439.439 0 1 0-.739.474c.121.189.215.393.278.607a.44.44 0 0 0 .707.208.44.44 0 0 0 .432.079.44.44 0 0 0 .611.085l.77-.573a.438.438 0 0 0 .09-.614l.002-.002ZM167.443 145.947a.44.44 0 0 0-.591-.193c-.181.092-.349.21-.499.347.039-.106.086-.209.143-.307a.44.44 0 0 0-.764-.437c-.13.228-.228.473-.292.727a2.606 2.606 0 0 0-.403-.589.44.44 0 0 0-.648.593c.188.206.323.458.39.728a.44.44 0 0 0 .72.221.43.43 0 0 0 .305.113.44.44 0 0 0 .417.302c.495 0 .335-.561 1.028-.913a.44.44 0 0 0 .193-.591l.001-.001ZM140.901 144.374a.44.44 0 0 0-.618.065l-.373.461a.753.753 0 0 1 .068-.663.441.441 0 0 0-.125-.609c-.508-.333-.884.423-.87 1.044a1.475 1.475 0 0 0-.557-.288.438.438 0 0 0-.225.848.624.624 0 0 1 .409.365.44.44 0 0 0 .812.015.43.43 0 0 0 .247.011.44.44 0 0 0 .729.069l.567-.702a.439.439 0 0 0-.065-.618l.001.002ZM141.74 138.315a.788.788 0 0 1 .064-.091.44.44 0 0 0-.677-.56c-.173.21-.291.46-.347.723a3.278 3.278 0 0 0-.456-.721.438.438 0 1 0-.676.561c.217.262.381.573.473.899a.44.44 0 0 0 .808.091.433.433 0 0 0 .407.06c.139.444.781.394.853-.062a.42.42 0 0 1 .169-.271c.48-.336-.033-1.145-.618-.629ZM134.055 139.535a.73.73 0 0 1 .048-.111.44.44 0 0 0-.775-.413 1.683 1.683 0 0 0-.171.5c-.1-.096-.211-.18-.331-.25a.44.44 0 0 0-.445.758c.17.099.305.254.382.435a.44.44 0 0 0 .576.233c.118-.051.031-.055.136-.006a.439.439 0 0 0 .804-.017c.075-.182.196-.342.352-.462.455-.356-.07-1.073-.575-.665l-.001-.002ZM31.48 156.435c.002-.114.028-.142-.078-.215-.49-.341-.923-.916-.75-1.561.134-.498.303-.326-.002-.761-1.052-1.504.22-2.265.262-2.39.013-.088-.304-1.075.344-1.87.415-.512 1.114-.727 1.701-.525l.163.061c1.057-1.18 3.011-.517 3.053 1.313.007.318.01.33.288.595 1.282 1.223.572 2.298.507 2.404-.02.032-.048.075-.054.092.013.265 1.517 1.211-.294 2.552-.594.442-.434.445-.7.871-.385.618-1.59 1.057-2.292.622-1.146.557-2.16-.239-2.148-1.188Zm1.015-6.508c-.582 0-.862.613-.756 1.196.102.52.068.781-.393 1.199-.048.044-.098.086-.138.135-.165.202-.086.573.077.816.168.25.453.583.412 1.025-.025.27-.166.471-.198.589-.05.184.152.438.377.595.358.247.504.441.484.89-.004.472.44.788 1.076.347a.44.44 0 0 1 .617.122c.138.209.943-.018 1.12-.303.21-.338.157-.544.923-1.113.188-.138.59-.432.53-.679-.087-.358-.967-.827-.404-1.725.232-.407.04-.903-.249-1.188-.18-.177-.464-.406-.59-.736-.108-.283-.08-.567-.096-.76-.07-.814-1.004-1.146-1.467-.628-.564.661-.922.218-1.325.218Z" fill="#2A344A"/><path d="M37.445 159.75c-.115-.988-.774-1.745-1.86-2.131-1.6-.567-3.798-.221-4.8.757-.674.658-.78 1.282-.713 2.221.166 2.262 3.87 3.1 6.019 1.932 1.135-.617 1.502-1.496 1.354-2.779Zm-3.561-1.525c1.198 0 2.55.433 2.688 1.626.197 1.711-3.327 2.35-4.923 1.194-1.68-1.217-.178-2.82 2.236-2.82h-.001Z" fill="#2A344A"/><path d="M34.738 153.277a.438.438 0 0 0-.528.327c-.044.188-.178.351-.32.477-.302-.539-.55-1.142-.534-1.761.003-.11-.08-.45-.44-.45a.44.44 0 0 0-.438.429c-.023.921.361 1.758.837 2.539.01 1.583.06 3.185.147 4.764.032.573.91.535.877-.049a95.654 95.654 0 0 1-.145-4.598c.334-.229.744-.608.871-1.151a.439.439 0 0 0-.327-.528v.001ZM42.082 149.756c.002-.114.027-.141-.078-.214-.49-.342-.923-.916-.75-1.562.134-.497.303-.325-.002-.761-1.053-1.504.22-2.265.262-2.389.013-.088-.304-1.076.343-1.871.416-.512 1.115-.727 1.702-.525l.163.061c1.057-1.179 3.01-.517 3.053 1.313.007.318.009.33.287.595 1.283 1.223.572 2.299.507 2.404-.02.033-.047.076-.053.092.013.266 1.517 1.211-.294 2.552-.595.442-.435.445-.7.872-.386.617-1.591 1.057-2.292.621-1.147.557-2.16-.238-2.148-1.188Zm1.015-6.508c-.583 0-.862.613-.757 1.196.103.52.069.782-.393 1.199-.048.044-.097.086-.137.135-.166.202-.087.573.077.816.168.25.452.584.412 1.026-.026.269-.167.471-.199.588-.049.184.152.439.377.595.359.247.505.441.484.891-.003.472.44.787 1.077.347a.438.438 0 0 1 .616.121c.138.209.944-.018 1.12-.303.21-.337.157-.544.924-1.112.188-.139.589-.432.53-.679-.088-.359-.967-.828-.405-1.726.233-.406.04-.903-.248-1.187-.18-.178-.464-.406-.59-.737-.108-.282-.08-.567-.096-.76-.07-.814-1.005-1.146-1.468-.628-.564.661-.921.218-1.324.218Z" fill="#2A344A"/><path d="M48.038 153.068c-.114-.989-.774-1.746-1.86-2.131-1.598-.568-3.797-.222-4.8.757-.673.657-.78 1.282-.712 2.221.166 2.261 3.87 3.099 6.019 1.931 1.134-.616 1.502-1.496 1.353-2.778Zm-3.56-1.525c1.198 0 2.55.432 2.688 1.625.197 1.711-3.327 2.351-4.923 1.195-1.68-1.218-.18-2.82 2.235-2.82Z" fill="#2A344A"/><path d="M45.332 146.598a.439.439 0 0 0-.528.328c-.044.188-.178.35-.321.477-.301-.54-.55-1.142-.533-1.762.002-.11-.08-.45-.44-.45a.44.44 0 0 0-.439.429c-.022.922.362 1.758.837 2.539.01 1.583.06 3.185.148 4.764.032.574.91.535.877-.049a95.484 95.484 0 0 1-.145-4.598c.334-.229.744-.608.871-1.151a.438.438 0 0 0-.327-.527ZM57.148 150.05c-1.051.737-3.166.825-4.305.001-1.68-1.217-.178-2.82 2.236-2.82.632 0 1.307.121 1.824.41l-.098-1.006c-1.423-.543-3.744-.308-4.825.747-.674.658-.78 1.282-.712 2.221.17 2.31 3.98 3.086 6.036 1.922l-.156-1.475Z" fill="#2A344A"/><path d="M55.925 142.283a.44.44 0 0 0-.528.328c-.044.188-.177.351-.32.477-.302-.539-.55-1.142-.533-1.761.002-.11-.08-.45-.44-.45a.44.44 0 0 0-.439.429c-.022.921.362 1.758.837 2.539.01 1.583.06 3.185.148 4.764.031.573.91.535.877-.05a95.572 95.572 0 0 1-.145-4.598c.333-.228.744-.608.871-1.15a.44.44 0 0 0-.328-.528Z" fill="#2A344A"/><path d="M56.65 145.035c-.13.183-.168.327-.28.509-.177.285-.983.512-1.121.303a.44.44 0 0 0-.617-.121c-.636.44-1.087.125-1.076-.347.012-.45-.125-.644-.484-.891-.224-.156-.426-.411-.377-.594.032-.118.173-.319.199-.589.04-.441-.244-.776-.412-1.025-.164-.243-.243-.614-.078-.816.04-.05.09-.092.138-.136.462-.417.496-.679.393-1.199-.105-.582.174-1.195.756-1.195.404 0 .761.442 1.325-.219.286-.319.749-.316 1.08-.076l-.078-.997a1.698 1.698 0 0 0-1.702.539l-.163-.062c-.586-.202-1.286.014-1.702.526-.648.795-.33 1.781-.343 1.87-.044.125-1.315.885-.262 2.389.305.436.136.264.001.761-.173.646.26 1.221.75 1.562.107.073.08.1.079.214-.012.95 1 1.745 2.147 1.188.554.345 1.423.143 1.953-.262l-.127-1.333v.001Z" fill="#2A344A"/></svg>