<svg width="200" height="200" fill="none" xmlns="http://www.w3.org/2000/svg"><path d="M151.5 15.5c-44.301 1.31-70.085 1.138-111 5.5 2.81 60.244 6.339 95.546 13 158.5 41.706-2.792 64.55-5.425 104.5-10.5l-6.5-153.5Z" fill="#fff"/><path d="M109.383 90.72c-.567 0-.567 1.052 0 1.052 1.349 0 20.148-.31 21.727-.62a.61.61 0 0 0 .517-.601.607.607 0 0 0-.517-.6c-4.953-.648-16.275.66-21.727.769Zm7.53 27.556c-.621 0-.513 1.04.081 1.067 4.399.148 11.255-.081 15.749-.284.823 0 .917-1.349 0-1.349-5.034.027-10.783.094-15.83.566Zm.58-46.544a.54.54 0 0 0-.094 1.066c2.415.297 10.256.607 12.618-.391a.62.62 0 0 0-.216-1.174c-3.131-.19-8.151.81-12.308.499Zm-15.411 26.072c11.39-.162 24.291-.958 35.789-2.01.715 0 .647-1.35-.095-1.35-11.309.284-24.52 1.026-35.762 2.186a.59.59 0 0 0-.357 1.026.587.587 0 0 0 .425.148Zm16.329-60.107c3.171-.243 6.342-.431 9.446-.81.891-.094.662-1.349-.216-1.349-3.157.243-6.315.648-9.446 1.012-.729.081-.526 1.201.216 1.147ZM99.895 65.848c-.674 0-.701 1.147 0 1.201a98.356 98.356 0 0 0 22.78-1.592c.85-.149.715-1.498-.148-1.35a123.35 123.35 0 0 1-22.632 1.741Zm25.115-21.687c1.174.284 1.349-1.632.27-1.444a80.786 80.786 0 0 1-15.938.986c-.715 0-.877 1.039-.148 1.12 5.276.53 10.602.307 15.816-.662Zm-29.23 53.01c-1.053-.406-5.911.269-7.274.417-.662 0-.689 1.067 0 1.053l5.52-.175c2.55-.095 2.536-.985 1.754-1.296Zm5.573 58.392c-1.134-.27-9.19.338-10.513.419-.701 0-.566 1.079.135 1.066 1.43 0 9.271 0 10.513-.392.553-.188.364-.985-.135-1.093Zm-10.526-5.708c3.792.175 13.185.337 16.977-.567a.644.644 0 0 0 .468-.212.635.635 0 0 0-.603-1.043c-5.547 0-10.688.931-16.68.688-.715-.027-.904 1.093-.162 1.134Zm13.09-23.994c.81-.149.742-1.35-.108-1.35-5.992.607-7.247.756-13.387.999-.594 0-.661 1.025 0 1.066 4.51.299 9.041.059 13.495-.715Zm8.313-8.489c-7.341.27-14.966 1.512-22.631 1.782a.58.58 0 0 0 0 1.147c6.356 0 16.585-.297 22.779-1.674a.656.656 0 0 0 .389-.682.656.656 0 0 0-.537-.573Zm25.006 34.885c-.108 0-7.516.607-8.785.567a.567.567 0 0 0-.121 1.079c1.511.284 7.881.392 9.19-.715a.557.557 0 0 0 .133-.257.564.564 0 0 0-.417-.674Zm2.389-29.433c-9.352.608-19.797.958-29.109 1.755-.729 0-.594 1.093.108 1.133 5.034.149 22.942-.769 29.123-1.552a.651.651 0 0 0 .457-.236.657.657 0 0 0 .15-.492.674.674 0 0 0-.729-.608Zm-35.128-30.688a.677.677 0 0 0 .675-.674.676.676 0 0 0-.675-.675c-5.816.148-11.686.189-17.543.634a.567.567 0 0 0 0 1.107c5.884.108 11.727-.203 17.543-.392Zm23.009 54.48c-2.051 0-9.446.526-11.2.837-.567.094-.648 1.025 0 1.052 1.902.095 9.257-.377 11.389-.566.824.027.648-1.323-.189-1.323Zm-3.94 7.571-16.963 1.079c-.77 0-.581 1.175.175 1.134 3.293-.148 13.886-.567 16.855-.972.662-.081.675-1.241-.067-1.241Zm-12.146-117.3c-4.979-.566-20.607.379-25.91.918-.729.068-.783 1.201 0 1.134 8.718-.567 17.206-.756 25.924-.729a.678.678 0 0 0 .534-.667.676.676 0 0 0-.548-.655Zm1.444 36.424c.851-.122.54-1.35-.31-1.35-8.686.99-17.425 1.44-26.167 1.35a.54.54 0 0 0 0 1.066c8.84.426 17.7.069 26.477-1.066Zm-9.163-28.259a.675.675 0 0 0 .531-.996.674.674 0 0 0-.666-.353c-5.951.742-11.592.769-17.462 1.282-.621.067-.689 1.08 0 1.106 5.883.095 11.766-.252 17.597-1.039Zm-16.72 21.363c-.675 0-.688 1.066.08 1.093 2.423.228 4.857.291 7.288.189a.621.621 0 0 0 0-1.134c-.243-.135-6.127-.148-7.368-.148Zm-16.842 7.773c.783 0 3.684-4.804 5.317-6.45.594-.594-.378-1.593-.985-1.026a24.29 24.29 0 0 0-4.427 5.317l-3.414-3.144c-.702-.648-1.606.458-.958 1.12.648.66 3.468 4.183 4.467 4.183Zm-9.23-22.038c5.532.324 11.281.217 17.354.257.432 0 .688-1.201 0-15.533 0-1.039-.095-1.808-.108-2.092a.299.299 0 0 0-.081-.229c-.391-.418-2.942-.391-8.677-.243-9.65.23-10.715.162-10.715.715-.04.108.566 16.964 2.226 17.126Zm.377-.998c-.675-3.603-1.16-11.215-1.579-15.479 3.927.23 12.875-.216 17.382-.324 0 0 .243 11.997.35 15.87-5.29-.121-10.809-.324-16.207-.135l.054.068Z" fill="#2A344A"/><path d="M80.118 77.713c1.134-.446-.189-13.023-.378-16.33a.283.283 0 0 0-.094-.175c-.81-.702-17.935.23-18.799.297-.863.067 0 4.764.149 7.962.31 7.962.674 8.65 1.08 8.704 2.941.419 15.343.594 18.042-.458ZM61.671 62.612c5.843-.378 11.767-.405 17.03-.432.135 3.158.351 12.05.621 14.453-5.5.569-11.035.727-16.558.472.229-2.01-.891-12.213-1.094-14.493Zm10.985 34.075 3.13-2.834a.851.851 0 0 0-1.066-1.215 15.885 15.885 0 0 0-3.454 2.875l-2.807-2.592a.783.783 0 0 0-1.067 1.148l2.7 2.699c-2.43 2.564-3.496 4.17-3.253 4.898.243.729 1.12.405 1.35.081.944-1.16 2.01-2.483 3.158-3.71a24.607 24.607 0 0 0 3.765 3.346.809.809 0 0 0 .972-1.039 24.748 24.748 0 0 0-3.428-3.657Zm.715-57.854a21.7 21.7 0 0 0-5.182 6.748 18.3 18.3 0 0 0-3.482-3.212c-.796-.553-1.822.5-1.04 1.093a42.526 42.526 0 0 1 4.306 4.4c.35.364.688.175.985-.217a39.662 39.662 0 0 1 5.398-7.962c.648-.715-.283-1.511-.985-.85Zm-.432 88.11c.702-.486 3.374-5.641 4.926-7.396.607-.674-.446-1.606-1.134-.89a29.678 29.678 0 0 0-4.71 6.369l-3.144-2.699c-.688-.58-1.606.459-.89 1.147.715.689 3.791 4.467 4.952 3.469Zm10.297 17.3c-.513-1.012-18.974 0-19.15 0a.24.24 0 0 0-.111.044.24.24 0 0 0-.078.091c-.62.999 0 17.233.446 18.745.526 1.835 18.42.31 19.311.391a.187.187 0 0 0 .156-.034.194.194 0 0 0 .052-.062.194.194 0 0 0 .021-.079c.284-2.065-.58-18.961-.647-19.096Zm-18.286.985c5.398.23 11.781-.108 17.26-.121.081 2.254.567 15.479.634 17.26-5.991.27-11.025.176-17.408 0 .067-2.253-.405-15.087-.486-17.098v-.041Z" fill="#2A344A"/><path d="M71.469 153.973c.958 0 5.857.337 6.248.121a.767.767 0 0 0 .348-.917.774.774 0 0 0-.186-.298c-.715-.755-5.236-.593-5.992-.445-1.026.189-1.215.58-1.188.877a.826.826 0 0 0 .77.662Zm1.822-39.608c-4.427.08-9.083.242-9.852.296-.297 0-.607.257-.648 3.064 0 3.36.58 14.008 1.93 14.102 2.7.203 16.653.257 18.448.122.283 0 .513 0 0-7.018-.284-3.617-.918-10.189-.918-10.189-.054-.27-.08-.512-8.96-.377Zm7.948 1.187c.324 5.034.5 10.189 1.04 15.25H65.111c-.526-4.872-.877-9.892-1.255-15.047l17.382-.203Zm-14.615-8.785c5.479 0 14.642-.742 14.723-.783.864-.445 0-12.631-.283-17.84 0-.932-4.764-.945-8.718-.797-1.728 0-10.31.46-10.283 1.687.458 18.07.35 17.193.688 17.382 1.263.329 2.571.448 3.873.351Zm-2.848-1.35c-.31-5.317-.418-10.958-.634-16.194 5.604-.498 11.23-.687 16.855-.567 0 1.85.365 14.143.594 16.194-1.997.135-14.723.23-16.774.581l-.04-.014Z" fill="#2A344A"/><path d="M165.14 126.741c-3.535-96.18-2.051-95.37-2.699-95.936-.917-.864-8.002-.297-9.743-.203l-.729-14.75a.59.59 0 0 0-.54-.81c-28.339-.35-57.502 1.525-86.746 3.51-7.881.553-16.073 1.038-24.089 1.889a.514.514 0 0 0-.594.526c1.485 36.032 5.803 94.277 13.266 158.77.081.742 6.235.094 11.768-.27a17.69 17.69 0 0 0 .85 4.669c.81 1.026 100.916-5.182 100.795-9.447-.432-16.018-1.012-32.239-1.539-47.948Zm-7.584 42.078c-35.492 5.398-67.408 6.91-103.048 9.986-7.058-61.146-9.96-103.089-13.495-157.42 10.958-.648 51.483-4.372 110.025-5.141 1.457 39.23 6.882 148.257 6.478 152.575h.04Z" fill="#2A344A"/><path d="M165.138 126.688c-3.536-96.179-2.051-95.37-2.699-95.936-.918-.864-8.02-.272-9.76-.177L65.033 179.414h-.002c.073 1.587.366 3.599.858 5.11.81 1.026 101.335-4.937 101.213-9.201-.432-16.019-1.438-32.926-1.964-48.635Zm-7.237 42.501c-35.492 5.398-57.227 7.148-92.868 10.225l87.646-148.84c1.953 46.505 5.584 134.75 5.222 138.615Z" fill="#4E6AF3"/></svg>