<svg width="200" height="200" fill="none" xmlns="http://www.w3.org/2000/svg"><path d="m115.992 74.5-4.5-24.5-34 3.5-33.5 5 4.5 34.5-8 1-1 4c.922 29.202 3.478 45.928 10.5 76l6.5 4h48.251l48.249-1 15.5-63.5v-3l-1-2.5-6.5-1 5.5-31.5-50.5-1Z" fill="#fff"/><path d="M165.982 106.545a22.56 22.56 0 0 0-4.69-.379l5.277-28.636c.54-2.97.953-3.22-2.172-3.408-30.567-1.843-48.366-.31-48.413-1.04-.019-.31-1.53-8.659-2.144-13.686-.159-1.295-1.04-5.7-1.35-7.205-.485-2.346-.433-2.907-1.582-2.869-9.651.318-33.64 2.738-46.342 4.788-22.023 3.553-21.93 3.59-21.81 4.586 0 .023.829 10.844 4.912 33.2-10.536.25-9.9 2.171-8.398 24.487.72 10.747 3.43 32.359 5.868 43.357 3.37 15.202 4.54 18.58 16.082 19.274 7.536.45 73.311 1.214 90.546-.974 1.641-.208 2.729-2.412 3.079-3.8.45-1.787 1.35-3.662 5.078-19.46 9.923-41.988 12.48-46.843 6.059-48.235Zm-3.96-31.06c3.438.039 3.29-.009 3.198.421-.139.644-13.05 68.194-16.47 84.254-2.778-16.957-7.848-47.953-8.263-49.657-1.545-6.35-3.173-6.692-7.789-7.194-1.035-.114-40.825-.848-41.195-.873-.54-.036-.436-.226-.397-.414 0 0 .082-.503.124-.72 4.624-23.613 4.278-25.453 5.152-25.487 40.08-1.516 51.525-.491 65.64-.33ZM44.085 59.23c-.112-.405.204-.22 1.788-.403 3.578-.414 12.971-2.014 18.351-2.829 20.35-3.079 45.996-5.569 45.998-5.545.938-.09.729-.11.916 1.287.09.683.262 1.738.326 2.318 2.192 19.999 3.467 19.34 2.185 19.35-5.938.038-11.869.373-17.772 1.006-1.272.147-1.218.872-2.403 6.5-2.325 11.05-3.448 16.977-3.875 19.86-.106.72-.302 1.463-1.513 1.386-2.97-.187-9.466.095-11.197-2.22-5.3-7.085.07-7.808-17.545-8.017-1.135-.014-5.912-.106-9.968-.06-.17-.755-.36-2.046-.648-3.69-3.134-18.13-4.644-29.477-4.643-28.943Zm114.616 93.182c-.65 3.51-1.926 8.837-2.566 11.31-3.812 14.723-2.351 12.649-10.434 13.159-12.331.777-81.228 1.19-87.105.525-8.047-.909-8.97-4.613-11.53-17.84-1.194-6.167-4.673-27.664-6.466-50.498-1.244-15.831-.712-14.87 3.96-15.39 4.449-.493 9.97-.016 16.48-.011.319 0 7.328.321 8.286.405 1.17.102 1.79.235 2.25.72 1.89 1.98 3.395 7.622 6.974 8.486 5.769 1.394 40.873 1.4 53.28 1.88 5.796.224 5.974.788 7.11 7.254 1.324 7.527 1.26 8.858 6.643 39.404 3.116 17.679 3.625 22.072 4.812 21.844.634-.123.275-2.007.14-2.635-.027-.124-.433-2.586-1.064-6.454 6.652-31.16 6.238-28.386 11.566-57.05 1.423 0 2.845.077 4.26.233 5.024.668 2.88 3.757-3.549 32.087.107.209-2.532 9.775-3.047 12.571Z" fill="#000"/><path d="M98.086 89.379c-.883-.106-.99-.822-.495-1.153 1.765-1.192 35.994-.195 41.64.72 1.454.235.557 1.29-2.226 1.327-5.098.063-33.856-.288-38.919-.894ZM52.56 66.58c-.89.042-1.113-.646-.68-1.054 1.545-1.467 35.468-6.135 41.188-6.164 1.473-.008.762 1.181-1.976 1.676-5.019.904-33.44 5.305-38.533 5.543ZM116.673 82.27c-9.245 0-20.184.804-18.393-.918 1.574-1.513 25.275-1.71 25.676-.095.09.36.084.491-.224.643-1.15.562-7.059.387-7.059.37ZM96.918 96.93c-.63-.375-.259-1.149 1.016-1.319 2.886-.383 14.085.129 14.108.13 5.121.09 5.427.187 6.779.928.491.27.461.712.011 1.028-1.118.787-20.843-.134-21.914-.767ZM55.115 81.395c-.683-.265-.444-1.09.786-1.468 2.782-.855 13.913-2.198 13.935-2.201 5.066-.757 5.384-.711 6.84-.204.528.185.572.626.18 1.013-.973.96-20.579 3.308-21.74 2.86ZM127.683 82.111c-.852-.523.57-1.189 1.538-1.203 4.135-.058 10.229.084 12.538.218.668.039 1.363.652.953 1.191-.471.619-.949.512-2.93.639-.014-.22-10.673.036-12.099-.845ZM72.185 71.677c-9.118 1.526-19.774 4.125-18.291 2.131 1.302-1.752 24.645-5.858 25.308-4.332.148.34.163.47-.115.672-1.042.743-6.899 1.547-6.902 1.529ZM83.02 69.701c-.925-.376.367-1.266 1.32-1.44 4.068-.74 10.102-1.606 12.401-1.855.665-.072 1.453.418 1.137 1.018-.362.687-.852.66-2.785 1.113-.05-.214-10.52 1.797-12.072 1.164Z" fill="#000"/><path d="M19.915 139.369c-.04-.315-.74-4.739-.798-7.083-.047-1.927.869-2.489 1.228-1.737 1.248 2.61 1.567 4.98 2.174 8.088.08.405.165.18 2.77-.324.25-.048 1.896-.207 2.718-.342.584-.096 2.25.152 1.665.766-1.302 1.366-5.988 2.772-6.35 2.817-.392.048-.23.2.026 1.671.145.832 1.459 8.025.636 8.16-.208.035-.45.121-.63-.1-1.236-1.523-2.22-4.95-2.5-6.66-.605-3.702.45-2.037-5.648-1.829a.905.905 0 0 1-.424-.127c-.727-.391.098-1.288.832-1.583a22.574 22.574 0 0 1 4.095-1.434c.206-.043.233-.137.206-.283ZM96.086 28.34c0-1.5 4.09-.444 4.074-1.23a11.102 11.102 0 0 1 .205-3.02c.126-.617-.012-1.471.727-1.496.328-.01.514.118.663.496.095.224.163.458.202.698.566 4.242-.692 3.545 2.412 3.683a4.951 4.951 0 0 1 2.34.68c.485.356-.394.824-.801.9-3.608.695-3.593-.035-3.588 1.022a12.434 12.434 0 0 1-.376 4.129c-.138.512-.706.738-1.06.238-.396-.56-.231-.845-.505-2.45-.298-1.742.149-2.463-.342-2.485-2.241-.101-3.948-.132-3.951-1.165ZM22.506 64.283a2.561 2.561 0 0 1 1.761 1.028 3.637 3.637 0 0 1 .191 4.616c-4.212 5.051-10.092-2.739-5.22-5.234a5.342 5.342 0 0 1 3.268-.41Zm-1.3 5.427a2.434 2.434 0 0 0 2.398-2.01c.033-1.14-.185-2.147-1.44-2.302-2.264-.28-3.33 1.144-2.824 2.773.234.737 1.073 1.618 1.866 1.54ZM184.712 55.794c1.121 1.914.935 3.62.125 4.707-2.838 3.807-7.457-.018-6.423-3.255.925-2.897 5.456-2.89 6.298-1.452Zm-3.585 4.443c1.186.845 2.495-.222 2.795-1.28.317-1.117-.208-2.733-1.116-2.751-3.375-.07-3.593 2.664-1.679 4.03Z" fill="#4E6AF3"/></svg>