<svg width="200" height="200" fill="none" xmlns="http://www.w3.org/2000/svg"><path d="M136.5 48.5c-34.064.327-53.358 1.07-86 4 2.144 49.254 4.886 75.929 10.5 123l83.5-6.5-8-120.5Z" fill="#fff"/><path d="M104.04 106.73c-.441 0-.441.82 0 .82 1.051 0 15.694-.241 16.924-.483a.473.473 0 0 0 0-.936c-3.858-.504-12.677.515-16.924.599Zm5.866 21.465c-.484 0-.4.809.063.831 3.427.115 8.767-.064 12.267-.221.641 0 .715-1.051 0-1.051-3.921.021-8.399.073-12.33.441Zm.452-36.254a.422.422 0 0 0-.322.668c.061.082.149.14.248.162 1.882.231 7.989.473 9.829-.305a.482.482 0 0 0-.169-.914c-2.438-.147-6.349.63-9.586.389Zm-12.004 20.308c8.871-.126 18.92-.746 27.876-1.566.557 0 .505-1.051-.073-1.051-8.809.22-19.1.799-27.856 1.703a.459.459 0 0 0 .053.914Zm12.719-46.819c2.47-.189 4.94-.336 7.358-.63.693-.074.515-1.051-.168-1.051-2.46.189-4.92.504-7.359.788-.567.063-.41.935.169.893ZM96.651 87.358c-.526 0-.547.893 0 .935a76.616 76.616 0 0 0 17.743-1.24c.662-.116.557-1.167-.115-1.051a96.072 96.072 0 0 1-17.628 1.356Zm19.562-16.892c.914.22 1.051-1.272.21-1.125a62.93 62.93 0 0 1-12.414.767c-.557 0-.683.81-.116.873 4.11.412 8.258.239 12.32-.515Zm-22.768 41.289c-.82-.315-4.604.21-5.666.326-.515 0-.536.83 0 .82l4.3-.137c1.986-.073 1.975-.767 1.366-1.009Zm4.341 45.484c-.883-.211-7.158.262-8.189.325-.546 0-.441.841.106.831 1.114 0 7.221 0 8.188-.305.431-.147.284-.767-.105-.851Zm-8.2-4.447c2.955.137 10.27.263 13.224-.441a.492.492 0 0 0 .467-.343.505.505 0 0 0-.043-.399.486.486 0 0 0-.324-.235.488.488 0 0 0-.205-.001c-4.32 0-8.325.725-12.992.536-.557-.021-.704.852-.126.883Zm10.197-18.689c.631-.116.578-1.052-.084-1.052-4.667.473-5.645.589-10.427.778-.463 0-.516.799 0 .831 3.513.233 7.042.046 10.511-.557Zm6.475-6.612c-5.718.21-11.657 1.177-17.628 1.387a.455.455 0 0 0-.383.447.451.451 0 0 0 .383.447c4.951 0 12.919-.231 17.744-1.304a.514.514 0 0 0-.116-.977Zm19.478 27.172c-.084 0-5.855.473-6.843.442a.445.445 0 0 0-.361.385.446.446 0 0 0 .267.456c1.177.22 6.138.305 7.158-.557a.433.433 0 0 0 .095-.426.446.446 0 0 0-.316-.3Zm1.861-22.925c-7.285.473-15.421.746-22.674 1.366-.567 0-.462.851.084.883 3.921.116 17.87-.599 22.684-1.209a.502.502 0 0 0 .197-.056.498.498 0 0 0 .257-.308.527.527 0 0 0-.548-.676Zm-27.362-23.904a.524.524 0 1 0 0-1.051c-4.53.116-9.103.147-13.665.494a.44.44 0 0 0-.346.431.44.44 0 0 0 .346.431c4.583.084 9.135-.158 13.665-.305Zm17.922 42.435c-1.597 0-7.358.41-8.724.652-.442.074-.505.799 0 .82 1.482.074 7.211-.294 8.872-.441.641.021.504-1.031-.148-1.031Zm-3.069 5.897-13.213.841c-.599 0-.452.915.137.883 2.564-.115 10.816-.441 13.129-.757.515-.063.525-.967-.053-.967Zm-9.46-91.366c-3.879-.442-16.052.294-20.183.715-.567.052-.61.935 0 .882 6.79-.441 13.403-.588 20.193-.567a.526.526 0 0 0-.01-1.03Zm1.124 28.37c.663-.094.421-1.05-.241-1.05a164.945 164.945 0 0 1-20.382 1.05.42.42 0 0 0 0 .83c6.885.332 13.787.055 20.623-.83Zm-7.137-22.01a.526.526 0 0 0 .414-.776.533.533 0 0 0-.52-.276c-4.635.578-9.029.6-13.601.999-.484.052-.536.84 0 .862a91.463 91.463 0 0 0 13.707-.81ZM86.591 87.8c-.525 0-.536.83.063.85 1.887.178 3.783.227 5.676.148a.483.483 0 0 0 0-.883c-.189-.105-4.772-.116-5.739-.116Zm-13.118 6.054c.61 0 2.87-3.742 4.141-5.025.463-.462-.294-1.24-.767-.799a18.923 18.923 0 0 0-3.448 4.142l-2.66-2.45c-.546-.504-1.25.358-.746.873.505.515 2.702 3.259 3.48 3.259Zm-7.19-17.166c4.31.253 8.787.168 13.518.2.336 0 .536-.936 0-12.099 0-.81-.074-1.408-.085-1.63a.233.233 0 0 0-.063-.178c-.304-.326-2.291-.305-6.759-.189-7.515.179-8.346.126-8.346.557-.031.084.442 13.213 1.735 13.34Zm.294-.778c-.525-2.806-.904-8.735-1.23-12.056 3.06.178 10.028-.169 13.54-.253 0 0 .188 9.345.272 12.362-4.12-.094-8.42-.252-12.624-.105l.042.052Z" fill="#2A344A"/><path d="M81.25 96.598c.884-.347-.146-10.144-.294-12.72a.22.22 0 0 0-.073-.136c-.63-.547-13.97.179-14.643.231-.672.053 0 3.71.116 6.202.242 6.202.525 6.738.84 6.78 2.292.326 11.952.463 14.055-.357ZM66.882 84.835c4.552-.294 9.166-.315 13.266-.336.105 2.46.273 9.387.484 11.258a86.636 86.636 0 0 1-12.898.368c.178-1.567-.694-9.513-.852-11.29Zm8.557 26.542 2.438-2.208a.66.66 0 0 0-.072-.774.663.663 0 0 0-.758-.172 12.376 12.376 0 0 0-2.69 2.239l-2.187-2.018a.61.61 0 1 0-.83.894l2.102 2.102c-1.892 1.997-2.723 3.248-2.534 3.816.19.567.873.315 1.052.063.735-.904 1.566-1.934 2.46-2.891a19.148 19.148 0 0 0 2.932 2.607.632.632 0 0 0 .757-.81 19.31 19.31 0 0 0-2.67-2.848Zm.557-45.063a16.902 16.902 0 0 0-4.037 5.256 14.253 14.253 0 0 0-2.712-2.502c-.62-.431-1.419.389-.809.851 1.2 1.06 2.32 2.205 3.353 3.427.274.284.536.137.768-.168a30.894 30.894 0 0 1 4.204-6.202c.505-.557-.22-1.177-.767-.662Zm-.336 68.63c.546-.379 2.627-4.394 3.836-5.761.473-.525-.347-1.25-.883-.693a23.115 23.115 0 0 0-3.668 4.961l-2.45-2.102c-.535-.452-1.25.357-.693.893s2.954 3.48 3.858 2.702Zm8.02 13.476c-.4-.789-14.78 0-14.916 0a.184.184 0 0 0-.087.034.181.181 0 0 0-.06.071c-.484.778 0 13.423.347 14.6.41 1.43 14.348.242 15.042.305.02.005.042.005.063 0a.14.14 0 0 0 .058-.027.144.144 0 0 0 .057-.109c.221-1.609-.452-14.769-.504-14.874Zm-14.243.767c4.204.179 9.176-.084 13.444-.095.063 1.756.442 12.057.494 13.445-4.667.21-8.588.136-13.56 0 .053-1.756-.315-11.752-.378-13.318v-.032Z" fill="#2A344A"/><path d="M74.514 155.997c.746 0 4.562.263 4.867.095a.61.61 0 0 0 .298-.442.597.597 0 0 0-.172-.504c-.557-.589-4.078-.463-4.667-.347-.799.147-.946.452-.925.683a.645.645 0 0 0 .6.515Zm1.42-30.851c-3.449.063-7.075.189-7.674.231-.232 0-.473.2-.505 2.386 0 2.617.452 10.911 1.503 10.985 2.103.157 12.972.199 14.37.094.22 0 .4 0 0-5.466-.221-2.817-.715-7.936-.715-7.936-.042-.21-.063-.4-6.98-.294Zm6.19.925c.253 3.92.39 7.936.81 11.878h-13.37c-.41-3.795-.684-7.705-.978-11.721l13.538-.157Zm-11.383-6.843c4.267 0 11.404-.579 11.468-.61.672-.347 0-9.839-.221-13.896 0-.726-3.71-.736-6.79-.621-1.346 0-8.031.358-8.01 1.314.357 14.075.273 13.392.536 13.539a9.238 9.238 0 0 0 3.016.274Zm-2.219-1.052c-.241-4.141-.325-8.535-.494-12.613 4.365-.388 8.748-.536 13.13-.442 0 1.44.283 11.016.462 12.614-1.556.105-11.468.179-13.066.452l-.032-.011Z" fill="#2A344A"/><path d="M147.474 134.788c-2.754-74.917-1.598-74.286-2.102-74.727-.715-.673-6.234-.232-7.59-.158l-.567-11.49a.464.464 0 0 0-.421-.63c-22.074-.273-44.79 1.188-67.568 2.733-6.139.431-12.52.81-18.763 1.472a.4.4 0 0 0-.463.41c1.157 28.066 4.52 73.434 10.333 123.668.063.579 4.856.074 9.166-.21.057 1.237.28 2.46.663 3.637.63.799 78.605-4.036 78.511-7.358-.337-12.477-.789-25.112-1.199-37.347Zm-5.907 32.775c-27.646 4.204-52.506 5.382-80.267 7.778-5.497-47.628-7.757-80.298-10.511-122.617 8.535-.505 40.101-3.406 85.701-4.005 1.135 30.557 5.361 115.48 5.045 118.844h.032Z" fill="#2A344A"/><path d="M147.467 134.748c-2.754-74.916-1.598-74.286-2.102-74.727-.715-.673-6.247-.212-7.603-.138L69.494 175.816h-.002c.057 1.237.285 2.804.668 3.981.631.799 78.932-3.845 78.837-7.167-.336-12.477-1.12-25.647-1.53-37.882Zm-5.637 33.104c-27.645 4.205-44.575 5.568-72.336 7.964l68.268-115.933c1.522 36.222 4.35 104.958 4.068 107.969Z" fill="#2A344A"/><circle cx="15" cy="15" r="15" fill="#4E6AF3"/><path d="M20.675 10.08a3.682 3.682 0 0 1 0 5.197L14.997 21 9.32 15.277A3.682 3.682 0 0 1 11.9 9a3.675 3.675 0 0 1 2.58 1.08c.2.197.373.42.517.66.145-.24.318-.463.518-.66a3.623 3.623 0 0 1 5.16 0Z" fill="#fff"/><circle cx="32.5" cy="59.5" r="6.5" fill="#4E6AF3"/><path d="M34.962 57.368a1.596 1.596 0 0 1 0 2.253l-2.46 2.48-2.46-2.48a1.596 1.596 0 0 1 1.118-2.72 1.592 1.592 0 0 1 1.342.753 1.57 1.57 0 0 1 2.46-.286Z" fill="#fff"/><circle cx="49.5" cy="27.5" r="9.5" fill="#4E6AF3"/><path d="M53.096 24.386a2.333 2.333 0 0 1 0 3.292L49.5 31.302l-3.596-3.624a2.333 2.333 0 0 1 1.634-3.976 2.328 2.328 0 0 1 1.962 1.102 2.296 2.296 0 0 1 3.596-.418Z" fill="#fff"/></svg>