<svg width="200" height="200" fill="none" xmlns="http://www.w3.org/2000/svg"><g clip-path="url(#a)"><path d="m82 63-18 4 16.5 111 83-13-13-79 27-4.5L199 77c-.08-10.165-1.288-13.26-3.5-20.5-4.5-1-27.621 2.773-47 6.5L144 50l-20.5 1.5-.5-2.5-10 1-2-4.5c-8.313 1.023-12.894 1.678-20.5 3.5l-1 5-9 2 1.5 7Z" fill="#fff"/><path d="m98.5 51 2.5-2h2l1 1-1 2-3 .5-1.5-1.5Z" fill="#EEF1F5"/><path d="M84.754 97.45c-10.36.546-16.803-13.195-9.114-21.237 10.472-10.948 26.907 1.536 20.43 14.235-2.49 4.883-7.384 7.213-11.316 7.003Zm10.657-7.8a11.778 11.778 0 0 0-3.247-14.157c-7.23-5.884-18.162-.994-18.895 8.299-1.006 12.833 16.156 17.988 22.142 5.858ZM102.44 48.357a4.052 4.052 0 0 0-3.862 1.608c-.88 1.474.302 3.052 2.505 3.096 1.061-.149 2.347-.228 3.251-1.533 1.02-1.474-.143-2.953-1.894-3.171Zm-.016 3.507a2.592 2.592 0 0 1-2.875-.155c-1.03-.955.173-2.244 2.027-2.232a1.28 1.28 0 0 1 .848 2.386v.001Z" fill="#2A344A"/><path d="M88.458 86.184a9.244 9.244 0 0 1 5.834 2.697c.482.498-.234 1.23-.858.57-3.952-4.22-13.115-2.633-14.561 3.586-.3 1.29-.985.671-.943.177.351-4.096 4.82-6.067 5-6.236-.173-.18-.251-.135-.839-.41a4.845 4.845 0 0 1-2.54-6.002 5.526 5.526 0 0 1 8.62-2.4 4.948 4.948 0 0 1 1.746 2.988c.445 4.352-3.287 4.953-1.459 5.03Zm.63-4.327a3.96 3.96 0 0 0-2.417-3.652c-5.4-2.405-9.248 5.37-3.759 7.686 2.903 1.226 6.381-1.134 6.177-4.034h-.002ZM136.054 140.746a.464.464 0 0 0-.283.169.468.468 0 0 0 .324.757c2.108-.023 8.874-.658 10.787-1.787a.534.534 0 0 0 .21-.612.535.535 0 0 0-.531-.371c-2.709.198-6.904 1.633-10.507 1.844Zm-3.127-29.322c2.695-.573 5.395-1.1 8.016-1.781.754-.184.413-1.235-.34-1.134-2.683.572-5.347 1.283-7.993 1.955-.616.154-.314 1.092.317.96Zm-12.656 26.295c-.58.078-.471 1.066.138 1.031a85.136 85.136 0 0 0 19.371-3.987c.713-.225.442-1.368-.282-1.141a106.835 106.835 0 0 1-19.227 4.097Zm19.064-21.505c1.041.109.971-1.557.066-1.27a69.902 69.902 0 0 1-13.568 2.678c-.614.083-.634.993.001.979a48.48 48.48 0 0 0 13.501-2.387Zm-12.502-4.681c-4.34.086-17.646 2.695-22.137 3.768-.618.142-.534 1.121.13.973 7.419-1.489 14.684-2.628 22.171-3.607a.582.582 0 0 0 .198-.981.586.586 0 0 0-.362-.153Zm5.429 31.101c.716-.202.308-1.22-.422-1.123a183.234 183.234 0 0 1-22.307 4.168.465.465 0 0 0-.329.51.463.463 0 0 0 .451.405 129.992 129.992 0 0 0 22.607-3.96Zm-11.116-23.204a.582.582 0 0 0 .436-.707.584.584 0 0 0-.707-.436c-5.024 1.321-9.863 1.993-14.843 3.109-.526.129-.467 1.006.127.95a101.735 101.735 0 0 0 14.987-2.916Zm-11.897 20.261c-.579.078-.468.995.195.929a46.252 46.252 0 0 0 6.278-.676.531.531 0 0 0 .25-.528.545.545 0 0 0-.124-.279.546.546 0 0 0-.256-.166c-.225-.088-5.277.577-6.343.72Zm-13.563 8.61c.671-.09 2.61-4.548 3.822-6.149.442-.578-.507-1.324-.964-.767a21.038 21.038 0 0 0-3.188 5.073l-3.292-2.306c-.677-.476-1.326.578-.694 1.071.632.494 3.458 3.193 4.316 3.078Zm-10.459-17.856c4.787-.358 9.71-1.112 14.927-1.776.371-.05.453-1.11-1.786-13.334-.12-.892-.289-1.541-.333-1.783a.256.256 0 0 0-.096-.188c-.384-.314-2.57.003-7.477.79-8.257 1.306-9.18 1.371-9.116 1.846-.022.097 2.438 14.497 3.881 14.445Zm.21-.901c-.994-3.015-2.286-9.493-3.136-13.106 3.398-.255 11.027-1.666 14.884-2.277 0 0 1.588 10.271 2.126 13.583-4.555.504-9.316.965-13.928 1.748l.054.052Z" fill="#2A344A"/><path d="M104.658 150.179c.921-.513-1.66-11.158-2.203-13.974a.242.242 0 0 0-.101-.14c-.776-.509-15.37 2.26-16.103 2.417-.734.157.548 4.089 1.043 6.818 1.182 6.799 1.574 7.348 1.928 7.348 2.573.021 13.24-1.255 15.436-2.469Zm-17.573-10.842c4.972-.996 10.055-1.701 14.57-2.329.479 2.695 1.687 10.305 2.195 12.336a96.193 96.193 0 0 1-14.16 2.309c-.034-1.752-2.17-10.381-2.605-12.316Zm7.309-21.758a18.803 18.803 0 0 0-3.673 6.389 15.85 15.85 0 0 0-3.358-2.357c-.747-.383-1.506.638-.766 1.058a36.93 36.93 0 0 1 4.201 3.281c.343.273.611.072.821-.298a34.346 34.346 0 0 1 3.718-7.456c.474-.688-.417-1.265-.943-.617Z" fill="#2A344A"/><path fill-rule="evenodd" clip-rule="evenodd" d="M142.902 48.358c2.372-.289 2.514-.306 2.807.243.739 1.59 2.098 6.885 3.797 14.42-2.447.42-4.888.841-7.293 1.257-.873-4.175-1.45-6.877-1.594-7.485-.049-.21-.057-.209-.901-.081-.446.067-1.125.17-2.168.294-3.407.41-12.624 1.633-12.593 2-43.085 6.489-40.461 6.01-43.085 6.489-15.263 2.777-16.626 2.753-16.701 3.053a.256.256 0 0 0 .002.097c1.704 11.973 6.41 39.021 8.461 50.714 5.007 28.549 10.823 52.771 11.212 53.707.226.534 45.44-5.729 74.46-11.771.607-.126.899-.13 1.013-.274.151-.193-.016-.637-.172-1.959-.471-4.009-1.447-10.097-2.721-17.346l6.469-4.652c3.001 17.611 4.844 30.852 3.852 31.078-26.605 6.096-53.799 9.891-86.269 14.031-2.373.304-3.104.528-3.41.262-.147-.128-.195-.368-.28-.768-14.567-68.469-19.917-111.79-20.125-113.475a142.549 142.549 0 0 0-.426-2.876c-.352-2.246-.367-2.343.334-2.59 3.393-1.193 17.535-4.8 22.814-5.905 1.299 1.732 2.417 8.645 2.491 8.495l42.081-6.31c.251-.019-2.322-8.111-1.267-8.248 2.331-.302 8.92-1.263 16.329-2.067a197.24 197.24 0 0 0 2.883-.334Zm20.993 88.706c-2.384-13.274-7.313-39.364-9.891-52.095-2.554.432-4.971.886-7.362 1.3 2.778 13.691 8.116 41.123 10.784 55.447l6.469-4.652Z" fill="#2A344A"/><path fill-rule="evenodd" clip-rule="evenodd" d="M125.392 59.213c.068.804.149 1.299-.04 1.646-.479.875-2.686.806-11.208 2.363-5.741 1.049-6.751 1.161-7.539 1.25-.885.098-1.491.166-8.196 1.491-7.618 1.506-14.313 2.234-14.333 2.234-1.127.196-1.648-1.692-1.769-2.494 0-.652.003 0 0 0l-2.085-8.015-.043-.536a2.27 2.27 0 0 1 .04-.84c.058-.74.942-1.023 8.8-2.355.251-.043.257-.151.284-.654.03-.554.087-1.588.526-3.545.086-.387.495-1.245.936-1.41 3.535-1.316 12.808-2.533 15.474-2.767a77.99 77.99 0 0 0 2.094-.219c2.052-.235 2.722-.312 3.297.58a20.016 20.016 0 0 1 1.653 3.406c.058.16.144.147.5.093.101-.016.225-.035.375-.054l.495-.062c8.27-1.047 8.522-1.079 8.854-.12.19.552.28.92.34 1.163l1.545 8.845Zm-32.885-5.058c-2.117.36-5.065.859-9.06 1.607-1.561.292-2.147.271-2.257.49-.112.223.27.694.618 1.994.287 1.064.583 2.494.909 4.072.284 1.372.59 2.856.934 4.308.139.585.327.549 1.604.306.295-.056.648-.123 1.073-.196 17.984-3.075 27.494-4.623 32.519-5.44 5.627-.916 5.628-.916 5.604-1.12-.132-1.104-.17-1.48-.221-1.856-.056-.409-.129-.815-.358-2.156-.988-5.788-1.079-6.625-1.434-6.759-.068-.025-.146-.025-.241-.029-.278-.01-10.022 1.111-12.126 1.358-1.428.169-1.226-.354-.29-.573.257-.06.628-.135 1.175-.247.322-.065.705-.143 1.163-.238.068-.014.126-.008.154-.034.095-.087-.137-.529-1.396-3.253a.52.52 0 0 0-.566-.341c-.525.064-1.189.133-1.976.216-3.239.339-8.554.896-14.783 2.163-1.634.332-2.298.358-2.595.702-.333.386-.201 1.174-.461 3.247-.102.44-.15.89-.145 1.343.365-.056.854-.136 1.4-.225 1.664-.273 3.87-.633 4.792-.674.646-.029.941.32.058.568-.658.185-1.948.404-4.094.767Z" fill="#2A344A"/><path d="M199.965 72.842c-.198-3.833-1.559-12.377-3.327-15.7a4.057 4.057 0 0 0-1.195-1.324 5.176 5.176 0 0 0-2.464-.505c-12.966 1.094-72.63 11.11-86.298 14.47-3.612.888-3.909.733-3.226 7.13.33 3.085 1.905 13.237 3.571 15.516.8 1.091 1.937.912 3.643.658 1.495-.23 75.796-12.297 86.667-14.729 2.618-.587 2.767-2.836 2.629-5.516Zm-2.305 4.43c-2.893.724-10.1 1.625-39.372 6.51-27.43 4.579-46.766 8.485-50.022 8.295-.85-.05-1.129-2.24-2.512-9.085a79.343 79.343 0 0 1-1.412-10.319c.088-1.59-.177-1.331 4.398-2.23 1.504-.295 77.53-13.79 84.147-14.052 1.87-.078 2.523.227 2.98 2.039 1.492 5.912 2.748 10.981 3.118 16.724a2.045 2.045 0 0 1-1.325 2.118Z" fill="#2A344A"/><path d="M178.127 72.17c.194-1.545.329-1.386-.078-1.644a14.35 14.35 0 0 1-3.071-2.655c-1.238-2.116 4.311-2.27 4.628-3.342.262-.885 1.252-3.902 1.943-4.516 1.708-1.518 3.561 4.203 4.805 3.906a20.276 20.276 0 0 1 4.298-.527c.582.011 1.203.624.874 1.217a52.371 52.371 0 0 1-2.728 4.537c-.241.366-.029.39.708 1.961 1.642 3.502 2.38 5.59-4.81 1.78-.64-.34-.98.225-1.494.744-6.145 6.218-5.568 2.484-5.075-1.462Zm.674 2.991c0 2.154 4.226-3.812 6.029-3.075 3.699 1.512 4.803 2.23 4.738 1.648-.013-.122-1.269-2.842-1.719-3.737-.424-.843.213-1.666.745-2.528 2.338-3.8 3.107-3.538-1.235-2.688-.875.171-1.749.349-2.266-.374-2.628-3.67-2.956-4.1-3.179-3.64-.326.674-1.383 4.428-1.396 4.495-.136.662-.338.53-3.184 1.376-2.169.643-2.133.218 1.247 3.093.958.815.826.915.22 5.427v.003ZM126.452 75.544c-.961 2.23-3.053 4.873-2.884 5.16.594 1.031 1.481 3.09 1.772 3.765.371.867.025 1.734-.841 1.553a7.64 7.64 0 0 1-2.56-.773c-2.736-1.266-2.679-1.662-3.362-.984-4.85 4.814-6.547 5.744-5.58-1.023.198-1.383.341-1.305-.061-1.553-.829-.51-2.929-2.158-3.207-2.896-.385-1.022.714-1.385 1.751-1.769 2.806-1.038 2.856-.873 2.94-1.216a23.574 23.574 0 0 1 1.637-4.215c1.637-2.854 3.892 3.752 5.067 3.516 3.712-.745 3.369-.509 4.435-.563.525-.026.891.592.893.998ZM113.676 86.23c0 1.313.651.328 3.611-1.987 2.244-1.755 1.412-1.305 6.851.835 1.192.468-1.966-3.933-1.524-4.858 2.012-4.214 3.676-4.953 2.169-4.793-1.492.156-4.059 1.256-4.808.156a37.304 37.304 0 0 0-2.875-3.754c-.291-.276-.354-.256-1.715 4.603-.162.58-.484.578-1.686.922-3.628 1.036-3.626.668-1.637 2.396 2.671 2.324 2.26 1.024 1.614 6.48ZM156.581 74.83c.04-.338.39-.588-.489-1.059a18.962 18.962 0 0 1-2.572-2.234.99.99 0 0 1 .28-1.706 37.333 37.333 0 0 1 3.759-1.384c.602-.193.438-1.454 2.068-4.677.138-.255.369-.447.645-.536 1.511-.517 3.352 4.37 4.409 4.155 1.455-.296 4.627-1.129 5.139-.067.213.443.21.449-.027.914-3.422 6.731-3.405 2.452-.95 8.532.39.963-.051 1.67-.66 1.584-2.06-.284-3.071-.974-5.113-1.987-.284-.141-.337-.26-.935.118-.734.851-1.546 1.63-2.427 2.328-1.181.957-3.021 2.549-3.416.801-.234-1.039-.114-1.344.289-4.781Zm.797 4.27c.594.303 4.38-4.127 5.666-3.598 3.575 1.47 5.257 2.444 4.818 1.497-.39-.835-1.332-2.935-1.637-3.518-.44-.845.061-1.559 1.408-3.655 1.601-2.487 1.849-2.329-.582-1.85-3.714.731-2.9.761-4.947-1.977-1.981-2.65-1.661-2.547-2.482.234-.834 2.827-.779 2.921-1.184 3.046-3.274 1.009-4.646 1.14-4.132 1.624 3.174 2.997 3.459 2.276 3.298 4.294-.202 2.585-.743 3.638-.224 3.903h-.002ZM142.123 70.999c.63.805 1.454-.312 4.98-.26a.975.975 0 0 1 .895.578c.173.325.198.468-.858 2.257-.287.486-1.464 2.433-1.919 3.035-.234.312.023-.005 1.689 3.88.431 1.006.122 1.91-.611 1.775-4.936-.912-4.863-2.962-6.196-1.685-3.148 3.022-6.13 6.045-5.737 1.185.452-5.591 1.447-2.182-2.537-6.097-1.769-1.738.967-2.321 3.304-3.118.662-.225.843-.22 1.024-.816 2.297-7.571 3.067-4.442 5.966-.734Zm-6.797 11.353c0 2.163 2.585-1.762 5.138-2.898.45-.2.503-.234 3.418 1.104.645.29 1.306.54 1.981.75a.211.211 0 0 0 .091-.021.22.22 0 0 0 .121-.235.831.831 0 0 0-.078-.171c-1.887-3.958-2.121-3.937-1.559-4.945 3.018-5.37 4.297-4.613-1.568-3.616-1.001.171-1.403-.724-1.866-1.348-2.228-3-2.428-3.56-2.745-2.537-.17.545-.922 3.066-1.234 4.149-.203.701-.43.6-3.452 1.49-1.806.532-1.641.382.523 2.248 2.164 1.865 1.828.887 1.23 6.03Z" fill="#2A344A"/><circle cx="15" cy="15" r="15" fill="#4E6AF3"/><path d="M20.675 10.08a3.682 3.682 0 0 1 0 5.197L14.997 21 9.32 15.277A3.682 3.682 0 0 1 11.9 9a3.675 3.675 0 0 1 2.58 1.08c.2.197.373.42.517.66.145-.24.318-.463.518-.66a3.623 3.623 0 0 1 5.16 0Z" fill="#fff"/><circle cx="32.5" cy="59.5" r="6.5" fill="#4E6AF3"/><path d="M34.962 57.368a1.596 1.596 0 0 1 0 2.253l-2.46 2.48-2.46-2.48a1.596 1.596 0 0 1 1.118-2.72 1.592 1.592 0 0 1 1.342.753 1.57 1.57 0 0 1 2.46-.286Z" fill="#fff"/><circle cx="49.5" cy="27.5" r="9.5" fill="#4E6AF3"/><path d="M53.096 24.386a2.333 2.333 0 0 1 0 3.292L49.5 31.302l-3.596-3.624a2.333 2.333 0 0 1 1.634-3.976 2.328 2.328 0 0 1 1.962 1.102 2.296 2.296 0 0 1 3.596-.418Z" fill="#fff"/></g><defs><clipPath id="a"><path fill="#fff" d="M0 0h200v200H0z"/></clipPath></defs></svg>