<svg width="200" height="200" fill="none" xmlns="http://www.w3.org/2000/svg"><path d="m44.001 197.5-2.5-1c-.192-.477.208-.67 1-1l-.5-3-.5-19-1-12.5c-2.306-.165-3.614-.355-5.5-2-1.746-35.373.943-35.842 2.998-44l3.002-7-1-2.5-.502-.5c-3-.5-7.976-2.399-8.995-8-1.083-5.956 1.664-11.334 2.997-13.5.815-1.511 1.591-2.328 3-3.5 1.814-1.286 3.112-1.583 5.5-2l4.5-.5h.503L47 75l.5-.5c-.162-1.172-.261-1.468-1-1l-2-2-1.5-5c0-1.5.2-4.8 1-6 1-1.5 1.5-3 2.5-3.5s3.5-1.5 4.5-1.5 5.5 2 5.5 2.5c0 .4 4 2.166 6 3l-4 7.5-4 3v3l.5 2.5 4.5 1 6.5 3.5 5.5 4c2.528-6.228 12.402-10.403 17-11l.5-3.5-.5-.5c-1.675-1.846-2.075-3.248-2.5-6l-2-1-1-1.5c0-1 .1-3.2.5-4 .5-1 3-2 3.5-2.5.4-.4 4.5-.834 6.5-1l7 3.5.5 4-1.5 2v1.5c-.781 2.436-1.275 3.72-3 5l.5 4.5c1.62-.134 2.56.126 4 1 1.486.106 2.612.59 5 2l4.5 3 4 3.5 4.5-2.5 6-2.5 6.5-2 .5-2-.5-2.5-1-4-2.5-2-1-2 2.5-3 6.5-1 8.998-1 .002 3.5-.5 4-1.002 4-1.998 2.5-1.002 1 1.502 3 2.5 1 7 2 8.5 1 3-.5 4-3 8-9V69l.998.3s.879-1.639 1.292-2.185c-.293-.118-.79-.615-.79-.615l-.5-1 .5-.5 1.5 1v-.5l.5-1 .5-1.5h.5l.5.5-.5 2 .5-1.5 1.5-.5v1l-.5 1 2-.5v1l-2.5 2.5s-.364 1.892-.781 2.262c.325.086.781.238.781.238l-1.002 3-1.998 5.5c-1.733 4.237-2.88 6.39-5.5 9.5l-3.5 3.5c-2.314 2.348-3.11 2.95-6.5 3.5 0 0-4.5 1-5 .5s1.5 8.5 1.5 8.5l.5 12v14h-4.5v12l-.5 16.5-1 13c-.829 9.124-1.49 13.936-3 22h-7l-.5-4.5-1-7s-1-9.5-1-10-2-12.5-2-12.5l-4 20s-2.5 13.5-3 13.5h-6.502l.002-2-1.5-10.5c-1.652-7.624-1.751-10.678-2.5-17-.864-6.328-1.141-9.864-1.5-16l-.5-14.5-5-.5v-3l.5-8 2.5-13.5 2.5-9-3.5 1-2 1.5-6 1.5-1 9-1.5 12.5 5 22 2.5 19.5-.5 26c1.09 1.146 2.757 2.204 6.5 4.5v1l-1.5 1-7.5-1.5v1l-3 .5-.5-1-.5-3.5.5-2-1.5-26.5-.5-16.5c-1.333-3-4-9.2-4-10 0-.8-2.667-7.667-4-11l-5.5 2.5 2 8-7.5 51.5-1 3.5c-.316 1.849.14 3.356-1 4.5h-2.5c-.463-.292-.507-.534-.5-1l-3 .5-4 .5c-.869.158-1.108-.001-1.5-.5-.54-.164-.502 0-.502-.5s.295-.489.502-1l6-3.5-5-.5 7-77-1-4.5-1-6.5h-4.5l-4-2.5-1.5-3.5-2.5-2-1.002 11c2 4 2.675 7.195 4.002 12.5 1.578 10.716 1.862 15.94 1.5 23V157l-1 4-2.802.5-.198 15V195l-2.5 1-4.5 1 .5-1.5 1-1-6.502-33h-.998l-2.5 17-2.5 17.5-4 1.5Z" fill="#fff"/><path d="M64.995 67.757a2.284 2.284 0 0 1-1.178 1.864 2.84 2.84 0 0 1-.186 3.164 3.067 3.067 0 0 1-2.906 1.17c-.145.396-.492 1.082-.888 1.211a.427.427 0 0 1-.395 0 2.81 2.81 0 0 0 2.252 2.292c1.848.331 3.576-.274 3.576-2.155a3.117 3.117 0 0 0 2.542-.605 2.477 2.477 0 0 0 .896-1.679c.08-2.082-1.364-3.463-2.26-3.463.654-1.154.234-2.155-.807-2.913a2.236 2.236 0 0 0-.872-.315c.167.457.244.942.226 1.428Zm-16.135.597a.138.138 0 0 0 .098-.234.138.138 0 0 0-.098-.04l-.492-.057c-.153 0-.404 0-.549-.049a22.524 22.524 0 0 1 0-3.56.145.145 0 0 0-.282-.04 6.837 6.837 0 0 0-.46 2.826c-.013.333.017.666.088.992.194.509 1.17.283 1.695.162Zm-3.745-4.706c-.387.105-.912.484-.718.63.285.13.609.145.904.04.282-.073.75-.355.742-.5-.008-.146-.548-.275-.928-.17Zm5.23.565c2.842.59 1.526-.492.13-.67-.364-.048-1.211 0-1.195.202.016.202.848.42 1.066.468Zm.638 1.356a.347.347 0 0 0-.476-.129c-.202.113-.194.234-.145.888a.348.348 0 0 0 .694-.049 2.349 2.349 0 0 0-.073-.71Zm-5.714.444a.349.349 0 0 0-.694-.056 3.787 3.787 0 0 0 0 .589.348.348 0 0 0 .694-.049c.016-.17-.008-.387 0-.484Zm2.8 5.254c0 .259 1.025.323 1.558-.21.396-.395.371-1 .21-1.04-.161-.04-.056 0-.638.5-.363.307-1.146.549-1.13.75Z" fill="#2A344A"/><path d="M183.237 64.56a1.534 1.534 0 0 0-1.275.153c.154-.37.207-.774.153-1.17-.145-.654-1.098-.953-1.881 0-.048-.517-.282-.872-.694-.945-1.025-.194-1.469 1.76-1.695 2.785-.533-.396-1.404-1.066-1.84-.541a.947.947 0 0 0-.186 1c.314.55.761 1.01 1.3 1.34-.154.356-.807 1.292-1.146 1.84-.275-.08-.856-.233-.977 0-2.833 3.859-10.493 12.802-15.263 12.616-7.369-.282-16.643-3.85-17.571-3.72l-1.3-2.85a8.008 8.008 0 0 0 3.059-4.035 20.62 20.62 0 0 0 1.211-7.822 24.212 24.212 0 0 0-.121-2.582c3.406-.226 5.65-4.238 2.994-7.555a3.523 3.523 0 0 0-2.276-1.55 4.4 4.4 0 0 0-1.614.218c-3.229.807-3.277-1.235-5.489-1.784a5.646 5.646 0 0 0-3.002.315c-3.229 1.13-2.599 2.93-4.093 4.431-.807.807-4.253-.33-5.65 1.962-1.485 2.51-1.347 7.82.808 9.903.478.43 1.007.801 1.574 1.106a6.435 6.435 0 0 0 1.808 1.3c.629 1.283 1.347 4.971 1.614 6.368l-.25 2.098c-1.722.27-3.419.676-5.077 1.211a49.54 49.54 0 0 0-7.878 3.325c-4.601 2.422-4.036 2.373-4.197 2.115a21.163 21.163 0 0 0-1.776-1.72c-4.407-3.712-9.185-6.876-14.827-7.804l-.662-3.753c1.776-1.453 2.744-4.383 2.777-6.457.662.274 1.186-.21 1.533-.808.097-.177.702 0 1.171-1.049a.976.976 0 0 0 0-.678 1.29 1.29 0 0 0 .314-1.953 1.872 1.872 0 0 0 .929-1.364c.177-1.057-.065-2.01-1.082-2.34 0-.235.17-.622.17-.703a2.81 2.81 0 0 0-.808-2.034c-1.122-.96-1.477-.88-2.179-.807 0-.484.307-.807-.202-1.47a2.897 2.897 0 0 0-3.228-.806l-.202.064a2.422 2.422 0 0 0-1.42-1.38c-1.01-.38-1.704.113-2.551.557-1.267-1.13-3.689-.525-4.988.258-.59.355-.646.985-.88 1.276a2.276 2.276 0 0 0-1.42.37c-.372.235-.719.574-1.018.808a1.768 1.768 0 0 0-.476.565c-.25.41-.394.876-.42 1.356-.198.047-.386.13-.556.242a4.253 4.253 0 0 0-1.3 2.18c-.088.465-.043.946.13 1.388 0 .048.08.145.104.193-.161.234-.581.42-.662 1.05-.08.63-.056 1.864.557 2.235.258.154.807.315 1.001.436-.03.33-.03.663 0 .993.21 1.364 1.558 1.856 2.946 1.655l.38.193a13.25 13.25 0 0 0 1.13 4.157 5.406 5.406 0 0 0 1.953 2.115l-.388 3.438a28.82 28.82 0 0 0-5.65 1.42c-5.545 2.027-8.781 4.658-11.647 9.226-3.947-3.269-10.63-8.168-15.795-8.079.033-.349.033-.7 0-1.05 0-.233-.13-.952-.347-1.057 0-.395-.065-.807-.097-1.186 1.824 2.696 5.545 1.267 5.133-.573a2.85 2.85 0 0 0 2.422-1.074 2.366 2.366 0 0 0 0-2.712 1.364 1.364 0 0 0-.243-.29c1.26-.323 1.695-.88 1.857-1.68a3.278 3.278 0 0 0-.138-1.831c.144-.071.28-.158.404-.259a2.47 2.47 0 0 0 .719-1.315 8.136 8.136 0 0 0-1.082-5.029 2.252 2.252 0 0 0-1.324-1.041 8.307 8.307 0 0 1-.186-1.46 4.841 4.841 0 0 0-2.695-3.544 5.489 5.489 0 0 0-2.163-.517 2.22 2.22 0 0 0-.929.121 4.406 4.406 0 0 0-1.953-1.356 6.457 6.457 0 0 0-4.326.71c-.267.178-.476.525-.71.695a4.15 4.15 0 0 0-3.608.161 4.73 4.73 0 0 0-2.543 2.704c-.339.807-.646 2.13-.129 2.825.03.038.057.079.08.121-.306.54-1.008.807-1.242 2.309a6.873 6.873 0 0 0 .089 2.26.847.847 0 0 0 .807.653c-.25 2.422-.21 5.65 1.114 7.74.329.49.714.94 1.146 1.34a3.777 3.777 0 0 0 1.614.937V75.1c-.404.226-.121 1.509-.29 2.284-3.278-.226-7.862.532-10.405 2.631-3.922 3.26-5.52 7.862-5.94 12.947-.573 7.014 3.228 11.356 9.128 12.107.371 1.228.808 2.435 1.308 3.616a56.497 56.497 0 0 0-5.416 14.859c-.807 4.391-1.186 11.349-1.259 18.024 0 3.18 0 15.109 1.065 18.08.17.468.896.718 1.373.855 1.324.347 2.673.59 4.035.727.34 7.086 1.348 34.069 1.348 34.109a16.953 16.953 0 0 0-3.793 2.769 1.38 1.38 0 0 0-.436 1.299.935.935 0 0 0 1.09.565c1.34-.121 4.947-1.202 6.578-1.501.04.347.096.686.435.807.582.202 1.728.307 2.147-.218.42-.524.17-1.897.226-2.486.049-.436 3.73-25.828 4.989-34.537h1.008c1.55 8.386 5.788 32.366 5.796 32.406a23.65 23.65 0 0 0-2.381 2.075c-.622.629-1.663 1.759-1.251 2.534.411.775 1.38.379 2.195.081 1.614-.565 4.036-1.655 5.27-2.058.09.331.194.661.541.734.482.073.973.048 1.445-.072.686-.202.807-.63.807-1.34-.298-3.576-.306 7.7-.064-34.522a10.603 10.603 0 0 0 2.64-.444c2.283-1.122 2.074-33.9-.897-44.215-.202-.71-1.477-4.415-2.38-6.715a.356.356 0 0 0 0-.242 21.35 21.35 0 0 0-.897-1.962c.242-2.97.5-8.7.743-10.436l2.01 1.38c.164.65.397 1.28.694 1.881.33.867.861 1.645 1.55 2.268a8.07 8.07 0 0 0 6.521 2.066H77.8c1.566 9.298 1.114 8.322 1.348 8.556-5.949 20.501-7.87 59.389-7.062 79.1a.42.42 0 0 0 .088.258c.412.525 2.979.807 3.826.952a31.155 31.155 0 0 0-4.528 2.946c-.718.703.226 2.018 1.106 2.244.484.129 7.07-.807 7.57-.88.066.307.21.606.517.662.864.149 1.74.211 2.616.186.355 0 .807-.081.887-.42.27-1.343.427-2.706.469-4.076.573 0 1.146 0 1.331-.161 1.615-1.615 8.822-42.69 9.412-46.007.2-1.113.252-2.248.153-3.374-1.17-13.843-.734-8.144-.92-13.479a.143.143 0 0 1 .051-.08.141.141 0 0 1 .18 0c.026.02.044.048.051.08.541 6.344.864 6.562 1.3 14.924 0 .573 6.578 45.579 7.765 46.757a5.081 5.081 0 0 0 1.993.388 21.064 21.064 0 0 0 .412 5.182.487.487 0 0 0 .266.29c.589.291 2.793 0 3.229-.056a.814.814 0 0 0 .516-.662c.686.097 7.095 1.001 7.563.88.88-.226 1.832-1.542 1.106-2.252a37.146 37.146 0 0 0-5.343-3.406c.968-.073 3.002-.251 3.842-.743 1.267-.751.056-57.057-10.114-80.149.186-.299.896-8.588.928-8.959a13.26 13.26 0 0 0 7.119-2.365l3.229-1.163a177.904 177.904 0 0 0-4.415 22.786c-.186 1.517-1.122 9.056-.113 10.186a.639.639 0 0 0 .404.21c.46.04 2.3.202 4.261.323 0 23.157 2.276 35.587 5.949 59.97a.317.317 0 0 0 .107.195.32.32 0 0 0 .208.08h.209c.153 1.124.398 2.234.735 3.317.508 1.025 8.394 1.001 9.508.646a.954.954 0 0 0 .484-1.098c-.322-1.437-3.228-1.751-4.6-2.784h.476a.327.327 0 0 0 .323-.251l6.174-30.905c.073.452 4.415 31.478 4.415 31.478a.34.34 0 0 0 .348.283h.637c.114 1.137.297 2.267.549 3.382a.333.333 0 0 0 .07.139.34.34 0 0 0 .124.095c.807.379 7.902.807 9.072.169a.971.971 0 0 0 .428-1.235 3.084 3.084 0 0 0-1.041-1.412c-.977-.541-2.68-.662-3.592-1.138h.452a.366.366 0 0 0 .331-.275s2.348-8.628 3.729-28.475c.807-11.575 1.033-23.408.944-34.853 1.033.081 2.793.162 3.664.121.243 0 .477 0 .582-.234.936-1.864.226-20.396-.299-25.07-.048-.452-1.203-8.127-1.356-9.128 2.688-.105 6.57-.678 8.774-2.252 11.3-8.072 13.455-21.858 14.375-23.706.089-.194-.129-.29-.67-.557.31-.921.68-1.822 1.106-2.696 1.122-.621 2.421-1.332 2.51-2.615a.656.656 0 0 0-.331-.767Zm-80.496-8.242c-.065 0-.081-.048-.081-.129 0-.08.153.13.081.13Zm29.711 30.672c3.987.25 6.36.282 10.412.258.258 1.566.549 3.277.863 5.093-2.171 0-9.532.08-11.445.049.089-1.776.153-3.592.17-5.384v-.016Zm-1.058 16.893c4.698.275 8.185.347 14.424.218.42 2.301.855 4.625 1.243 6.667-3.778.113-12.495.267-16.417.154.153-1.284.468-4.399.75-7.023v-.016Zm-1.089 9.637c6.15.356 11.074.372 17.329.186.307 1.55.605 3.051.896 4.464a345.28 345.28 0 0 1-19.081.193c.328-1.598.613-3.212.856-4.843Zm14.988-12.325c-2.421.049-11.3.146-13.657.113.21-2.308.372-4.399.493-6.295 3.874.242 6.505.33 12.107.266.194 1.066.904 5.029 1.057 5.916Zm-3.47-21.55c.096 1.324.387 3.374.589 4.69-2.058 0-8.354.072-9.968.048a43.91 43.91 0 0 0-.331-4.956c2.179 2.93 8.063 2.526 9.71.218Zm-12.915 41.293c6.743.407 13.503.458 20.251.153.307 1.421.59 2.712.856 3.842-1.275-.072-16.353-.807-21.841-1.073.226-.92.468-1.897.71-2.922h.024Zm1.768-52.262c-.283-.565-2.074-.807-2.244-2.236-.194-1.67 1.752-1.727 2.421-.977.057.057.452.59.501.654.42.565.807.581.936-.226.186-1.501-.274-4.504 1.477-4.189 1.252.393 2.539.663 3.842.807 2.478.226 4.448 0 6.046-1.776.177-.04.767-.064.976-.08.074.853.095 1.71.065 2.566a19.982 19.982 0 0 1-1.324 7.588c-1.283 3.075-3.059 3.817-3.059 3.817a.335.335 0 0 0-.185.178c-.073.186-.097 0 1.42 3.398.323 2.93-8.354 4.124-9.476-.476l.275-2.349c.032-.17-.929-5.19-1.695-6.7h.024Zm-17.757 14.528a18.51 18.51 0 0 1 5.061 9.274c.476 2.422.274 4.456-.517 5.852a10.56 10.56 0 0 1-1.921 2.422 7.466 7.466 0 0 1-2.825 1.808 15.054 15.054 0 0 1-7.014.807 55.805 55.805 0 0 1-9.298-1.994c0-.242-.049-.5-.073-.807l2.785-1.017a8.043 8.043 0 0 0 1.541-.606c.283-.145.307-.572.339-.936.138-1.324-.137-1.146.267-1.469.904-.71 3.39-1.404 4.471-1.71.363-.098.888-.178.727-.526a2.427 2.427 0 0 0-.581-1.34c-1.704-7.215-1.413-7.191-1.687-7.143a.127.127 0 0 0-.053.017.136.136 0 0 0-.063.089.13.13 0 0 0 .003.056c.363 2.147.904 4.923 1.291 6.796l-1.001-.145c-.169 0-.339 0-.379-.081-.323-.67-.186-1.46-.961-1.848a.692.692 0 0 0-1.001.25c-.419.807.089 2.615 0 2.59a5.589 5.589 0 0 1-1.339.364.576.576 0 0 0-.267-.355 31.391 31.391 0 0 0-5.093-1.962c-.38-3.18-.88-7.183-1.057-8.523a.67.67 0 0 0 .17-.113 7.12 7.12 0 0 0 .62-1.776c.138.154.251.299.501.202a54.99 54.99 0 0 0 6.191-5.238 38.85 38.85 0 0 1 11.163 7.03v.032ZM102.7 91.348c.582.331.267 1.316.921 1.808a6.81 6.81 0 0 0 2.017.275c.161.266.262.563.299.871-.63.194-3.689.872-4.964 1.752a13.344 13.344 0 0 0-.202-1.816c.662-.057 1.494 0 1.736-.428s-.17-2.68.193-2.462Zm-1.557-15.335c-1.445 1.25-4.682 3.93-5.65 4.64-.485-.54-1.752-2.041-2.107-2.59.807-.694 3.794-2.712 4.23-2.954 1.205.143 2.389.43 3.527.855v.049Zm-12.713-.96 3.939 3.034c-.597.638-2.058 1.905-2.712 2.567-.92-.662-3.43-3.318-4.843-4.787a28.007 28.007 0 0 1 3.616-.815Zm-2.195-10.687c-.113-.162-.13-.113-.953-.55-.54-.443-1.194-.806-1.436-1.468 0-.55.17-1.227.742-1.195.434.1.836.305 1.17.598a1.937 1.937 0 0 0 2.083-.59c.28-.503.363-1.093.234-1.654a2.058 2.058 0 0 0 1.372-.703c.172-.348.276-.726.307-1.113a3.318 3.318 0 0 0 2.276-.17c.489-.21.934-.509 1.316-.88.084.213.195.413.33.598a1.275 1.275 0 0 0 1.17.573c.286-.045.56-.144.808-.29v.322a1.695 1.695 0 0 0 1.961 1.703.888.888 0 0 0 0 .161c.081.436-.088 1.752.517 1.905.605.154.274-1.356 1.437-1.541a.921.921 0 0 1 1.057.516c.226.727 0 1.05-.379 1.768l-.25.282c-.388.42-.808.864-.808 1.268a8.88 8.88 0 0 1-.686 3.6 6.667 6.667 0 0 1-2.082 2.945.339.339 0 0 0-.13.315l.663 3.883-4.181 2.84c-.735-.564.242.275-3.778-2.832l.436-3.754a.355.355 0 0 0-.177-.347c-2.898-1.622-2.672-5.633-3.02-6.19ZM76.872 79.62a24.645 24.645 0 0 1 7.264-3.568 60.81 60.81 0 0 0 4.706 4.843c.355.307.807.686 1.122.363.113-.13.282-.299.476-.492.201.7.438 1.39.71 2.066a.519.519 0 0 0 .307.25c-.089 1.041-.307 4.036-.557 7.353-2.56-.55-5.18-.783-7.797-.694 0-.21.258-2.696.266-2.776 0-.436 0-1.01.049-1.235a.138.138 0 0 0-.202-.156.138.138 0 0 0-.064.083c-.719 1.46-.59 2.494-.493 4.108a13.64 13.64 0 0 0-5.206 1.316.14.14 0 1 0 .13.25c5.65-2.76 15.9-.145 21.348 2.204.38.155.75.336 1.106.54a14.49 14.49 0 0 1 .226 3.867c0 .363 0 .452-.646.702-.46.186-1.009.315-1.348.444-1.106.412-2.171.807-3.228 1.211a130.737 130.737 0 0 1-18.25 4.439c-2.01 0-4.657-.371-6.134-1.76-6.393-5.98.29-19.29 6.215-23.358ZM46.62 72.784a5.65 5.65 0 0 1-1.872-1.751c-1.26-1.954-1.276-5.15-1.066-7.458a7.264 7.264 0 0 0 2.987-1.808c.902-.923 1.69-1.95 2.349-3.06l.451-.871a11.768 11.768 0 0 0 4.036 5.23 5.18 5.18 0 0 0 2.01.468 7.19 7.19 0 0 0 .202 1.88.266.266 0 0 0 .371.114c.355-.194.492-1.235 1.041-1.953.146-.202.315-.356.525-.307.221.034.431.12.613.25.807.597.162 2.987-1.348 3.73-.452.225-2.808 2.97-2.962 3.833-.1.474-.076.967.073 1.429.048.702.129 1.614.185 2.421-1.493 0-5.133 0-6.626.073.072-1.994.113-1.784-.969-2.22ZM61.698 161.4h-6.094c.928-11.494 2.058-39.679 1.816-49.663a60.92 60.92 0 0 0 2.905-.194c1.84 9.516 2.866 40.551 1.373 49.857Zm-20.179-.734c-.871-9.63 0-40.882 2.309-49.236.403.056 3.293.315 3.293.315-1.227 9.863-2.486 38.169-2.05 49.235-1.308-.097-2.502-.218-3.6-.314h.048Zm8.927-49.51-3.035-.121a16.43 16.43 0 0 1 .186-2.599l1.09-.081 2.356-.057a16.87 16.87 0 0 1-.597 2.858ZM41.1 108.5l5.843-.113a13.76 13.76 0 0 0-.226 2.696 34.924 34.924 0 0 1-6.53-.67c.598-1.308.848-1.751.913-1.913Zm6.578 52.626c-.267-10.073 1.372-40.89 2.421-49.341 1.106 0 1.93.057 4.221 0 0 3.826-1.146 44.796-1.412 49.518-1.38 0-4.875-.153-5.23-.177Zm3.39-49.962c.198-.942.295-1.903.29-2.866 5.303-.097 10.493-.226 12.834.089.319.562.589 1.151.807 1.76-4.56.976-9.678 1.017-13.931 1.017Zm-15.199 48.388c-1.396-.888-1.848-25.942-.137-35.934a52.732 52.732 0 0 1 4.302-12.914l.848.177c-2.26 8.16-3.164 37.815-2.042 49.405a11.108 11.108 0 0 1-2.97-.734Zm11.68 36.321c-2.244.307-3.455.484-4.335.678a2.093 2.093 0 0 1-1.42-.387c.662-.396.807-.339.807-.719.072-1.566-1.526-31.075-1.72-34.198 3.681.419 8.282.645 11.962.75-1.25 7.7-4.721 29.929-5.319 33.9l.024-.024Zm18.063-1.663c-2.05.573-3.333.945-4.197 1.268a2.067 2.067 0 0 1-1.46-.194c.58-.46.702-.428.67-.807-.146-1.615-5.836-30.809-6.16-32.431 4.57.097 8.88.048 11.68-.146-.186 9.065-.508 28.614-.557 32.335l.024-.025Zm2.05-76.848c2.696 9.549 2.97 38.743 1.155 43.433-.678.339-3.721.468-4.464.5 1.615-10.049.807-40.357-1.041-50.148.759-.121 1.437-.25 2.066-.387.896 2.446 2.075 5.965 2.26 6.627l.024-.025ZM61.964 93.77c-.347-.315-.686-.597-.977-.904a.138.138 0 0 0-.245.067.138.138 0 0 0 .028.102c1.38 2.26 3.293 3.35 4.318 4.278-.259.985-.525 6.885-.807 10.38-2.131-.492-13.262.089-16.999.089a.321.321 0 0 0-.226.097c-2.938.137-5.254.274-5.9.314-.387-.904-.872-2.365-1.17-3.293 1.309.235 2.65.224 3.955-.032.022.491.128.974.314 1.429.404.355 13.835-.606 14.263-.695.29-.064.298-.468.322-.807.073-.807.121-2.583.154-4.665a.929.929 0 0 0 .452-1.34 1.123 1.123 0 0 0-.242-1.614.943.943 0 0 0-.186-1.493c0-2.914 0-5.755-.105-7.345-.048-1.308-.089-1.453-.29-1.615-.396-.242-2.1-.145-2.866-.113.01-.342-.082-.68-.266-.968-.371-.363-2.01 0-2.962 0-.21-.67-.315-1.17-1.058-1.518a1.566 1.566 0 0 0-1.937.808c0 .08-.234.742-.282.96-.867.066-1.729.176-2.583.331-.307.097-.331.743-.34 1.195-3.075.322-3.276.322-3.333.637-.056.315.17 5.448.186 5.876-.755.096-1.502.244-2.236.444.153-1.002.245-2.013.275-3.027 0-.444.04-2.34-.226-2.348-.267-.008-.428 1.856-.453 2.227-.048.565-.12 2.672-.08 3.301-.34.105-.662.218-.993.347a.138.138 0 0 0 .097.259c4.56-1.574 10.735-.694 14.117 1l.153 3.399c-2.922 2.042-7.57 4.568-11.122 5.02a11.686 11.686 0 0 1-3.148-.064c-6.118-.791-9.274-5.174-8.83-11.47.347-4.9 1.905-9.637 5.666-12.777 2.421-2.01 7.046-2.696 10.194-2.421.807.064.371-1.68.581-2.309.307-.048 1.284-.064 1.614-.072-.04.556-.04 1.114 0 1.67 0 .234.17 1.114.38 1.05.21-.065.29-.751.298-.945.009-.193 0-.218-.072-1.775h2.688a13.417 13.417 0 0 0 0 1.614c0 .234.17 1.114.379 1.05.21-.065.29-.751.299-.945.008-.194 0-.598-.073-1.703h1.97c.08.261.124.533.129.807 0 .936-.162 1.073 0 1.259.435.492 4.39-1.46 15.957 8.168-2.155 3.632-3.858 8.386-3.229 12.576-1.88-1.268-1.517-.872-5.553-4.496Zm-18.201.072a529.03 529.03 0 0 1-.145-5.472c.637-.097 2.082-.242 2.72-.307 0 1.187.048 1.267.807 1.348 1.445.17 7.813 0 8.483-.573a.46.46 0 0 0 .137-.185c.051-.445.062-.894.032-1.34a21.01 21.01 0 0 1 2.365 0c.154 1.436.17 6.74.17 8.184a3.385 3.385 0 0 0-.896.13c.113-.663.282-1.736-.387-1.881a.952.952 0 0 0-1.001.314 3.761 3.761 0 0 0-.598 1.8c-.37.002-.738-.02-1.105-.064a.322.322 0 0 0-.17-.202 19.815 19.815 0 0 0-10.412-1.727v-.025Zm15.174 4.464c-.314.186-.516.056-1.081.129a.33.33 0 0 0 0 .662c.268.027.538.027.807 0 .064 0 .299.048.299.113 0 .734-1.445.452-2.083.08a7.54 7.54 0 0 0-2.349.227l-.161-3.326c.439.118.897.148 1.348.089a.274.274 0 0 0 .129-.162c.186-.677.339-1.928 1.05-1.75.04.507-.011 1.019-.154 1.508-.08.5.113.614.492.581a3.11 3.11 0 0 1 1.074-.266c.21 0 .42 0 .484.242.065.242-.145.331-.347.404-.202.072-.993.185-1.074.202a.347.347 0 0 0 .113.678c.977-.105.808-.154 1.098-.09a.565.565 0 0 1 .436.566.146.146 0 0 1-.08.137v-.024Zm-4.447 1.541a16.831 16.831 0 0 1 2.147-.145 3.36 3.36 0 0 0 1.679.517c0 1.445 0 4.036-.097 4.794-1.76.186-12.018 1.187-13.778 1.025a8.502 8.502 0 0 1-.186-1.259c4.456-.92 10.009-4.479 10.235-4.907v-.025Zm29.057 98.883c-.92.06-1.844.011-2.752-.145v-.404a.381.381 0 0 0-.13-.25c-.217-.169-.048-.048-5.698.67l-1.848.21c-.178 0-.38.089-.38 0-.436-.113-1.073-.88-.807-1.162a41.197 41.197 0 0 1 4.762-3.301c2.51.298 5.513.508 7.37.565a28.515 28.515 0 0 1-.509 3.842l-.008-.025Zm27.273-4.649c.751 0 1.502-.04 2.22-.081 1.09.67 4.689 2.89 5.577 3.802.146.153 0 .452-.129.622-.516.71-.912.532-1.057.516-1.372-.113-5.917-.751-7.265-.944a.35.35 0 0 0-.265.072.336.336 0 0 0-.09.108.33.33 0 0 0-.04.135v.403c-.905.164-1.827.215-2.744.154a23.978 23.978 0 0 1-.501-4.779c-.016-.234-.258.097 4.302.016l-.008-.024Zm-3.922-81.424c-4.141 0-23.835.492-27.193.872-.08-1.373-1.017-7.014-1.243-8.37a113.932 113.932 0 0 0 11.558-2.616 6.553 6.553 0 0 0-.072 1.663 24.389 24.389 0 0 0 3.228 3.229.427.427 0 0 0 .436.056 13.83 13.83 0 0 0 2.93-3.39 8.408 8.408 0 0 0-.137-1.993c2.244.807 8.329 2.082 11.38 2.034-.145 1.67-.758 7.659-.887 8.515Zm8.555 7.45c2.067-14.23 3.996-18.944 4.036-19.993a14.341 14.341 0 0 0 3.535-2.196c.419-.371.813-.77 1.179-1.194.137-.13-.049-.331-.178-.21-.129.121-.444.29-.67.436-2.744 1.84-3.374 2.51-6.594 3.656a6.421 6.421 0 0 0 1.558-2.478c1.412-4.77-.533-9.685-3.624-13.552a60.223 60.223 0 0 1 11.695-5.585 33.144 33.144 0 0 1 4.94-1.243c.06.353.172.696.331 1.017 1.291 7.934-1.26 31.027-2.777 38.694-.88 4.456-2.559 10.953-4.488 15.11a5.975 5.975 0 0 1-.46.888c-1.017.339-8.152-.258-9.258-.363-.823-1.494.541-11.26.791-12.987h-.016Zm34.142 74.257h-6.126c0-.242-4.552-32.439-4.681-32.883.516-3.318 4.035-21.115 3.914-25.562a.138.138 0 0 0-.137-.138.138.138 0 0 0-.137.138c0 .468-.145 1.372-.339 2.574-2.995 18.694-5.295 29.461-10.445 55.322l-6.231-.065c-4.084-25.828-6.085-38.355-6.19-59.583.855.049 4.407.275 5.093-.073.242-.121.492-.661.645-.976a59.136 59.136 0 0 0 2.987-8.54c5.529.307 19.734.969 22.18 1.098 1.041 4.907 1.114 5.19 1.404 5.295.923.235 1.867.384 2.817.444.065 16.361-.791 47.024-4.738 62.908l-.016.041Zm30.672-123.202c-1.114 2.607-3.487 15.65-14.351 23.27-2.123 1.485-5.989 2.017-8.572 2.09a19.101 19.101 0 0 0-.727-3.745c-.161-.5-.403-1.09-.548-1.445a.148.148 0 0 0-.167-.074.147.147 0 0 0-.08.054.152.152 0 0 0-.028.093c.444 3.535.517 2.284 1.001 5.48 0 0 1.332 9.016 1.38 9.46.622 5.65 1.017 22.229.388 24.529a33.096 33.096 0 0 1-6.651-.517c-.864-2.881-9.315-44.74-9.5-51.81 2.139.388 10.388 3.358 17.297 3.576 6.166.185 15.44-12.915 15.521-12.915.638-.112 4.157 1.38 5.045 1.913l-.008.04Zm2.704-5.884c-.065 1.04-1.276 1.743-2.172 2.292-.314.202-1.025 2.599-1.114 2.938a31.526 31.526 0 0 0-3.43-1.364c.807-1.227 1.509-1.873 1.203-2.163-.557-.509-1.615-1.195-1.066-1.768.068.015.133.04.194.073.767.363 1.38 1.348 1.711.742.148-.711.35-1.41.606-2.09.427-.993.694-.807.589.161a8.991 8.991 0 0 1-.493 1.937.35.35 0 0 0 .226.436.348.348 0 0 0 .436-.226 7.87 7.87 0 0 1 .896-2.026c.396-.58.872-.726.856-.33a5.082 5.082 0 0 1-.807 1.977 1.021 1.021 0 0 0-.186.492.33.33 0 0 0 .429.371.33.33 0 0 0 .176-.137c.243-.339.513-.657.807-.952.477-.468 1.171-.791 1.147-.404l-.008.04Z" fill="#2A344A"/><path d="M92.07 65.907c.332.751 2.14.283 1.785-.096a.137.137 0 0 0-.194 0 .542.542 0 0 1-.33 0 2.364 2.364 0 0 1-.639-.186V62.59a.145.145 0 0 0-.23-.08.145.145 0 0 0-.052.08 7.482 7.482 0 0 0-.363 2.736c-.02.194-.012.39.024.581Zm-2.34-2.001c0-.218 0-.452-.048-.654a.355.355 0 0 0-.396-.29.347.347 0 0 0-.29.403c0 .145 0 .315.04.589a.348.348 0 0 0 .694-.048Zm5.448-.057a.347.347 0 0 0 .695 0v-.363a.355.355 0 0 0-.46-.517c-.315.202-.235.606-.235.88Zm-1.63 4.988c-.29.162-.596.294-.912.396-.178 0-.218.25 0 .274.205.103.433.153.662.145a1.557 1.557 0 0 0 1.146-.734c.1-.214.141-.45.121-.686a.14.14 0 0 0-.274-.057c-.22.25-.47.472-.743.662Zm45.055.55c.613.193 1.614.322 2.042-.162.427-.485.193-1.744.145-2.276a12.995 12.995 0 0 0-.678-3.068.141.141 0 0 0-.166-.109.139.139 0 0 0-.088.06.14.14 0 0 0-.021.106c0 .25.113 1.485.138 1.8.154 1.028.208 2.069.161 3.107a1.37 1.37 0 0 1-.605.226c-.807.138-.993-.056-1.033.154a.13.13 0 0 0 .105.161Zm-1.365-5.32c0-.258-.742-.387-1.226-.282-.485.105-1.146.613-.961.807.186.193 2.155-.29 2.187-.525Zm-.532 1.93v.693a.347.347 0 1 0 .694 0v-.67a.357.357 0 0 0-.339-.363.355.355 0 0 0-.355.34Zm6.885-1.599c.064-.097-.194-.613-.807-.807-.614-.194-1.082.113-1.082.258 0 .145 1.768.727 1.889.549Zm-7.232 6.715c-.186.057-.186 1.22.92 1.55.565.162 1.332.073 1.348-.13.016-.2-1.098-.443-1.461-.693-.363-.25-.654-.775-.807-.727Zm6.126-5.593a.349.349 0 0 0-.326.207.353.353 0 0 0-.029.132v.686a.357.357 0 0 0 .351.302.353.353 0 0 0 .351-.302v-.67a.348.348 0 0 0-.347-.355Z" fill="#2A344A"/><path d="M30 40c0 8.284-6.716 15-15 15-8.284 0-15-6.716-15-15 0-8.284 6.716-15 15-15 8.284 0 15 6.716 15 15Z" fill="#4E6AF3"/><path d="M8 39.042a4 4 0 0 1 1.494-3.118l3-2.41a4 4 0 0 1 5.012 0l3 2.41A4 4 0 0 1 22 39.042v3.626a3.832 3.832 0 0 1-3.832 3.832.958.958 0 0 1-.957-.958V44a2 2 0 0 0-2-2h-.421a2 2 0 0 0-2 2v1.542a.958.958 0 0 1-.958.958A3.832 3.832 0 0 1 8 42.668v-3.626Z" fill="#fff"/><path d="M189 39.523c0 6.93-5.617 12.547-12.547 12.547-6.929 0-12.547-5.617-12.547-12.547 0-6.929 5.618-12.546 12.547-12.546 6.93 0 12.547 5.617 12.547 12.546Z" fill="#4E6AF3"/><path d="M170.679 38.896c0-1.212.549-2.359 1.494-3.118l1.767-1.42a4 4 0 0 1 5.011 0l1.766 1.42a4 4 0 0 1 1.495 3.118v2.65a3.156 3.156 0 0 1-3.157 3.156.79.79 0 0 1-.789-.79v-1.096a1.82 1.82 0 1 0-3.642 0v1.097c0 .436-.353.789-.789.789a3.156 3.156 0 0 1-3.156-3.157v-2.649Z" fill="#fff"/><path d="M136 13.43c0 7.417-6.013 13.43-13.43 13.43s-13.429-6.013-13.429-13.43S115.153 0 122.57 0C129.987 0 136 6.013 136 13.43Z" fill="#4E6AF3"/><path d="M116.388 12.694a4 4 0 0 1 1.495-3.118l2.172-1.746a4 4 0 0 1 5.011 0l2.173 1.746a4.002 4.002 0 0 1 1.494 3.118v2.97a3.379 3.379 0 0 1-3.379 3.379.844.844 0 0 1-.844-.845v-1.174a1.95 1.95 0 0 0-3.898 0v1.174a.845.845 0 0 1-.845.845 3.379 3.379 0 0 1-3.379-3.378v-2.971Z" fill="#fff"/><path d="M75.06 22.874a6.502 6.502 0 1 1-13.004 0 6.502 6.502 0 0 1 13.004 0Z" fill="#4E6AF3"/><path d="M65.59 22.803c0-.813.37-1.583 1.004-2.092l.709-.57a2 2 0 0 1 2.505 0l.71.57a2.684 2.684 0 0 1 1.002 2.092v1.061c0 .896-.727 1.623-1.623 1.623a.406.406 0 0 1-.405-.406v-.564a.936.936 0 1 0-1.873 0v.564a.406.406 0 0 1-.405.406 1.623 1.623 0 0 1-1.623-1.623v-1.061Z" fill="#fff"/><path d="M20.355 7.285a6.502 6.502 0 1 1-13.003 0 6.502 6.502 0 0 1 13.003 0Z" fill="#4E6AF3"/><path d="M10.886 7.304c0-.813.369-1.583 1.003-2.092l.709-.57a2 2 0 0 1 2.505 0l.71.57a2.684 2.684 0 0 1 1.002 2.092v1.061c0 .896-.726 1.623-1.623 1.623a.406.406 0 0 1-.405-.406v-.564a.936.936 0 1 0-1.873 0v.564a.406.406 0 0 1-.405.406 1.623 1.623 0 0 1-1.623-1.623V7.304Z" fill="#fff"/><path d="M191.649 13.906a6.502 6.502 0 1 1-13.004 0 6.502 6.502 0 0 1 13.004 0Z" fill="#4E6AF3"/><path d="M182.18 13.803c0-.813.368-1.582 1.002-2.092l.709-.57a2 2 0 0 1 2.506 0l.709.57a2.684 2.684 0 0 1 1.003 2.092v1.062c0 .896-.727 1.622-1.623 1.622a.406.406 0 0 1-.406-.405v-.564a.936.936 0 1 0-1.872 0v.564a.406.406 0 0 1-.406.405 1.622 1.622 0 0 1-1.622-1.622v-1.062Z" fill="#fff"/></svg>